M48
INCH,TZ
T1C0.0100
T2C0.0160
T3C0.0300
T4C0.0315
T5C0.0354
T6C0.0394
T7C0.0400
T8C0.0472
%
G90
G05
T1
X19032Y-24324
X19200Y-24100
X19491Y-24034
X20598Y-25004
X21050Y-25000
X21284Y-24034
X21500Y-25100
X22144Y-30832
X23051Y-23548
X24100Y-23650
X24143Y-22881
T2
X15500Y-23200
X15500Y-24800
X15800Y-17000
X16600Y-27800
X17000Y-19800
X17600Y-26900
X18050Y-22050
X18200Y-26800
X18300Y-23650
X18500Y-24050
X18700Y-24450
X19000Y-28700
X19100Y-30100
X19150Y-24750
X19400Y-19900
X19500Y-26400
X19500Y-27100
X19900Y-30200
X19950Y-25400
X20200Y-28400
X20400Y-27300
X20400Y-29200
X20992Y-21950
X21000Y-29800
X21200Y-18700
X21400Y-29400
X21500Y-25500
X21650Y-23350
X21700Y-27300
X21700Y-29800
X21750Y-22100
X22100Y-29400
X22121Y-20913
X22200Y-22000
X22358Y-22928
X22650Y-23500
X22800Y-27800
X22845Y-25055
X23180Y-22970
X23256Y-28240
X23300Y-22050
X23552Y-22673
X23600Y-20500
X23650Y-20950
X24100Y-22000
X24500Y-30800
X24540Y-27100
X24927Y-30153
X25268Y-23368
X25300Y-19440
X25392Y-21092
X25500Y-26800
X25600Y-30200
X26000Y-26800
X26208Y-22400
X26360Y-28600
X26400Y-18900
X26500Y-26800
X27100Y-26800
X27200Y-26300
X27400Y-19400
X27650Y-20445
X28546Y-29041
X28700Y-22800
X28700Y-24000
X28950Y-29350
X28980Y-20300
X29000Y-22500
X29400Y-22300
X29800Y-24000
X30040Y-21960
X30605Y-20436
X30800Y-27400
X31020Y-24700
X31200Y-21400
X31800Y-20600
X32000Y-21620
X32289Y-27911
X32400Y-23300
X32400Y-24600
X32700Y-22920
X33000Y-20200
X33000Y-22600
X33400Y-22400
X33600Y-19000
X33800Y-20660
X33800Y-22700
X34361Y-20361
X34800Y-20600
X35300Y-19100
X36000Y-20400
X36000Y-22982
X36200Y-21200
X36600Y-22600
X38200Y-20230
X38500Y-18000
X38600Y-21800
X39400Y-18200
X39400Y-20400
T3
X15500Y-21600
T4
X33216Y-23836
X33216Y-25135
X34000Y-28654
X34000Y-30623
X34200Y-23836
X34200Y-25135
X35184Y-23836
X35184Y-25135
T5
X25896Y-25597
X26396Y-24597
X26896Y-25597
X27396Y-24597
X27896Y-25597
X28396Y-24597
X28896Y-25597
X29396Y-24597
T6
X13048Y-16748
X13048Y-18748
X14048Y-16748
X14048Y-18748
X17048Y-16748
X17048Y-18748
X17200Y-28200
X17200Y-29200
X17200Y-30200
X18200Y-28200
X18200Y-29200
X18200Y-30200
X18848Y-16748
X18848Y-18748
X19848Y-16748
X19848Y-18748
X22848Y-16748
X22848Y-18748
X24648Y-16748
X24648Y-18748
X25648Y-16748
X25648Y-18748
X28648Y-16748
X28648Y-18748
X30448Y-16748
X30448Y-18748
X31448Y-16748
X31448Y-18748
X34448Y-16748
X34448Y-18748
X36248Y-16748
X36248Y-18748
X37248Y-16748
X37248Y-18748
X40248Y-16748
X40248Y-18748
T7
X15400Y-26600
X21931Y-19125
X24300Y-24200
X28400Y-29800
X29565Y-19109
X36000Y-24000
X36800Y-26400
X38421Y-25400
X39505Y-21204
X40600Y-26600
T8
X13629Y-14601
X13947Y-20957
X13947Y-22457
X13947Y-23957
X13947Y-25457
X13947Y-28318
X13947Y-29696
X15007Y-14601
X16385Y-14601
X19424Y-14601
X20802Y-14601
X22180Y-14601
X25220Y-14601
X26598Y-14601
X27976Y-14601
X31016Y-14601
X32393Y-14601
X33771Y-14601
X36811Y-14601
X37022Y-29400
X38189Y-14601
X38400Y-29400
X39567Y-14601
X39778Y-29400
M30
