%TF.GenerationSoftware,KiCad,Pcbnew,7.0.11+dfsg-1build4*%
%TF.CreationDate,2025-07-11T21:35:20+02:00*%
%TF.ProjectId,ParaPRZEKAZNIK,50617261-5052-45a4-954b-415a4e494b2e,rev?*%
%TF.SameCoordinates,Original*%
%TF.FileFunction,Legend,Bot*%
%TF.FilePolarity,Positive*%
%FSLAX46Y46*%
G04 Gerber Fmt 4.6, Leading zero omitted, Abs format (unit mm)*
G04 Created by KiCad (PCBNEW 7.0.11+dfsg-1build4) date 2025-07-11 21:35:20*
%MOMM*%
%LPD*%
G01*
G04 APERTURE LIST*
%ADD10C,0.150000*%
%ADD11C,0.120000*%
%ADD12C,3.650000*%
G04 APERTURE END LIST*
D10*
X75704458Y-54024819D02*
X75085411Y-54024819D01*
X75085411Y-54024819D02*
X75418744Y-54405771D01*
X75418744Y-54405771D02*
X75275887Y-54405771D01*
X75275887Y-54405771D02*
X75180649Y-54453390D01*
X75180649Y-54453390D02*
X75133030Y-54501009D01*
X75133030Y-54501009D02*
X75085411Y-54596247D01*
X75085411Y-54596247D02*
X75085411Y-54834342D01*
X75085411Y-54834342D02*
X75133030Y-54929580D01*
X75133030Y-54929580D02*
X75180649Y-54977200D01*
X75180649Y-54977200D02*
X75275887Y-55024819D01*
X75275887Y-55024819D02*
X75561601Y-55024819D01*
X75561601Y-55024819D02*
X75656839Y-54977200D01*
X75656839Y-54977200D02*
X75704458Y-54929580D01*
X74656839Y-54643866D02*
X73894935Y-54643866D01*
X72085411Y-55024819D02*
X72418744Y-54548628D01*
X72656839Y-55024819D02*
X72656839Y-54024819D01*
X72656839Y-54024819D02*
X72275887Y-54024819D01*
X72275887Y-54024819D02*
X72180649Y-54072438D01*
X72180649Y-54072438D02*
X72133030Y-54120057D01*
X72133030Y-54120057D02*
X72085411Y-54215295D01*
X72085411Y-54215295D02*
X72085411Y-54358152D01*
X72085411Y-54358152D02*
X72133030Y-54453390D01*
X72133030Y-54453390D02*
X72180649Y-54501009D01*
X72180649Y-54501009D02*
X72275887Y-54548628D01*
X72275887Y-54548628D02*
X72656839Y-54548628D01*
X71704458Y-54977200D02*
X71561601Y-55024819D01*
X71561601Y-55024819D02*
X71323506Y-55024819D01*
X71323506Y-55024819D02*
X71228268Y-54977200D01*
X71228268Y-54977200D02*
X71180649Y-54929580D01*
X71180649Y-54929580D02*
X71133030Y-54834342D01*
X71133030Y-54834342D02*
X71133030Y-54739104D01*
X71133030Y-54739104D02*
X71180649Y-54643866D01*
X71180649Y-54643866D02*
X71228268Y-54596247D01*
X71228268Y-54596247D02*
X71323506Y-54548628D01*
X71323506Y-54548628D02*
X71513982Y-54501009D01*
X71513982Y-54501009D02*
X71609220Y-54453390D01*
X71609220Y-54453390D02*
X71656839Y-54405771D01*
X71656839Y-54405771D02*
X71704458Y-54310533D01*
X71704458Y-54310533D02*
X71704458Y-54215295D01*
X71704458Y-54215295D02*
X71656839Y-54120057D01*
X71656839Y-54120057D02*
X71609220Y-54072438D01*
X71609220Y-54072438D02*
X71513982Y-54024819D01*
X71513982Y-54024819D02*
X71275887Y-54024819D01*
X71275887Y-54024819D02*
X71133030Y-54072438D01*
X70752077Y-54120057D02*
X70704458Y-54072438D01*
X70704458Y-54072438D02*
X70609220Y-54024819D01*
X70609220Y-54024819D02*
X70371125Y-54024819D01*
X70371125Y-54024819D02*
X70275887Y-54072438D01*
X70275887Y-54072438D02*
X70228268Y-54120057D01*
X70228268Y-54120057D02*
X70180649Y-54215295D01*
X70180649Y-54215295D02*
X70180649Y-54310533D01*
X70180649Y-54310533D02*
X70228268Y-54453390D01*
X70228268Y-54453390D02*
X70799696Y-55024819D01*
X70799696Y-55024819D02*
X70180649Y-55024819D01*
X69847315Y-54024819D02*
X69228268Y-54024819D01*
X69228268Y-54024819D02*
X69561601Y-54405771D01*
X69561601Y-54405771D02*
X69418744Y-54405771D01*
X69418744Y-54405771D02*
X69323506Y-54453390D01*
X69323506Y-54453390D02*
X69275887Y-54501009D01*
X69275887Y-54501009D02*
X69228268Y-54596247D01*
X69228268Y-54596247D02*
X69228268Y-54834342D01*
X69228268Y-54834342D02*
X69275887Y-54929580D01*
X69275887Y-54929580D02*
X69323506Y-54977200D01*
X69323506Y-54977200D02*
X69418744Y-55024819D01*
X69418744Y-55024819D02*
X69704458Y-55024819D01*
X69704458Y-55024819D02*
X69799696Y-54977200D01*
X69799696Y-54977200D02*
X69847315Y-54929580D01*
X68847315Y-54120057D02*
X68799696Y-54072438D01*
X68799696Y-54072438D02*
X68704458Y-54024819D01*
X68704458Y-54024819D02*
X68466363Y-54024819D01*
X68466363Y-54024819D02*
X68371125Y-54072438D01*
X68371125Y-54072438D02*
X68323506Y-54120057D01*
X68323506Y-54120057D02*
X68275887Y-54215295D01*
X68275887Y-54215295D02*
X68275887Y-54310533D01*
X68275887Y-54310533D02*
X68323506Y-54453390D01*
X68323506Y-54453390D02*
X68894934Y-55024819D01*
X68894934Y-55024819D02*
X68275887Y-55024819D01*
X67228267Y-54024819D02*
X66656839Y-54024819D01*
X66942553Y-55024819D02*
X66942553Y-54024819D01*
X66418743Y-54024819D02*
X65752077Y-55024819D01*
X65752077Y-54024819D02*
X66418743Y-55024819D01*
X75180649Y-55968152D02*
X75180649Y-56634819D01*
X75418744Y-55587200D02*
X75656839Y-56301485D01*
X75656839Y-56301485D02*
X75037792Y-56301485D01*
X74609220Y-56587200D02*
X74609220Y-56634819D01*
X74609220Y-56634819D02*
X74656839Y-56730057D01*
X74656839Y-56730057D02*
X74704458Y-56777676D01*
X73704459Y-55634819D02*
X74180649Y-55634819D01*
X74180649Y-55634819D02*
X74228268Y-56111009D01*
X74228268Y-56111009D02*
X74180649Y-56063390D01*
X74180649Y-56063390D02*
X74085411Y-56015771D01*
X74085411Y-56015771D02*
X73847316Y-56015771D01*
X73847316Y-56015771D02*
X73752078Y-56063390D01*
X73752078Y-56063390D02*
X73704459Y-56111009D01*
X73704459Y-56111009D02*
X73656840Y-56206247D01*
X73656840Y-56206247D02*
X73656840Y-56444342D01*
X73656840Y-56444342D02*
X73704459Y-56539580D01*
X73704459Y-56539580D02*
X73752078Y-56587200D01*
X73752078Y-56587200D02*
X73847316Y-56634819D01*
X73847316Y-56634819D02*
X74085411Y-56634819D01*
X74085411Y-56634819D02*
X74180649Y-56587200D01*
X74180649Y-56587200D02*
X74228268Y-56539580D01*
X73228268Y-56253866D02*
X72466364Y-56253866D01*
X70704459Y-55682438D02*
X70799697Y-55634819D01*
X70799697Y-55634819D02*
X70942554Y-55634819D01*
X70942554Y-55634819D02*
X71085411Y-55682438D01*
X71085411Y-55682438D02*
X71180649Y-55777676D01*
X71180649Y-55777676D02*
X71228268Y-55872914D01*
X71228268Y-55872914D02*
X71275887Y-56063390D01*
X71275887Y-56063390D02*
X71275887Y-56206247D01*
X71275887Y-56206247D02*
X71228268Y-56396723D01*
X71228268Y-56396723D02*
X71180649Y-56491961D01*
X71180649Y-56491961D02*
X71085411Y-56587200D01*
X71085411Y-56587200D02*
X70942554Y-56634819D01*
X70942554Y-56634819D02*
X70847316Y-56634819D01*
X70847316Y-56634819D02*
X70704459Y-56587200D01*
X70704459Y-56587200D02*
X70656840Y-56539580D01*
X70656840Y-56539580D02*
X70656840Y-56206247D01*
X70656840Y-56206247D02*
X70847316Y-56206247D01*
X70228268Y-56634819D02*
X70228268Y-55634819D01*
X70228268Y-55634819D02*
X69656840Y-56634819D01*
X69656840Y-56634819D02*
X69656840Y-55634819D01*
X69180649Y-56634819D02*
X69180649Y-55634819D01*
X69180649Y-55634819D02*
X68942554Y-55634819D01*
X68942554Y-55634819D02*
X68799697Y-55682438D01*
X68799697Y-55682438D02*
X68704459Y-55777676D01*
X68704459Y-55777676D02*
X68656840Y-55872914D01*
X68656840Y-55872914D02*
X68609221Y-56063390D01*
X68609221Y-56063390D02*
X68609221Y-56206247D01*
X68609221Y-56206247D02*
X68656840Y-56396723D01*
X68656840Y-56396723D02*
X68704459Y-56491961D01*
X68704459Y-56491961D02*
X68799697Y-56587200D01*
X68799697Y-56587200D02*
X68942554Y-56634819D01*
X68942554Y-56634819D02*
X69180649Y-56634819D01*
X75180649Y-57244819D02*
X75371125Y-57244819D01*
X75371125Y-57244819D02*
X75466363Y-57292438D01*
X75466363Y-57292438D02*
X75513982Y-57340057D01*
X75513982Y-57340057D02*
X75609220Y-57482914D01*
X75609220Y-57482914D02*
X75656839Y-57673390D01*
X75656839Y-57673390D02*
X75656839Y-58054342D01*
X75656839Y-58054342D02*
X75609220Y-58149580D01*
X75609220Y-58149580D02*
X75561601Y-58197200D01*
X75561601Y-58197200D02*
X75466363Y-58244819D01*
X75466363Y-58244819D02*
X75275887Y-58244819D01*
X75275887Y-58244819D02*
X75180649Y-58197200D01*
X75180649Y-58197200D02*
X75133030Y-58149580D01*
X75133030Y-58149580D02*
X75085411Y-58054342D01*
X75085411Y-58054342D02*
X75085411Y-57816247D01*
X75085411Y-57816247D02*
X75133030Y-57721009D01*
X75133030Y-57721009D02*
X75180649Y-57673390D01*
X75180649Y-57673390D02*
X75275887Y-57625771D01*
X75275887Y-57625771D02*
X75466363Y-57625771D01*
X75466363Y-57625771D02*
X75561601Y-57673390D01*
X75561601Y-57673390D02*
X75609220Y-57721009D01*
X75609220Y-57721009D02*
X75656839Y-57816247D01*
X74656839Y-57863866D02*
X73894935Y-57863866D01*
X72085411Y-58244819D02*
X72418744Y-57768628D01*
X72656839Y-58244819D02*
X72656839Y-57244819D01*
X72656839Y-57244819D02*
X72275887Y-57244819D01*
X72275887Y-57244819D02*
X72180649Y-57292438D01*
X72180649Y-57292438D02*
X72133030Y-57340057D01*
X72133030Y-57340057D02*
X72085411Y-57435295D01*
X72085411Y-57435295D02*
X72085411Y-57578152D01*
X72085411Y-57578152D02*
X72133030Y-57673390D01*
X72133030Y-57673390D02*
X72180649Y-57721009D01*
X72180649Y-57721009D02*
X72275887Y-57768628D01*
X72275887Y-57768628D02*
X72656839Y-57768628D01*
X71704458Y-58197200D02*
X71561601Y-58244819D01*
X71561601Y-58244819D02*
X71323506Y-58244819D01*
X71323506Y-58244819D02*
X71228268Y-58197200D01*
X71228268Y-58197200D02*
X71180649Y-58149580D01*
X71180649Y-58149580D02*
X71133030Y-58054342D01*
X71133030Y-58054342D02*
X71133030Y-57959104D01*
X71133030Y-57959104D02*
X71180649Y-57863866D01*
X71180649Y-57863866D02*
X71228268Y-57816247D01*
X71228268Y-57816247D02*
X71323506Y-57768628D01*
X71323506Y-57768628D02*
X71513982Y-57721009D01*
X71513982Y-57721009D02*
X71609220Y-57673390D01*
X71609220Y-57673390D02*
X71656839Y-57625771D01*
X71656839Y-57625771D02*
X71704458Y-57530533D01*
X71704458Y-57530533D02*
X71704458Y-57435295D01*
X71704458Y-57435295D02*
X71656839Y-57340057D01*
X71656839Y-57340057D02*
X71609220Y-57292438D01*
X71609220Y-57292438D02*
X71513982Y-57244819D01*
X71513982Y-57244819D02*
X71275887Y-57244819D01*
X71275887Y-57244819D02*
X71133030Y-57292438D01*
X70752077Y-57340057D02*
X70704458Y-57292438D01*
X70704458Y-57292438D02*
X70609220Y-57244819D01*
X70609220Y-57244819D02*
X70371125Y-57244819D01*
X70371125Y-57244819D02*
X70275887Y-57292438D01*
X70275887Y-57292438D02*
X70228268Y-57340057D01*
X70228268Y-57340057D02*
X70180649Y-57435295D01*
X70180649Y-57435295D02*
X70180649Y-57530533D01*
X70180649Y-57530533D02*
X70228268Y-57673390D01*
X70228268Y-57673390D02*
X70799696Y-58244819D01*
X70799696Y-58244819D02*
X70180649Y-58244819D01*
X69847315Y-57244819D02*
X69228268Y-57244819D01*
X69228268Y-57244819D02*
X69561601Y-57625771D01*
X69561601Y-57625771D02*
X69418744Y-57625771D01*
X69418744Y-57625771D02*
X69323506Y-57673390D01*
X69323506Y-57673390D02*
X69275887Y-57721009D01*
X69275887Y-57721009D02*
X69228268Y-57816247D01*
X69228268Y-57816247D02*
X69228268Y-58054342D01*
X69228268Y-58054342D02*
X69275887Y-58149580D01*
X69275887Y-58149580D02*
X69323506Y-58197200D01*
X69323506Y-58197200D02*
X69418744Y-58244819D01*
X69418744Y-58244819D02*
X69704458Y-58244819D01*
X69704458Y-58244819D02*
X69799696Y-58197200D01*
X69799696Y-58197200D02*
X69847315Y-58149580D01*
X68847315Y-57340057D02*
X68799696Y-57292438D01*
X68799696Y-57292438D02*
X68704458Y-57244819D01*
X68704458Y-57244819D02*
X68466363Y-57244819D01*
X68466363Y-57244819D02*
X68371125Y-57292438D01*
X68371125Y-57292438D02*
X68323506Y-57340057D01*
X68323506Y-57340057D02*
X68275887Y-57435295D01*
X68275887Y-57435295D02*
X68275887Y-57530533D01*
X68275887Y-57530533D02*
X68323506Y-57673390D01*
X68323506Y-57673390D02*
X68894934Y-58244819D01*
X68894934Y-58244819D02*
X68275887Y-58244819D01*
X66513982Y-58244819D02*
X66847315Y-57768628D01*
X67085410Y-58244819D02*
X67085410Y-57244819D01*
X67085410Y-57244819D02*
X66704458Y-57244819D01*
X66704458Y-57244819D02*
X66609220Y-57292438D01*
X66609220Y-57292438D02*
X66561601Y-57340057D01*
X66561601Y-57340057D02*
X66513982Y-57435295D01*
X66513982Y-57435295D02*
X66513982Y-57578152D01*
X66513982Y-57578152D02*
X66561601Y-57673390D01*
X66561601Y-57673390D02*
X66609220Y-57721009D01*
X66609220Y-57721009D02*
X66704458Y-57768628D01*
X66704458Y-57768628D02*
X67085410Y-57768628D01*
X66180648Y-57244819D02*
X65513982Y-58244819D01*
X65513982Y-57244819D02*
X66180648Y-58244819D01*
X75704458Y-58854819D02*
X75037792Y-58854819D01*
X75037792Y-58854819D02*
X75466363Y-59854819D01*
X74656839Y-59473866D02*
X73894935Y-59473866D01*
X72085411Y-59854819D02*
X72418744Y-59378628D01*
X72656839Y-59854819D02*
X72656839Y-58854819D01*
X72656839Y-58854819D02*
X72275887Y-58854819D01*
X72275887Y-58854819D02*
X72180649Y-58902438D01*
X72180649Y-58902438D02*
X72133030Y-58950057D01*
X72133030Y-58950057D02*
X72085411Y-59045295D01*
X72085411Y-59045295D02*
X72085411Y-59188152D01*
X72085411Y-59188152D02*
X72133030Y-59283390D01*
X72133030Y-59283390D02*
X72180649Y-59331009D01*
X72180649Y-59331009D02*
X72275887Y-59378628D01*
X72275887Y-59378628D02*
X72656839Y-59378628D01*
X71704458Y-59807200D02*
X71561601Y-59854819D01*
X71561601Y-59854819D02*
X71323506Y-59854819D01*
X71323506Y-59854819D02*
X71228268Y-59807200D01*
X71228268Y-59807200D02*
X71180649Y-59759580D01*
X71180649Y-59759580D02*
X71133030Y-59664342D01*
X71133030Y-59664342D02*
X71133030Y-59569104D01*
X71133030Y-59569104D02*
X71180649Y-59473866D01*
X71180649Y-59473866D02*
X71228268Y-59426247D01*
X71228268Y-59426247D02*
X71323506Y-59378628D01*
X71323506Y-59378628D02*
X71513982Y-59331009D01*
X71513982Y-59331009D02*
X71609220Y-59283390D01*
X71609220Y-59283390D02*
X71656839Y-59235771D01*
X71656839Y-59235771D02*
X71704458Y-59140533D01*
X71704458Y-59140533D02*
X71704458Y-59045295D01*
X71704458Y-59045295D02*
X71656839Y-58950057D01*
X71656839Y-58950057D02*
X71609220Y-58902438D01*
X71609220Y-58902438D02*
X71513982Y-58854819D01*
X71513982Y-58854819D02*
X71275887Y-58854819D01*
X71275887Y-58854819D02*
X71133030Y-58902438D01*
X70275887Y-59188152D02*
X70275887Y-59854819D01*
X70513982Y-58807200D02*
X70752077Y-59521485D01*
X70752077Y-59521485D02*
X70133030Y-59521485D01*
X69609220Y-59283390D02*
X69704458Y-59235771D01*
X69704458Y-59235771D02*
X69752077Y-59188152D01*
X69752077Y-59188152D02*
X69799696Y-59092914D01*
X69799696Y-59092914D02*
X69799696Y-59045295D01*
X69799696Y-59045295D02*
X69752077Y-58950057D01*
X69752077Y-58950057D02*
X69704458Y-58902438D01*
X69704458Y-58902438D02*
X69609220Y-58854819D01*
X69609220Y-58854819D02*
X69418744Y-58854819D01*
X69418744Y-58854819D02*
X69323506Y-58902438D01*
X69323506Y-58902438D02*
X69275887Y-58950057D01*
X69275887Y-58950057D02*
X69228268Y-59045295D01*
X69228268Y-59045295D02*
X69228268Y-59092914D01*
X69228268Y-59092914D02*
X69275887Y-59188152D01*
X69275887Y-59188152D02*
X69323506Y-59235771D01*
X69323506Y-59235771D02*
X69418744Y-59283390D01*
X69418744Y-59283390D02*
X69609220Y-59283390D01*
X69609220Y-59283390D02*
X69704458Y-59331009D01*
X69704458Y-59331009D02*
X69752077Y-59378628D01*
X69752077Y-59378628D02*
X69799696Y-59473866D01*
X69799696Y-59473866D02*
X69799696Y-59664342D01*
X69799696Y-59664342D02*
X69752077Y-59759580D01*
X69752077Y-59759580D02*
X69704458Y-59807200D01*
X69704458Y-59807200D02*
X69609220Y-59854819D01*
X69609220Y-59854819D02*
X69418744Y-59854819D01*
X69418744Y-59854819D02*
X69323506Y-59807200D01*
X69323506Y-59807200D02*
X69275887Y-59759580D01*
X69275887Y-59759580D02*
X69228268Y-59664342D01*
X69228268Y-59664342D02*
X69228268Y-59473866D01*
X69228268Y-59473866D02*
X69275887Y-59378628D01*
X69275887Y-59378628D02*
X69323506Y-59331009D01*
X69323506Y-59331009D02*
X69418744Y-59283390D01*
X68323506Y-58854819D02*
X68799696Y-58854819D01*
X68799696Y-58854819D02*
X68847315Y-59331009D01*
X68847315Y-59331009D02*
X68799696Y-59283390D01*
X68799696Y-59283390D02*
X68704458Y-59235771D01*
X68704458Y-59235771D02*
X68466363Y-59235771D01*
X68466363Y-59235771D02*
X68371125Y-59283390D01*
X68371125Y-59283390D02*
X68323506Y-59331009D01*
X68323506Y-59331009D02*
X68275887Y-59426247D01*
X68275887Y-59426247D02*
X68275887Y-59664342D01*
X68275887Y-59664342D02*
X68323506Y-59759580D01*
X68323506Y-59759580D02*
X68371125Y-59807200D01*
X68371125Y-59807200D02*
X68466363Y-59854819D01*
X68466363Y-59854819D02*
X68704458Y-59854819D01*
X68704458Y-59854819D02*
X68799696Y-59807200D01*
X68799696Y-59807200D02*
X68847315Y-59759580D01*
X67133029Y-59569104D02*
X66656839Y-59569104D01*
X67228267Y-59854819D02*
X66894934Y-58854819D01*
X66894934Y-58854819D02*
X66561601Y-59854819D01*
X75466363Y-60893390D02*
X75561601Y-60845771D01*
X75561601Y-60845771D02*
X75609220Y-60798152D01*
X75609220Y-60798152D02*
X75656839Y-60702914D01*
X75656839Y-60702914D02*
X75656839Y-60655295D01*
X75656839Y-60655295D02*
X75609220Y-60560057D01*
X75609220Y-60560057D02*
X75561601Y-60512438D01*
X75561601Y-60512438D02*
X75466363Y-60464819D01*
X75466363Y-60464819D02*
X75275887Y-60464819D01*
X75275887Y-60464819D02*
X75180649Y-60512438D01*
X75180649Y-60512438D02*
X75133030Y-60560057D01*
X75133030Y-60560057D02*
X75085411Y-60655295D01*
X75085411Y-60655295D02*
X75085411Y-60702914D01*
X75085411Y-60702914D02*
X75133030Y-60798152D01*
X75133030Y-60798152D02*
X75180649Y-60845771D01*
X75180649Y-60845771D02*
X75275887Y-60893390D01*
X75275887Y-60893390D02*
X75466363Y-60893390D01*
X75466363Y-60893390D02*
X75561601Y-60941009D01*
X75561601Y-60941009D02*
X75609220Y-60988628D01*
X75609220Y-60988628D02*
X75656839Y-61083866D01*
X75656839Y-61083866D02*
X75656839Y-61274342D01*
X75656839Y-61274342D02*
X75609220Y-61369580D01*
X75609220Y-61369580D02*
X75561601Y-61417200D01*
X75561601Y-61417200D02*
X75466363Y-61464819D01*
X75466363Y-61464819D02*
X75275887Y-61464819D01*
X75275887Y-61464819D02*
X75180649Y-61417200D01*
X75180649Y-61417200D02*
X75133030Y-61369580D01*
X75133030Y-61369580D02*
X75085411Y-61274342D01*
X75085411Y-61274342D02*
X75085411Y-61083866D01*
X75085411Y-61083866D02*
X75133030Y-60988628D01*
X75133030Y-60988628D02*
X75180649Y-60941009D01*
X75180649Y-60941009D02*
X75275887Y-60893390D01*
X74656839Y-61083866D02*
X73894935Y-61083866D01*
X72085411Y-61464819D02*
X72418744Y-60988628D01*
X72656839Y-61464819D02*
X72656839Y-60464819D01*
X72656839Y-60464819D02*
X72275887Y-60464819D01*
X72275887Y-60464819D02*
X72180649Y-60512438D01*
X72180649Y-60512438D02*
X72133030Y-60560057D01*
X72133030Y-60560057D02*
X72085411Y-60655295D01*
X72085411Y-60655295D02*
X72085411Y-60798152D01*
X72085411Y-60798152D02*
X72133030Y-60893390D01*
X72133030Y-60893390D02*
X72180649Y-60941009D01*
X72180649Y-60941009D02*
X72275887Y-60988628D01*
X72275887Y-60988628D02*
X72656839Y-60988628D01*
X71704458Y-61417200D02*
X71561601Y-61464819D01*
X71561601Y-61464819D02*
X71323506Y-61464819D01*
X71323506Y-61464819D02*
X71228268Y-61417200D01*
X71228268Y-61417200D02*
X71180649Y-61369580D01*
X71180649Y-61369580D02*
X71133030Y-61274342D01*
X71133030Y-61274342D02*
X71133030Y-61179104D01*
X71133030Y-61179104D02*
X71180649Y-61083866D01*
X71180649Y-61083866D02*
X71228268Y-61036247D01*
X71228268Y-61036247D02*
X71323506Y-60988628D01*
X71323506Y-60988628D02*
X71513982Y-60941009D01*
X71513982Y-60941009D02*
X71609220Y-60893390D01*
X71609220Y-60893390D02*
X71656839Y-60845771D01*
X71656839Y-60845771D02*
X71704458Y-60750533D01*
X71704458Y-60750533D02*
X71704458Y-60655295D01*
X71704458Y-60655295D02*
X71656839Y-60560057D01*
X71656839Y-60560057D02*
X71609220Y-60512438D01*
X71609220Y-60512438D02*
X71513982Y-60464819D01*
X71513982Y-60464819D02*
X71275887Y-60464819D01*
X71275887Y-60464819D02*
X71133030Y-60512438D01*
X70275887Y-60798152D02*
X70275887Y-61464819D01*
X70513982Y-60417200D02*
X70752077Y-61131485D01*
X70752077Y-61131485D02*
X70133030Y-61131485D01*
X69609220Y-60893390D02*
X69704458Y-60845771D01*
X69704458Y-60845771D02*
X69752077Y-60798152D01*
X69752077Y-60798152D02*
X69799696Y-60702914D01*
X69799696Y-60702914D02*
X69799696Y-60655295D01*
X69799696Y-60655295D02*
X69752077Y-60560057D01*
X69752077Y-60560057D02*
X69704458Y-60512438D01*
X69704458Y-60512438D02*
X69609220Y-60464819D01*
X69609220Y-60464819D02*
X69418744Y-60464819D01*
X69418744Y-60464819D02*
X69323506Y-60512438D01*
X69323506Y-60512438D02*
X69275887Y-60560057D01*
X69275887Y-60560057D02*
X69228268Y-60655295D01*
X69228268Y-60655295D02*
X69228268Y-60702914D01*
X69228268Y-60702914D02*
X69275887Y-60798152D01*
X69275887Y-60798152D02*
X69323506Y-60845771D01*
X69323506Y-60845771D02*
X69418744Y-60893390D01*
X69418744Y-60893390D02*
X69609220Y-60893390D01*
X69609220Y-60893390D02*
X69704458Y-60941009D01*
X69704458Y-60941009D02*
X69752077Y-60988628D01*
X69752077Y-60988628D02*
X69799696Y-61083866D01*
X69799696Y-61083866D02*
X69799696Y-61274342D01*
X69799696Y-61274342D02*
X69752077Y-61369580D01*
X69752077Y-61369580D02*
X69704458Y-61417200D01*
X69704458Y-61417200D02*
X69609220Y-61464819D01*
X69609220Y-61464819D02*
X69418744Y-61464819D01*
X69418744Y-61464819D02*
X69323506Y-61417200D01*
X69323506Y-61417200D02*
X69275887Y-61369580D01*
X69275887Y-61369580D02*
X69228268Y-61274342D01*
X69228268Y-61274342D02*
X69228268Y-61083866D01*
X69228268Y-61083866D02*
X69275887Y-60988628D01*
X69275887Y-60988628D02*
X69323506Y-60941009D01*
X69323506Y-60941009D02*
X69418744Y-60893390D01*
X68323506Y-60464819D02*
X68799696Y-60464819D01*
X68799696Y-60464819D02*
X68847315Y-60941009D01*
X68847315Y-60941009D02*
X68799696Y-60893390D01*
X68799696Y-60893390D02*
X68704458Y-60845771D01*
X68704458Y-60845771D02*
X68466363Y-60845771D01*
X68466363Y-60845771D02*
X68371125Y-60893390D01*
X68371125Y-60893390D02*
X68323506Y-60941009D01*
X68323506Y-60941009D02*
X68275887Y-61036247D01*
X68275887Y-61036247D02*
X68275887Y-61274342D01*
X68275887Y-61274342D02*
X68323506Y-61369580D01*
X68323506Y-61369580D02*
X68371125Y-61417200D01*
X68371125Y-61417200D02*
X68466363Y-61464819D01*
X68466363Y-61464819D02*
X68704458Y-61464819D01*
X68704458Y-61464819D02*
X68799696Y-61417200D01*
X68799696Y-61417200D02*
X68847315Y-61369580D01*
X66752077Y-60941009D02*
X66609220Y-60988628D01*
X66609220Y-60988628D02*
X66561601Y-61036247D01*
X66561601Y-61036247D02*
X66513982Y-61131485D01*
X66513982Y-61131485D02*
X66513982Y-61274342D01*
X66513982Y-61274342D02*
X66561601Y-61369580D01*
X66561601Y-61369580D02*
X66609220Y-61417200D01*
X66609220Y-61417200D02*
X66704458Y-61464819D01*
X66704458Y-61464819D02*
X67085410Y-61464819D01*
X67085410Y-61464819D02*
X67085410Y-60464819D01*
X67085410Y-60464819D02*
X66752077Y-60464819D01*
X66752077Y-60464819D02*
X66656839Y-60512438D01*
X66656839Y-60512438D02*
X66609220Y-60560057D01*
X66609220Y-60560057D02*
X66561601Y-60655295D01*
X66561601Y-60655295D02*
X66561601Y-60750533D01*
X66561601Y-60750533D02*
X66609220Y-60845771D01*
X66609220Y-60845771D02*
X66656839Y-60893390D01*
X66656839Y-60893390D02*
X66752077Y-60941009D01*
X66752077Y-60941009D02*
X67085410Y-60941009D01*
X49558411Y-71180438D02*
X49653649Y-71132819D01*
X49653649Y-71132819D02*
X49796506Y-71132819D01*
X49796506Y-71132819D02*
X49939363Y-71180438D01*
X49939363Y-71180438D02*
X50034601Y-71275676D01*
X50034601Y-71275676D02*
X50082220Y-71370914D01*
X50082220Y-71370914D02*
X50129839Y-71561390D01*
X50129839Y-71561390D02*
X50129839Y-71704247D01*
X50129839Y-71704247D02*
X50082220Y-71894723D01*
X50082220Y-71894723D02*
X50034601Y-71989961D01*
X50034601Y-71989961D02*
X49939363Y-72085200D01*
X49939363Y-72085200D02*
X49796506Y-72132819D01*
X49796506Y-72132819D02*
X49701268Y-72132819D01*
X49701268Y-72132819D02*
X49558411Y-72085200D01*
X49558411Y-72085200D02*
X49510792Y-72037580D01*
X49510792Y-72037580D02*
X49510792Y-71704247D01*
X49510792Y-71704247D02*
X49701268Y-71704247D01*
X49082220Y-72132819D02*
X49082220Y-71132819D01*
X49082220Y-71132819D02*
X48510792Y-72132819D01*
X48510792Y-72132819D02*
X48510792Y-71132819D01*
X48034601Y-72132819D02*
X48034601Y-71132819D01*
X48034601Y-71132819D02*
X47796506Y-71132819D01*
X47796506Y-71132819D02*
X47653649Y-71180438D01*
X47653649Y-71180438D02*
X47558411Y-71275676D01*
X47558411Y-71275676D02*
X47510792Y-71370914D01*
X47510792Y-71370914D02*
X47463173Y-71561390D01*
X47463173Y-71561390D02*
X47463173Y-71704247D01*
X47463173Y-71704247D02*
X47510792Y-71894723D01*
X47510792Y-71894723D02*
X47558411Y-71989961D01*
X47558411Y-71989961D02*
X47653649Y-72085200D01*
X47653649Y-72085200D02*
X47796506Y-72132819D01*
X47796506Y-72132819D02*
X48034601Y-72132819D01*
X49796458Y-76974819D02*
X49177411Y-76974819D01*
X49177411Y-76974819D02*
X49510744Y-77355771D01*
X49510744Y-77355771D02*
X49367887Y-77355771D01*
X49367887Y-77355771D02*
X49272649Y-77403390D01*
X49272649Y-77403390D02*
X49225030Y-77451009D01*
X49225030Y-77451009D02*
X49177411Y-77546247D01*
X49177411Y-77546247D02*
X49177411Y-77784342D01*
X49177411Y-77784342D02*
X49225030Y-77879580D01*
X49225030Y-77879580D02*
X49272649Y-77927200D01*
X49272649Y-77927200D02*
X49367887Y-77974819D01*
X49367887Y-77974819D02*
X49653601Y-77974819D01*
X49653601Y-77974819D02*
X49748839Y-77927200D01*
X49748839Y-77927200D02*
X49796458Y-77879580D01*
X48891696Y-76974819D02*
X48558363Y-77974819D01*
X48558363Y-77974819D02*
X48225030Y-76974819D01*
X47986934Y-76974819D02*
X47367887Y-76974819D01*
X47367887Y-76974819D02*
X47701220Y-77355771D01*
X47701220Y-77355771D02*
X47558363Y-77355771D01*
X47558363Y-77355771D02*
X47463125Y-77403390D01*
X47463125Y-77403390D02*
X47415506Y-77451009D01*
X47415506Y-77451009D02*
X47367887Y-77546247D01*
X47367887Y-77546247D02*
X47367887Y-77784342D01*
X47367887Y-77784342D02*
X47415506Y-77879580D01*
X47415506Y-77879580D02*
X47463125Y-77927200D01*
X47463125Y-77927200D02*
X47558363Y-77974819D01*
X47558363Y-77974819D02*
X47844077Y-77974819D01*
X47844077Y-77974819D02*
X47939315Y-77927200D01*
X47939315Y-77927200D02*
X47986934Y-77879580D01*
X42382839Y-77165200D02*
X42239982Y-77212819D01*
X42239982Y-77212819D02*
X42001887Y-77212819D01*
X42001887Y-77212819D02*
X41906649Y-77165200D01*
X41906649Y-77165200D02*
X41859030Y-77117580D01*
X41859030Y-77117580D02*
X41811411Y-77022342D01*
X41811411Y-77022342D02*
X41811411Y-76927104D01*
X41811411Y-76927104D02*
X41859030Y-76831866D01*
X41859030Y-76831866D02*
X41906649Y-76784247D01*
X41906649Y-76784247D02*
X42001887Y-76736628D01*
X42001887Y-76736628D02*
X42192363Y-76689009D01*
X42192363Y-76689009D02*
X42287601Y-76641390D01*
X42287601Y-76641390D02*
X42335220Y-76593771D01*
X42335220Y-76593771D02*
X42382839Y-76498533D01*
X42382839Y-76498533D02*
X42382839Y-76403295D01*
X42382839Y-76403295D02*
X42335220Y-76308057D01*
X42335220Y-76308057D02*
X42287601Y-76260438D01*
X42287601Y-76260438D02*
X42192363Y-76212819D01*
X42192363Y-76212819D02*
X41954268Y-76212819D01*
X41954268Y-76212819D02*
X41811411Y-76260438D01*
X41478077Y-76212819D02*
X41239982Y-77212819D01*
X41239982Y-77212819D02*
X41049506Y-76498533D01*
X41049506Y-76498533D02*
X40859030Y-77212819D01*
X40859030Y-77212819D02*
X40620935Y-76212819D01*
X39668554Y-77117580D02*
X39716173Y-77165200D01*
X39716173Y-77165200D02*
X39859030Y-77212819D01*
X39859030Y-77212819D02*
X39954268Y-77212819D01*
X39954268Y-77212819D02*
X40097125Y-77165200D01*
X40097125Y-77165200D02*
X40192363Y-77069961D01*
X40192363Y-77069961D02*
X40239982Y-76974723D01*
X40239982Y-76974723D02*
X40287601Y-76784247D01*
X40287601Y-76784247D02*
X40287601Y-76641390D01*
X40287601Y-76641390D02*
X40239982Y-76450914D01*
X40239982Y-76450914D02*
X40192363Y-76355676D01*
X40192363Y-76355676D02*
X40097125Y-76260438D01*
X40097125Y-76260438D02*
X39954268Y-76212819D01*
X39954268Y-76212819D02*
X39859030Y-76212819D01*
X39859030Y-76212819D02*
X39716173Y-76260438D01*
X39716173Y-76260438D02*
X39668554Y-76308057D01*
X38763792Y-77212819D02*
X39239982Y-77212819D01*
X39239982Y-77212819D02*
X39239982Y-76212819D01*
X38430458Y-77212819D02*
X38430458Y-76212819D01*
X37859030Y-77212819D02*
X38287601Y-76641390D01*
X37859030Y-76212819D02*
X38430458Y-76784247D01*
X50637887Y-74149009D02*
X50495030Y-74196628D01*
X50495030Y-74196628D02*
X50447411Y-74244247D01*
X50447411Y-74244247D02*
X50399792Y-74339485D01*
X50399792Y-74339485D02*
X50399792Y-74482342D01*
X50399792Y-74482342D02*
X50447411Y-74577580D01*
X50447411Y-74577580D02*
X50495030Y-74625200D01*
X50495030Y-74625200D02*
X50590268Y-74672819D01*
X50590268Y-74672819D02*
X50971220Y-74672819D01*
X50971220Y-74672819D02*
X50971220Y-73672819D01*
X50971220Y-73672819D02*
X50637887Y-73672819D01*
X50637887Y-73672819D02*
X50542649Y-73720438D01*
X50542649Y-73720438D02*
X50495030Y-73768057D01*
X50495030Y-73768057D02*
X50447411Y-73863295D01*
X50447411Y-73863295D02*
X50447411Y-73958533D01*
X50447411Y-73958533D02*
X50495030Y-74053771D01*
X50495030Y-74053771D02*
X50542649Y-74101390D01*
X50542649Y-74101390D02*
X50637887Y-74149009D01*
X50637887Y-74149009D02*
X50971220Y-74149009D01*
X49780744Y-73672819D02*
X49590268Y-73672819D01*
X49590268Y-73672819D02*
X49495030Y-73720438D01*
X49495030Y-73720438D02*
X49399792Y-73815676D01*
X49399792Y-73815676D02*
X49352173Y-74006152D01*
X49352173Y-74006152D02*
X49352173Y-74339485D01*
X49352173Y-74339485D02*
X49399792Y-74529961D01*
X49399792Y-74529961D02*
X49495030Y-74625200D01*
X49495030Y-74625200D02*
X49590268Y-74672819D01*
X49590268Y-74672819D02*
X49780744Y-74672819D01*
X49780744Y-74672819D02*
X49875982Y-74625200D01*
X49875982Y-74625200D02*
X49971220Y-74529961D01*
X49971220Y-74529961D02*
X50018839Y-74339485D01*
X50018839Y-74339485D02*
X50018839Y-74006152D01*
X50018839Y-74006152D02*
X49971220Y-73815676D01*
X49971220Y-73815676D02*
X49875982Y-73720438D01*
X49875982Y-73720438D02*
X49780744Y-73672819D01*
X48733125Y-73672819D02*
X48542649Y-73672819D01*
X48542649Y-73672819D02*
X48447411Y-73720438D01*
X48447411Y-73720438D02*
X48352173Y-73815676D01*
X48352173Y-73815676D02*
X48304554Y-74006152D01*
X48304554Y-74006152D02*
X48304554Y-74339485D01*
X48304554Y-74339485D02*
X48352173Y-74529961D01*
X48352173Y-74529961D02*
X48447411Y-74625200D01*
X48447411Y-74625200D02*
X48542649Y-74672819D01*
X48542649Y-74672819D02*
X48733125Y-74672819D01*
X48733125Y-74672819D02*
X48828363Y-74625200D01*
X48828363Y-74625200D02*
X48923601Y-74529961D01*
X48923601Y-74529961D02*
X48971220Y-74339485D01*
X48971220Y-74339485D02*
X48971220Y-74006152D01*
X48971220Y-74006152D02*
X48923601Y-73815676D01*
X48923601Y-73815676D02*
X48828363Y-73720438D01*
X48828363Y-73720438D02*
X48733125Y-73672819D01*
X48018839Y-73672819D02*
X47447411Y-73672819D01*
X47733125Y-74672819D02*
X47733125Y-73672819D01*
X41763792Y-72132819D02*
X42097125Y-71656628D01*
X42335220Y-72132819D02*
X42335220Y-71132819D01*
X42335220Y-71132819D02*
X41954268Y-71132819D01*
X41954268Y-71132819D02*
X41859030Y-71180438D01*
X41859030Y-71180438D02*
X41811411Y-71228057D01*
X41811411Y-71228057D02*
X41763792Y-71323295D01*
X41763792Y-71323295D02*
X41763792Y-71466152D01*
X41763792Y-71466152D02*
X41811411Y-71561390D01*
X41811411Y-71561390D02*
X41859030Y-71609009D01*
X41859030Y-71609009D02*
X41954268Y-71656628D01*
X41954268Y-71656628D02*
X42335220Y-71656628D01*
X41335220Y-71609009D02*
X41001887Y-71609009D01*
X40859030Y-72132819D02*
X41335220Y-72132819D01*
X41335220Y-72132819D02*
X41335220Y-71132819D01*
X41335220Y-71132819D02*
X40859030Y-71132819D01*
X40478077Y-72085200D02*
X40335220Y-72132819D01*
X40335220Y-72132819D02*
X40097125Y-72132819D01*
X40097125Y-72132819D02*
X40001887Y-72085200D01*
X40001887Y-72085200D02*
X39954268Y-72037580D01*
X39954268Y-72037580D02*
X39906649Y-71942342D01*
X39906649Y-71942342D02*
X39906649Y-71847104D01*
X39906649Y-71847104D02*
X39954268Y-71751866D01*
X39954268Y-71751866D02*
X40001887Y-71704247D01*
X40001887Y-71704247D02*
X40097125Y-71656628D01*
X40097125Y-71656628D02*
X40287601Y-71609009D01*
X40287601Y-71609009D02*
X40382839Y-71561390D01*
X40382839Y-71561390D02*
X40430458Y-71513771D01*
X40430458Y-71513771D02*
X40478077Y-71418533D01*
X40478077Y-71418533D02*
X40478077Y-71323295D01*
X40478077Y-71323295D02*
X40430458Y-71228057D01*
X40430458Y-71228057D02*
X40382839Y-71180438D01*
X40382839Y-71180438D02*
X40287601Y-71132819D01*
X40287601Y-71132819D02*
X40049506Y-71132819D01*
X40049506Y-71132819D02*
X39906649Y-71180438D01*
X39478077Y-71609009D02*
X39144744Y-71609009D01*
X39001887Y-72132819D02*
X39478077Y-72132819D01*
X39478077Y-72132819D02*
X39478077Y-71132819D01*
X39478077Y-71132819D02*
X39001887Y-71132819D01*
X38716172Y-71132819D02*
X38144744Y-71132819D01*
X38430458Y-72132819D02*
X38430458Y-71132819D01*
X42382839Y-74625200D02*
X42239982Y-74672819D01*
X42239982Y-74672819D02*
X42001887Y-74672819D01*
X42001887Y-74672819D02*
X41906649Y-74625200D01*
X41906649Y-74625200D02*
X41859030Y-74577580D01*
X41859030Y-74577580D02*
X41811411Y-74482342D01*
X41811411Y-74482342D02*
X41811411Y-74387104D01*
X41811411Y-74387104D02*
X41859030Y-74291866D01*
X41859030Y-74291866D02*
X41906649Y-74244247D01*
X41906649Y-74244247D02*
X42001887Y-74196628D01*
X42001887Y-74196628D02*
X42192363Y-74149009D01*
X42192363Y-74149009D02*
X42287601Y-74101390D01*
X42287601Y-74101390D02*
X42335220Y-74053771D01*
X42335220Y-74053771D02*
X42382839Y-73958533D01*
X42382839Y-73958533D02*
X42382839Y-73863295D01*
X42382839Y-73863295D02*
X42335220Y-73768057D01*
X42335220Y-73768057D02*
X42287601Y-73720438D01*
X42287601Y-73720438D02*
X42192363Y-73672819D01*
X42192363Y-73672819D02*
X41954268Y-73672819D01*
X41954268Y-73672819D02*
X41811411Y-73720438D01*
X41478077Y-73672819D02*
X41239982Y-74672819D01*
X41239982Y-74672819D02*
X41049506Y-73958533D01*
X41049506Y-73958533D02*
X40859030Y-74672819D01*
X40859030Y-74672819D02*
X40620935Y-73672819D01*
X40239982Y-74672819D02*
X40239982Y-73672819D01*
X40239982Y-73672819D02*
X40001887Y-73672819D01*
X40001887Y-73672819D02*
X39859030Y-73720438D01*
X39859030Y-73720438D02*
X39763792Y-73815676D01*
X39763792Y-73815676D02*
X39716173Y-73910914D01*
X39716173Y-73910914D02*
X39668554Y-74101390D01*
X39668554Y-74101390D02*
X39668554Y-74244247D01*
X39668554Y-74244247D02*
X39716173Y-74434723D01*
X39716173Y-74434723D02*
X39763792Y-74529961D01*
X39763792Y-74529961D02*
X39859030Y-74625200D01*
X39859030Y-74625200D02*
X40001887Y-74672819D01*
X40001887Y-74672819D02*
X40239982Y-74672819D01*
X39239982Y-74672819D02*
X39239982Y-73672819D01*
X38573316Y-73672819D02*
X38382840Y-73672819D01*
X38382840Y-73672819D02*
X38287602Y-73720438D01*
X38287602Y-73720438D02*
X38192364Y-73815676D01*
X38192364Y-73815676D02*
X38144745Y-74006152D01*
X38144745Y-74006152D02*
X38144745Y-74339485D01*
X38144745Y-74339485D02*
X38192364Y-74529961D01*
X38192364Y-74529961D02*
X38287602Y-74625200D01*
X38287602Y-74625200D02*
X38382840Y-74672819D01*
X38382840Y-74672819D02*
X38573316Y-74672819D01*
X38573316Y-74672819D02*
X38668554Y-74625200D01*
X38668554Y-74625200D02*
X38763792Y-74529961D01*
X38763792Y-74529961D02*
X38811411Y-74339485D01*
X38811411Y-74339485D02*
X38811411Y-74006152D01*
X38811411Y-74006152D02*
X38763792Y-73815676D01*
X38763792Y-73815676D02*
X38668554Y-73720438D01*
X38668554Y-73720438D02*
X38573316Y-73672819D01*
X80271857Y-74623819D02*
X80605190Y-74147628D01*
X80843285Y-74623819D02*
X80843285Y-73623819D01*
X80843285Y-73623819D02*
X80462333Y-73623819D01*
X80462333Y-73623819D02*
X80367095Y-73671438D01*
X80367095Y-73671438D02*
X80319476Y-73719057D01*
X80319476Y-73719057D02*
X80271857Y-73814295D01*
X80271857Y-73814295D02*
X80271857Y-73957152D01*
X80271857Y-73957152D02*
X80319476Y-74052390D01*
X80319476Y-74052390D02*
X80367095Y-74100009D01*
X80367095Y-74100009D02*
X80462333Y-74147628D01*
X80462333Y-74147628D02*
X80843285Y-74147628D01*
X79319476Y-74623819D02*
X79890904Y-74623819D01*
X79605190Y-74623819D02*
X79605190Y-73623819D01*
X79605190Y-73623819D02*
X79700428Y-73766676D01*
X79700428Y-73766676D02*
X79795666Y-73861914D01*
X79795666Y-73861914D02*
X79890904Y-73909533D01*
X78462333Y-73623819D02*
X78652809Y-73623819D01*
X78652809Y-73623819D02*
X78748047Y-73671438D01*
X78748047Y-73671438D02*
X78795666Y-73719057D01*
X78795666Y-73719057D02*
X78890904Y-73861914D01*
X78890904Y-73861914D02*
X78938523Y-74052390D01*
X78938523Y-74052390D02*
X78938523Y-74433342D01*
X78938523Y-74433342D02*
X78890904Y-74528580D01*
X78890904Y-74528580D02*
X78843285Y-74576200D01*
X78843285Y-74576200D02*
X78748047Y-74623819D01*
X78748047Y-74623819D02*
X78557571Y-74623819D01*
X78557571Y-74623819D02*
X78462333Y-74576200D01*
X78462333Y-74576200D02*
X78414714Y-74528580D01*
X78414714Y-74528580D02*
X78367095Y-74433342D01*
X78367095Y-74433342D02*
X78367095Y-74195247D01*
X78367095Y-74195247D02*
X78414714Y-74100009D01*
X78414714Y-74100009D02*
X78462333Y-74052390D01*
X78462333Y-74052390D02*
X78557571Y-74004771D01*
X78557571Y-74004771D02*
X78748047Y-74004771D01*
X78748047Y-74004771D02*
X78843285Y-74052390D01*
X78843285Y-74052390D02*
X78890904Y-74100009D01*
X78890904Y-74100009D02*
X78938523Y-74195247D01*
X53474857Y-68079580D02*
X53522476Y-68127200D01*
X53522476Y-68127200D02*
X53665333Y-68174819D01*
X53665333Y-68174819D02*
X53760571Y-68174819D01*
X53760571Y-68174819D02*
X53903428Y-68127200D01*
X53903428Y-68127200D02*
X53998666Y-68031961D01*
X53998666Y-68031961D02*
X54046285Y-67936723D01*
X54046285Y-67936723D02*
X54093904Y-67746247D01*
X54093904Y-67746247D02*
X54093904Y-67603390D01*
X54093904Y-67603390D02*
X54046285Y-67412914D01*
X54046285Y-67412914D02*
X53998666Y-67317676D01*
X53998666Y-67317676D02*
X53903428Y-67222438D01*
X53903428Y-67222438D02*
X53760571Y-67174819D01*
X53760571Y-67174819D02*
X53665333Y-67174819D01*
X53665333Y-67174819D02*
X53522476Y-67222438D01*
X53522476Y-67222438D02*
X53474857Y-67270057D01*
X52522476Y-68174819D02*
X53093904Y-68174819D01*
X52808190Y-68174819D02*
X52808190Y-67174819D01*
X52808190Y-67174819D02*
X52903428Y-67317676D01*
X52903428Y-67317676D02*
X52998666Y-67412914D01*
X52998666Y-67412914D02*
X53093904Y-67460533D01*
X51903428Y-67174819D02*
X51808190Y-67174819D01*
X51808190Y-67174819D02*
X51712952Y-67222438D01*
X51712952Y-67222438D02*
X51665333Y-67270057D01*
X51665333Y-67270057D02*
X51617714Y-67365295D01*
X51617714Y-67365295D02*
X51570095Y-67555771D01*
X51570095Y-67555771D02*
X51570095Y-67793866D01*
X51570095Y-67793866D02*
X51617714Y-67984342D01*
X51617714Y-67984342D02*
X51665333Y-68079580D01*
X51665333Y-68079580D02*
X51712952Y-68127200D01*
X51712952Y-68127200D02*
X51808190Y-68174819D01*
X51808190Y-68174819D02*
X51903428Y-68174819D01*
X51903428Y-68174819D02*
X51998666Y-68127200D01*
X51998666Y-68127200D02*
X52046285Y-68079580D01*
X52046285Y-68079580D02*
X52093904Y-67984342D01*
X52093904Y-67984342D02*
X52141523Y-67793866D01*
X52141523Y-67793866D02*
X52141523Y-67555771D01*
X52141523Y-67555771D02*
X52093904Y-67365295D01*
X52093904Y-67365295D02*
X52046285Y-67270057D01*
X52046285Y-67270057D02*
X51998666Y-67222438D01*
X51998666Y-67222438D02*
X51903428Y-67174819D01*
X63351580Y-55967333D02*
X63399200Y-55919714D01*
X63399200Y-55919714D02*
X63446819Y-55776857D01*
X63446819Y-55776857D02*
X63446819Y-55681619D01*
X63446819Y-55681619D02*
X63399200Y-55538762D01*
X63399200Y-55538762D02*
X63303961Y-55443524D01*
X63303961Y-55443524D02*
X63208723Y-55395905D01*
X63208723Y-55395905D02*
X63018247Y-55348286D01*
X63018247Y-55348286D02*
X62875390Y-55348286D01*
X62875390Y-55348286D02*
X62684914Y-55395905D01*
X62684914Y-55395905D02*
X62589676Y-55443524D01*
X62589676Y-55443524D02*
X62494438Y-55538762D01*
X62494438Y-55538762D02*
X62446819Y-55681619D01*
X62446819Y-55681619D02*
X62446819Y-55776857D01*
X62446819Y-55776857D02*
X62494438Y-55919714D01*
X62494438Y-55919714D02*
X62542057Y-55967333D01*
X62446819Y-56300667D02*
X62446819Y-56919714D01*
X62446819Y-56919714D02*
X62827771Y-56586381D01*
X62827771Y-56586381D02*
X62827771Y-56729238D01*
X62827771Y-56729238D02*
X62875390Y-56824476D01*
X62875390Y-56824476D02*
X62923009Y-56872095D01*
X62923009Y-56872095D02*
X63018247Y-56919714D01*
X63018247Y-56919714D02*
X63256342Y-56919714D01*
X63256342Y-56919714D02*
X63351580Y-56872095D01*
X63351580Y-56872095D02*
X63399200Y-56824476D01*
X63399200Y-56824476D02*
X63446819Y-56729238D01*
X63446819Y-56729238D02*
X63446819Y-56443524D01*
X63446819Y-56443524D02*
X63399200Y-56348286D01*
X63399200Y-56348286D02*
X63351580Y-56300667D01*
X69984857Y-75893819D02*
X70318190Y-75417628D01*
X70556285Y-75893819D02*
X70556285Y-74893819D01*
X70556285Y-74893819D02*
X70175333Y-74893819D01*
X70175333Y-74893819D02*
X70080095Y-74941438D01*
X70080095Y-74941438D02*
X70032476Y-74989057D01*
X70032476Y-74989057D02*
X69984857Y-75084295D01*
X69984857Y-75084295D02*
X69984857Y-75227152D01*
X69984857Y-75227152D02*
X70032476Y-75322390D01*
X70032476Y-75322390D02*
X70080095Y-75370009D01*
X70080095Y-75370009D02*
X70175333Y-75417628D01*
X70175333Y-75417628D02*
X70556285Y-75417628D01*
X69032476Y-75893819D02*
X69603904Y-75893819D01*
X69318190Y-75893819D02*
X69318190Y-74893819D01*
X69318190Y-74893819D02*
X69413428Y-75036676D01*
X69413428Y-75036676D02*
X69508666Y-75131914D01*
X69508666Y-75131914D02*
X69603904Y-75179533D01*
X68127714Y-74893819D02*
X68603904Y-74893819D01*
X68603904Y-74893819D02*
X68651523Y-75370009D01*
X68651523Y-75370009D02*
X68603904Y-75322390D01*
X68603904Y-75322390D02*
X68508666Y-75274771D01*
X68508666Y-75274771D02*
X68270571Y-75274771D01*
X68270571Y-75274771D02*
X68175333Y-75322390D01*
X68175333Y-75322390D02*
X68127714Y-75370009D01*
X68127714Y-75370009D02*
X68080095Y-75465247D01*
X68080095Y-75465247D02*
X68080095Y-75703342D01*
X68080095Y-75703342D02*
X68127714Y-75798580D01*
X68127714Y-75798580D02*
X68175333Y-75846200D01*
X68175333Y-75846200D02*
X68270571Y-75893819D01*
X68270571Y-75893819D02*
X68508666Y-75893819D01*
X68508666Y-75893819D02*
X68603904Y-75846200D01*
X68603904Y-75846200D02*
X68651523Y-75798580D01*
D11*
%TO.C,R16*%
X79856064Y-76554000D02*
X79401936Y-76554000D01*
X79856064Y-75084000D02*
X79401936Y-75084000D01*
%TO.C,C10*%
X52570748Y-65305000D02*
X53093252Y-65305000D01*
X52570748Y-66775000D02*
X53093252Y-66775000D01*
%TO.C,C3*%
X65793252Y-56869000D02*
X65270748Y-56869000D01*
X65793252Y-55399000D02*
X65270748Y-55399000D01*
%TO.C,R15*%
X69569064Y-77824000D02*
X69114936Y-77824000D01*
X69569064Y-76354000D02*
X69114936Y-76354000D01*
%TD*%
D12*
%TO.C,J2*%
X64506500Y-71366000D03*
X75936500Y-71366000D03*
%TD*%
M02*
