  0
SECTION
  2
HEADER
  9
$ANGBASE
  50
0.0
  9
$ANGDIR
  70
1
  9
$MEASUREMENT
  70
0
  0
ENDSEC
  0
SECTION
  2
TABLES
  0
TABLE
  2
LTYPE
  70
4
  0
LTYPE
  5
40F
  2
CONTINUOUS
  70
0
  3
Solid line
  72
65
  73
0
  40
0.0
  0
LTYPE
  5
410
  2
DASHDOT
 70
0
  3
Dash Dot ____ _ ____ _
 72
65
 73
4
 40
2.0
 49
1.25
 49
-0.25
 49
0.25
 49
-0.25
  0
LTYPE
  5
411
  2
DASHED
 70
0
  3
Dashed __ __ __ __ __
 72
65
 73
2
 40
0.75
 49
0.5
 49
-0.25
  0
LTYPE
  5
43B
  2
DOTTED
 70
0
  3
Dotted .  .  .  .
 72
65
 73
2
 40
0.2
 49
0.0
 49
-0.2
  0
ENDTAB
  0
TABLE
  2
STYLE
  70
4
  0
STYLE
  2
KICAD
  70
0
  40
0
  41
1
  42
1
  50
0
  71
0
  3
isocp.shx
  0
STYLE
  2
KICADB
  70
0
  40
0
  41
1
  42
1
  50
0
  71
0
  3
isocp.shx
  0
STYLE
  2
KICADI
  70
0
  40
0
  41
1
  42
1
  50
15
  71
0
  3
isocp.shx
  0
STYLE
  2
KICADBI
  70
0
  40
0
  41
1
  42
1
  50
15
  71
0
  3
isocp.shx
  0
ENDTAB
  0
TABLE
  2
LAYER
  70
1
  0
LAYER
  2
BLACK
  70
0
  62
7
  6
CONTINUOUS
  0
ENDTAB
  0
ENDSEC
  0
SECTION
  2
ENTITIES
0
LINE
8
BLACK
6
CONTINUOUS
10
4.1338582677165352
20
-1.1811023622047243
11
1.1811023622047243
21
-1.1811023622047243
0
LINE
8
BLACK
6
CONTINUOUS
10
1.1811023622047243
20
-3.1496062992125982
11
4.1338582677165352
21
-3.1496062992125982
0
LINE
8
BLACK
6
CONTINUOUS
10
4.1338582677165352
20
-3.1496062992125982
11
4.1338582677165352
21
-1.1811023622047243
0
LINE
8
BLACK
6
CONTINUOUS
10
1.1811023622047243
20
-1.1811023622047243
11
1.1811023622047243
21
-3.1496062992125982
0
LINE
8
BLACK
6
CONTINUOUS
10
2.4717125984251966
20
-2.741771653543307
11
2.6075393700787401
21
-2.8775984251968505
0
LINE
8
BLACK
6
CONTINUOUS
10
2.6075393700787401
20
-2.741771653543307
11
2.4717125984251966
21
-2.8775984251968505
0
LINE
8
BLACK
6
CONTINUOUS
10
2.9217125984251968
20
-2.741771653543307
11
3.0575393700787399
21
-2.8775984251968505
0
LINE
8
BLACK
6
CONTINUOUS
10
3.0575393700787399
20
-2.741771653543307
11
2.9217125984251968
21
-2.8775984251968505
0
LINE
8
BLACK
6
CONTINUOUS
10
1.2818018897637795
20
-3.2742062204724407
11
1.2818018897637795
21
-3.1954660629921259
0
LINE
8
BLACK
6
CONTINUOUS
10
1.2818018897637795
20
-3.1954660629921259
11
1.3005495275590551
21
-3.1954660629921259
0
LINE
8
BLACK
6
CONTINUOUS
10
1.3005495275590551
20
-3.1954660629921259
11
1.3117981496062991
21
-3.199215590551181
0
LINE
8
BLACK
6
CONTINUOUS
10
1.3117981496062991
20
-3.199215590551181
11
1.3192972047244094
21
-3.2067146456692912
0
LINE
8
BLACK
6
CONTINUOUS
10
1.3192972047244094
20
-3.2067146456692912
11
1.3230467322834645
21
-3.2142137007874014
0
LINE
8
BLACK
6
CONTINUOUS
10
1.3230467322834645
20
-3.2142137007874014
11
1.3267962598425196
21
-3.2292118110236219
0
LINE
8
BLACK
6
CONTINUOUS
10
1.3267962598425196
20
-3.2292118110236219
11
1.3267962598425196
21
-3.240460433070866
0
LINE
8
BLACK
6
CONTINUOUS
10
1.3267962598425196
20
-3.240460433070866
11
1.3230467322834645
21
-3.2554585433070864
0
LINE
8
BLACK
6
CONTINUOUS
10
1.3230467322834645
20
-3.2554585433070864
11
1.3192972047244094
21
-3.2629575984251966
0
LINE
8
BLACK
6
CONTINUOUS
10
1.3192972047244094
20
-3.2629575984251966
11
1.3117981496062991
21
-3.2704566929133856
0
LINE
8
BLACK
6
CONTINUOUS
10
1.3117981496062991
20
-3.2704566929133856
11
1.3005495275590551
21
-3.2742062204724407
0
LINE
8
BLACK
6
CONTINUOUS
10
1.3005495275590551
20
-3.2742062204724407
11
1.2818018897637795
21
-3.2742062204724407
0
LINE
8
BLACK
6
CONTINUOUS
10
1.3605420472440946
20
-3.2742062204724407
11
1.3605420472440946
21
-3.2217127559055116
0
LINE
8
BLACK
6
CONTINUOUS
10
1.3605420472440946
20
-3.2367109055118108
11
1.3642915748031497
21
-3.2292118110236219
0
LINE
8
BLACK
6
CONTINUOUS
10
1.3642915748031497
20
-3.2292118110236219
11
1.3680411023622048
21
-3.2254622834645668
0
LINE
8
BLACK
6
CONTINUOUS
10
1.3680411023622048
20
-3.2254622834645668
11
1.375540157480315
21
-3.2217127559055116
0
LINE
8
BLACK
6
CONTINUOUS
10
1.375540157480315
20
-3.2217127559055116
11
1.383039251968504
21
-3.2217127559055116
0
LINE
8
BLACK
6
CONTINUOUS
10
1.4092859448818897
20
-3.2742062204724407
11
1.4092859448818897
21
-3.2217127559055116
0
LINE
8
BLACK
6
CONTINUOUS
10
1.4092859448818897
20
-3.1954660629921259
11
1.4055364173228346
21
-3.199215590551181
0
LINE
8
BLACK
6
CONTINUOUS
10
1.4055364173228346
20
-3.199215590551181
11
1.4092859448818897
21
-3.2029651181102361
0
LINE
8
BLACK
6
CONTINUOUS
10
1.4092859448818897
20
-3.2029651181102361
11
1.4130354724409449
21
-3.199215590551181
0
LINE
8
BLACK
6
CONTINUOUS
10
1.4130354724409449
20
-3.199215590551181
11
1.4092859448818897
21
-3.1954660629921259
0
LINE
8
BLACK
6
CONTINUOUS
10
1.4092859448818897
20
-3.1954660629921259
11
1.4092859448818897
21
-3.2029651181102361
0
LINE
8
BLACK
6
CONTINUOUS
10
1.4580298425196849
20
-3.2742062204724407
11
1.4505307874015747
21
-3.2704566929133856
0
LINE
8
BLACK
6
CONTINUOUS
10
1.4505307874015747
20
-3.2704566929133856
11
1.4467812598425196
21
-3.2629575984251966
0
LINE
8
BLACK
6
CONTINUOUS
10
1.4467812598425196
20
-3.2629575984251966
11
1.4467812598425196
21
-3.1954660629921259
0
LINE
8
BLACK
6
CONTINUOUS
10
1.4992746850393701
20
-3.2742062204724407
11
1.4917756299212599
21
-3.2704566929133856
0
LINE
8
BLACK
6
CONTINUOUS
10
1.4917756299212599
20
-3.2704566929133856
11
1.4880261023622048
21
-3.2629575984251966
0
LINE
8
BLACK
6
CONTINUOUS
10
1.4880261023622048
20
-3.2629575984251966
11
1.4880261023622048
21
-3.1954660629921259
0
LINE
8
BLACK
6
CONTINUOUS
10
1.589263464566929
20
-3.2742062204724407
11
1.589263464566929
21
-3.1954660629921259
0
LINE
8
BLACK
6
CONTINUOUS
10
1.589263464566929
20
-3.1954660629921259
11
1.6155101968503938
21
-3.2517090157480313
0
LINE
8
BLACK
6
CONTINUOUS
10
1.6155101968503938
20
-3.2517090157480313
11
1.6417568897637795
21
-3.1954660629921259
0
LINE
8
BLACK
6
CONTINUOUS
10
1.6417568897637795
20
-3.1954660629921259
11
1.6417568897637795
21
-3.2742062204724407
0
LINE
8
BLACK
6
CONTINUOUS
10
1.7129979921259841
20
-3.2742062204724407
11
1.7129979921259841
21
-3.2329613779527557
0
LINE
8
BLACK
6
CONTINUOUS
10
1.7129979921259841
20
-3.2329613779527557
11
1.709248464566929
21
-3.2254622834645668
0
LINE
8
BLACK
6
CONTINUOUS
10
1.709248464566929
20
-3.2254622834645668
11
1.7017494094488188
21
-3.2217127559055116
0
LINE
8
BLACK
6
CONTINUOUS
10
1.7017494094488188
20
-3.2217127559055116
11
1.6867512598425196
21
-3.2217127559055116
0
LINE
8
BLACK
6
CONTINUOUS
10
1.6867512598425196
20
-3.2217127559055116
11
1.6792522047244094
21
-3.2254622834645668
0
LINE
8
BLACK
6
CONTINUOUS
10
1.7129979921259841
20
-3.2704566929133856
11
1.7054989370078739
21
-3.2742062204724407
0
LINE
8
BLACK
6
CONTINUOUS
10
1.7054989370078739
20
-3.2742062204724407
11
1.6867512598425196
21
-3.2742062204724407
0
LINE
8
BLACK
6
CONTINUOUS
10
1.6867512598425196
20
-3.2742062204724407
11
1.6792522047244094
21
-3.2704566929133856
0
LINE
8
BLACK
6
CONTINUOUS
10
1.6792522047244094
20
-3.2704566929133856
11
1.6755026771653543
21
-3.2629575984251966
0
LINE
8
BLACK
6
CONTINUOUS
10
1.6755026771653543
20
-3.2629575984251966
11
1.6755026771653543
21
-3.2554585433070864
0
LINE
8
BLACK
6
CONTINUOUS
10
1.6755026771653543
20
-3.2554585433070864
11
1.6792522047244094
21
-3.2479594881889762
0
LINE
8
BLACK
6
CONTINUOUS
10
1.6792522047244094
20
-3.2479594881889762
11
1.6867512598425196
21
-3.2442099606299211
0
LINE
8
BLACK
6
CONTINUOUS
10
1.6867512598425196
20
-3.2442099606299211
11
1.7054989370078739
21
-3.2442099606299211
0
LINE
8
BLACK
6
CONTINUOUS
10
1.7054989370078739
20
-3.2442099606299211
11
1.7129979921259841
21
-3.240460433070866
0
LINE
8
BLACK
6
CONTINUOUS
10
1.7504933070866142
20
-3.2217127559055116
11
1.7504933070866142
21
-3.3004529133858269
0
LINE
8
BLACK
6
CONTINUOUS
10
1.7504933070866142
20
-3.2254622834645668
11
1.7579923622047244
21
-3.2217127559055116
0
LINE
8
BLACK
6
CONTINUOUS
10
1.7579923622047244
20
-3.2217127559055116
11
1.7729905118110236
21
-3.2217127559055116
0
LINE
8
BLACK
6
CONTINUOUS
10
1.7729905118110236
20
-3.2217127559055116
11
1.7804895669291338
21
-3.2254622834645668
0
LINE
8
BLACK
6
CONTINUOUS
10
1.7804895669291338
20
-3.2254622834645668
11
1.784239094488189
21
-3.2292118110236219
0
LINE
8
BLACK
6
CONTINUOUS
10
1.784239094488189
20
-3.2292118110236219
11
1.7879886220472441
21
-3.2367109055118108
0
LINE
8
BLACK
6
CONTINUOUS
10
1.7879886220472441
20
-3.2367109055118108
11
1.7879886220472441
21
-3.2592080708661415
0
LINE
8
BLACK
6
CONTINUOUS
10
1.7879886220472441
20
-3.2592080708661415
11
1.784239094488189
21
-3.2667071259842517
0
LINE
8
BLACK
6
CONTINUOUS
10
1.784239094488189
20
-3.2667071259842517
11
1.7804895669291338
21
-3.2704566929133856
0
LINE
8
BLACK
6
CONTINUOUS
10
1.7804895669291338
20
-3.2704566929133856
11
1.7729905118110236
21
-3.2742062204724407
0
LINE
8
BLACK
6
CONTINUOUS
10
1.7729905118110236
20
-3.2742062204724407
11
1.7579923622047244
21
-3.2742062204724407
0
LINE
8
BLACK
6
CONTINUOUS
10
1.7579923622047244
20
-3.2742062204724407
11
1.7504933070866142
21
-3.2704566929133856
0
LINE
8
BLACK
6
CONTINUOUS
10
1.8217344094488188
20
-3.2667071259842517
11
1.8254839370078739
21
-3.2704566929133856
0
LINE
8
BLACK
6
CONTINUOUS
10
1.8254839370078739
20
-3.2704566929133856
11
1.8217344094488188
21
-3.2742062204724407
0
LINE
8
BLACK
6
CONTINUOUS
10
1.8217344094488188
20
-3.2742062204724407
11
1.8179848818897637
21
-3.2704566929133856
0
LINE
8
BLACK
6
CONTINUOUS
10
1.8179848818897637
20
-3.2704566929133856
11
1.8217344094488188
21
-3.2667071259842517
0
LINE
8
BLACK
6
CONTINUOUS
10
1.8217344094488188
20
-3.2667071259842517
11
1.8217344094488188
21
-3.2742062204724407
0
LINE
8
BLACK
6
CONTINUOUS
10
1.8217344094488188
20
-3.2254622834645668
11
1.8254839370078739
21
-3.2292118110236219
0
LINE
8
BLACK
6
CONTINUOUS
10
1.8254839370078739
20
-3.2292118110236219
11
1.8217344094488188
21
-3.2329613779527557
0
LINE
8
BLACK
6
CONTINUOUS
10
1.8217344094488188
20
-3.2329613779527557
11
1.8179848818897637
21
-3.2292118110236219
0
LINE
8
BLACK
6
CONTINUOUS
10
1.8179848818897637
20
-3.2292118110236219
11
1.8217344094488188
21
-3.2254622834645668
0
LINE
8
BLACK
6
CONTINUOUS
10
1.8217344094488188
20
-3.2254622834645668
11
1.8217344094488188
21
-3.2329613779527557
0
LINE
8
BLACK
6
CONTINUOUS
10
1.1003937007874016
20
-3.3641732283464565
11
1.1791338582677164
21
-3.4429133858267718
0
LINE
8
BLACK
6
CONTINUOUS
10
1.1791338582677164
20
-3.3641732283464565
11
1.1003937007874016
21
-3.4429133858267718
0
LINE
8
BLACK
6
CONTINUOUS
10
1.2743028346456693
20
-3.3608203937007874
11
1.3230467322834645
21
-3.3608203937007874
0
LINE
8
BLACK
6
CONTINUOUS
10
1.3230467322834645
20
-3.3608203937007874
11
1.2968
21
-3.3908166141732283
0
LINE
8
BLACK
6
CONTINUOUS
10
1.2968
20
-3.3908166141732283
11
1.308048622047244
21
-3.3908166141732283
0
LINE
8
BLACK
6
CONTINUOUS
10
1.308048622047244
20
-3.3908166141732283
11
1.3155476771653543
21
-3.3945661417322834
0
LINE
8
BLACK
6
CONTINUOUS
10
1.3155476771653543
20
-3.3945661417322834
11
1.3192972047244094
21
-3.3983157086614173
0
LINE
8
BLACK
6
CONTINUOUS
10
1.3192972047244094
20
-3.3983157086614173
11
1.3230467322834645
21
-3.4058147637795275
0
LINE
8
BLACK
6
CONTINUOUS
10
1.3230467322834645
20
-3.4058147637795275
11
1.3230467322834645
21
-3.4245624015748031
0
LINE
8
BLACK
6
CONTINUOUS
10
1.3230467322834645
20
-3.4245624015748031
11
1.3192972047244094
21
-3.4320614566929133
0
LINE
8
BLACK
6
CONTINUOUS
10
1.3192972047244094
20
-3.4320614566929133
11
1.3155476771653543
21
-3.4358110236220472
0
LINE
8
BLACK
6
CONTINUOUS
10
1.3155476771653543
20
-3.4358110236220472
11
1.308048622047244
21
-3.4395605511811023
0
LINE
8
BLACK
6
CONTINUOUS
10
1.308048622047244
20
-3.4395605511811023
11
1.2855514173228346
21
-3.4395605511811023
0
LINE
8
BLACK
6
CONTINUOUS
10
1.2855514173228346
20
-3.4395605511811023
11
1.2780523622047244
21
-3.4358110236220472
0
LINE
8
BLACK
6
CONTINUOUS
10
1.2780523622047244
20
-3.4358110236220472
11
1.2743028346456693
21
-3.4320614566929133
0
LINE
8
BLACK
6
CONTINUOUS
10
1.3567925196850394
20
-3.4320614566929133
11
1.3605420472440946
21
-3.4358110236220472
0
LINE
8
BLACK
6
CONTINUOUS
10
1.3605420472440946
20
-3.4358110236220472
11
1.3567925196850394
21
-3.4395605511811023
0
LINE
8
BLACK
6
CONTINUOUS
10
1.3567925196850394
20
-3.4395605511811023
11
1.3530429921259841
21
-3.4358110236220472
0
LINE
8
BLACK
6
CONTINUOUS
10
1.3530429921259841
20
-3.4358110236220472
11
1.3567925196850394
21
-3.4320614566929133
0
LINE
8
BLACK
6
CONTINUOUS
10
1.3567925196850394
20
-3.4320614566929133
11
1.3567925196850394
21
-3.4395605511811023
0
LINE
8
BLACK
6
CONTINUOUS
10
1.428033622047244
20
-3.3870670866141732
11
1.428033622047244
21
-3.4395605511811023
0
LINE
8
BLACK
6
CONTINUOUS
10
1.4092859448818897
20
-3.3570708661417323
11
1.3905383070866142
21
-3.4133138188976377
0
LINE
8
BLACK
6
CONTINUOUS
10
1.3905383070866142
20
-3.4133138188976377
11
1.4392822047244094
21
-3.4133138188976377
0
LINE
8
BLACK
6
CONTINUOUS
10
1.5067737795275591
20
-3.3608203937007874
11
1.469278464566929
21
-3.3608203937007874
0
LINE
8
BLACK
6
CONTINUOUS
10
1.469278464566929
20
-3.3608203937007874
11
1.4655289370078739
21
-3.3983157086614173
0
LINE
8
BLACK
6
CONTINUOUS
10
1.4655289370078739
20
-3.3983157086614173
11
1.469278464566929
21
-3.3945661417322834
0
LINE
8
BLACK
6
CONTINUOUS
10
1.469278464566929
20
-3.3945661417322834
11
1.4767775196850392
21
-3.3908166141732283
0
LINE
8
BLACK
6
CONTINUOUS
10
1.4767775196850392
20
-3.3908166141732283
11
1.4955251968503938
21
-3.3908166141732283
0
LINE
8
BLACK
6
CONTINUOUS
10
1.4955251968503938
20
-3.3908166141732283
11
1.503024251968504
21
-3.3945661417322834
0
LINE
8
BLACK
6
CONTINUOUS
10
1.503024251968504
20
-3.3945661417322834
11
1.5067737795275591
21
-3.3983157086614173
0
LINE
8
BLACK
6
CONTINUOUS
10
1.5067737795275591
20
-3.3983157086614173
11
1.5105233070866142
21
-3.4058147637795275
0
LINE
8
BLACK
6
CONTINUOUS
10
1.5105233070866142
20
-3.4058147637795275
11
1.5105233070866142
21
-3.4245624015748031
0
LINE
8
BLACK
6
CONTINUOUS
10
1.5105233070866142
20
-3.4245624015748031
11
1.5067737795275591
21
-3.4320614566929133
0
LINE
8
BLACK
6
CONTINUOUS
10
1.5067737795275591
20
-3.4320614566929133
11
1.503024251968504
21
-3.4358110236220472
0
LINE
8
BLACK
6
CONTINUOUS
10
1.503024251968504
20
-3.4358110236220472
11
1.4955251968503938
21
-3.4395605511811023
0
LINE
8
BLACK
6
CONTINUOUS
10
1.4955251968503938
20
-3.4395605511811023
11
1.4767775196850392
21
-3.4395605511811023
0
LINE
8
BLACK
6
CONTINUOUS
10
1.4767775196850392
20
-3.4395605511811023
11
1.469278464566929
21
-3.4358110236220472
0
LINE
8
BLACK
6
CONTINUOUS
10
1.469278464566929
20
-3.4358110236220472
11
1.4655289370078739
21
-3.4320614566929133
0
LINE
8
BLACK
6
CONTINUOUS
10
1.5592672047244094
20
-3.3608203937007874
11
1.5667662992125984
21
-3.3608203937007874
0
LINE
8
BLACK
6
CONTINUOUS
10
1.5667662992125984
20
-3.3608203937007874
11
1.5742653543307086
21
-3.3645699212598426
0
LINE
8
BLACK
6
CONTINUOUS
10
1.5742653543307086
20
-3.3645699212598426
11
1.5780148818897637
21
-3.3683194488188977
0
LINE
8
BLACK
6
CONTINUOUS
10
1.5780148818897637
20
-3.3683194488188977
11
1.5817644094488188
21
-3.3758185039370079
0
LINE
8
BLACK
6
CONTINUOUS
10
1.5817644094488188
20
-3.3758185039370079
11
1.5855139370078739
21
-3.3908166141732283
0
LINE
8
BLACK
6
CONTINUOUS
10
1.5855139370078739
20
-3.3908166141732283
11
1.5855139370078739
21
-3.4095642913385826
0
LINE
8
BLACK
6
CONTINUOUS
10
1.5855139370078739
20
-3.4095642913385826
11
1.5817644094488188
21
-3.4245624015748031
0
LINE
8
BLACK
6
CONTINUOUS
10
1.5817644094488188
20
-3.4245624015748031
11
1.5780148818897637
21
-3.4320614566929133
0
LINE
8
BLACK
6
CONTINUOUS
10
1.5780148818897637
20
-3.4320614566929133
11
1.5742653543307086
21
-3.4358110236220472
0
LINE
8
BLACK
6
CONTINUOUS
10
1.5742653543307086
20
-3.4358110236220472
11
1.5667662992125984
21
-3.4395605511811023
0
LINE
8
BLACK
6
CONTINUOUS
10
1.5667662992125984
20
-3.4395605511811023
11
1.5592672047244094
21
-3.4395605511811023
0
LINE
8
BLACK
6
CONTINUOUS
10
1.5592672047244094
20
-3.4395605511811023
11
1.5517681496062992
21
-3.4358110236220472
0
LINE
8
BLACK
6
CONTINUOUS
10
1.5517681496062992
20
-3.4358110236220472
11
1.5480186220472441
21
-3.4320614566929133
0
LINE
8
BLACK
6
CONTINUOUS
10
1.5480186220472441
20
-3.4320614566929133
11
1.5442690944881889
21
-3.4245624015748031
0
LINE
8
BLACK
6
CONTINUOUS
10
1.5442690944881889
20
-3.4245624015748031
11
1.5405195669291338
21
-3.4095642913385826
0
LINE
8
BLACK
6
CONTINUOUS
10
1.5405195669291338
20
-3.4095642913385826
11
1.5405195669291338
21
-3.3908166141732283
0
LINE
8
BLACK
6
CONTINUOUS
10
1.5405195669291338
20
-3.3908166141732283
11
1.5442690944881889
21
-3.3758185039370079
0
LINE
8
BLACK
6
CONTINUOUS
10
1.5442690944881889
20
-3.3758185039370079
11
1.5480186220472441
21
-3.3683194488188977
0
LINE
8
BLACK
6
CONTINUOUS
10
1.5480186220472441
20
-3.3683194488188977
11
1.5517681496062992
21
-3.3645699212598426
0
LINE
8
BLACK
6
CONTINUOUS
10
1.5517681496062992
20
-3.3645699212598426
11
1.5592672047244094
21
-3.3608203937007874
0
LINE
8
BLACK
6
CONTINUOUS
10
1.6192597244094489
20
-3.4395605511811023
11
1.6192597244094489
21
-3.3870670866141732
0
LINE
8
BLACK
6
CONTINUOUS
10
1.6192597244094489
20
-3.3945661417322834
11
1.623009251968504
21
-3.3908166141732283
0
LINE
8
BLACK
6
CONTINUOUS
10
1.623009251968504
20
-3.3908166141732283
11
1.6305083070866142
21
-3.3870670866141732
0
LINE
8
BLACK
6
CONTINUOUS
10
1.6305083070866142
20
-3.3870670866141732
11
1.6417569291338583
21
-3.3870670866141732
0
LINE
8
BLACK
6
CONTINUOUS
10
1.6417569291338583
20
-3.3870670866141732
11
1.6492559842519685
21
-3.3908166141732283
0
LINE
8
BLACK
6
CONTINUOUS
10
1.6492559842519685
20
-3.3908166141732283
11
1.6530055118110236
21
-3.3983157086614173
0
LINE
8
BLACK
6
CONTINUOUS
10
1.6530055118110236
20
-3.3983157086614173
11
1.6530055118110236
21
-3.4395605511811023
0
LINE
8
BLACK
6
CONTINUOUS
10
1.6530055118110236
20
-3.3983157086614173
11
1.6567550393700787
21
-3.3908166141732283
0
LINE
8
BLACK
6
CONTINUOUS
10
1.6567550393700787
20
-3.3908166141732283
11
1.664254094488189
21
-3.3870670866141732
0
LINE
8
BLACK
6
CONTINUOUS
10
1.664254094488189
20
-3.3870670866141732
11
1.6755026771653543
21
-3.3870670866141732
0
LINE
8
BLACK
6
CONTINUOUS
10
1.6755026771653543
20
-3.3870670866141732
11
1.6830017716535433
21
-3.3908166141732283
0
LINE
8
BLACK
6
CONTINUOUS
10
1.6830017716535433
20
-3.3908166141732283
11
1.6867512992125984
21
-3.3983157086614173
0
LINE
8
BLACK
6
CONTINUOUS
10
1.6867512992125984
20
-3.3983157086614173
11
1.6867512992125984
21
-3.4395605511811023
0
LINE
8
BLACK
6
CONTINUOUS
10
1.7242466141732282
20
-3.4395605511811023
11
1.7242466141732282
21
-3.3870670866141732
0
LINE
8
BLACK
6
CONTINUOUS
10
1.7242466141732282
20
-3.3945661417322834
11
1.7279961417322833
21
-3.3908166141732283
0
LINE
8
BLACK
6
CONTINUOUS
10
1.7279961417322833
20
-3.3908166141732283
11
1.7354951968503936
21
-3.3870670866141732
0
LINE
8
BLACK
6
CONTINUOUS
10
1.7354951968503936
20
-3.3870670866141732
11
1.7467438188976379
21
-3.3870670866141732
0
LINE
8
BLACK
6
CONTINUOUS
10
1.7467438188976379
20
-3.3870670866141732
11
1.7542428740157481
21
-3.3908166141732283
0
LINE
8
BLACK
6
CONTINUOUS
10
1.7542428740157481
20
-3.3908166141732283
11
1.7579924015748032
21
-3.3983157086614173
0
LINE
8
BLACK
6
CONTINUOUS
10
1.7579924015748032
20
-3.3983157086614173
11
1.7579924015748032
21
-3.4395605511811023
0
LINE
8
BLACK
6
CONTINUOUS
10
1.7579924015748032
20
-3.3983157086614173
11
1.7617419291338583
21
-3.3908166141732283
0
LINE
8
BLACK
6
CONTINUOUS
10
1.7617419291338583
20
-3.3908166141732283
11
1.7692409842519685
21
-3.3870670866141732
0
LINE
8
BLACK
6
CONTINUOUS
10
1.7692409842519685
20
-3.3870670866141732
11
1.7804895669291338
21
-3.3870670866141732
0
LINE
8
BLACK
6
CONTINUOUS
10
1.7804895669291338
20
-3.3870670866141732
11
1.7879886614173228
21
-3.3908166141732283
0
LINE
8
BLACK
6
CONTINUOUS
10
1.7879886614173228
20
-3.3908166141732283
11
1.7917381889763779
21
-3.3983157086614173
0
LINE
8
BLACK
6
CONTINUOUS
10
1.7917381889763779
20
-3.3983157086614173
11
1.7917381889763779
21
-3.4395605511811023
0
LINE
8
BLACK
6
CONTINUOUS
10
1.9454689763779527
20
-3.3570708661417323
11
1.8779774409448819
21
-3.4583081889763778
0
LINE
8
BLACK
6
CONTINUOUS
10
2.0467063385826769
20
-3.3608203937007874
11
2.0542054330708659
21
-3.3608203937007874
0
LINE
8
BLACK
6
CONTINUOUS
10
2.0542054330708659
20
-3.3608203937007874
11
2.0617044881889761
21
-3.3645699212598426
0
LINE
8
BLACK
6
CONTINUOUS
10
2.0617044881889761
20
-3.3645699212598426
11
2.0654540157480317
21
-3.3683194488188977
0
LINE
8
BLACK
6
CONTINUOUS
10
2.0654540157480317
20
-3.3683194488188977
11
2.0692035433070868
21
-3.3758185039370079
0
LINE
8
BLACK
6
CONTINUOUS
10
2.0692035433070868
20
-3.3758185039370079
11
2.0729530708661419
21
-3.3908166141732283
0
LINE
8
BLACK
6
CONTINUOUS
10
2.0729530708661419
20
-3.3908166141732283
11
2.0729530708661419
21
-3.4095642913385826
0
LINE
8
BLACK
6
CONTINUOUS
10
2.0729530708661419
20
-3.4095642913385826
11
2.0692035433070868
21
-3.4245624015748031
0
LINE
8
BLACK
6
CONTINUOUS
10
2.0692035433070868
20
-3.4245624015748031
11
2.0654540157480317
21
-3.4320614566929133
0
LINE
8
BLACK
6
CONTINUOUS
10
2.0654540157480317
20
-3.4320614566929133
11
2.0617044881889761
21
-3.4358110236220472
0
LINE
8
BLACK
6
CONTINUOUS
10
2.0617044881889761
20
-3.4358110236220472
11
2.0542054330708659
21
-3.4395605511811023
0
LINE
8
BLACK
6
CONTINUOUS
10
2.0542054330708659
20
-3.4395605511811023
11
2.0467063385826769
21
-3.4395605511811023
0
LINE
8
BLACK
6
CONTINUOUS
10
2.0467063385826769
20
-3.4395605511811023
11
2.0392072834645667
21
-3.4358110236220472
0
LINE
8
BLACK
6
CONTINUOUS
10
2.0392072834645667
20
-3.4358110236220472
11
2.0354577559055116
21
-3.4320614566929133
0
LINE
8
BLACK
6
CONTINUOUS
10
2.0354577559055116
20
-3.4320614566929133
11
2.0317082283464565
21
-3.4245624015748031
0
LINE
8
BLACK
6
CONTINUOUS
10
2.0317082283464565
20
-3.4245624015748031
11
2.0279587007874014
21
-3.4095642913385826
0
LINE
8
BLACK
6
CONTINUOUS
10
2.0279587007874014
20
-3.4095642913385826
11
2.0279587007874014
21
-3.3908166141732283
0
LINE
8
BLACK
6
CONTINUOUS
10
2.0279587007874014
20
-3.3908166141732283
11
2.0317082283464565
21
-3.3758185039370079
0
LINE
8
BLACK
6
CONTINUOUS
10
2.0317082283464565
20
-3.3758185039370079
11
2.0354577559055116
21
-3.3683194488188977
0
LINE
8
BLACK
6
CONTINUOUS
10
2.0354577559055116
20
-3.3683194488188977
11
2.0392072834645667
21
-3.3645699212598426
0
LINE
8
BLACK
6
CONTINUOUS
10
2.0392072834645667
20
-3.3645699212598426
11
2.0467063385826769
21
-3.3608203937007874
0
LINE
8
BLACK
6
CONTINUOUS
10
2.1066988582677166
20
-3.4320614566929133
11
2.1104483858267717
21
-3.4358110236220472
0
LINE
8
BLACK
6
CONTINUOUS
10
2.1104483858267717
20
-3.4358110236220472
11
2.1066988582677166
21
-3.4395605511811023
0
LINE
8
BLACK
6
CONTINUOUS
10
2.1066988582677166
20
-3.4395605511811023
11
2.1029493307086615
21
-3.4358110236220472
0
LINE
8
BLACK
6
CONTINUOUS
10
2.1029493307086615
20
-3.4358110236220472
11
2.1066988582677166
21
-3.4320614566929133
0
LINE
8
BLACK
6
CONTINUOUS
10
2.1066988582677166
20
-3.4320614566929133
11
2.1066988582677166
21
-3.4395605511811023
0
LINE
8
BLACK
6
CONTINUOUS
10
2.1854390157480315
20
-3.4395605511811023
11
2.1404446456692914
21
-3.4395605511811023
0
LINE
8
BLACK
6
CONTINUOUS
10
2.162941811023622
20
-3.4395605511811023
11
2.162941811023622
21
-3.3608203937007874
0
LINE
8
BLACK
6
CONTINUOUS
10
2.162941811023622
20
-3.3608203937007874
11
2.1554427559055118
21
-3.3720689763779528
0
LINE
8
BLACK
6
CONTINUOUS
10
2.1554427559055118
20
-3.3720689763779528
11
2.1479437007874016
21
-3.379568031496063
0
LINE
8
BLACK
6
CONTINUOUS
10
2.1479437007874016
20
-3.379568031496063
11
2.1404446456692914
21
-3.3833175590551181
0
LINE
8
BLACK
6
CONTINUOUS
10
2.211685748031496
20
-3.3608203937007874
11
2.2604296456692912
21
-3.3608203937007874
0
LINE
8
BLACK
6
CONTINUOUS
10
2.2604296456692912
20
-3.3608203937007874
11
2.2341829133858266
21
-3.3908166141732283
0
LINE
8
BLACK
6
CONTINUOUS
10
2.2341829133858266
20
-3.3908166141732283
11
2.2454315354330707
21
-3.3908166141732283
0
LINE
8
BLACK
6
CONTINUOUS
10
2.2454315354330707
20
-3.3908166141732283
11
2.2529305905511809
21
-3.3945661417322834
0
LINE
8
BLACK
6
CONTINUOUS
10
2.2529305905511809
20
-3.3945661417322834
11
2.2566801181102361
21
-3.3983157086614173
0
LINE
8
BLACK
6
CONTINUOUS
10
2.2566801181102361
20
-3.3983157086614173
11
2.2604296456692912
21
-3.4058147637795275
0
LINE
8
BLACK
6
CONTINUOUS
10
2.2604296456692912
20
-3.4058147637795275
11
2.2604296456692912
21
-3.4245624015748031
0
LINE
8
BLACK
6
CONTINUOUS
10
2.2604296456692912
20
-3.4245624015748031
11
2.2566801181102361
21
-3.4320614566929133
0
LINE
8
BLACK
6
CONTINUOUS
10
2.2566801181102361
20
-3.4320614566929133
11
2.2529305905511809
21
-3.4358110236220472
0
LINE
8
BLACK
6
CONTINUOUS
10
2.2529305905511809
20
-3.4358110236220472
11
2.2454315354330707
21
-3.4395605511811023
0
LINE
8
BLACK
6
CONTINUOUS
10
2.2454315354330707
20
-3.4395605511811023
11
2.2229343307086613
21
-3.4395605511811023
0
LINE
8
BLACK
6
CONTINUOUS
10
2.2229343307086613
20
-3.4395605511811023
11
2.2154352755905511
21
-3.4358110236220472
0
LINE
8
BLACK
6
CONTINUOUS
10
2.2154352755905511
20
-3.4358110236220472
11
2.211685748031496
21
-3.4320614566929133
0
LINE
8
BLACK
6
CONTINUOUS
10
2.3316707480314962
20
-3.3608203937007874
11
2.2941754330708659
21
-3.3608203937007874
0
LINE
8
BLACK
6
CONTINUOUS
10
2.2941754330708659
20
-3.3608203937007874
11
2.2904259055118108
21
-3.3983157086614173
0
LINE
8
BLACK
6
CONTINUOUS
10
2.2904259055118108
20
-3.3983157086614173
11
2.2941754330708659
21
-3.3945661417322834
0
LINE
8
BLACK
6
CONTINUOUS
10
2.2941754330708659
20
-3.3945661417322834
11
2.3016744881889761
21
-3.3908166141732283
0
LINE
8
BLACK
6
CONTINUOUS
10
2.3016744881889761
20
-3.3908166141732283
11
2.3204221653543304
21
-3.3908166141732283
0
LINE
8
BLACK
6
CONTINUOUS
10
2.3204221653543304
20
-3.3908166141732283
11
2.3279212204724411
21
-3.3945661417322834
0
LINE
8
BLACK
6
CONTINUOUS
10
2.3279212204724411
20
-3.3945661417322834
11
2.3316707480314962
21
-3.3983157086614173
0
LINE
8
BLACK
6
CONTINUOUS
10
2.3316707480314962
20
-3.3983157086614173
11
2.3354202755905513
21
-3.4058147637795275
0
LINE
8
BLACK
6
CONTINUOUS
10
2.3354202755905513
20
-3.4058147637795275
11
2.3354202755905513
21
-3.4245624015748031
0
LINE
8
BLACK
6
CONTINUOUS
10
2.3354202755905513
20
-3.4245624015748031
11
2.3316707480314962
21
-3.4320614566929133
0
LINE
8
BLACK
6
CONTINUOUS
10
2.3316707480314962
20
-3.4320614566929133
11
2.3279212204724411
21
-3.4358110236220472
0
LINE
8
BLACK
6
CONTINUOUS
10
2.3279212204724411
20
-3.4358110236220472
11
2.3204221653543304
21
-3.4395605511811023
0
LINE
8
BLACK
6
CONTINUOUS
10
2.3204221653543304
20
-3.4395605511811023
11
2.3016744881889761
21
-3.4395605511811023
0
LINE
8
BLACK
6
CONTINUOUS
10
2.3016744881889761
20
-3.4395605511811023
11
2.2941754330708659
21
-3.4358110236220472
0
LINE
8
BLACK
6
CONTINUOUS
10
2.2941754330708659
20
-3.4358110236220472
11
2.2904259055118108
21
-3.4320614566929133
0
LINE
8
BLACK
6
CONTINUOUS
10
2.3804146456692914
20
-3.3945661417322834
11
2.3729155905511812
21
-3.3908166141732283
0
LINE
8
BLACK
6
CONTINUOUS
10
2.3729155905511812
20
-3.3908166141732283
11
2.3691660629921261
21
-3.3870670866141732
0
LINE
8
BLACK
6
CONTINUOUS
10
2.3691660629921261
20
-3.3870670866141732
11
2.365416535433071
21
-3.379568031496063
0
LINE
8
BLACK
6
CONTINUOUS
10
2.365416535433071
20
-3.379568031496063
11
2.365416535433071
21
-3.3758185039370079
0
LINE
8
BLACK
6
CONTINUOUS
10
2.365416535433071
20
-3.3758185039370079
11
2.3691660629921261
21
-3.3683194488188977
0
LINE
8
BLACK
6
CONTINUOUS
10
2.3691660629921261
20
-3.3683194488188977
11
2.3729155905511812
21
-3.3645699212598426
0
LINE
8
BLACK
6
CONTINUOUS
10
2.3729155905511812
20
-3.3645699212598426
11
2.3804146456692914
21
-3.3608203937007874
0
LINE
8
BLACK
6
CONTINUOUS
10
2.3804146456692914
20
-3.3608203937007874
11
2.3954127952755906
21
-3.3608203937007874
0
LINE
8
BLACK
6
CONTINUOUS
10
2.3954127952755906
20
-3.3608203937007874
11
2.4029118503937008
21
-3.3645699212598426
0
LINE
8
BLACK
6
CONTINUOUS
10
2.4029118503937008
20
-3.3645699212598426
11
2.4066613779527559
21
-3.3683194488188977
0
LINE
8
BLACK
6
CONTINUOUS
10
2.4066613779527559
20
-3.3683194488188977
11
2.410410905511811
21
-3.3758185039370079
0
LINE
8
BLACK
6
CONTINUOUS
10
2.410410905511811
20
-3.3758185039370079
11
2.410410905511811
21
-3.379568031496063
0
LINE
8
BLACK
6
CONTINUOUS
10
2.410410905511811
20
-3.379568031496063
11
2.4066613779527559
21
-3.3870670866141732
0
LINE
8
BLACK
6
CONTINUOUS
10
2.4066613779527559
20
-3.3870670866141732
11
2.4029118503937008
21
-3.3908166141732283
0
LINE
8
BLACK
6
CONTINUOUS
10
2.4029118503937008
20
-3.3908166141732283
11
2.3954127952755906
21
-3.3945661417322834
0
LINE
8
BLACK
6
CONTINUOUS
10
2.3954127952755906
20
-3.3945661417322834
11
2.3804146456692914
21
-3.3945661417322834
0
LINE
8
BLACK
6
CONTINUOUS
10
2.3804146456692914
20
-3.3945661417322834
11
2.3729155905511812
21
-3.3983157086614173
0
LINE
8
BLACK
6
CONTINUOUS
10
2.3729155905511812
20
-3.3983157086614173
11
2.3691660629921261
21
-3.4020652362204724
0
LINE
8
BLACK
6
CONTINUOUS
10
2.3691660629921261
20
-3.4020652362204724
11
2.365416535433071
21
-3.4095642913385826
0
LINE
8
BLACK
6
CONTINUOUS
10
2.365416535433071
20
-3.4095642913385826
11
2.365416535433071
21
-3.4245624015748031
0
LINE
8
BLACK
6
CONTINUOUS
10
2.365416535433071
20
-3.4245624015748031
11
2.3691660629921261
21
-3.4320614566929133
0
LINE
8
BLACK
6
CONTINUOUS
10
2.3691660629921261
20
-3.4320614566929133
11
2.3729155905511812
21
-3.4358110236220472
0
LINE
8
BLACK
6
CONTINUOUS
10
2.3729155905511812
20
-3.4358110236220472
11
2.3804146456692914
21
-3.4395605511811023
0
LINE
8
BLACK
6
CONTINUOUS
10
2.3804146456692914
20
-3.4395605511811023
11
2.3954127952755906
21
-3.4395605511811023
0
LINE
8
BLACK
6
CONTINUOUS
10
2.3954127952755906
20
-3.4395605511811023
11
2.4029118503937008
21
-3.4358110236220472
0
LINE
8
BLACK
6
CONTINUOUS
10
2.4029118503937008
20
-3.4358110236220472
11
2.4066613779527559
21
-3.4320614566929133
0
LINE
8
BLACK
6
CONTINUOUS
10
2.4066613779527559
20
-3.4320614566929133
11
2.410410905511811
21
-3.4245624015748031
0
LINE
8
BLACK
6
CONTINUOUS
10
2.410410905511811
20
-3.4245624015748031
11
2.410410905511811
21
-3.4095642913385826
0
LINE
8
BLACK
6
CONTINUOUS
10
2.410410905511811
20
-3.4095642913385826
11
2.4066613779527559
21
-3.4020652362204724
0
LINE
8
BLACK
6
CONTINUOUS
10
2.4066613779527559
20
-3.4020652362204724
11
2.4029118503937008
21
-3.3983157086614173
0
LINE
8
BLACK
6
CONTINUOUS
10
2.4029118503937008
20
-3.3983157086614173
11
2.3954127952755906
21
-3.3945661417322834
0
LINE
8
BLACK
6
CONTINUOUS
10
2.4404071653543307
20
-3.3608203937007874
11
2.4404071653543307
21
-3.3758185039370079
0
LINE
8
BLACK
6
CONTINUOUS
10
2.4704034251968503
20
-3.3608203937007874
11
2.4704034251968503
21
-3.3758185039370079
0
LINE
8
BLACK
6
CONTINUOUS
10
2.5866389370078742
20
-3.4695567716535431
11
2.5828893700787403
21
-3.465807244094488
0
LINE
8
BLACK
6
CONTINUOUS
10
2.5828893700787403
20
-3.465807244094488
11
2.5753903149606296
21
-3.4545586614173227
0
LINE
8
BLACK
6
CONTINUOUS
10
2.5753903149606296
20
-3.4545586614173227
11
2.5716407874015745
21
-3.4470596062992125
0
LINE
8
BLACK
6
CONTINUOUS
10
2.5716407874015745
20
-3.4470596062992125
11
2.5678912598425194
21
-3.4358110236220472
0
LINE
8
BLACK
6
CONTINUOUS
10
2.5678912598425194
20
-3.4358110236220472
11
2.5641417322834643
21
-3.4170633464566929
0
LINE
8
BLACK
6
CONTINUOUS
10
2.5641417322834643
20
-3.4170633464566929
11
2.5641417322834643
21
-3.4020652362204724
0
LINE
8
BLACK
6
CONTINUOUS
10
2.5641417322834643
20
-3.4020652362204724
11
2.5678912598425194
21
-3.3833175590551181
0
LINE
8
BLACK
6
CONTINUOUS
10
2.5678912598425194
20
-3.3833175590551181
11
2.5716407874015745
21
-3.3720689763779528
0
LINE
8
BLACK
6
CONTINUOUS
10
2.5716407874015745
20
-3.3720689763779528
11
2.5753903149606296
21
-3.3645699212598426
0
LINE
8
BLACK
6
CONTINUOUS
10
2.5753903149606296
20
-3.3645699212598426
11
2.5828893700787403
21
-3.3533212992125985
0
LINE
8
BLACK
6
CONTINUOUS
10
2.5828893700787403
20
-3.3533212992125985
11
2.5866389370078742
21
-3.3495717716535434
0
LINE
8
BLACK
6
CONTINUOUS
10
2.6128856299212599
20
-3.3683194488188977
11
2.6166351574803151
21
-3.3645699212598426
0
LINE
8
BLACK
6
CONTINUOUS
10
2.6166351574803151
20
-3.3645699212598426
11
2.6241342125984253
21
-3.3608203937007874
0
LINE
8
BLACK
6
CONTINUOUS
10
2.6241342125984253
20
-3.3608203937007874
11
2.6428818897637796
21
-3.3608203937007874
0
LINE
8
BLACK
6
CONTINUOUS
10
2.6428818897637796
20
-3.3608203937007874
11
2.6503809448818898
21
-3.3645699212598426
0
LINE
8
BLACK
6
CONTINUOUS
10
2.6503809448818898
20
-3.3645699212598426
11
2.6541304724409449
21
-3.3683194488188977
0
LINE
8
BLACK
6
CONTINUOUS
10
2.6541304724409449
20
-3.3683194488188977
11
2.65788
21
-3.3758185039370079
0
LINE
8
BLACK
6
CONTINUOUS
10
2.65788
20
-3.3758185039370079
11
2.65788
21
-3.3833175590551181
0
LINE
8
BLACK
6
CONTINUOUS
10
2.65788
20
-3.3833175590551181
11
2.6541304724409449
21
-3.3945661417322834
0
LINE
8
BLACK
6
CONTINUOUS
10
2.6541304724409449
20
-3.3945661417322834
11
2.6091361023622048
21
-3.4395605511811023
0
LINE
8
BLACK
6
CONTINUOUS
10
2.6091361023622048
20
-3.4395605511811023
11
2.65788
21
-3.4395605511811023
0
LINE
8
BLACK
6
CONTINUOUS
10
2.751618307086614
20
-3.4395605511811023
11
2.751618307086614
21
-3.3608203937007874
0
LINE
8
BLACK
6
CONTINUOUS
10
2.7853640944881888
20
-3.4395605511811023
11
2.7853640944881888
21
-3.3983157086614173
0
LINE
8
BLACK
6
CONTINUOUS
10
2.7853640944881888
20
-3.3983157086614173
11
2.7816145669291337
21
-3.3908166141732283
0
LINE
8
BLACK
6
CONTINUOUS
10
2.7816145669291337
20
-3.3908166141732283
11
2.7741155118110234
21
-3.3870670866141732
0
LINE
8
BLACK
6
CONTINUOUS
10
2.7741155118110234
20
-3.3870670866141732
11
2.7628668897637794
21
-3.3870670866141732
0
LINE
8
BLACK
6
CONTINUOUS
10
2.7628668897637794
20
-3.3870670866141732
11
2.7553678346456691
21
-3.3908166141732283
0
LINE
8
BLACK
6
CONTINUOUS
10
2.7553678346456691
20
-3.3908166141732283
11
2.751618307086614
21
-3.3945661417322834
0
LINE
8
BLACK
6
CONTINUOUS
10
2.834107992125984
20
-3.4395605511811023
11
2.8266089370078737
21
-3.4358110236220472
0
LINE
8
BLACK
6
CONTINUOUS
10
2.8266089370078737
20
-3.4358110236220472
11
2.8228594094488186
21
-3.4320614566929133
0
LINE
8
BLACK
6
CONTINUOUS
10
2.8228594094488186
20
-3.4320614566929133
11
2.8191098818897635
21
-3.4245624015748031
0
LINE
8
BLACK
6
CONTINUOUS
10
2.8191098818897635
20
-3.4245624015748031
11
2.8191098818897635
21
-3.4020652362204724
0
LINE
8
BLACK
6
CONTINUOUS
10
2.8191098818897635
20
-3.4020652362204724
11
2.8228594094488186
21
-3.3945661417322834
0
LINE
8
BLACK
6
CONTINUOUS
10
2.8228594094488186
20
-3.3945661417322834
11
2.8266089370078737
21
-3.3908166141732283
0
LINE
8
BLACK
6
CONTINUOUS
10
2.8266089370078737
20
-3.3908166141732283
11
2.834107992125984
21
-3.3870670866141732
0
LINE
8
BLACK
6
CONTINUOUS
10
2.834107992125984
20
-3.3870670866141732
11
2.8453566141732285
21
-3.3870670866141732
0
LINE
8
BLACK
6
CONTINUOUS
10
2.8453566141732285
20
-3.3870670866141732
11
2.8528556692913387
21
-3.3908166141732283
0
LINE
8
BLACK
6
CONTINUOUS
10
2.8528556692913387
20
-3.3908166141732283
11
2.8566051968503938
21
-3.3945661417322834
0
LINE
8
BLACK
6
CONTINUOUS
10
2.8566051968503938
20
-3.3945661417322834
11
2.8603547244094489
21
-3.4020652362204724
0
LINE
8
BLACK
6
CONTINUOUS
10
2.8603547244094489
20
-3.4020652362204724
11
2.8603547244094489
21
-3.4245624015748031
0
LINE
8
BLACK
6
CONTINUOUS
10
2.8603547244094489
20
-3.4245624015748031
11
2.8566051968503938
21
-3.4320614566929133
0
LINE
8
BLACK
6
CONTINUOUS
10
2.8566051968503938
20
-3.4320614566929133
11
2.8528556692913387
21
-3.4358110236220472
0
LINE
8
BLACK
6
CONTINUOUS
10
2.8528556692913387
20
-3.4358110236220472
11
2.8453566141732285
21
-3.4395605511811023
0
LINE
8
BLACK
6
CONTINUOUS
10
2.8453566141732285
20
-3.4395605511811023
11
2.834107992125984
21
-3.4395605511811023
0
LINE
8
BLACK
6
CONTINUOUS
10
2.905349094488189
20
-3.4395605511811023
11
2.8978500393700788
21
-3.4358110236220472
0
LINE
8
BLACK
6
CONTINUOUS
10
2.8978500393700788
20
-3.4358110236220472
11
2.8941005118110237
21
-3.4283119291338582
0
LINE
8
BLACK
6
CONTINUOUS
10
2.8941005118110237
20
-3.4283119291338582
11
2.8941005118110237
21
-3.3608203937007874
0
LINE
8
BLACK
6
CONTINUOUS
10
2.9653416141732283
20
-3.4358110236220472
11
2.9578425590551181
21
-3.4395605511811023
0
LINE
8
BLACK
6
CONTINUOUS
10
2.9578425590551181
20
-3.4395605511811023
11
2.9428444094488189
21
-3.4395605511811023
0
LINE
8
BLACK
6
CONTINUOUS
10
2.9428444094488189
20
-3.4395605511811023
11
2.9353453543307086
21
-3.4358110236220472
0
LINE
8
BLACK
6
CONTINUOUS
10
2.9353453543307086
20
-3.4358110236220472
11
2.9315958267716535
21
-3.4283119291338582
0
LINE
8
BLACK
6
CONTINUOUS
10
2.9315958267716535
20
-3.4283119291338582
11
2.9315958267716535
21
-3.3983157086614173
0
LINE
8
BLACK
6
CONTINUOUS
10
2.9315958267716535
20
-3.3983157086614173
11
2.9353453543307086
21
-3.3908166141732283
0
LINE
8
BLACK
6
CONTINUOUS
10
2.9353453543307086
20
-3.3908166141732283
11
2.9428444094488189
21
-3.3870670866141732
0
LINE
8
BLACK
6
CONTINUOUS
10
2.9428444094488189
20
-3.3870670866141732
11
2.9578425590551181
21
-3.3870670866141732
0
LINE
8
BLACK
6
CONTINUOUS
10
2.9578425590551181
20
-3.3870670866141732
11
2.9653416141732283
21
-3.3908166141732283
0
LINE
8
BLACK
6
CONTINUOUS
10
2.9653416141732283
20
-3.3908166141732283
11
2.9690911417322834
21
-3.3983157086614173
0
LINE
8
BLACK
6
CONTINUOUS
10
2.9690911417322834
20
-3.3983157086614173
11
2.9690911417322834
21
-3.4058147637795275
0
LINE
8
BLACK
6
CONTINUOUS
10
2.9690911417322834
20
-3.4058147637795275
11
2.9315958267716535
21
-3.4133138188976377
0
LINE
8
BLACK
6
CONTINUOUS
10
2.999087401574803
20
-3.4358110236220472
11
3.0065864566929132
21
-3.4395605511811023
0
LINE
8
BLACK
6
CONTINUOUS
10
3.0065864566929132
20
-3.4395605511811023
11
3.0215845669291337
21
-3.4395605511811023
0
LINE
8
BLACK
6
CONTINUOUS
10
3.0215845669291337
20
-3.4395605511811023
11
3.0290836614173227
21
-3.4358110236220472
0
LINE
8
BLACK
6
CONTINUOUS
10
3.0290836614173227
20
-3.4358110236220472
11
3.0328331889763778
21
-3.4283119291338582
0
LINE
8
BLACK
6
CONTINUOUS
10
3.0328331889763778
20
-3.4283119291338582
11
3.0328331889763778
21
-3.4245624015748031
0
LINE
8
BLACK
6
CONTINUOUS
10
3.0328331889763778
20
-3.4245624015748031
11
3.0290836614173227
21
-3.4170633464566929
0
LINE
8
BLACK
6
CONTINUOUS
10
3.0290836614173227
20
-3.4170633464566929
11
3.0215845669291337
21
-3.4133138188976377
0
LINE
8
BLACK
6
CONTINUOUS
10
3.0215845669291337
20
-3.4133138188976377
11
3.0103359842519684
21
-3.4133138188976377
0
LINE
8
BLACK
6
CONTINUOUS
10
3.0103359842519684
20
-3.4133138188976377
11
3.0028369291338581
21
-3.4095642913385826
0
LINE
8
BLACK
6
CONTINUOUS
10
3.0028369291338581
20
-3.4095642913385826
11
2.999087401574803
21
-3.4020652362204724
0
LINE
8
BLACK
6
CONTINUOUS
10
2.999087401574803
20
-3.4020652362204724
11
2.999087401574803
21
-3.3983157086614173
0
LINE
8
BLACK
6
CONTINUOUS
10
2.999087401574803
20
-3.3983157086614173
11
3.0028369291338581
21
-3.3908166141732283
0
LINE
8
BLACK
6
CONTINUOUS
10
3.0028369291338581
20
-3.3908166141732283
11
3.0103359842519684
21
-3.3870670866141732
0
LINE
8
BLACK
6
CONTINUOUS
10
3.0103359842519684
20
-3.3870670866141732
11
3.0215845669291337
21
-3.3870670866141732
0
LINE
8
BLACK
6
CONTINUOUS
10
3.0215845669291337
20
-3.3870670866141732
11
3.0290836614173227
21
-3.3908166141732283
0
LINE
8
BLACK
6
CONTINUOUS
10
3.0590799212598423
20
-3.4695567716535431
11
3.0628294488188974
21
-3.465807244094488
0
LINE
8
BLACK
6
CONTINUOUS
10
3.0628294488188974
20
-3.465807244094488
11
3.0703285039370076
21
-3.4545586614173227
0
LINE
8
BLACK
6
CONTINUOUS
10
3.0703285039370076
20
-3.4545586614173227
11
3.0740780314960627
21
-3.4470596062992125
0
LINE
8
BLACK
6
CONTINUOUS
10
3.0740780314960627
20
-3.4470596062992125
11
3.0778275590551178
21
-3.4358110236220472
0
LINE
8
BLACK
6
CONTINUOUS
10
3.0778275590551178
20
-3.4358110236220472
11
3.081577086614173
21
-3.4170633464566929
0
LINE
8
BLACK
6
CONTINUOUS
10
3.081577086614173
20
-3.4170633464566929
11
3.081577086614173
21
-3.4020652362204724
0
LINE
8
BLACK
6
CONTINUOUS
10
3.081577086614173
20
-3.4020652362204724
11
3.0778275590551178
21
-3.3833175590551181
0
LINE
8
BLACK
6
CONTINUOUS
10
3.0778275590551178
20
-3.3833175590551181
11
3.0740780314960627
21
-3.3720689763779528
0
LINE
8
BLACK
6
CONTINUOUS
10
3.0740780314960627
20
-3.3720689763779528
11
3.0703285039370076
21
-3.3645699212598426
0
LINE
8
BLACK
6
CONTINUOUS
10
3.0703285039370076
20
-3.3645699212598426
11
3.0628294488188974
21
-3.3533212992125985
0
LINE
8
BLACK
6
CONTINUOUS
10
3.0628294488188974
20
-3.3533212992125985
11
3.0590799212598423
21
-3.3495717716535434
0
LINE
8
BLACK
6
CONTINUOUS
10
3.2015621259842519
20
-3.4695567716535431
11
3.1978125590551181
21
-3.465807244094488
0
LINE
8
BLACK
6
CONTINUOUS
10
3.1978125590551181
20
-3.465807244094488
11
3.1903135039370079
21
-3.4545586614173227
0
LINE
8
BLACK
6
CONTINUOUS
10
3.1903135039370079
20
-3.4545586614173227
11
3.1865639763779527
21
-3.4470596062992125
0
LINE
8
BLACK
6
CONTINUOUS
10
3.1865639763779527
20
-3.4470596062992125
11
3.1828144488188976
21
-3.4358110236220472
0
LINE
8
BLACK
6
CONTINUOUS
10
3.1828144488188976
20
-3.4358110236220472
11
3.1790649212598425
21
-3.4170633464566929
0
LINE
8
BLACK
6
CONTINUOUS
10
3.1790649212598425
20
-3.4170633464566929
11
3.1790649212598425
21
-3.4020652362204724
0
LINE
8
BLACK
6
CONTINUOUS
10
3.1790649212598425
20
-3.4020652362204724
11
3.1828144488188976
21
-3.3833175590551181
0
LINE
8
BLACK
6
CONTINUOUS
10
3.1828144488188976
20
-3.3833175590551181
11
3.1865639763779527
21
-3.3720689763779528
0
LINE
8
BLACK
6
CONTINUOUS
10
3.1865639763779527
20
-3.3720689763779528
11
3.1903135039370079
21
-3.3645699212598426
0
LINE
8
BLACK
6
CONTINUOUS
10
3.1903135039370079
20
-3.3645699212598426
11
3.1978125590551181
21
-3.3533212992125985
0
LINE
8
BLACK
6
CONTINUOUS
10
3.1978125590551181
20
-3.3533212992125985
11
3.2015621259842519
21
-3.3495717716535434
0
LINE
8
BLACK
6
CONTINUOUS
10
3.2315583464566928
20
-3.3870670866141732
11
3.2315583464566928
21
-3.4395605511811023
0
LINE
8
BLACK
6
CONTINUOUS
10
3.2315583464566928
20
-3.3945661417322834
11
3.2353078740157479
21
-3.3908166141732283
0
LINE
8
BLACK
6
CONTINUOUS
10
3.2353078740157479
20
-3.3908166141732283
11
3.2428069291338582
21
-3.3870670866141732
0
LINE
8
BLACK
6
CONTINUOUS
10
3.2428069291338582
20
-3.3870670866141732
11
3.2540555511811022
21
-3.3870670866141732
0
LINE
8
BLACK
6
CONTINUOUS
10
3.2540555511811022
20
-3.3870670866141732
11
3.2615546062992125
21
-3.3908166141732283
0
LINE
8
BLACK
6
CONTINUOUS
10
3.2615546062992125
20
-3.3908166141732283
11
3.2653041338582676
21
-3.3983157086614173
0
LINE
8
BLACK
6
CONTINUOUS
10
3.2653041338582676
20
-3.3983157086614173
11
3.2653041338582676
21
-3.4395605511811023
0
LINE
8
BLACK
6
CONTINUOUS
10
3.3140480314960628
20
-3.4395605511811023
11
3.3065489763779525
21
-3.4358110236220472
0
LINE
8
BLACK
6
CONTINUOUS
10
3.3065489763779525
20
-3.4358110236220472
11
3.3027994488188974
21
-3.4320614566929133
0
LINE
8
BLACK
6
CONTINUOUS
10
3.3027994488188974
20
-3.4320614566929133
11
3.2990499212598423
21
-3.4245624015748031
0
LINE
8
BLACK
6
CONTINUOUS
10
3.2990499212598423
20
-3.4245624015748031
11
3.2990499212598423
21
-3.4020652362204724
0
LINE
8
BLACK
6
CONTINUOUS
10
3.2990499212598423
20
-3.4020652362204724
11
3.3027994488188974
21
-3.3945661417322834
0
LINE
8
BLACK
6
CONTINUOUS
10
3.3027994488188974
20
-3.3945661417322834
11
3.3065489763779525
21
-3.3908166141732283
0
LINE
8
BLACK
6
CONTINUOUS
10
3.3065489763779525
20
-3.3908166141732283
11
3.3140480314960628
21
-3.3870670866141732
0
LINE
8
BLACK
6
CONTINUOUS
10
3.3140480314960628
20
-3.3870670866141732
11
3.3252966535433068
21
-3.3870670866141732
0
LINE
8
BLACK
6
CONTINUOUS
10
3.3252966535433068
20
-3.3870670866141732
11
3.3327957086614171
21
-3.3908166141732283
0
LINE
8
BLACK
6
CONTINUOUS
10
3.3327957086614171
20
-3.3908166141732283
11
3.3365452362204722
21
-3.3945661417322834
0
LINE
8
BLACK
6
CONTINUOUS
10
3.3365452362204722
20
-3.3945661417322834
11
3.3402947637795273
21
-3.4020652362204724
0
LINE
8
BLACK
6
CONTINUOUS
10
3.3402947637795273
20
-3.4020652362204724
11
3.3402947637795273
21
-3.4245624015748031
0
LINE
8
BLACK
6
CONTINUOUS
10
3.3402947637795273
20
-3.4245624015748031
11
3.3365452362204722
21
-3.4320614566929133
0
LINE
8
BLACK
6
CONTINUOUS
10
3.3365452362204722
20
-3.4320614566929133
11
3.3327957086614171
21
-3.4358110236220472
0
LINE
8
BLACK
6
CONTINUOUS
10
3.3327957086614171
20
-3.4358110236220472
11
3.3252966535433068
21
-3.4395605511811023
0
LINE
8
BLACK
6
CONTINUOUS
10
3.3252966535433068
20
-3.4395605511811023
11
3.3140480314960628
21
-3.4395605511811023
0
LINE
8
BLACK
6
CONTINUOUS
10
3.3627919685039371
20
-3.3870670866141732
11
3.392788188976378
21
-3.3870670866141732
0
LINE
8
BLACK
6
CONTINUOUS
10
3.3740405511811025
20
-3.3608203937007874
11
3.3740405511811025
21
-3.4283119291338582
0
LINE
8
BLACK
6
CONTINUOUS
10
3.3740405511811025
20
-3.4283119291338582
11
3.3777900787401576
21
-3.4358110236220472
0
LINE
8
BLACK
6
CONTINUOUS
10
3.3777900787401576
20
-3.4358110236220472
11
3.3852891338582678
21
-3.4395605511811023
0
LINE
8
BLACK
6
CONTINUOUS
10
3.3852891338582678
20
-3.4395605511811023
11
3.392788188976378
21
-3.4395605511811023
0
LINE
8
BLACK
6
CONTINUOUS
10
3.4790274409448818
20
-3.3870670866141732
11
3.4790274409448818
21
-3.465807244094488
0
LINE
8
BLACK
6
CONTINUOUS
10
3.4790274409448818
20
-3.3908166141732283
11
3.486526496062992
21
-3.3870670866141732
0
LINE
8
BLACK
6
CONTINUOUS
10
3.486526496062992
20
-3.3870670866141732
11
3.5015246456692912
21
-3.3870670866141732
0
LINE
8
BLACK
6
CONTINUOUS
10
3.5015246456692912
20
-3.3870670866141732
11
3.5090237007874014
21
-3.3908166141732283
0
LINE
8
BLACK
6
CONTINUOUS
10
3.5090237007874014
20
-3.3908166141732283
11
3.5127732283464566
21
-3.3945661417322834
0
LINE
8
BLACK
6
CONTINUOUS
10
3.5127732283464566
20
-3.3945661417322834
11
3.5165227559055117
21
-3.4020652362204724
0
LINE
8
BLACK
6
CONTINUOUS
10
3.5165227559055117
20
-3.4020652362204724
11
3.5165227559055117
21
-3.4245624015748031
0
LINE
8
BLACK
6
CONTINUOUS
10
3.5165227559055117
20
-3.4245624015748031
11
3.5127732283464566
21
-3.4320614566929133
0
LINE
8
BLACK
6
CONTINUOUS
10
3.5127732283464566
20
-3.4320614566929133
11
3.5090237007874014
21
-3.4358110236220472
0
LINE
8
BLACK
6
CONTINUOUS
10
3.5090237007874014
20
-3.4358110236220472
11
3.5015246456692912
21
-3.4395605511811023
0
LINE
8
BLACK
6
CONTINUOUS
10
3.5015246456692912
20
-3.4395605511811023
11
3.486526496062992
21
-3.4395605511811023
0
LINE
8
BLACK
6
CONTINUOUS
10
3.486526496062992
20
-3.4395605511811023
11
3.4790274409448818
21
-3.4358110236220472
0
LINE
8
BLACK
6
CONTINUOUS
10
3.5615171259842517
20
-3.4395605511811023
11
3.5540180708661415
21
-3.4358110236220472
0
LINE
8
BLACK
6
CONTINUOUS
10
3.5540180708661415
20
-3.4358110236220472
11
3.5502685433070864
21
-3.4283119291338582
0
LINE
8
BLACK
6
CONTINUOUS
10
3.5502685433070864
20
-3.4283119291338582
11
3.5502685433070864
21
-3.3608203937007874
0
LINE
8
BLACK
6
CONTINUOUS
10
3.6252591732283466
20
-3.4395605511811023
11
3.6252591732283466
21
-3.3983157086614173
0
LINE
8
BLACK
6
CONTINUOUS
10
3.6252591732283466
20
-3.3983157086614173
11
3.6215096456692915
21
-3.3908166141732283
0
LINE
8
BLACK
6
CONTINUOUS
10
3.6215096456692915
20
-3.3908166141732283
11
3.6140105905511812
21
-3.3870670866141732
0
LINE
8
BLACK
6
CONTINUOUS
10
3.6140105905511812
20
-3.3870670866141732
11
3.5990124409448816
21
-3.3870670866141732
0
LINE
8
BLACK
6
CONTINUOUS
10
3.5990124409448816
20
-3.3870670866141732
11
3.5915133858267714
21
-3.3908166141732283
0
LINE
8
BLACK
6
CONTINUOUS
10
3.6252591732283466
20
-3.4358110236220472
11
3.6177601181102363
21
-3.4395605511811023
0
LINE
8
BLACK
6
CONTINUOUS
10
3.6177601181102363
20
-3.4395605511811023
11
3.5990124409448816
21
-3.4395605511811023
0
LINE
8
BLACK
6
CONTINUOUS
10
3.5990124409448816
20
-3.4395605511811023
11
3.5915133858267714
21
-3.4358110236220472
0
LINE
8
BLACK
6
CONTINUOUS
10
3.5915133858267714
20
-3.4358110236220472
11
3.5877638582677163
21
-3.4283119291338582
0
LINE
8
BLACK
6
CONTINUOUS
10
3.5877638582677163
20
-3.4283119291338582
11
3.5877638582677163
21
-3.420812874015748
0
LINE
8
BLACK
6
CONTINUOUS
10
3.5877638582677163
20
-3.420812874015748
11
3.5915133858267714
21
-3.4133138188976377
0
LINE
8
BLACK
6
CONTINUOUS
10
3.5915133858267714
20
-3.4133138188976377
11
3.5990124409448816
21
-3.4095642913385826
0
LINE
8
BLACK
6
CONTINUOUS
10
3.5990124409448816
20
-3.4095642913385826
11
3.6177601181102363
21
-3.4095642913385826
0
LINE
8
BLACK
6
CONTINUOUS
10
3.6177601181102363
20
-3.4095642913385826
11
3.6252591732283466
21
-3.4058147637795275
0
LINE
8
BLACK
6
CONTINUOUS
10
3.6515059055118111
20
-3.3870670866141732
11
3.681502125984252
21
-3.3870670866141732
0
LINE
8
BLACK
6
CONTINUOUS
10
3.6627544881889764
20
-3.3608203937007874
11
3.6627544881889764
21
-3.4283119291338582
0
LINE
8
BLACK
6
CONTINUOUS
10
3.6627544881889764
20
-3.4283119291338582
11
3.6665040157480315
21
-3.4358110236220472
0
LINE
8
BLACK
6
CONTINUOUS
10
3.6665040157480315
20
-3.4358110236220472
11
3.6740030708661418
21
-3.4395605511811023
0
LINE
8
BLACK
6
CONTINUOUS
10
3.6740030708661418
20
-3.4395605511811023
11
3.681502125984252
21
-3.4395605511811023
0
LINE
8
BLACK
6
CONTINUOUS
10
3.7377451181102361
20
-3.4358110236220472
11
3.7302460629921259
21
-3.4395605511811023
0
LINE
8
BLACK
6
CONTINUOUS
10
3.7302460629921259
20
-3.4395605511811023
11
3.7152479133858267
21
-3.4395605511811023
0
LINE
8
BLACK
6
CONTINUOUS
10
3.7152479133858267
20
-3.4395605511811023
11
3.7077488582677165
21
-3.4358110236220472
0
LINE
8
BLACK
6
CONTINUOUS
10
3.7077488582677165
20
-3.4358110236220472
11
3.7039993307086614
21
-3.4283119291338582
0
LINE
8
BLACK
6
CONTINUOUS
10
3.7039993307086614
20
-3.4283119291338582
11
3.7039993307086614
21
-3.3983157086614173
0
LINE
8
BLACK
6
CONTINUOUS
10
3.7039993307086614
20
-3.3983157086614173
11
3.7077488582677165
21
-3.3908166141732283
0
LINE
8
BLACK
6
CONTINUOUS
10
3.7077488582677165
20
-3.3908166141732283
11
3.7152479133858267
21
-3.3870670866141732
0
LINE
8
BLACK
6
CONTINUOUS
10
3.7152479133858267
20
-3.3870670866141732
11
3.7302460629921259
21
-3.3870670866141732
0
LINE
8
BLACK
6
CONTINUOUS
10
3.7302460629921259
20
-3.3870670866141732
11
3.7377451181102361
21
-3.3908166141732283
0
LINE
8
BLACK
6
CONTINUOUS
10
3.7377451181102361
20
-3.3908166141732283
11
3.7414946456692912
21
-3.3983157086614173
0
LINE
8
BLACK
6
CONTINUOUS
10
3.7414946456692912
20
-3.3983157086614173
11
3.7414946456692912
21
-3.4058147637795275
0
LINE
8
BLACK
6
CONTINUOUS
10
3.7414946456692912
20
-3.4058147637795275
11
3.7039993307086614
21
-3.4133138188976377
0
LINE
8
BLACK
6
CONTINUOUS
10
3.8089862204724407
20
-3.4395605511811023
11
3.8089862204724407
21
-3.3608203937007874
0
LINE
8
BLACK
6
CONTINUOUS
10
3.8089862204724407
20
-3.4358110236220472
11
3.8014871653543305
21
-3.4395605511811023
0
LINE
8
BLACK
6
CONTINUOUS
10
3.8014871653543305
20
-3.4395605511811023
11
3.7864890157480313
21
-3.4395605511811023
0
LINE
8
BLACK
6
CONTINUOUS
10
3.7864890157480313
20
-3.4395605511811023
11
3.7789899606299211
21
-3.4358110236220472
0
LINE
8
BLACK
6
CONTINUOUS
10
3.7789899606299211
20
-3.4358110236220472
11
3.775240433070866
21
-3.4320614566929133
0
LINE
8
BLACK
6
CONTINUOUS
10
3.775240433070866
20
-3.4320614566929133
11
3.7714909055118109
21
-3.4245624015748031
0
LINE
8
BLACK
6
CONTINUOUS
10
3.7714909055118109
20
-3.4245624015748031
11
3.7714909055118109
21
-3.4020652362204724
0
LINE
8
BLACK
6
CONTINUOUS
10
3.7714909055118109
20
-3.4020652362204724
11
3.775240433070866
21
-3.3945661417322834
0
LINE
8
BLACK
6
CONTINUOUS
10
3.775240433070866
20
-3.3945661417322834
11
3.7789899606299211
21
-3.3908166141732283
0
LINE
8
BLACK
6
CONTINUOUS
10
3.7789899606299211
20
-3.3908166141732283
11
3.7864890157480313
21
-3.3870670866141732
0
LINE
8
BLACK
6
CONTINUOUS
10
3.7864890157480313
20
-3.3870670866141732
11
3.8014871653543305
21
-3.3870670866141732
0
LINE
8
BLACK
6
CONTINUOUS
10
3.8014871653543305
20
-3.3870670866141732
11
3.8089862204724407
21
-3.3908166141732283
0
LINE
8
BLACK
6
CONTINUOUS
10
3.8389824803149604
20
-3.4695567716535431
11
3.8427320078740155
21
-3.465807244094488
0
LINE
8
BLACK
6
CONTINUOUS
10
3.8427320078740155
20
-3.465807244094488
11
3.8502310629921257
21
-3.4545586614173227
0
LINE
8
BLACK
6
CONTINUOUS
10
3.8502310629921257
20
-3.4545586614173227
11
3.8539805905511808
21
-3.4470596062992125
0
LINE
8
BLACK
6
CONTINUOUS
10
3.8539805905511808
20
-3.4470596062992125
11
3.8577301181102359
21
-3.4358110236220472
0
LINE
8
BLACK
6
CONTINUOUS
10
3.8577301181102359
20
-3.4358110236220472
11
3.8614796456692915
21
-3.4170633464566929
0
LINE
8
BLACK
6
CONTINUOUS
10
3.8614796456692915
20
-3.4170633464566929
11
3.8614796456692915
21
-3.4020652362204724
0
LINE
8
BLACK
6
CONTINUOUS
10
3.8614796456692915
20
-3.4020652362204724
11
3.8577301181102359
21
-3.3833175590551181
0
LINE
8
BLACK
6
CONTINUOUS
10
3.8577301181102359
20
-3.3833175590551181
11
3.8539805905511808
21
-3.3720689763779528
0
LINE
8
BLACK
6
CONTINUOUS
10
3.8539805905511808
20
-3.3720689763779528
11
3.8502310629921257
21
-3.3645699212598426
0
LINE
8
BLACK
6
CONTINUOUS
10
3.8502310629921257
20
-3.3645699212598426
11
3.8427320078740155
21
-3.3533212992125985
0
LINE
8
BLACK
6
CONTINUOUS
10
3.8427320078740155
20
-3.3533212992125985
11
3.8389824803149604
21
-3.3495717716535434
  0
ENDSEC
  0
EOF
