%TF.GenerationSoftware,KiCad,Pcbnew,7.0.11+dfsg-1build4*%
%TF.CreationDate,2025-07-11T21:35:19+02:00*%
%TF.ProjectId,ParaPRZEKAZNIK,50617261-5052-45a4-954b-415a4e494b2e,rev?*%
%TF.SameCoordinates,Original*%
%TF.FileFunction,Copper,L1,Top*%
%TF.FilePolarity,Positive*%
%FSLAX46Y46*%
G04 Gerber Fmt 4.6, Leading zero omitted, Abs format (unit mm)*
G04 Created by KiCad (PCBNEW 7.0.11+dfsg-1build4) date 2025-07-11 21:35:19*
%MOMM*%
%LPD*%
G01*
G04 APERTURE LIST*
G04 Aperture macros list*
%AMRoundRect*
0 Rectangle with rounded corners*
0 $1 Rounding radius*
0 $2 $3 $4 $5 $6 $7 $8 $9 X,Y pos of 4 corners*
0 Add a 4 corners polygon primitive as box body*
4,1,4,$2,$3,$4,$5,$6,$7,$8,$9,$2,$3,0*
0 Add four circle primitives for the rounded corners*
1,1,$1+$1,$2,$3*
1,1,$1+$1,$4,$5*
1,1,$1+$1,$6,$7*
1,1,$1+$1,$8,$9*
0 Add four rect primitives between the rounded corners*
20,1,$1+$1,$2,$3,$4,$5,0*
20,1,$1+$1,$4,$5,$6,$7,0*
20,1,$1+$1,$6,$7,$8,$9,0*
20,1,$1+$1,$8,$9,$2,$3,0*%
G04 Aperture macros list end*
%TA.AperFunction,SMDPad,CuDef*%
%ADD10RoundRect,0.250000X0.337500X0.475000X-0.337500X0.475000X-0.337500X-0.475000X0.337500X-0.475000X0*%
%TD*%
%TA.AperFunction,SMDPad,CuDef*%
%ADD11RoundRect,0.225000X-0.225000X-0.375000X0.225000X-0.375000X0.225000X0.375000X-0.225000X0.375000X0*%
%TD*%
%TA.AperFunction,SMDPad,CuDef*%
%ADD12RoundRect,0.250000X-0.250000X-0.250000X0.250000X-0.250000X0.250000X0.250000X-0.250000X0.250000X0*%
%TD*%
%TA.AperFunction,SMDPad,CuDef*%
%ADD13RoundRect,0.250000X-0.350000X-0.450000X0.350000X-0.450000X0.350000X0.450000X-0.350000X0.450000X0*%
%TD*%
%TA.AperFunction,SMDPad,CuDef*%
%ADD14RoundRect,0.250000X-0.325000X-0.450000X0.325000X-0.450000X0.325000X0.450000X-0.325000X0.450000X0*%
%TD*%
%TA.AperFunction,SMDPad,CuDef*%
%ADD15RoundRect,0.250000X-0.337500X-0.475000X0.337500X-0.475000X0.337500X0.475000X-0.337500X0.475000X0*%
%TD*%
%TA.AperFunction,SMDPad,CuDef*%
%ADD16RoundRect,0.150000X0.587500X0.150000X-0.587500X0.150000X-0.587500X-0.150000X0.587500X-0.150000X0*%
%TD*%
%TA.AperFunction,SMDPad,CuDef*%
%ADD17R,0.900000X0.900000*%
%TD*%
%TA.AperFunction,SMDPad,CuDef*%
%ADD18RoundRect,0.100000X0.100000X-0.712500X0.100000X0.712500X-0.100000X0.712500X-0.100000X-0.712500X0*%
%TD*%
%TA.AperFunction,SMDPad,CuDef*%
%ADD19RoundRect,0.250000X0.350000X0.450000X-0.350000X0.450000X-0.350000X-0.450000X0.350000X-0.450000X0*%
%TD*%
%TA.AperFunction,SMDPad,CuDef*%
%ADD20RoundRect,0.250000X0.475000X-0.337500X0.475000X0.337500X-0.475000X0.337500X-0.475000X-0.337500X0*%
%TD*%
%TA.AperFunction,ComponentPad*%
%ADD21RoundRect,0.250000X-1.550000X0.650000X-1.550000X-0.650000X1.550000X-0.650000X1.550000X0.650000X0*%
%TD*%
%TA.AperFunction,ComponentPad*%
%ADD22O,3.600000X1.800000*%
%TD*%
%TA.AperFunction,SMDPad,CuDef*%
%ADD23RoundRect,0.250000X0.450000X-0.350000X0.450000X0.350000X-0.450000X0.350000X-0.450000X-0.350000X0*%
%TD*%
%TA.AperFunction,SMDPad,CuDef*%
%ADD24RoundRect,0.250000X-0.850000X-0.350000X0.850000X-0.350000X0.850000X0.350000X-0.850000X0.350000X0*%
%TD*%
%TA.AperFunction,SMDPad,CuDef*%
%ADD25RoundRect,0.250000X-1.275000X-1.125000X1.275000X-1.125000X1.275000X1.125000X-1.275000X1.125000X0*%
%TD*%
%TA.AperFunction,SMDPad,CuDef*%
%ADD26RoundRect,0.249997X-2.950003X-2.650003X2.950003X-2.650003X2.950003X2.650003X-2.950003X2.650003X0*%
%TD*%
%TA.AperFunction,SMDPad,CuDef*%
%ADD27RoundRect,0.250000X-0.450000X0.350000X-0.450000X-0.350000X0.450000X-0.350000X0.450000X0.350000X0*%
%TD*%
%TA.AperFunction,SMDPad,CuDef*%
%ADD28RoundRect,0.100000X0.637500X0.100000X-0.637500X0.100000X-0.637500X-0.100000X0.637500X-0.100000X0*%
%TD*%
%TA.AperFunction,ComponentPad*%
%ADD29R,2.000000X2.000000*%
%TD*%
%TA.AperFunction,ComponentPad*%
%ADD30C,2.000000*%
%TD*%
%TA.AperFunction,SMDPad,CuDef*%
%ADD31RoundRect,0.150000X0.150000X-0.587500X0.150000X0.587500X-0.150000X0.587500X-0.150000X-0.587500X0*%
%TD*%
%TA.AperFunction,ComponentPad*%
%ADD32RoundRect,0.250000X-0.650000X-1.550000X0.650000X-1.550000X0.650000X1.550000X-0.650000X1.550000X0*%
%TD*%
%TA.AperFunction,ComponentPad*%
%ADD33O,1.800000X3.600000*%
%TD*%
%TA.AperFunction,SMDPad,CuDef*%
%ADD34RoundRect,0.225000X0.225000X0.375000X-0.225000X0.375000X-0.225000X-0.375000X0.225000X-0.375000X0*%
%TD*%
%TA.AperFunction,ComponentPad*%
%ADD35C,1.600000*%
%TD*%
%TA.AperFunction,SMDPad,CuDef*%
%ADD36RoundRect,0.225000X0.375000X-0.225000X0.375000X0.225000X-0.375000X0.225000X-0.375000X-0.225000X0*%
%TD*%
%TA.AperFunction,WasherPad*%
%ADD37C,3.650000*%
%TD*%
%TA.AperFunction,ComponentPad*%
%ADD38R,1.500000X1.500000*%
%TD*%
%TA.AperFunction,ComponentPad*%
%ADD39C,1.500000*%
%TD*%
%TA.AperFunction,SMDPad,CuDef*%
%ADD40R,0.700000X0.510000*%
%TD*%
%TA.AperFunction,SMDPad,CuDef*%
%ADD41RoundRect,0.150000X-0.587500X-0.150000X0.587500X-0.150000X0.587500X0.150000X-0.587500X0.150000X0*%
%TD*%
%TA.AperFunction,SMDPad,CuDef*%
%ADD42RoundRect,0.075000X-0.075000X0.337500X-0.075000X-0.337500X0.075000X-0.337500X0.075000X0.337500X0*%
%TD*%
%TA.AperFunction,SMDPad,CuDef*%
%ADD43RoundRect,0.075000X-0.337500X0.075000X-0.337500X-0.075000X0.337500X-0.075000X0.337500X0.075000X0*%
%TD*%
%TA.AperFunction,HeatsinkPad*%
%ADD44R,3.250000X3.250000*%
%TD*%
%TA.AperFunction,SMDPad,CuDef*%
%ADD45RoundRect,0.250001X0.924999X-0.499999X0.924999X0.499999X-0.924999X0.499999X-0.924999X-0.499999X0*%
%TD*%
%TA.AperFunction,SMDPad,CuDef*%
%ADD46RoundRect,0.125000X0.625000X0.125000X-0.625000X0.125000X-0.625000X-0.125000X0.625000X-0.125000X0*%
%TD*%
%TA.AperFunction,SMDPad,CuDef*%
%ADD47RoundRect,0.125000X0.125000X0.625000X-0.125000X0.625000X-0.125000X-0.625000X0.125000X-0.625000X0*%
%TD*%
%TA.AperFunction,SMDPad,CuDef*%
%ADD48RoundRect,0.250000X0.250000X-0.250000X0.250000X0.250000X-0.250000X0.250000X-0.250000X-0.250000X0*%
%TD*%
%TA.AperFunction,SMDPad,CuDef*%
%ADD49RoundRect,0.250000X-1.000000X-0.900000X1.000000X-0.900000X1.000000X0.900000X-1.000000X0.900000X0*%
%TD*%
%TA.AperFunction,ComponentPad*%
%ADD50R,1.700000X1.700000*%
%TD*%
%TA.AperFunction,ComponentPad*%
%ADD51O,1.700000X1.700000*%
%TD*%
%TA.AperFunction,ComponentPad*%
%ADD52R,1.600000X1.600000*%
%TD*%
%TA.AperFunction,ViaPad*%
%ADD53C,0.812800*%
%TD*%
%TA.AperFunction,ViaPad*%
%ADD54C,2.032000*%
%TD*%
%TA.AperFunction,ViaPad*%
%ADD55C,0.508000*%
%TD*%
%TA.AperFunction,ViaPad*%
%ADD56C,1.524000*%
%TD*%
%TA.AperFunction,Conductor*%
%ADD57C,0.508000*%
%TD*%
%TA.AperFunction,Conductor*%
%ADD58C,1.016000*%
%TD*%
%TA.AperFunction,Conductor*%
%ADD59C,2.032000*%
%TD*%
%TA.AperFunction,Conductor*%
%ADD60C,0.254000*%
%TD*%
G04 APERTURE END LIST*
D10*
%TO.P,C16,1*%
%TO.N,GND*%
X64283500Y-54102000D03*
%TO.P,C16,2*%
%TO.N,+3V3*%
X62208500Y-54102000D03*
%TD*%
D11*
%TO.P,D11,1,K*%
%TO.N,+12V*%
X51182000Y-50292000D03*
%TO.P,D11,2,A*%
%TO.N,Net-(D11-A)*%
X54482000Y-50292000D03*
%TD*%
%TO.P,D10,1,K*%
%TO.N,+12V*%
X41022000Y-50292000D03*
%TO.P,D10,2,A*%
%TO.N,Net-(D10-A)*%
X44322000Y-50292000D03*
%TD*%
D12*
%TO.P,D3,1,A1*%
%TO.N,Net-(D3-A1)*%
X79268000Y-72390000D03*
%TO.P,D3,2,A2*%
%TO.N,GND*%
X81768000Y-72390000D03*
%TD*%
D13*
%TO.P,R2,1*%
%TO.N,485B*%
X57166000Y-54610000D03*
%TO.P,R2,2*%
%TO.N,485A*%
X59166000Y-54610000D03*
%TD*%
D14*
%TO.P,L5,1,1*%
%TO.N,+BATT*%
X79239000Y-75692000D03*
%TO.P,L5,2,2*%
%TO.N,+12V*%
X81289000Y-75692000D03*
%TD*%
D15*
%TO.P,C11,1*%
%TO.N,Net-(D3-A1)*%
X79480500Y-69342000D03*
%TO.P,C11,2*%
%TO.N,GND*%
X81555500Y-69342000D03*
%TD*%
D14*
%TO.P,L4,1,1*%
%TO.N,Net-(J1-Pin_4)*%
X41139000Y-65024000D03*
%TO.P,L4,2,2*%
%TO.N,/F-*%
X43189000Y-65024000D03*
%TD*%
D16*
%TO.P,Q2,1,B*%
%TO.N,/BASE_R1*%
X49276000Y-51816000D03*
%TO.P,Q2,2,E*%
%TO.N,GND*%
X49276000Y-49916000D03*
%TO.P,Q2,3,C*%
%TO.N,Net-(D10-A)*%
X47401000Y-50866000D03*
%TD*%
D17*
%TO.P,RN2,1,R1.1*%
%TO.N,/BASE_R4*%
X79280000Y-56364000D03*
%TO.P,RN2,2,R2.1*%
%TO.N,/BASE_R3*%
X80620000Y-56364000D03*
%TO.P,RN2,3,R3.1*%
%TO.N,/BASE_R2*%
X81940000Y-56364000D03*
%TO.P,RN2,4,R4.1*%
%TO.N,/BASE_R1*%
X83280000Y-56364000D03*
%TO.P,RN2,5,R4.2*%
%TO.N,/R1*%
X83280000Y-53364000D03*
%TO.P,RN2,6,R3.2*%
%TO.N,/R2*%
X81940000Y-53364000D03*
%TO.P,RN2,7,R2.2*%
%TO.N,/R3*%
X80620000Y-53364000D03*
%TO.P,RN2,8,R1.2*%
%TO.N,/R4*%
X79280000Y-53364000D03*
%TD*%
D18*
%TO.P,U2,1,RO*%
%TO.N,/USART1_RX*%
X56937000Y-61040500D03*
%TO.P,U2,2,~{RE}*%
%TO.N,/USART1_DE*%
X57587000Y-61040500D03*
%TO.P,U2,3,DE*%
X58237000Y-61040500D03*
%TO.P,U2,4,DI*%
%TO.N,/USART1_TX*%
X58887000Y-61040500D03*
%TO.P,U2,5,GND*%
%TO.N,GND*%
X58887000Y-56815500D03*
%TO.P,U2,6,A*%
%TO.N,485A*%
X58237000Y-56815500D03*
%TO.P,U2,7,B*%
%TO.N,485B*%
X57587000Y-56815500D03*
%TO.P,U2,8,VCC*%
%TO.N,+3V3*%
X56937000Y-56815500D03*
%TD*%
D19*
%TO.P,R3,1*%
%TO.N,GND*%
X60436000Y-78740000D03*
%TO.P,R3,2*%
%TO.N,MICRO_CTRL*%
X58436000Y-78740000D03*
%TD*%
D17*
%TO.P,RN1,1,R1.1*%
%TO.N,/UC_R4*%
X57372000Y-73684000D03*
%TO.P,RN1,2,R2.1*%
%TO.N,/UC_R3*%
X56032000Y-73684000D03*
%TO.P,RN1,3,R3.1*%
%TO.N,/UC_R2*%
X54712000Y-73684000D03*
%TO.P,RN1,4,R4.1*%
%TO.N,/UC_R1*%
X53372000Y-73684000D03*
%TO.P,RN1,5,R4.2*%
%TO.N,/R1*%
X53372000Y-76684000D03*
%TO.P,RN1,6,R3.2*%
%TO.N,/R2*%
X54712000Y-76684000D03*
%TO.P,RN1,7,R2.2*%
%TO.N,/R3*%
X56032000Y-76684000D03*
%TO.P,RN1,8,R1.2*%
%TO.N,/R4*%
X57372000Y-76684000D03*
%TD*%
D19*
%TO.P,R8,1*%
%TO.N,/ACTIVE_LO*%
X81264000Y-64008000D03*
%TO.P,R8,2*%
%TO.N,Net-(Q1-B)*%
X79264000Y-64008000D03*
%TD*%
D20*
%TO.P,C12,1*%
%TO.N,Net-(U3-C1+)*%
X71120000Y-59965500D03*
%TO.P,C12,2*%
%TO.N,Net-(U3-C1-)*%
X71120000Y-57890500D03*
%TD*%
D21*
%TO.P,J1,1,Pin_1*%
%TO.N,Net-(J1-Pin_1)*%
X35425500Y-53230500D03*
D22*
%TO.P,J1,2,Pin_2*%
%TO.N,Net-(J1-Pin_2)*%
X35425500Y-57040500D03*
%TO.P,J1,3,Pin_3*%
%TO.N,Net-(J1-Pin_3)*%
X35425500Y-60850500D03*
%TO.P,J1,4,Pin_4*%
%TO.N,Net-(J1-Pin_4)*%
X35425500Y-64660500D03*
%TD*%
D23*
%TO.P,R12,1*%
%TO.N,/UC_R5*%
X60960000Y-74152000D03*
%TO.P,R12,2*%
%TO.N,/R5*%
X60960000Y-72152000D03*
%TD*%
D11*
%TO.P,D12,1,K*%
%TO.N,+12V*%
X60326000Y-50800000D03*
%TO.P,D12,2,A*%
%TO.N,Net-(D12-A)*%
X63626000Y-50800000D03*
%TD*%
D19*
%TO.P,R9,1*%
%TO.N,/ACTIVE_LO*%
X81518000Y-60960000D03*
%TO.P,R9,2*%
%TO.N,+3V3*%
X79518000Y-60960000D03*
%TD*%
D24*
%TO.P,U5,1,GND*%
%TO.N,GND*%
X92964000Y-60712000D03*
%TO.P,U5,2,VO*%
%TO.N,+3V3*%
X92964000Y-62992000D03*
D25*
X97589000Y-61467000D03*
X97589000Y-64517000D03*
D26*
X99264000Y-62992000D03*
D25*
X100939000Y-61467000D03*
X100939000Y-64517000D03*
D24*
%TO.P,U5,3,VI*%
%TO.N,+12V*%
X92964000Y-65272000D03*
%TD*%
D27*
%TO.P,R5,1*%
%TO.N,/USART1_DE*%
X58928000Y-64786000D03*
%TO.P,R5,2*%
%TO.N,+3V3*%
X58928000Y-66786000D03*
%TD*%
D28*
%TO.P,U3,1,C1+*%
%TO.N,Net-(U3-C1+)*%
X68394500Y-60187000D03*
%TO.P,U3,2,VS+*%
%TO.N,Net-(U3-VS+)*%
X68394500Y-59537000D03*
%TO.P,U3,3,C1-*%
%TO.N,Net-(U3-C1-)*%
X68394500Y-58887000D03*
%TO.P,U3,4,C2+*%
%TO.N,Net-(U3-C2+)*%
X68394500Y-58237000D03*
%TO.P,U3,5,C2-*%
%TO.N,Net-(U3-C2-)*%
X68394500Y-57587000D03*
%TO.P,U3,6,VS-*%
%TO.N,Net-(U3-VS-)*%
X68394500Y-56937000D03*
%TO.P,U3,7,T2OUT*%
%TO.N,unconnected-(U3-T2OUT-Pad7)*%
X68394500Y-56287000D03*
%TO.P,U3,8,R2IN*%
%TO.N,unconnected-(U3-R2IN-Pad8)*%
X68394500Y-55637000D03*
%TO.P,U3,9,R2OUT*%
%TO.N,USART2_RX*%
X62669500Y-55637000D03*
%TO.P,U3,10,T2IN*%
%TO.N,unconnected-(U3-T2IN-Pad10)*%
X62669500Y-56287000D03*
%TO.P,U3,11,T1IN*%
%TO.N,USART2_TX*%
X62669500Y-56937000D03*
%TO.P,U3,12,R1OUT*%
%TO.N,unconnected-(U3-R1OUT-Pad12)*%
X62669500Y-57587000D03*
%TO.P,U3,13,R1IN*%
%TO.N,/RS232_RX*%
X62669500Y-58237000D03*
%TO.P,U3,14,T1OUT*%
%TO.N,/RS232_TX*%
X62669500Y-58887000D03*
%TO.P,U3,15,GND*%
%TO.N,GND*%
X62669500Y-59537000D03*
%TO.P,U3,16,VCC*%
%TO.N,+3V3*%
X62669500Y-60187000D03*
%TD*%
D29*
%TO.P,K3,1*%
%TO.N,Net-(J8-Pin_1)*%
X62606500Y-47619500D03*
D30*
%TO.P,K3,2*%
%TO.N,+12V*%
X65146500Y-47619500D03*
%TO.P,K3,5*%
%TO.N,Net-(J8-Pin_2)*%
X72766500Y-47619500D03*
%TO.P,K3,6*%
X72766500Y-42539500D03*
%TO.P,K3,9*%
%TO.N,Net-(D12-A)*%
X65146500Y-42539500D03*
%TO.P,K3,10*%
%TO.N,Net-(J8-Pin_3)*%
X62606500Y-42539500D03*
%TD*%
D31*
%TO.P,Q6,1,B*%
%TO.N,/BASE_R5*%
X101666000Y-52245500D03*
%TO.P,Q6,2,E*%
%TO.N,GND*%
X103566000Y-52245500D03*
%TO.P,Q6,3,C*%
%TO.N,Net-(D14-A)*%
X102616000Y-50370500D03*
%TD*%
D11*
%TO.P,D6,1,K*%
%TO.N,/R2*%
X90298000Y-54356000D03*
%TO.P,D6,2,A*%
%TO.N,/RELAYS_CTRL*%
X93598000Y-54356000D03*
%TD*%
D32*
%TO.P,J6,1,Pin_1*%
%TO.N,Net-(J6-Pin_1)*%
X34617500Y-37086000D03*
D33*
%TO.P,J6,2,Pin_2*%
%TO.N,Net-(J6-Pin_2)*%
X38117500Y-37086000D03*
%TO.P,J6,3,Pin_3*%
%TO.N,Net-(J6-Pin_3)*%
X41617500Y-37086000D03*
%TD*%
D27*
%TO.P,R13,1*%
%TO.N,/R5*%
X76200000Y-52848000D03*
%TO.P,R13,2*%
%TO.N,/BASE_R5*%
X76200000Y-54848000D03*
%TD*%
D15*
%TO.P,C17,1*%
%TO.N,GND*%
X96498500Y-58420000D03*
%TO.P,C17,2*%
%TO.N,+3V3*%
X98573500Y-58420000D03*
%TD*%
D34*
%TO.P,D5,1,K*%
%TO.N,/R1*%
X98678000Y-54356000D03*
%TO.P,D5,2,A*%
%TO.N,/RELAYS_CTRL*%
X95378000Y-54356000D03*
%TD*%
D35*
%TO.P,SW1,1,A*%
%TO.N,/ACTIVE_LO*%
X84368000Y-60543000D03*
%TO.P,SW1,2,B*%
%TO.N,Net-(SW1A-B)*%
X86868000Y-60543000D03*
%TO.P,SW1,3,C*%
%TO.N,ACTIVE_HI*%
X89368000Y-60543000D03*
%TO.P,SW1,4,A*%
%TO.N,/ACTIVE_LO*%
X84368000Y-63843000D03*
%TO.P,SW1,5,B*%
%TO.N,Net-(D3-A1)*%
X86868000Y-63843000D03*
%TO.P,SW1,6,C*%
%TO.N,Net-(SW1B-C)*%
X89368000Y-63843000D03*
%TD*%
D36*
%TO.P,D14,1,K*%
%TO.N,+12V*%
X88392000Y-53466000D03*
%TO.P,D14,2,A*%
%TO.N,Net-(D14-A)*%
X88392000Y-50166000D03*
%TD*%
D32*
%TO.P,J8,1,Pin_1*%
%TO.N,Net-(J8-Pin_1)*%
X64058750Y-37086000D03*
D33*
%TO.P,J8,2,Pin_2*%
%TO.N,Net-(J8-Pin_2)*%
X67558750Y-37086000D03*
%TO.P,J8,3,Pin_3*%
%TO.N,Net-(J8-Pin_3)*%
X71058750Y-37086000D03*
%TD*%
D11*
%TO.P,D13,1,K*%
%TO.N,+12V*%
X76582000Y-50546000D03*
%TO.P,D13,2,A*%
%TO.N,Net-(D13-A)*%
X79882000Y-50546000D03*
%TD*%
D37*
%TO.P,J2,*%
%TO.N,*%
X64506500Y-71366000D03*
X75936500Y-71366000D03*
D38*
%TO.P,J2,1*%
%TO.N,unconnected-(J2-Pad1)*%
X65776500Y-65016000D03*
D39*
%TO.P,J2,2*%
%TO.N,unconnected-(J2-Pad2)*%
X67046500Y-62476000D03*
%TO.P,J2,3*%
%TO.N,/RS232_TX*%
X68316500Y-65016000D03*
%TO.P,J2,4*%
%TO.N,GND*%
X69586500Y-62476000D03*
%TO.P,J2,5*%
X70856500Y-65016000D03*
%TO.P,J2,6*%
%TO.N,/RS232_RX*%
X72126500Y-62476000D03*
%TO.P,J2,7*%
%TO.N,485A*%
X73396500Y-65016000D03*
%TO.P,J2,8*%
%TO.N,485B*%
X74666500Y-62476000D03*
%TD*%
D15*
%TO.P,C1,1*%
%TO.N,GND*%
X41126500Y-54864000D03*
%TO.P,C1,2*%
%TO.N,/F+*%
X43201500Y-54864000D03*
%TD*%
D29*
%TO.P,K2,1*%
%TO.N,Net-(J7-Pin_1)*%
X47874500Y-47619500D03*
D30*
%TO.P,K2,2*%
%TO.N,+12V*%
X50414500Y-47619500D03*
%TO.P,K2,5*%
%TO.N,Net-(J7-Pin_2)*%
X58034500Y-47619500D03*
%TO.P,K2,6*%
X58034500Y-42539500D03*
%TO.P,K2,9*%
%TO.N,Net-(D11-A)*%
X50414500Y-42539500D03*
%TO.P,K2,10*%
%TO.N,Net-(J7-Pin_3)*%
X47874500Y-42539500D03*
%TD*%
D13*
%TO.P,R10,1*%
%TO.N,BOOT0*%
X49292000Y-75184000D03*
%TO.P,R10,2*%
%TO.N,GND*%
X51292000Y-75184000D03*
%TD*%
D11*
%TO.P,D9,1,K*%
%TO.N,/R5*%
X85218000Y-55372000D03*
%TO.P,D9,2,A*%
%TO.N,/RELAYS_CTRL*%
X88518000Y-55372000D03*
%TD*%
D40*
%TO.P,U6,1*%
%TO.N,Net-(SW1A-B)*%
X92312000Y-56454000D03*
%TO.P,U6,2,GND*%
%TO.N,GND*%
X92312000Y-57404000D03*
%TO.P,U6,3*%
%TO.N,Net-(SW1B-C)*%
X92312000Y-58354000D03*
%TO.P,U6,4*%
%TO.N,ACTIVE_HI*%
X94632000Y-58354000D03*
%TO.P,U6,5,VCC*%
%TO.N,+3V3*%
X94632000Y-57404000D03*
%TO.P,U6,6*%
%TO.N,/RELAYS_CTRL*%
X94632000Y-56454000D03*
%TD*%
D41*
%TO.P,Q5,1,B*%
%TO.N,/BASE_R4*%
X83898500Y-49850000D03*
%TO.P,Q5,2,E*%
%TO.N,GND*%
X83898500Y-51750000D03*
%TO.P,Q5,3,C*%
%TO.N,Net-(D13-A)*%
X85773500Y-50800000D03*
%TD*%
D29*
%TO.P,K1,1*%
%TO.N,Net-(J6-Pin_1)*%
X33142500Y-47619500D03*
D30*
%TO.P,K1,2*%
%TO.N,+12V*%
X35682500Y-47619500D03*
%TO.P,K1,5*%
%TO.N,Net-(J6-Pin_2)*%
X43302500Y-47619500D03*
%TO.P,K1,6*%
X43302500Y-42539500D03*
%TO.P,K1,9*%
%TO.N,Net-(D10-A)*%
X35682500Y-42539500D03*
%TO.P,K1,10*%
%TO.N,Net-(J6-Pin_3)*%
X33142500Y-42539500D03*
%TD*%
D15*
%TO.P,C6,1*%
%TO.N,GND*%
X41126500Y-67056000D03*
%TO.P,C6,2*%
%TO.N,/F-*%
X43201500Y-67056000D03*
%TD*%
%TO.P,C4,1*%
%TO.N,GND*%
X41126500Y-62992000D03*
%TO.P,C4,2*%
%TO.N,/R-*%
X43201500Y-62992000D03*
%TD*%
D42*
%TO.P,U1,1,BIAS*%
%TO.N,Net-(U1-BIAS)*%
X50473500Y-55250500D03*
%TO.P,U1,2,REFIN+*%
X49823500Y-55250500D03*
%TO.P,U1,3,REFIN-*%
%TO.N,Net-(U1-ISENSOR)*%
X49173500Y-55250500D03*
%TO.P,U1,4,ISENSOR*%
X48523500Y-55250500D03*
%TO.P,U1,5,FORCE+*%
%TO.N,/F+*%
X47873500Y-55250500D03*
D43*
%TO.P,U1,6,FORCE2*%
%TO.N,GND*%
X46736000Y-56388000D03*
%TO.P,U1,7,RTDIN+*%
%TO.N,/R+*%
X46736000Y-57038000D03*
%TO.P,U1,8,RTDIN-*%
%TO.N,/R-*%
X46736000Y-57688000D03*
%TO.P,U1,9,FORCE-*%
%TO.N,/F-*%
X46736000Y-58338000D03*
%TO.P,U1,10,GND*%
%TO.N,GND*%
X46736000Y-58988000D03*
D42*
%TO.P,U1,11,SDI*%
%TO.N,/SPI_MOSI*%
X47873500Y-60125500D03*
%TO.P,U1,12,SCLK*%
%TO.N,/SPI_CLK*%
X48523500Y-60125500D03*
%TO.P,U1,13,~{CS}*%
%TO.N,/SPI_CS*%
X49173500Y-60125500D03*
%TO.P,U1,14,SDO*%
%TO.N,/SPI_MISO*%
X49823500Y-60125500D03*
%TO.P,U1,15,DGND*%
%TO.N,GND*%
X50473500Y-60125500D03*
D43*
%TO.P,U1,16,GND*%
X51611000Y-58988000D03*
%TO.P,U1,17,NC*%
%TO.N,unconnected-(U1-NC-Pad17)*%
X51611000Y-58338000D03*
%TO.P,U1,18,~{DRDY}*%
%TO.N,unconnected-(U1-~{DRDY}-Pad18)*%
X51611000Y-57688000D03*
%TO.P,U1,19,DVDD*%
%TO.N,+3V3*%
X51611000Y-57038000D03*
%TO.P,U1,20,VDD*%
X51611000Y-56388000D03*
D44*
%TO.P,U1,21,GND*%
%TO.N,GND*%
X49173500Y-57688000D03*
%TD*%
D11*
%TO.P,D8,1,K*%
%TO.N,/R4*%
X95378000Y-51816000D03*
%TO.P,D8,2,A*%
%TO.N,/RELAYS_CTRL*%
X98678000Y-51816000D03*
%TD*%
D32*
%TO.P,J4,1,Pin_1*%
%TO.N,Net-(D1-A)*%
X94036000Y-74676000D03*
D33*
%TO.P,J4,2,Pin_2*%
%TO.N,/CONTROL_SIG*%
X97536000Y-74676000D03*
%TO.P,J4,3,Pin_3*%
%TO.N,GND*%
X101036000Y-74676000D03*
%TD*%
D15*
%TO.P,C5,1*%
%TO.N,Net-(U3-VS+)*%
X66526500Y-53848000D03*
%TO.P,C5,2*%
%TO.N,GND*%
X68601500Y-53848000D03*
%TD*%
D16*
%TO.P,Q1,1,B*%
%TO.N,Net-(Q1-B)*%
X75105500Y-59878000D03*
%TO.P,Q1,2,E*%
%TO.N,/ACTIVE_LO*%
X75105500Y-57978000D03*
%TO.P,Q1,3,C*%
%TO.N,GND*%
X73230500Y-58928000D03*
%TD*%
D23*
%TO.P,R6,1*%
%TO.N,GND*%
X60960000Y-66786000D03*
%TO.P,R6,2*%
%TO.N,/USART1_TX*%
X60960000Y-64786000D03*
%TD*%
D29*
%TO.P,K4,1*%
%TO.N,Net-(J9-Pin_1)*%
X77338500Y-47619500D03*
D30*
%TO.P,K4,2*%
%TO.N,+12V*%
X79878500Y-47619500D03*
%TO.P,K4,5*%
%TO.N,Net-(J9-Pin_2)*%
X87498500Y-47619500D03*
%TO.P,K4,6*%
X87498500Y-42539500D03*
%TO.P,K4,9*%
%TO.N,Net-(D13-A)*%
X79878500Y-42539500D03*
%TO.P,K4,10*%
%TO.N,Net-(J9-Pin_3)*%
X77338500Y-42539500D03*
%TD*%
D14*
%TO.P,L3,1,1*%
%TO.N,Net-(J1-Pin_2)*%
X41139000Y-56896000D03*
%TO.P,L3,2,2*%
%TO.N,/R+*%
X43189000Y-56896000D03*
%TD*%
D10*
%TO.P,C13,1*%
%TO.N,GND*%
X81555500Y-78740000D03*
%TO.P,C13,2*%
%TO.N,+BATT*%
X79480500Y-78740000D03*
%TD*%
D13*
%TO.P,R11,1*%
%TO.N,RESET*%
X41164000Y-69088000D03*
%TO.P,R11,2*%
%TO.N,GND*%
X43164000Y-69088000D03*
%TD*%
D45*
%TO.P,C18,1*%
%TO.N,+3V3*%
X102616000Y-58013000D03*
%TO.P,C18,2*%
%TO.N,GND*%
X102616000Y-54763000D03*
%TD*%
D21*
%TO.P,J3,1,Pin_1*%
%TO.N,Net-(J3-Pin_1)*%
X35425500Y-71927500D03*
D22*
%TO.P,J3,2,Pin_2*%
%TO.N,GND*%
X35425500Y-75427500D03*
%TD*%
D14*
%TO.P,L2,1,1*%
%TO.N,Net-(J1-Pin_3)*%
X41139000Y-60960000D03*
%TO.P,L2,2,2*%
%TO.N,/R-*%
X43189000Y-60960000D03*
%TD*%
D19*
%TO.P,R14,1*%
%TO.N,Net-(U1-BIAS)*%
X51292000Y-53594000D03*
%TO.P,R14,2*%
%TO.N,Net-(U1-ISENSOR)*%
X49292000Y-53594000D03*
%TD*%
D10*
%TO.P,C8,1*%
%TO.N,GND*%
X55393500Y-78740000D03*
%TO.P,C8,2*%
%TO.N,MICRO_CTRL*%
X53318500Y-78740000D03*
%TD*%
D29*
%TO.P,K5,1*%
%TO.N,Net-(J10-Pin_1)*%
X92070500Y-47619500D03*
D30*
%TO.P,K5,2*%
%TO.N,+12V*%
X94610500Y-47619500D03*
%TO.P,K5,5*%
%TO.N,Net-(J10-Pin_2)*%
X102230500Y-47619500D03*
%TO.P,K5,6*%
X102230500Y-42539500D03*
%TO.P,K5,9*%
%TO.N,Net-(D14-A)*%
X94610500Y-42539500D03*
%TO.P,K5,10*%
%TO.N,Net-(J10-Pin_3)*%
X92070500Y-42539500D03*
%TD*%
D46*
%TO.P,U4,1,VDD*%
%TO.N,+3V3*%
X56499000Y-69348000D03*
%TO.P,U4,2,PC14*%
%TO.N,unconnected-(U4-PC14-Pad2)*%
X56499000Y-68548000D03*
%TO.P,U4,3,PC15*%
%TO.N,unconnected-(U4-PC15-Pad3)*%
X56499000Y-67748000D03*
%TO.P,U4,4,NRST*%
%TO.N,RESET*%
X56499000Y-66948000D03*
%TO.P,U4,5,VDDA*%
%TO.N,+3V3*%
X56499000Y-66148000D03*
%TO.P,U4,6,PA0*%
%TO.N,unconnected-(U4-PA0-Pad6)*%
X56499000Y-65348000D03*
%TO.P,U4,7,PA1*%
%TO.N,unconnected-(U4-PA1-Pad7)*%
X56499000Y-64548000D03*
%TO.P,U4,8,PA2*%
%TO.N,USART2_TX*%
X56499000Y-63748000D03*
D47*
%TO.P,U4,9,PA3*%
%TO.N,USART2_RX*%
X55124000Y-62373000D03*
%TO.P,U4,10,PA4*%
%TO.N,/SPI_CS*%
X54324000Y-62373000D03*
%TO.P,U4,11,PA5*%
%TO.N,/SPI_CLK*%
X53524000Y-62373000D03*
%TO.P,U4,12,PA6*%
%TO.N,/SPI_MISO*%
X52724000Y-62373000D03*
%TO.P,U4,13,PA7*%
%TO.N,/SPI_MOSI*%
X51924000Y-62373000D03*
%TO.P,U4,14,PB0*%
%TO.N,unconnected-(U4-PB0-Pad14)*%
X51124000Y-62373000D03*
%TO.P,U4,15,PB1*%
%TO.N,MICRO_CTRL*%
X50324000Y-62373000D03*
%TO.P,U4,16,VSS*%
%TO.N,GND*%
X49524000Y-62373000D03*
D46*
%TO.P,U4,17,VDD*%
%TO.N,+3V3*%
X48149000Y-63748000D03*
%TO.P,U4,18,PA8*%
%TO.N,unconnected-(U4-PA8-Pad18)*%
X48149000Y-64548000D03*
%TO.P,U4,19,PA9*%
%TO.N,/USART1_TX*%
X48149000Y-65348000D03*
%TO.P,U4,20,PA10*%
%TO.N,/USART1_RX*%
X48149000Y-66148000D03*
%TO.P,U4,21,PA11*%
%TO.N,unconnected-(U4-PA11-Pad21)*%
X48149000Y-66948000D03*
%TO.P,U4,22,PA12*%
%TO.N,/USART1_DE*%
X48149000Y-67748000D03*
%TO.P,U4,23,PA13*%
%TO.N,SWDIO*%
X48149000Y-68548000D03*
%TO.P,U4,24,PA14*%
%TO.N,SWCLK*%
X48149000Y-69348000D03*
D47*
%TO.P,U4,25,PA15*%
%TO.N,unconnected-(U4-PA15-Pad25)*%
X49524000Y-70723000D03*
%TO.P,U4,26,PB3*%
%TO.N,/UC_R1*%
X50324000Y-70723000D03*
%TO.P,U4,27,PB4*%
%TO.N,/UC_R2*%
X51124000Y-70723000D03*
%TO.P,U4,28,PB5*%
%TO.N,/UC_R3*%
X51924000Y-70723000D03*
%TO.P,U4,29,PB6*%
%TO.N,/UC_R4*%
X52724000Y-70723000D03*
%TO.P,U4,30,PB7*%
%TO.N,/UC_R5*%
X53524000Y-70723000D03*
%TO.P,U4,31,BOOT0*%
%TO.N,BOOT0*%
X54324000Y-70723000D03*
%TO.P,U4,32,VSS*%
%TO.N,GND*%
X55124000Y-70723000D03*
%TD*%
D23*
%TO.P,R4,1*%
%TO.N,/CONTROL_SIG*%
X77216000Y-59944000D03*
%TO.P,R4,2*%
%TO.N,Net-(D3-A1)*%
X77216000Y-57944000D03*
%TD*%
D15*
%TO.P,C2,1*%
%TO.N,GND*%
X41126500Y-58928000D03*
%TO.P,C2,2*%
%TO.N,/R+*%
X43201500Y-58928000D03*
%TD*%
D16*
%TO.P,Q4,1,B*%
%TO.N,/BASE_R3*%
X68501500Y-51750000D03*
%TO.P,Q4,2,E*%
%TO.N,GND*%
X68501500Y-49850000D03*
%TO.P,Q4,3,C*%
%TO.N,Net-(D12-A)*%
X66626500Y-50800000D03*
%TD*%
D48*
%TO.P,D2,1,A1*%
%TO.N,MICRO_CTRL*%
X54864000Y-60178000D03*
%TO.P,D2,2,A2*%
%TO.N,GND*%
X54864000Y-57678000D03*
%TD*%
D13*
%TO.P,R1,1*%
%TO.N,Net-(J3-Pin_1)*%
X49292000Y-78740000D03*
%TO.P,R1,2*%
%TO.N,MICRO_CTRL*%
X51292000Y-78740000D03*
%TD*%
D32*
%TO.P,J10,1,Pin_1*%
%TO.N,Net-(J10-Pin_1)*%
X93500000Y-37086000D03*
D33*
%TO.P,J10,2,Pin_2*%
%TO.N,Net-(J10-Pin_2)*%
X97000000Y-37086000D03*
%TO.P,J10,3,Pin_3*%
%TO.N,Net-(J10-Pin_3)*%
X100500000Y-37086000D03*
%TD*%
D10*
%TO.P,C9,1*%
%TO.N,GND*%
X60981500Y-70104000D03*
%TO.P,C9,2*%
%TO.N,+3V3*%
X58906500Y-70104000D03*
%TD*%
D20*
%TO.P,C7,1*%
%TO.N,Net-(U3-C2+)*%
X70612000Y-55901500D03*
%TO.P,C7,2*%
%TO.N,Net-(U3-C2-)*%
X70612000Y-53826500D03*
%TD*%
D49*
%TO.P,D1,1,K*%
%TO.N,+BATT*%
X85226000Y-68580000D03*
%TO.P,D1,2,A*%
%TO.N,Net-(D1-A)*%
X89526000Y-68580000D03*
%TD*%
D50*
%TO.P,J5,1,Pin_1*%
%TO.N,+3V3*%
X46228000Y-76708000D03*
D51*
%TO.P,J5,2,Pin_2*%
%TO.N,SWCLK*%
X43688000Y-76708000D03*
%TO.P,J5,3,Pin_3*%
%TO.N,BOOT0*%
X46228000Y-74168000D03*
%TO.P,J5,4,Pin_4*%
%TO.N,SWDIO*%
X43688000Y-74168000D03*
%TO.P,J5,5,Pin_5*%
%TO.N,GND*%
X46228000Y-71628000D03*
%TO.P,J5,6,Pin_6*%
%TO.N,RESET*%
X43688000Y-71628000D03*
%TD*%
D32*
%TO.P,J9,1,Pin_1*%
%TO.N,Net-(J9-Pin_1)*%
X78779375Y-37086000D03*
D33*
%TO.P,J9,2,Pin_2*%
%TO.N,Net-(J9-Pin_2)*%
X82279375Y-37086000D03*
%TO.P,J9,3,Pin_3*%
%TO.N,Net-(J9-Pin_3)*%
X85779375Y-37086000D03*
%TD*%
D16*
%TO.P,Q3,1,B*%
%TO.N,/BASE_R2*%
X58341500Y-51750000D03*
%TO.P,Q3,2,E*%
%TO.N,GND*%
X58341500Y-49850000D03*
%TO.P,Q3,3,C*%
%TO.N,Net-(D11-A)*%
X56466500Y-50800000D03*
%TD*%
D11*
%TO.P,D7,1,K*%
%TO.N,/R3*%
X90298000Y-51816000D03*
%TO.P,D7,2,A*%
%TO.N,/RELAYS_CTRL*%
X93598000Y-51816000D03*
%TD*%
D52*
%TO.P,C14,1*%
%TO.N,+12V*%
X86360000Y-72781349D03*
D35*
%TO.P,C14,2*%
%TO.N,GND*%
X86360000Y-77781349D03*
%TD*%
D32*
%TO.P,J7,1,Pin_1*%
%TO.N,Net-(J7-Pin_1)*%
X49338125Y-37086000D03*
D33*
%TO.P,J7,2,Pin_2*%
%TO.N,Net-(J7-Pin_2)*%
X52838125Y-37086000D03*
%TO.P,J7,3,Pin_3*%
%TO.N,Net-(J7-Pin_3)*%
X56338125Y-37086000D03*
%TD*%
D10*
%TO.P,C15,1*%
%TO.N,GND*%
X55393500Y-53975000D03*
%TO.P,C15,2*%
%TO.N,+3V3*%
X53318500Y-53975000D03*
%TD*%
D14*
%TO.P,L1,1,1*%
%TO.N,Net-(J1-Pin_1)*%
X41148000Y-52832000D03*
%TO.P,L1,2,2*%
%TO.N,/F+*%
X43198000Y-52832000D03*
%TD*%
D19*
%TO.P,R7,1*%
%TO.N,Net-(SW1B-C)*%
X81518000Y-67056000D03*
%TO.P,R7,2*%
%TO.N,GND*%
X79518000Y-67056000D03*
%TD*%
D53*
%TO.N,GND*%
X45847000Y-56007000D03*
X89662000Y-48514000D03*
D54*
X91440000Y-60960000D03*
D53*
X64494500Y-53572500D03*
X59182000Y-56007000D03*
X83820000Y-51308000D03*
D54*
X39116000Y-67564000D03*
D53*
X82013737Y-70894263D03*
X85852000Y-57658000D03*
X69596000Y-49276000D03*
X59069623Y-71729600D03*
X39370000Y-58928000D03*
X62230000Y-78232000D03*
X42164000Y-70612000D03*
D55*
X56244496Y-78312178D03*
D54*
X55704717Y-48576974D03*
D53*
X87275896Y-51715895D03*
D56*
X39370000Y-54864000D03*
D54*
X72136000Y-75692000D03*
X100343063Y-53858478D03*
D53*
X97790000Y-45720000D03*
X51816000Y-74168000D03*
X55118000Y-69342000D03*
D55*
X61322471Y-58117786D03*
D53*
X48641000Y-62865000D03*
X39370000Y-62992000D03*
X92964000Y-57404000D03*
D54*
X75095623Y-48537675D03*
D53*
X49276000Y-50546000D03*
X72898000Y-60960000D03*
X56186594Y-53119064D03*
X64262000Y-49377600D03*
%TO.N,Net-(U3-VS-)*%
X66569500Y-56896000D03*
D55*
%TO.N,MICRO_CTRL*%
X54610000Y-63754000D03*
D53*
X50546000Y-76708000D03*
X50673000Y-64516000D03*
X54991000Y-59309000D03*
D54*
%TO.N,+3V3*%
X61722000Y-61468000D03*
D53*
X57912000Y-70612000D03*
X53318500Y-55753000D03*
D54*
X97589000Y-64517000D03*
D53*
X59822050Y-57588766D03*
X82296000Y-62484000D03*
X56388000Y-55880000D03*
X54610000Y-64770000D03*
D54*
%TO.N,+12V*%
X93472000Y-67056000D03*
D53*
X88392000Y-52324000D03*
D54*
X103124000Y-67564000D03*
D53*
%TO.N,Net-(SW1B-C)*%
X91440000Y-58375200D03*
%TO.N,/R1*%
X84836000Y-56896000D03*
X67310000Y-68072000D03*
X98044000Y-55372000D03*
X65024000Y-76708000D03*
X53340000Y-75692000D03*
%TO.N,/R2*%
X63315452Y-76589864D03*
X91948000Y-53848000D03*
X81280000Y-54914800D03*
X55118000Y-75692000D03*
X66040000Y-68072000D03*
%TO.N,/R3*%
X66954400Y-72644000D03*
X91440000Y-51816000D03*
X80772000Y-52324000D03*
%TO.N,/R4*%
X97028000Y-51385200D03*
X64770000Y-68072000D03*
X79248000Y-54356000D03*
%TO.N,/R5*%
X77736806Y-51906603D03*
X85852000Y-52476400D03*
X62331600Y-68834000D03*
%TO.N,Net-(D10-A)*%
X40132000Y-43180000D03*
X43180000Y-50292000D03*
%TO.N,Net-(D11-A)*%
X53848000Y-47498000D03*
%TO.N,Net-(D12-A)*%
X67056000Y-48006000D03*
%TO.N,Net-(D13-A)*%
X85344000Y-48260000D03*
%TO.N,Net-(D14-A)*%
X100076000Y-46228000D03*
%TO.N,/CONTROL_SIG*%
X78232000Y-69596000D03*
%TO.N,BOOT0*%
X49530000Y-68834000D03*
X48514000Y-76454000D03*
%TO.N,SWDIO*%
X46228000Y-68072000D03*
%TO.N,SWCLK*%
X48260000Y-72898000D03*
%TO.N,RESET*%
X49530000Y-67056000D03*
X44704000Y-68326000D03*
%TO.N,Net-(Q1-B)*%
X75692000Y-60960000D03*
X78790800Y-62738000D03*
%TO.N,/BASE_R1*%
X60071000Y-53213000D03*
X73609200Y-51562000D03*
X83820000Y-57404000D03*
X74676000Y-56642000D03*
%TO.N,/BASE_R2*%
X70231000Y-51929632D03*
X73660000Y-57150000D03*
X83058000Y-58216800D03*
X59944000Y-52070000D03*
%TO.N,/BASE_R3*%
X82296000Y-59182000D03*
X72898000Y-57912000D03*
%TO.N,/BASE_R5*%
X100076000Y-51816000D03*
X76301600Y-55778400D03*
%TO.N,/USART1_DE*%
X46482000Y-60071000D03*
X57531000Y-59690000D03*
%TO.N,/USART1_TX*%
X47498000Y-62103000D03*
D55*
X58549543Y-59810811D03*
D53*
%TO.N,/UC_R2*%
X51308000Y-72136000D03*
X54356000Y-74676000D03*
%TO.N,/UC_R3*%
X56134000Y-74676000D03*
X51816000Y-69342000D03*
D55*
%TO.N,/SPI_MOSI*%
X52318267Y-63509737D03*
X48341278Y-61782962D03*
%TO.N,/SPI_CLK*%
X53467000Y-63500000D03*
X48768000Y-61214000D03*
%TO.N,/SPI_CS*%
X54062143Y-61047143D03*
X49506460Y-61047143D03*
D53*
%TO.N,/USART1_RX*%
X56789628Y-58236445D03*
X46990000Y-61087000D03*
%TO.N,USART2_RX*%
X55245000Y-56134000D03*
X61214000Y-55880000D03*
D55*
%TO.N,USART2_TX*%
X61214000Y-60071000D03*
D53*
X58026145Y-63639855D03*
%TO.N,485A*%
X58877355Y-58343645D03*
X64179766Y-59353766D03*
X72506023Y-73763077D03*
X69088000Y-66802000D03*
%TO.N,485B*%
X68834000Y-68072000D03*
X73533000Y-74549000D03*
%TD*%
D57*
%TO.N,GND*%
X55124000Y-70723000D02*
X55124000Y-69348000D01*
D58*
X89662000Y-48514000D02*
X90678000Y-49530000D01*
D59*
X92964000Y-60712000D02*
X91688000Y-60712000D01*
D58*
X55393500Y-53975000D02*
X55393500Y-53912158D01*
X103566000Y-53813000D02*
X102616000Y-54763000D01*
X64283500Y-52556500D02*
X64516000Y-52324000D01*
D57*
X49133000Y-62373000D02*
X48641000Y-62865000D01*
D60*
X46736000Y-58988000D02*
X47873500Y-58988000D01*
D58*
X85401349Y-78740000D02*
X86360000Y-77781349D01*
X41126500Y-67056000D02*
X39624000Y-67056000D01*
D60*
X50473500Y-58988000D02*
X49173500Y-57688000D01*
D58*
X58341500Y-49850000D02*
X57604001Y-49850000D01*
X66040000Y-52324000D02*
X64516000Y-52324000D01*
D57*
X83898500Y-51750000D02*
X83898500Y-51386500D01*
X59355900Y-71729600D02*
X59069623Y-71729600D01*
D58*
X85852000Y-57404000D02*
X87080800Y-56175200D01*
X60960000Y-70082500D02*
X60981500Y-70104000D01*
D57*
X60981500Y-70104000D02*
X59355900Y-71729600D01*
D59*
X102616000Y-54763000D02*
X101247585Y-54763000D01*
D57*
X81555500Y-69342000D02*
X81555500Y-72177500D01*
D58*
X61976000Y-51308000D02*
X61976000Y-50519778D01*
X55393500Y-53912158D02*
X56186594Y-53119064D01*
D57*
X92312000Y-57404000D02*
X92964000Y-57404000D01*
D58*
X85852000Y-57658000D02*
X85852000Y-57404000D01*
X87080800Y-52028800D02*
X87275896Y-51833704D01*
D60*
X62669500Y-59537000D02*
X61932001Y-59537000D01*
D58*
X39624000Y-67056000D02*
X39116000Y-67564000D01*
D57*
X72898000Y-59260500D02*
X72898000Y-60960000D01*
X55816674Y-78740000D02*
X56244496Y-78312178D01*
X49524000Y-62373000D02*
X49133000Y-62373000D01*
D58*
X41126500Y-54864000D02*
X39370000Y-54864000D01*
X103941700Y-45521700D02*
X103378000Y-44958000D01*
D57*
X55124000Y-69348000D02*
X55118000Y-69342000D01*
D58*
X90678000Y-49530000D02*
X96012000Y-49530000D01*
X41126500Y-62992000D02*
X39370000Y-62992000D01*
D59*
X101248630Y-44958000D02*
X100486630Y-44196000D01*
D60*
X46228000Y-56388000D02*
X45847000Y-56007000D01*
X50473500Y-60125500D02*
X50473500Y-58988000D01*
D58*
X81555500Y-78740000D02*
X85401349Y-78740000D01*
D57*
X81768000Y-71140000D02*
X82013737Y-70894263D01*
D60*
X61322471Y-58927470D02*
X61322471Y-58117786D01*
D58*
X41126500Y-58928000D02*
X39370000Y-58928000D01*
X43164000Y-69612000D02*
X42164000Y-70612000D01*
D57*
X67077500Y-52324000D02*
X66040000Y-52324000D01*
D58*
X49276000Y-49916000D02*
X49276000Y-50546000D01*
D60*
X61322471Y-58117786D02*
X61322471Y-58184529D01*
D59*
X100486630Y-44196000D02*
X97790000Y-44196000D01*
X70856500Y-65016000D02*
X70856500Y-74412500D01*
D57*
X51292000Y-75184000D02*
X51292000Y-74692000D01*
D58*
X97790000Y-47752000D02*
X97790000Y-45720000D01*
D57*
X68601500Y-53848000D02*
X67077500Y-52324000D01*
D58*
X96498500Y-58420000D02*
X94206500Y-60712000D01*
D57*
X69022000Y-49850000D02*
X69596000Y-49276000D01*
D58*
X61976000Y-50519778D02*
X63118178Y-49377600D01*
D60*
X51611000Y-58988000D02*
X52772000Y-58988000D01*
D57*
X79518000Y-67304500D02*
X81555500Y-69342000D01*
D58*
X87275896Y-51833704D02*
X87275896Y-51715895D01*
D57*
X81555500Y-72177500D02*
X81768000Y-72390000D01*
D58*
X57604001Y-49850000D02*
X56330975Y-48576974D01*
D60*
X51611000Y-58988000D02*
X50473500Y-58988000D01*
D57*
X63986500Y-52324000D02*
X66040000Y-52324000D01*
X64494500Y-53572500D02*
X63986500Y-52324000D01*
D58*
X56330975Y-48576974D02*
X55704717Y-48576974D01*
X54082000Y-57678000D02*
X52772000Y-58988000D01*
D57*
X83898500Y-51386500D02*
X83820000Y-51308000D01*
X81768000Y-72390000D02*
X81768000Y-71140000D01*
D60*
X47873500Y-58988000D02*
X49173500Y-57688000D01*
D58*
X103941700Y-53437300D02*
X103941700Y-45521700D01*
D57*
X61722000Y-78740000D02*
X62230000Y-78232000D01*
D58*
X62230000Y-78232000D02*
X69596000Y-78232000D01*
D59*
X103378000Y-44958000D02*
X101248630Y-44958000D01*
D58*
X69586500Y-62476000D02*
X69586500Y-63746000D01*
X73406000Y-49885600D02*
X73747698Y-49885600D01*
X60960000Y-66786000D02*
X60960000Y-70082500D01*
D57*
X55393500Y-78740000D02*
X55816674Y-78740000D01*
X55393500Y-78464500D02*
X55393500Y-78740000D01*
X60436000Y-78740000D02*
X61722000Y-78740000D01*
D58*
X69596000Y-78232000D02*
X72136000Y-75692000D01*
D60*
X47873500Y-56388000D02*
X49173500Y-57688000D01*
D58*
X97790000Y-44196000D02*
X97790000Y-45720000D01*
X73747698Y-49885600D02*
X75095623Y-48537675D01*
X70205600Y-49885600D02*
X73406000Y-49885600D01*
X54864000Y-57678000D02*
X54082000Y-57678000D01*
D60*
X46736000Y-56388000D02*
X46228000Y-56388000D01*
D58*
X87080800Y-56175200D02*
X87080800Y-52028800D01*
X62992000Y-52324000D02*
X61976000Y-51308000D01*
X63118178Y-49377600D02*
X64262000Y-49377600D01*
X103566000Y-53813000D02*
X103941700Y-53437300D01*
D57*
X96498500Y-58420000D02*
X96498500Y-58441500D01*
X79518000Y-67056000D02*
X79518000Y-67304500D01*
D58*
X96012000Y-49530000D02*
X97790000Y-47752000D01*
D57*
X73230500Y-58928000D02*
X72898000Y-59260500D01*
D58*
X64283500Y-54102000D02*
X64283500Y-52556500D01*
X94206500Y-60712000D02*
X92964000Y-60712000D01*
D59*
X101247585Y-54763000D02*
X100343063Y-53858478D01*
D58*
X64516000Y-52324000D02*
X62992000Y-52324000D01*
D60*
X61932001Y-59537000D02*
X61322471Y-58927470D01*
D57*
X68501500Y-49850000D02*
X69022000Y-49850000D01*
D58*
X103566000Y-52245500D02*
X103566000Y-53813000D01*
X69596000Y-49276000D02*
X70205600Y-49885600D01*
D60*
X46736000Y-56388000D02*
X47873500Y-56388000D01*
D59*
X70856500Y-74412500D02*
X72136000Y-75692000D01*
X91688000Y-60712000D02*
X91440000Y-60960000D01*
D58*
X69586500Y-63746000D02*
X70856500Y-65016000D01*
D60*
X58887000Y-57363000D02*
X58887000Y-56815500D01*
D57*
X51292000Y-74692000D02*
X51816000Y-74168000D01*
D58*
X43164000Y-69088000D02*
X43164000Y-69612000D01*
%TO.N,/F+*%
X45974000Y-52832000D02*
X43198000Y-52832000D01*
X47498000Y-54356000D02*
X45974000Y-52832000D01*
X43198000Y-52832000D02*
X43198000Y-54860500D01*
D60*
X47873500Y-54731500D02*
X47498000Y-54356000D01*
X47873500Y-55250500D02*
X47873500Y-54731500D01*
D58*
X43198000Y-54860500D02*
X43201500Y-54864000D01*
%TO.N,/R+*%
X43189000Y-56896000D02*
X43189000Y-58915500D01*
X43189000Y-58915500D02*
X43201500Y-58928000D01*
D60*
X46736000Y-57038000D02*
X43331000Y-57038000D01*
X43331000Y-57038000D02*
X43189000Y-56896000D01*
%TO.N,Net-(U3-VS-)*%
X68394500Y-56937000D02*
X66610500Y-56937000D01*
X66610500Y-56937000D02*
X66569500Y-56896000D01*
D57*
%TO.N,/R-*%
X43942000Y-60960000D02*
X44450000Y-60452000D01*
D58*
X43189000Y-60960000D02*
X43189000Y-62979500D01*
D57*
X44450000Y-60452000D02*
X44450000Y-58420000D01*
X43189000Y-60960000D02*
X43942000Y-60960000D01*
D60*
X45182000Y-57688000D02*
X44450000Y-58420000D01*
D58*
X43189000Y-62979500D02*
X43201500Y-62992000D01*
D60*
X46736000Y-57688000D02*
X45182000Y-57688000D01*
%TO.N,Net-(U3-VS+)*%
X66526500Y-55897290D02*
X65832900Y-56590890D01*
X65832900Y-57712899D02*
X67657001Y-59537000D01*
X66526500Y-53848000D02*
X66526500Y-55897290D01*
X65832900Y-56590890D02*
X65832900Y-57712899D01*
X67657001Y-59537000D02*
X68394500Y-59537000D01*
%TO.N,/F-*%
X45466000Y-60260816D02*
X45052908Y-60673908D01*
D58*
X43189000Y-67043500D02*
X43201500Y-67056000D01*
D60*
X45802000Y-58338000D02*
X45466000Y-58674000D01*
X46736000Y-58338000D02*
X45802000Y-58338000D01*
X45466000Y-58674000D02*
X45466000Y-60260816D01*
D57*
X44551600Y-61356189D02*
X45143394Y-60764394D01*
X43189000Y-65024000D02*
X43764000Y-65024000D01*
D58*
X43189000Y-65024000D02*
X43189000Y-67043500D01*
D57*
X44551600Y-64236400D02*
X44551600Y-61356189D01*
X43764000Y-65024000D02*
X44551600Y-64236400D01*
D60*
%TO.N,Net-(U3-C2+)*%
X70064800Y-56448700D02*
X70612000Y-55901500D01*
X69779000Y-58237000D02*
X70064800Y-57951200D01*
X68394500Y-58237000D02*
X69779000Y-58237000D01*
X70064800Y-57951200D02*
X70064800Y-56448700D01*
%TO.N,Net-(U3-C2-)*%
X69131999Y-57587000D02*
X69556800Y-57162199D01*
X69556800Y-54881700D02*
X70612000Y-53826500D01*
X68394500Y-57587000D02*
X69131999Y-57587000D01*
X69556800Y-57162199D02*
X69556800Y-54881700D01*
D57*
%TO.N,MICRO_CTRL*%
X50324000Y-62373000D02*
X50324000Y-64167000D01*
X54991000Y-60051000D02*
X54864000Y-60178000D01*
X50324000Y-64167000D02*
X50673000Y-64516000D01*
D58*
X53318500Y-78740000D02*
X51292000Y-78740000D01*
X58436000Y-78740000D02*
X57912000Y-78740000D01*
D60*
X56856800Y-77684800D02*
X51522800Y-77684800D01*
X51522800Y-77684800D02*
X51292000Y-77454000D01*
D57*
X54991000Y-59309000D02*
X54991000Y-60051000D01*
D58*
X57912000Y-78740000D02*
X57150000Y-77978000D01*
D57*
X50673000Y-64516000D02*
X53642685Y-64516000D01*
D58*
X51292000Y-78740000D02*
X51292000Y-77454000D01*
D57*
X53642685Y-64516000D02*
X54404685Y-63754000D01*
D60*
X57150000Y-77978000D02*
X56856800Y-77684800D01*
D58*
X51292000Y-77454000D02*
X50546000Y-76708000D01*
D57*
X54404685Y-63754000D02*
X54610000Y-63754000D01*
%TO.N,+3V3*%
X54610000Y-65532000D02*
X54610000Y-64770000D01*
X60350400Y-55163074D02*
X60350400Y-57060416D01*
X64008000Y-60452000D02*
X64008000Y-60960000D01*
D59*
X98573500Y-62301500D02*
X99264000Y-62992000D01*
D57*
X56499000Y-66148000D02*
X55226000Y-66148000D01*
D60*
X51611000Y-57038000D02*
X52563000Y-57038000D01*
D57*
X49524000Y-63748000D02*
X49524000Y-64891000D01*
X58150500Y-69348000D02*
X58906500Y-70104000D01*
X63750200Y-60194200D02*
X62669500Y-60194200D01*
D59*
X98573500Y-58420000D02*
X98573500Y-62301500D01*
D57*
X49524000Y-63748000D02*
X48149000Y-63748000D01*
D58*
X61087000Y-61468000D02*
X61087000Y-61341000D01*
D57*
X79518000Y-60960000D02*
X81042000Y-62484000D01*
D58*
X61411474Y-54102000D02*
X60477200Y-55036274D01*
X96064000Y-62992000D02*
X97589000Y-64517000D01*
X61722000Y-61468000D02*
X61087000Y-61468000D01*
D57*
X50781000Y-66148000D02*
X55226000Y-66148000D01*
D58*
X92964000Y-62992000D02*
X96064000Y-62992000D01*
D57*
X98573500Y-57933500D02*
X97536000Y-56896000D01*
D58*
X58420000Y-70104000D02*
X57912000Y-70612000D01*
D57*
X81042000Y-62484000D02*
X82296000Y-62484000D01*
X61339062Y-61468000D02*
X61722000Y-61468000D01*
D58*
X53318500Y-54991000D02*
X53318500Y-53975000D01*
D57*
X60350400Y-57060416D02*
X59822050Y-57588766D01*
D58*
X61722000Y-61468000D02*
X63500000Y-61468000D01*
D57*
X59822050Y-59430950D02*
X60020200Y-59629100D01*
X60020200Y-60274200D02*
X60509400Y-60763400D01*
X56499000Y-69348000D02*
X58150500Y-69348000D01*
D58*
X61722000Y-61468000D02*
X61722000Y-61383394D01*
D60*
X56937000Y-56815500D02*
X56688500Y-56815500D01*
D57*
X64008000Y-60452000D02*
X63750200Y-60194200D01*
X94632000Y-57404000D02*
X95490000Y-57404000D01*
X53484700Y-55157200D02*
X53318500Y-54991000D01*
D58*
X53318500Y-56282500D02*
X53318500Y-54991000D01*
D57*
X98573500Y-58420000D02*
X98573500Y-57933500D01*
D60*
X56688500Y-56180500D02*
X56388000Y-55880000D01*
D58*
X52563000Y-57038000D02*
X53318500Y-56282500D01*
X58906500Y-66807500D02*
X58928000Y-66786000D01*
D57*
X55665200Y-55157200D02*
X53484700Y-55157200D01*
D59*
X99114000Y-62992000D02*
X97589000Y-64517000D01*
D57*
X60477200Y-55036274D02*
X60350400Y-55163074D01*
D59*
X99264000Y-62992000D02*
X99114000Y-62992000D01*
X102616000Y-59640000D02*
X99264000Y-62992000D01*
D58*
X58906500Y-70104000D02*
X58420000Y-70104000D01*
D60*
X51913000Y-56388000D02*
X52563000Y-57038000D01*
D57*
X97536000Y-56896000D02*
X95998000Y-56896000D01*
X59822050Y-57588766D02*
X59822050Y-59430950D01*
D58*
X62208500Y-54102000D02*
X61411474Y-54102000D01*
D57*
X64008000Y-60960000D02*
X63500000Y-61468000D01*
D59*
X102616000Y-58013000D02*
X102616000Y-59640000D01*
D57*
X56499000Y-66148000D02*
X58290000Y-66148000D01*
D58*
X61087000Y-61341000D02*
X60509400Y-60763400D01*
D57*
X49524000Y-64891000D02*
X50781000Y-66148000D01*
D60*
X56688500Y-56815500D02*
X56688500Y-56180500D01*
D57*
X95490000Y-57404000D02*
X95998000Y-56896000D01*
X56388000Y-55880000D02*
X55665200Y-55157200D01*
X60020200Y-59629100D02*
X60020200Y-60274200D01*
X58290000Y-66148000D02*
X58928000Y-66786000D01*
D60*
X51611000Y-56388000D02*
X51913000Y-56388000D01*
D57*
X55226000Y-66148000D02*
X54610000Y-65532000D01*
D58*
%TO.N,Net-(D3-A1)*%
X79480500Y-70887500D02*
X79480500Y-69342000D01*
D57*
X78373200Y-61530000D02*
X77927200Y-61976000D01*
X77927200Y-61976000D02*
X77927200Y-66090800D01*
X77927200Y-67788700D02*
X77927200Y-66090800D01*
X78373200Y-58561200D02*
X78373200Y-61530000D01*
D58*
X86868000Y-63843000D02*
X86868000Y-64516000D01*
D57*
X77927200Y-66090800D02*
X78740000Y-65278000D01*
D58*
X79268000Y-72390000D02*
X79268000Y-71100000D01*
D57*
X78740000Y-65278000D02*
X86106000Y-65278000D01*
X77756000Y-57944000D02*
X78373200Y-58561200D01*
D58*
X86868000Y-64516000D02*
X86106000Y-65278000D01*
X79268000Y-71100000D02*
X79480500Y-70887500D01*
D57*
X79480500Y-69342000D02*
X77927200Y-67788700D01*
X77216000Y-57944000D02*
X77756000Y-57944000D01*
D60*
%TO.N,Net-(U3-C1+)*%
X70898500Y-60187000D02*
X71120000Y-59965500D01*
X68394500Y-60187000D02*
X70898500Y-60187000D01*
%TO.N,Net-(U3-C1-)*%
X70123500Y-58887000D02*
X71120000Y-57890500D01*
X68394500Y-58887000D02*
X70123500Y-58887000D01*
D59*
%TO.N,+12V*%
X94101400Y-45212000D02*
X79756000Y-45212000D01*
D58*
X51182000Y-50292000D02*
X51182000Y-48387000D01*
D59*
X65146500Y-45597500D02*
X65532000Y-45212000D01*
X65146500Y-47619500D02*
X65146500Y-45597500D01*
X81289000Y-75692000D02*
X85344000Y-75692000D01*
X92964000Y-65272000D02*
X92964000Y-66548000D01*
D58*
X76582000Y-50546000D02*
X77834400Y-50546000D01*
X41022000Y-50292000D02*
X41022000Y-45338000D01*
X51182000Y-48387000D02*
X50414500Y-47619500D01*
D59*
X65532000Y-45212000D02*
X59944000Y-45212000D01*
X50414500Y-45334500D02*
X50292000Y-45212000D01*
X92964000Y-66548000D02*
X93472000Y-67056000D01*
X35682500Y-46105500D02*
X35682500Y-47619500D01*
D58*
X77834400Y-50546000D02*
X79878500Y-48501900D01*
D59*
X79756000Y-45212000D02*
X65532000Y-45212000D01*
X93980000Y-67564000D02*
X103124000Y-67564000D01*
X86360000Y-74676000D02*
X85344000Y-75692000D01*
D58*
X60326000Y-50800000D02*
X60326000Y-45594000D01*
D59*
X86360000Y-72781349D02*
X86360000Y-74676000D01*
D58*
X60326000Y-45594000D02*
X59944000Y-45212000D01*
X88392000Y-53466000D02*
X88392000Y-52324000D01*
X41022000Y-45338000D02*
X41148000Y-45212000D01*
D59*
X50292000Y-45212000D02*
X41148000Y-45212000D01*
X94610500Y-47619500D02*
X94610500Y-45721100D01*
X79878500Y-47619500D02*
X79878500Y-45334500D01*
X94610500Y-45721100D02*
X94101400Y-45212000D01*
X79878500Y-45334500D02*
X79756000Y-45212000D01*
X50414500Y-47619500D02*
X50414500Y-45334500D01*
X59944000Y-45212000D02*
X50292000Y-45212000D01*
X93472000Y-67056000D02*
X93980000Y-67564000D01*
X36576000Y-45212000D02*
X35682500Y-46105500D01*
D58*
X79878500Y-48501900D02*
X79878500Y-47619500D01*
D59*
X41148000Y-45212000D02*
X36576000Y-45212000D01*
D58*
%TO.N,+BATT*%
X79239000Y-75692000D02*
X79239000Y-76953000D01*
X79480500Y-78740000D02*
X79480500Y-77194500D01*
D59*
X85226000Y-68580000D02*
X83820000Y-69986000D01*
D58*
X79239000Y-75692000D02*
X79239000Y-74992000D01*
X83624800Y-73601200D02*
X83820000Y-73406000D01*
X80629800Y-73601200D02*
X83624800Y-73601200D01*
D59*
X83820000Y-69986000D02*
X83820000Y-73406000D01*
D58*
X79480500Y-77194500D02*
X79239000Y-76953000D01*
X79239000Y-74992000D02*
X80629800Y-73601200D01*
D59*
%TO.N,Net-(D1-A)*%
X89526000Y-68580000D02*
X91440000Y-68580000D01*
X91440000Y-68580000D02*
X94036000Y-71176000D01*
X94036000Y-74676000D02*
X94036000Y-71176000D01*
D57*
%TO.N,Net-(SW1B-C)*%
X91461200Y-58354000D02*
X91440000Y-58375200D01*
X92312000Y-58354000D02*
X91461200Y-58354000D01*
D58*
X82026000Y-66548000D02*
X87884000Y-66548000D01*
X81518000Y-67056000D02*
X82026000Y-66548000D01*
X89368000Y-63843000D02*
X89368000Y-65064000D01*
X89368000Y-65064000D02*
X87884000Y-66548000D01*
%TO.N,/R1*%
X98678000Y-54738000D02*
X98044000Y-55372000D01*
D57*
X84310800Y-54864000D02*
X84310800Y-56370800D01*
X69383300Y-70145300D02*
X69383300Y-73598276D01*
X84310800Y-54394800D02*
X84310800Y-54864000D01*
X69383300Y-73598276D02*
X66629176Y-76352400D01*
D58*
X98678000Y-54356000D02*
X98678000Y-54738000D01*
D57*
X67310000Y-68072000D02*
X69383300Y-70145300D01*
X65532000Y-76352400D02*
X65379600Y-76352400D01*
X66629176Y-76352400D02*
X65532000Y-76352400D01*
X53372000Y-75724000D02*
X53340000Y-75692000D01*
X83280000Y-53364000D02*
X84310800Y-54394800D01*
X84310800Y-56370800D02*
X84836000Y-56896000D01*
X53372000Y-76684000D02*
X53372000Y-75724000D01*
X65379600Y-76352400D02*
X65024000Y-76708000D01*
D58*
%TO.N,/RELAYS_CTRL*%
X96012000Y-54356000D02*
X95378000Y-54356000D01*
X93598000Y-54356000D02*
X93598000Y-51816000D01*
X93598000Y-54356000D02*
X93598000Y-54956000D01*
X93598000Y-54956000D02*
X93066200Y-55487800D01*
X98552000Y-51816000D02*
X96012000Y-54356000D01*
X93598000Y-54356000D02*
X95378000Y-54356000D01*
D57*
X88633800Y-55487800D02*
X88518000Y-55372000D01*
X94632000Y-56454000D02*
X94632000Y-55102000D01*
D58*
X93066200Y-55487800D02*
X91250800Y-55487800D01*
X98678000Y-51816000D02*
X98552000Y-51816000D01*
D57*
X91250800Y-55487800D02*
X88633800Y-55487800D01*
X94632000Y-55102000D02*
X95378000Y-54356000D01*
%TO.N,/R2*%
X65278000Y-75641200D02*
X64264116Y-75641200D01*
X66040000Y-68072000D02*
X68580000Y-70612000D01*
D58*
X90424000Y-54356000D02*
X90298000Y-54356000D01*
D57*
X68580000Y-70612000D02*
X68580000Y-73395788D01*
X54712000Y-76098000D02*
X55118000Y-75692000D01*
X66334588Y-75641200D02*
X65278000Y-75641200D01*
X68580000Y-73395788D02*
X66334588Y-75641200D01*
X64264116Y-75641200D02*
X63315452Y-76589864D01*
X81940000Y-53364000D02*
X81940000Y-54254800D01*
X54712000Y-76684000D02*
X54712000Y-76098000D01*
X81940000Y-54254800D02*
X81280000Y-54914800D01*
D58*
X91948000Y-53848000D02*
X90424000Y-54356000D01*
D57*
%TO.N,/R3*%
X80620000Y-53364000D02*
X80620000Y-52476000D01*
X56032000Y-76209600D02*
X56803600Y-75438000D01*
D58*
X90298000Y-51816000D02*
X91440000Y-51816000D01*
D57*
X56032000Y-76684000D02*
X56032000Y-76209600D01*
X66954400Y-72644000D02*
X65430400Y-74168000D01*
X62230000Y-75438000D02*
X63500000Y-74168000D01*
X65430400Y-74168000D02*
X63500000Y-74168000D01*
X56803600Y-75438000D02*
X62230000Y-75438000D01*
X80620000Y-52476000D02*
X80772000Y-52324000D01*
D58*
%TO.N,/R4*%
X96597200Y-51816000D02*
X97028000Y-51385200D01*
D57*
X67818000Y-71120000D02*
X64770000Y-68072000D01*
D58*
X95378000Y-51816000D02*
X96597200Y-51816000D01*
D57*
X63754000Y-74930000D02*
X66040000Y-74930000D01*
X57906800Y-76149200D02*
X62534800Y-76149200D01*
X57372000Y-76684000D02*
X57906800Y-76149200D01*
X79248000Y-53396000D02*
X79280000Y-53364000D01*
X67818000Y-73152000D02*
X67818000Y-71120000D01*
X66040000Y-74930000D02*
X67818000Y-73152000D01*
X62534800Y-76149200D02*
X63754000Y-74930000D01*
X79248000Y-54356000D02*
X79248000Y-53396000D01*
%TO.N,/R5*%
X85218000Y-55372000D02*
X85218000Y-53214000D01*
X62224300Y-68941300D02*
X62224300Y-70887700D01*
D58*
X76200000Y-52848000D02*
X76908006Y-52848000D01*
D57*
X85852000Y-52580000D02*
X85852000Y-52476400D01*
X62331600Y-68834000D02*
X62224300Y-68941300D01*
X62224300Y-70887700D02*
X60960000Y-72152000D01*
D58*
X76908006Y-52848000D02*
X77736806Y-52019200D01*
D57*
X85218000Y-53214000D02*
X85852000Y-52580000D01*
D58*
%TO.N,Net-(D10-A)*%
X35682500Y-42539500D02*
X39491500Y-42539500D01*
X39491500Y-42539500D02*
X40132000Y-43180000D01*
X45786000Y-50866000D02*
X45212000Y-50292000D01*
X43180000Y-50292000D02*
X44322000Y-50292000D01*
X47401000Y-50866000D02*
X45786000Y-50866000D01*
X45212000Y-50292000D02*
X44322000Y-50292000D01*
%TO.N,Net-(D11-A)*%
X56466500Y-50800000D02*
X54990000Y-50800000D01*
X54990000Y-50800000D02*
X54482000Y-50292000D01*
X53848000Y-47498000D02*
X53848000Y-49658000D01*
X53848000Y-49658000D02*
X54482000Y-50292000D01*
%TO.N,Net-(D12-A)*%
X67052800Y-50373700D02*
X66626500Y-50800000D01*
X67052800Y-48009200D02*
X67052800Y-50373700D01*
X63626000Y-50800000D02*
X66626500Y-50800000D01*
X67056000Y-48006000D02*
X67052800Y-48009200D01*
X66548000Y-50721500D02*
X66626500Y-50800000D01*
%TO.N,Net-(D13-A)*%
X85773500Y-48689500D02*
X85344000Y-48260000D01*
X82804000Y-48260000D02*
X85344000Y-48260000D01*
X79882000Y-50546000D02*
X80518000Y-50546000D01*
X85773500Y-50800000D02*
X85773500Y-48689500D01*
X80518000Y-50546000D02*
X82804000Y-48260000D01*
%TO.N,Net-(D14-A)*%
X102616000Y-50370500D02*
X102316001Y-50370500D01*
D57*
X96553002Y-50495200D02*
X97455952Y-49592250D01*
D58*
X102316001Y-50370500D02*
X101537750Y-49592250D01*
D57*
X88721200Y-50495200D02*
X96553002Y-50495200D01*
D58*
X101537750Y-49592250D02*
X100076000Y-48130499D01*
D57*
X97455952Y-49592250D02*
X101537750Y-49592250D01*
X88392000Y-50166000D02*
X88721200Y-50495200D01*
D58*
X100076000Y-48130499D02*
X100076000Y-46228000D01*
D59*
%TO.N,Net-(J1-Pin_1)*%
X35824000Y-52832000D02*
X41148000Y-52832000D01*
X35425500Y-53230500D02*
X35824000Y-52832000D01*
%TO.N,Net-(J1-Pin_2)*%
X35570000Y-56896000D02*
X41139000Y-56896000D01*
X35425500Y-57040500D02*
X35570000Y-56896000D01*
%TO.N,Net-(J1-Pin_3)*%
X35535000Y-60960000D02*
X41139000Y-60960000D01*
X35425500Y-60850500D02*
X35535000Y-60960000D01*
%TO.N,Net-(J1-Pin_4)*%
X35425500Y-64660500D02*
X35789000Y-65024000D01*
X35789000Y-65024000D02*
X41139000Y-65024000D01*
D57*
%TO.N,/RS232_TX*%
X68316500Y-65016000D02*
X67109300Y-63808800D01*
D60*
X64713166Y-58617166D02*
X66040000Y-59944000D01*
X63604822Y-58887000D02*
X63874656Y-58617166D01*
D57*
X65532000Y-62668739D02*
X65532000Y-61976000D01*
D60*
X66040000Y-59944000D02*
X66040000Y-61468000D01*
X63874656Y-58617166D02*
X64713166Y-58617166D01*
X62669500Y-58887000D02*
X63604822Y-58887000D01*
D57*
X67109300Y-63808800D02*
X66672061Y-63808800D01*
X65532000Y-61976000D02*
X66040000Y-61468000D01*
X66672061Y-63808800D02*
X65532000Y-62668739D01*
D60*
%TO.N,/RS232_RX*%
X63429000Y-58237000D02*
X63506034Y-58159966D01*
D57*
X70919300Y-61268800D02*
X67872800Y-61268800D01*
X72126500Y-62476000D02*
X70919300Y-61268800D01*
D60*
X66548000Y-59944000D02*
X67564000Y-60960000D01*
X65271966Y-58159966D02*
X66548000Y-59436000D01*
X62669500Y-58237000D02*
X63429000Y-58237000D01*
X66548000Y-59436000D02*
X66548000Y-59944000D01*
D57*
X67872800Y-61268800D02*
X67564000Y-60960000D01*
D60*
X63506034Y-58159966D02*
X65271966Y-58159966D01*
D58*
%TO.N,Net-(J3-Pin_1)*%
X48022000Y-78486000D02*
X40894000Y-78486000D01*
D59*
X38145500Y-71927500D02*
X40132000Y-73914000D01*
X35425500Y-71927500D02*
X38145500Y-71927500D01*
D58*
X49292000Y-78740000D02*
X48276000Y-78740000D01*
X40894000Y-78486000D02*
X40132000Y-77724000D01*
D59*
X40132000Y-73914000D02*
X40132000Y-77724000D01*
D58*
X48276000Y-78740000D02*
X48022000Y-78486000D01*
D57*
%TO.N,/CONTROL_SIG*%
X77216000Y-59944000D02*
X77216000Y-68580000D01*
X77216000Y-68580000D02*
X78232000Y-69596000D01*
%TO.N,BOOT0*%
X49885600Y-68478400D02*
X49530000Y-68834000D01*
D58*
X48276000Y-74168000D02*
X49292000Y-75184000D01*
D57*
X54324000Y-69818000D02*
X52984400Y-68478400D01*
X52984400Y-68478400D02*
X49885600Y-68478400D01*
X48514000Y-76454000D02*
X48514000Y-75962000D01*
X54324000Y-70723000D02*
X54324000Y-69818000D01*
D58*
X46228000Y-74168000D02*
X48276000Y-74168000D01*
D57*
X48514000Y-75962000D02*
X49292000Y-75184000D01*
%TO.N,SWDIO*%
X46228000Y-68262000D02*
X46228000Y-68072000D01*
X48149000Y-68548000D02*
X46514000Y-68548000D01*
X46514000Y-68548000D02*
X46228000Y-68262000D01*
%TO.N,SWCLK*%
X46996000Y-69348000D02*
X48149000Y-69348000D01*
X46996000Y-70110000D02*
X46996000Y-69348000D01*
X48260000Y-71374000D02*
X46996000Y-70110000D01*
X48260000Y-72898000D02*
X48260000Y-71374000D01*
D58*
%TO.N,RESET*%
X43434000Y-71882000D02*
X40894000Y-71882000D01*
X40386000Y-69088000D02*
X39878000Y-69596000D01*
X39878000Y-70866000D02*
X40894000Y-71882000D01*
D57*
X56499000Y-66948000D02*
X49638000Y-66948000D01*
X49638000Y-66948000D02*
X49530000Y-67056000D01*
D58*
X39878000Y-69596000D02*
X39878000Y-70866000D01*
D57*
X44704000Y-68326000D02*
X44704000Y-70612000D01*
D58*
X41164000Y-69088000D02*
X40386000Y-69088000D01*
X43688000Y-71628000D02*
X43434000Y-71882000D01*
D57*
X44704000Y-70612000D02*
X43688000Y-71628000D01*
D59*
%TO.N,Net-(J6-Pin_3)*%
X41617500Y-37483001D02*
X38780201Y-40320300D01*
X33142500Y-40517500D02*
X33142500Y-42539500D01*
X33339700Y-40320300D02*
X33142500Y-40517500D01*
X38780201Y-40320300D02*
X33339700Y-40320300D01*
X41617500Y-37086000D02*
X41617500Y-37483001D01*
%TO.N,Net-(J7-Pin_3)*%
X47874500Y-41125287D02*
X47874500Y-42539500D01*
X48679487Y-40320300D02*
X47874500Y-41125287D01*
X53500826Y-40320300D02*
X48679487Y-40320300D01*
X56338125Y-37086000D02*
X56338125Y-37483001D01*
X56338125Y-37483001D02*
X53500826Y-40320300D01*
%TO.N,Net-(J8-Pin_3)*%
X64227277Y-40320300D02*
X62606500Y-41941077D01*
X71058750Y-37086000D02*
X71058750Y-37483001D01*
X68221451Y-40320300D02*
X64227277Y-40320300D01*
X62606500Y-41941077D02*
X62606500Y-42539500D01*
X71058750Y-37483001D02*
X68221451Y-40320300D01*
%TO.N,Net-(J9-Pin_3)*%
X77338500Y-41125287D02*
X77338500Y-42539500D01*
X85779375Y-37483001D02*
X82942076Y-40320300D01*
X82942076Y-40320300D02*
X78143487Y-40320300D01*
X78143487Y-40320300D02*
X77338500Y-41125287D01*
X85779375Y-37086000D02*
X85779375Y-37483001D01*
%TO.N,Net-(J10-Pin_3)*%
X100500000Y-37483001D02*
X97851001Y-40132000D01*
X92070500Y-41125287D02*
X92070500Y-42539500D01*
X93063787Y-40132000D02*
X92070500Y-41125287D01*
X97851001Y-40132000D02*
X93063787Y-40132000D01*
X100500000Y-37086000D02*
X100500000Y-37483001D01*
D57*
%TO.N,Net-(Q1-B)*%
X79264000Y-64008000D02*
X79264000Y-63211200D01*
X74234000Y-59878000D02*
X73660000Y-60452000D01*
X74168000Y-60960000D02*
X73660000Y-60452000D01*
X75105500Y-59878000D02*
X74234000Y-59878000D01*
X75692000Y-60960000D02*
X74168000Y-60960000D01*
X79264000Y-63211200D02*
X78790800Y-62738000D01*
%TO.N,/ACTIVE_LO*%
X75880000Y-57978000D02*
X75880000Y-57472940D01*
X75105500Y-57978000D02*
X75880000Y-57978000D01*
D58*
X81518000Y-60960000D02*
X81518000Y-60260000D01*
X84368000Y-60543000D02*
X83221000Y-60543000D01*
X84368000Y-63843000D02*
X82969000Y-63843000D01*
X82804000Y-64008000D02*
X81264000Y-64008000D01*
X81518000Y-60960000D02*
X82804000Y-60960000D01*
X82804000Y-60960000D02*
X83221000Y-60543000D01*
D57*
X79248000Y-58168940D02*
X79248000Y-58928000D01*
D58*
X84368000Y-60543000D02*
X84368000Y-63843000D01*
X81518000Y-60260000D02*
X80440000Y-59182000D01*
D57*
X77965860Y-56886800D02*
X79248000Y-58168940D01*
X75880000Y-57472940D02*
X76466140Y-56886800D01*
D58*
X79338400Y-59018400D02*
X79338400Y-58928000D01*
X79502000Y-59182000D02*
X79338400Y-59018400D01*
X82969000Y-63843000D02*
X82804000Y-64008000D01*
X80440000Y-59182000D02*
X79502000Y-59182000D01*
D57*
X76466140Y-56886800D02*
X77965860Y-56886800D01*
%TO.N,/BASE_R1*%
X83280000Y-56364000D02*
X83280000Y-56864000D01*
X60071000Y-53213000D02*
X58004740Y-53213000D01*
X58004740Y-53213000D02*
X56607740Y-51816000D01*
X49276000Y-51816000D02*
X50546000Y-51816000D01*
X73609200Y-55575200D02*
X74676000Y-56642000D01*
X56607740Y-51816000D02*
X50546000Y-51816000D01*
X83280000Y-56864000D02*
X83820000Y-57404000D01*
X73609200Y-51562000D02*
X73609200Y-55575200D01*
%TO.N,/BASE_R2*%
X81940000Y-57098800D02*
X83058000Y-58216800D01*
X58341500Y-51750000D02*
X59624000Y-51750000D01*
X72898000Y-52324000D02*
X72898000Y-56388000D01*
X72390000Y-51816000D02*
X70344632Y-51816000D01*
X59624000Y-51750000D02*
X59944000Y-52070000D01*
X81940000Y-56364000D02*
X81940000Y-57098800D01*
X72898000Y-56388000D02*
X73660000Y-57150000D01*
X72390000Y-51816000D02*
X72898000Y-52324000D01*
X70344632Y-51816000D02*
X70231000Y-51929632D01*
D60*
%TO.N,/BASE_R3*%
X69456500Y-52705000D02*
X71755000Y-52705000D01*
D57*
X80620000Y-56364000D02*
X80620000Y-57506000D01*
D60*
X68501500Y-51750000D02*
X69456500Y-52705000D01*
D57*
X72136000Y-53086000D02*
X72136000Y-57086940D01*
X80620000Y-57506000D02*
X82296000Y-59182000D01*
D60*
X71755000Y-52705000D02*
X72136000Y-53086000D01*
D57*
X72136000Y-57086940D02*
X72898000Y-57848940D01*
X72898000Y-57848940D02*
X72898000Y-57912000D01*
%TO.N,/BASE_R4*%
X78232000Y-55316000D02*
X78232000Y-53340000D01*
X79280000Y-56364000D02*
X78232000Y-55316000D01*
D60*
X81327499Y-51101499D02*
X80952798Y-51476200D01*
X80952798Y-51476200D02*
X79587800Y-51476200D01*
X78232000Y-52832000D02*
X78232000Y-53340000D01*
D57*
X83898500Y-49850000D02*
X82578998Y-49850000D01*
X82578998Y-49850000D02*
X81327499Y-51101499D01*
D60*
X79587800Y-51476200D02*
X78232000Y-52832000D01*
D57*
%TO.N,/BASE_R5*%
X100662500Y-52245500D02*
X100505500Y-52245500D01*
D58*
X76200000Y-54848000D02*
X76301600Y-55778400D01*
D57*
X100505500Y-52245500D02*
X100076000Y-51816000D01*
X101666000Y-52245500D02*
X100662500Y-52245500D01*
%TO.N,/USART1_DE*%
X47174000Y-67748000D02*
X48149000Y-67748000D01*
D60*
X58928000Y-63500000D02*
X58928000Y-64786000D01*
D57*
X45854594Y-61216618D02*
X45262800Y-61808411D01*
D60*
X57587000Y-59746000D02*
X57531000Y-59690000D01*
X57587000Y-61040500D02*
X58237000Y-61040500D01*
D57*
X45262800Y-61808411D02*
X45262800Y-65836800D01*
D60*
X57587000Y-61040500D02*
X57587000Y-59746000D01*
X58237000Y-61040500D02*
X58237000Y-62809000D01*
D57*
X46482000Y-60071000D02*
X45854594Y-60698406D01*
X45854594Y-60698406D02*
X45854594Y-61216618D01*
D60*
X58237000Y-62809000D02*
X58928000Y-63500000D01*
D57*
X45262800Y-65836800D02*
X47174000Y-67748000D01*
D60*
%TO.N,/USART1_TX*%
X58887000Y-61040500D02*
X58887000Y-60148268D01*
X58887000Y-60148268D02*
X58549543Y-59810811D01*
D57*
X46736000Y-64780212D02*
X46736000Y-62992000D01*
X60960000Y-64516000D02*
X59182000Y-62738000D01*
X48149000Y-65348000D02*
X47303788Y-65348000D01*
D60*
X58887000Y-62443000D02*
X59182000Y-62738000D01*
D57*
X60960000Y-64786000D02*
X60960000Y-64516000D01*
X46736000Y-62992000D02*
X47498000Y-62230000D01*
D60*
X58887000Y-61040500D02*
X58887000Y-62443000D01*
D57*
X47498000Y-62230000D02*
X47498000Y-62103000D01*
X47303788Y-65348000D02*
X46736000Y-64780212D01*
%TO.N,/UC_R5*%
X59674000Y-74152000D02*
X60960000Y-74152000D01*
X58166000Y-72644000D02*
X59674000Y-74152000D01*
X58166000Y-72136000D02*
X58166000Y-72644000D01*
X53524000Y-71499818D02*
X53954382Y-71930200D01*
X57960200Y-71930200D02*
X58166000Y-72136000D01*
X53524000Y-70723000D02*
X53524000Y-71499818D01*
X53954382Y-71930200D02*
X57960200Y-71930200D01*
%TO.N,/UC_R1*%
X51054000Y-73152000D02*
X52840000Y-73152000D01*
X50324000Y-72422000D02*
X51054000Y-73152000D01*
X50324000Y-70723000D02*
X50324000Y-72422000D01*
X52840000Y-73152000D02*
X53372000Y-73684000D01*
%TO.N,/UC_R2*%
X51124000Y-71952000D02*
X51308000Y-72136000D01*
X54712000Y-73684000D02*
X54712000Y-74320000D01*
X51124000Y-70723000D02*
X51124000Y-71952000D01*
X54712000Y-74320000D02*
X54356000Y-74676000D01*
%TO.N,/UC_R3*%
X56134000Y-74676000D02*
X56134000Y-73786000D01*
X51924000Y-70723000D02*
X51924000Y-69450000D01*
X56134000Y-73786000D02*
X56032000Y-73684000D01*
X51924000Y-69450000D02*
X51816000Y-69342000D01*
%TO.N,/UC_R4*%
X52724000Y-71774000D02*
X52724000Y-70723000D01*
X53594000Y-72644000D02*
X52724000Y-71774000D01*
X57372000Y-73684000D02*
X57372000Y-73209600D01*
X57372000Y-73209600D02*
X56806400Y-72644000D01*
X56806400Y-72644000D02*
X53594000Y-72644000D01*
%TO.N,Net-(SW1A-B)*%
X92312000Y-56454000D02*
X88326000Y-56454000D01*
X88326000Y-56454000D02*
X86868000Y-57912000D01*
X86868000Y-57912000D02*
X86868000Y-59527000D01*
D60*
%TO.N,ACTIVE_HI*%
X93747200Y-59238800D02*
X89605200Y-59238800D01*
D58*
X89368000Y-60543000D02*
X89368000Y-59476000D01*
D60*
X89605200Y-59238800D02*
X89368000Y-59476000D01*
X94632000Y-58354000D02*
X93747200Y-59238800D01*
%TO.N,Net-(U1-BIAS)*%
X51292000Y-53594000D02*
X51292000Y-54432000D01*
X49823500Y-55250500D02*
X50473500Y-55250500D01*
X51292000Y-54432000D02*
X50473500Y-55250500D01*
%TO.N,Net-(U1-ISENSOR)*%
X49173500Y-55250500D02*
X49173500Y-53712500D01*
X49173500Y-53712500D02*
X49292000Y-53594000D01*
X48523500Y-55250500D02*
X49173500Y-55250500D01*
%TO.N,/SPI_MOSI*%
X47873500Y-60125500D02*
X47873500Y-61315184D01*
X47873500Y-61315184D02*
X48341278Y-61782962D01*
D57*
X52283919Y-63509737D02*
X52318267Y-63509737D01*
X51924000Y-63149818D02*
X52283919Y-63509737D01*
X51924000Y-62373000D02*
X51924000Y-63149818D01*
%TO.N,/SPI_CLK*%
X53524000Y-63443000D02*
X53467000Y-63500000D01*
D60*
X48523500Y-60969500D02*
X48768000Y-61214000D01*
X48523500Y-60125500D02*
X48523500Y-60969500D01*
D57*
X53524000Y-62373000D02*
X53524000Y-63443000D01*
D60*
%TO.N,/SPI_CS*%
X49173500Y-60125500D02*
X49173500Y-60714183D01*
D57*
X54324000Y-61309000D02*
X54062143Y-61047143D01*
X54324000Y-62373000D02*
X54324000Y-61309000D01*
D60*
X49173500Y-60714183D02*
X49506460Y-61047143D01*
%TO.N,/SPI_MISO*%
X52724000Y-61106000D02*
X52724000Y-62373000D01*
X49823500Y-60125500D02*
X49823500Y-60537999D01*
X49823500Y-60537999D02*
X50153701Y-60868200D01*
X50153701Y-60868200D02*
X52486200Y-60868200D01*
X52486200Y-60868200D02*
X52724000Y-61106000D01*
%TO.N,/USART1_RX*%
X56937000Y-61040500D02*
X56769000Y-60872500D01*
D57*
X48149000Y-66148000D02*
X47098000Y-66148000D01*
X45974000Y-62103000D02*
X46990000Y-61087000D01*
X45974000Y-65024000D02*
X45974000Y-63246000D01*
D60*
X56769000Y-58257073D02*
X56789628Y-58236445D01*
X56769000Y-60872500D02*
X56769000Y-59436000D01*
X56937000Y-61040500D02*
X56937000Y-60239000D01*
X56769000Y-59436000D02*
X56769000Y-58257073D01*
D57*
X47098000Y-66148000D02*
X45974000Y-65024000D01*
X45974000Y-63246000D02*
X45974000Y-62103000D01*
D60*
%TO.N,USART2_RX*%
X61457000Y-55637000D02*
X62669500Y-55637000D01*
D57*
X55926028Y-56815028D02*
X55926028Y-60659972D01*
X55124000Y-61462000D02*
X55124000Y-62373000D01*
X55245000Y-56134000D02*
X55926028Y-56815028D01*
X55926028Y-60659972D02*
X55124000Y-61462000D01*
D60*
X61214000Y-55880000D02*
X61457000Y-55637000D01*
%TO.N,USART2_TX*%
X60738271Y-59595271D02*
X61214000Y-60071000D01*
X62669500Y-56937000D02*
X61300000Y-56937000D01*
X61300000Y-56937000D02*
X60738271Y-57498729D01*
D57*
X56499000Y-63748000D02*
X57918000Y-63748000D01*
X57918000Y-63748000D02*
X58026145Y-63639855D01*
D60*
X60738271Y-57498729D02*
X60738271Y-59595271D01*
D57*
%TO.N,485A*%
X72329700Y-69469000D02*
X72329700Y-73586754D01*
D60*
X58237000Y-55539000D02*
X59166000Y-54610000D01*
D57*
X72329700Y-73586754D02*
X72506023Y-73763077D01*
X72329700Y-68072000D02*
X72329700Y-69469000D01*
X64820800Y-63449200D02*
X64820800Y-59994800D01*
X64820800Y-59994800D02*
X64179766Y-59353766D01*
X64262000Y-64008000D02*
X64820800Y-63449200D01*
D60*
X58237000Y-57703290D02*
X58237000Y-56815500D01*
D57*
X69088000Y-66802000D02*
X68509200Y-66223200D01*
X68509200Y-66223200D02*
X64569300Y-66223200D01*
D60*
X58237000Y-56815500D02*
X58237000Y-55539000D01*
D57*
X64569300Y-66223200D02*
X64262000Y-65915900D01*
D58*
X72583700Y-65828800D02*
X72583700Y-67818000D01*
D60*
X58877355Y-58343645D02*
X58237000Y-57703290D01*
D57*
X64262000Y-65915900D02*
X64262000Y-64008000D01*
D58*
X73396500Y-65016000D02*
X72583700Y-65828800D01*
D57*
X72583700Y-67818000D02*
X72329700Y-68072000D01*
%TO.N,485B*%
X67696400Y-66934400D02*
X64140400Y-66934400D01*
X64140400Y-66934400D02*
X63500000Y-66294000D01*
X73533000Y-73406000D02*
X73533000Y-74549000D01*
D60*
X59436000Y-59871084D02*
X59436000Y-61289148D01*
D57*
X61138852Y-62992000D02*
X59544200Y-61397348D01*
X63500000Y-63754000D02*
X62738000Y-62992000D01*
D60*
X59436000Y-61289148D02*
X59544200Y-61397348D01*
X57587000Y-58095000D02*
X58674000Y-59182000D01*
D57*
X63500000Y-66294000D02*
X63500000Y-63754000D01*
D60*
X58674000Y-59182000D02*
X58746916Y-59182000D01*
D57*
X73802900Y-68072000D02*
X73694699Y-68072000D01*
D60*
X58746916Y-59182000D02*
X59436000Y-59871084D01*
D57*
X73040900Y-68725799D02*
X73040900Y-72913900D01*
X73040900Y-72913900D02*
X73533000Y-73406000D01*
D58*
X75273600Y-65569400D02*
X73802900Y-67040100D01*
D57*
X73694699Y-68072000D02*
X73040900Y-68725799D01*
X68834000Y-68072000D02*
X67696400Y-66934400D01*
X73802900Y-67183000D02*
X73802900Y-68072000D01*
D58*
X74666500Y-62476000D02*
X75416500Y-63226000D01*
X73802900Y-67040100D02*
X73802900Y-67183000D01*
D60*
X57587000Y-56815500D02*
X57587000Y-55285000D01*
X57587000Y-55285000D02*
X57166000Y-54864000D01*
D57*
X62738000Y-62992000D02*
X61138852Y-62992000D01*
D58*
X75416500Y-63226000D02*
X75416500Y-65569400D01*
D60*
X57587000Y-56815500D02*
X57587000Y-58095000D01*
D58*
X75416500Y-65569400D02*
X75273600Y-65569400D01*
%TD*%
%TA.AperFunction,Conductor*%
%TO.N,GND*%
G36*
X35125243Y-49030057D02*
G01*
X35259210Y-49080865D01*
X35355007Y-49100422D01*
X35499104Y-49129840D01*
X35499108Y-49129840D01*
X35499111Y-49129841D01*
X35565094Y-49132500D01*
X35743755Y-49139700D01*
X35743756Y-49139700D01*
X35743757Y-49139699D01*
X35743762Y-49139700D01*
X35969498Y-49112291D01*
X35986827Y-49110187D01*
X36054307Y-49090641D01*
X36222008Y-49042066D01*
X36239066Y-49033971D01*
X36292223Y-49022000D01*
X39889500Y-49022000D01*
X39956539Y-49041685D01*
X40002294Y-49094489D01*
X40013500Y-49146000D01*
X40013500Y-50341547D01*
X40017590Y-50383069D01*
X40028091Y-50489700D01*
X40066161Y-50615201D01*
X40071500Y-50651193D01*
X40071500Y-50715335D01*
X40071501Y-50715356D01*
X40081650Y-50814707D01*
X40081651Y-50814710D01*
X40134996Y-50975694D01*
X40135001Y-50975705D01*
X40227823Y-51126191D01*
X40225062Y-51127893D01*
X40245847Y-51179253D01*
X40232879Y-51247909D01*
X40184852Y-51298656D01*
X40122453Y-51315500D01*
X35840528Y-51315500D01*
X35838031Y-51315475D01*
X35835427Y-51315422D01*
X35732138Y-51313342D01*
X35732137Y-51313342D01*
X35732133Y-51313342D01*
X35732130Y-51313342D01*
X35660013Y-51323575D01*
X35652575Y-51324403D01*
X35579946Y-51330267D01*
X35541338Y-51339783D01*
X35529092Y-51342154D01*
X35489722Y-51347742D01*
X35420167Y-51369415D01*
X35412956Y-51371425D01*
X35342220Y-51388861D01*
X35342209Y-51388864D01*
X35305622Y-51404452D01*
X35293913Y-51408758D01*
X35255955Y-51420586D01*
X35190780Y-51453135D01*
X35183983Y-51456277D01*
X35116957Y-51484834D01*
X35083343Y-51506090D01*
X35072477Y-51512219D01*
X35036903Y-51529985D01*
X34977797Y-51572565D01*
X34971594Y-51576755D01*
X34910014Y-51615697D01*
X34907077Y-51618299D01*
X34880323Y-51642001D01*
X34880246Y-51642069D01*
X34870509Y-51649856D01*
X34854500Y-51661391D01*
X34838234Y-51673109D01*
X34786731Y-51724612D01*
X34781280Y-51729743D01*
X34726741Y-51778062D01*
X34726730Y-51778073D01*
X34721540Y-51784430D01*
X34663891Y-51823906D01*
X34625495Y-51830000D01*
X33825498Y-51830000D01*
X33825480Y-51830001D01*
X33722703Y-51840500D01*
X33722700Y-51840501D01*
X33556168Y-51895685D01*
X33556163Y-51895687D01*
X33406842Y-51987789D01*
X33282789Y-52111842D01*
X33190687Y-52261163D01*
X33190685Y-52261168D01*
X33177198Y-52301870D01*
X33135501Y-52427703D01*
X33135501Y-52427704D01*
X33135500Y-52427704D01*
X33125000Y-52530483D01*
X33125000Y-53930501D01*
X33125001Y-53930518D01*
X33135500Y-54033296D01*
X33135501Y-54033299D01*
X33176923Y-54158300D01*
X33190686Y-54199834D01*
X33282788Y-54349156D01*
X33406844Y-54473212D01*
X33556166Y-54565314D01*
X33722703Y-54620499D01*
X33825491Y-54631000D01*
X34816416Y-54630999D01*
X34858043Y-54638195D01*
X34881431Y-54646530D01*
X35031724Y-54700092D01*
X35272563Y-54744228D01*
X35517362Y-54749158D01*
X35759783Y-54714756D01*
X35844193Y-54688453D01*
X35993534Y-54641917D01*
X35993540Y-54641914D01*
X35993545Y-54641913D01*
X35993549Y-54641910D01*
X35998173Y-54640050D01*
X35998878Y-54641801D01*
X36044640Y-54630999D01*
X37025502Y-54630999D01*
X37025508Y-54630999D01*
X37128297Y-54620499D01*
X37294834Y-54565314D01*
X37444156Y-54473212D01*
X37532549Y-54384819D01*
X37593872Y-54351334D01*
X37620230Y-54348500D01*
X39915000Y-54348500D01*
X39982039Y-54368185D01*
X40027794Y-54420989D01*
X40039000Y-54472500D01*
X40039000Y-54614000D01*
X41252500Y-54614000D01*
X41319539Y-54633685D01*
X41365294Y-54686489D01*
X41376500Y-54738000D01*
X41376500Y-54990000D01*
X41356815Y-55057039D01*
X41304011Y-55102794D01*
X41252500Y-55114000D01*
X40039001Y-55114000D01*
X40039001Y-55255500D01*
X40019316Y-55322539D01*
X39966512Y-55368294D01*
X39915001Y-55379500D01*
X35586548Y-55379500D01*
X35584052Y-55379475D01*
X35576766Y-55379328D01*
X35478138Y-55377342D01*
X35478137Y-55377342D01*
X35478133Y-55377342D01*
X35478130Y-55377342D01*
X35406013Y-55387575D01*
X35398575Y-55388403D01*
X35325946Y-55394267D01*
X35287338Y-55403783D01*
X35275092Y-55406154D01*
X35235722Y-55411742D01*
X35166167Y-55433415D01*
X35158956Y-55435425D01*
X35088220Y-55452861D01*
X35088209Y-55452864D01*
X35051622Y-55468452D01*
X35039913Y-55472758D01*
X35001955Y-55484586D01*
X34936780Y-55517135D01*
X34929983Y-55520277D01*
X34862957Y-55548834D01*
X34829343Y-55570090D01*
X34818477Y-55576219D01*
X34782906Y-55593984D01*
X34782905Y-55593985D01*
X34751496Y-55616611D01*
X34685597Y-55639825D01*
X34679017Y-55640000D01*
X34465984Y-55640000D01*
X34287963Y-55655152D01*
X34057251Y-55715224D01*
X33840019Y-55813419D01*
X33840011Y-55813424D01*
X33642506Y-55946913D01*
X33642497Y-55946921D01*
X33470381Y-56111879D01*
X33328623Y-56303550D01*
X33328620Y-56303554D01*
X33221296Y-56516420D01*
X33221293Y-56516426D01*
X33151483Y-56744378D01*
X33121202Y-56980846D01*
X33131319Y-57219028D01*
X33131319Y-57219032D01*
X33181545Y-57452080D01*
X33270344Y-57673062D01*
X33270436Y-57673290D01*
X33395431Y-57876295D01*
X33435321Y-57921619D01*
X33549525Y-58051380D01*
X33552936Y-58055255D01*
X33738420Y-58205023D01*
X33946546Y-58321290D01*
X34099126Y-58375200D01*
X34171329Y-58400711D01*
X34406290Y-58440999D01*
X34406298Y-58440999D01*
X34406300Y-58441000D01*
X34816419Y-58441000D01*
X34858045Y-58448195D01*
X35031724Y-58510092D01*
X35272563Y-58554228D01*
X35517362Y-58559158D01*
X35759783Y-58524756D01*
X35993545Y-58451913D01*
X35993555Y-58451907D01*
X35998178Y-58450048D01*
X35998883Y-58451801D01*
X36044638Y-58441000D01*
X36384996Y-58441000D01*
X36384997Y-58441000D01*
X36384998Y-58440999D01*
X36385015Y-58440999D01*
X36563034Y-58425847D01*
X36563035Y-58425846D01*
X36563041Y-58425846D01*
X36598931Y-58416501D01*
X36630176Y-58412500D01*
X39915000Y-58412500D01*
X39982039Y-58432185D01*
X40027794Y-58484989D01*
X40039000Y-58536500D01*
X40039000Y-58678000D01*
X41252500Y-58678000D01*
X41319539Y-58697685D01*
X41365294Y-58750489D01*
X41376500Y-58802000D01*
X41376500Y-59054000D01*
X41356815Y-59121039D01*
X41304011Y-59166794D01*
X41252500Y-59178000D01*
X40039001Y-59178000D01*
X40039001Y-59319500D01*
X40019316Y-59386539D01*
X39966512Y-59432294D01*
X39915001Y-59443500D01*
X36015313Y-59443500D01*
X35969017Y-59434533D01*
X35930765Y-59419138D01*
X35878135Y-59397956D01*
X35878131Y-59397955D01*
X35639266Y-59344158D01*
X35578164Y-59340462D01*
X35394862Y-59329375D01*
X35394860Y-59329375D01*
X35394859Y-59329375D01*
X35151258Y-59353986D01*
X35151254Y-59353986D01*
X35151254Y-59353987D01*
X34914748Y-59417359D01*
X34914745Y-59417359D01*
X34914742Y-59417361D01*
X34866494Y-59439076D01*
X34815603Y-59450000D01*
X34465984Y-59450000D01*
X34287963Y-59465152D01*
X34057251Y-59525224D01*
X33840019Y-59623419D01*
X33840011Y-59623424D01*
X33642506Y-59756913D01*
X33642497Y-59756921D01*
X33470381Y-59921879D01*
X33328623Y-60113550D01*
X33328620Y-60113554D01*
X33221296Y-60326420D01*
X33221293Y-60326426D01*
X33151483Y-60554378D01*
X33121202Y-60790846D01*
X33131319Y-61029028D01*
X33131319Y-61029032D01*
X33181545Y-61262080D01*
X33269634Y-61481294D01*
X33270436Y-61483290D01*
X33395431Y-61686295D01*
X33421471Y-61715882D01*
X33538161Y-61848468D01*
X33552936Y-61865255D01*
X33738420Y-62015023D01*
X33946546Y-62131290D01*
X34088034Y-62181281D01*
X34171329Y-62210711D01*
X34406290Y-62250999D01*
X34406298Y-62250999D01*
X34406300Y-62251000D01*
X34700998Y-62251000D01*
X34758623Y-62265203D01*
X34786350Y-62279755D01*
X34792874Y-62283435D01*
X34811023Y-62294406D01*
X34852702Y-62319602D01*
X34855227Y-62321128D01*
X34892104Y-62335969D01*
X34903431Y-62341203D01*
X34938649Y-62359688D01*
X35007772Y-62382764D01*
X35014774Y-62385339D01*
X35082369Y-62412545D01*
X35121159Y-62421281D01*
X35133161Y-62424625D01*
X35170897Y-62437224D01*
X35197375Y-62441527D01*
X35242798Y-62448909D01*
X35250151Y-62450332D01*
X35321235Y-62466342D01*
X35360945Y-62468743D01*
X35373310Y-62470119D01*
X35412575Y-62476500D01*
X35485424Y-62476500D01*
X35492910Y-62476726D01*
X35565637Y-62481125D01*
X35605199Y-62477127D01*
X35617663Y-62476500D01*
X39915000Y-62476500D01*
X39982039Y-62496185D01*
X40027794Y-62548989D01*
X40039000Y-62600500D01*
X40039000Y-62742000D01*
X41252500Y-62742000D01*
X41319539Y-62761685D01*
X41365294Y-62814489D01*
X41376500Y-62866000D01*
X41376500Y-63118000D01*
X41356815Y-63185039D01*
X41304011Y-63230794D01*
X41252500Y-63242000D01*
X40039001Y-63242000D01*
X40039001Y-63383500D01*
X40019316Y-63450539D01*
X39966512Y-63496294D01*
X39915001Y-63507500D01*
X37165495Y-63507500D01*
X37105021Y-63491754D01*
X36973696Y-63418391D01*
X36904455Y-63379710D01*
X36679670Y-63300288D01*
X36444709Y-63260000D01*
X36444700Y-63260000D01*
X36031464Y-63260000D01*
X35985167Y-63251033D01*
X35878132Y-63207955D01*
X35639266Y-63154158D01*
X35578164Y-63150462D01*
X35394862Y-63139375D01*
X35394860Y-63139375D01*
X35394859Y-63139375D01*
X35151258Y-63163986D01*
X35151254Y-63163986D01*
X35151254Y-63163987D01*
X34914748Y-63227359D01*
X34914745Y-63227359D01*
X34914742Y-63227361D01*
X34866494Y-63249076D01*
X34815603Y-63260000D01*
X34465984Y-63260000D01*
X34287963Y-63275152D01*
X34057251Y-63335224D01*
X33840019Y-63433419D01*
X33840011Y-63433424D01*
X33642506Y-63566913D01*
X33642497Y-63566921D01*
X33470381Y-63731879D01*
X33328623Y-63923550D01*
X33328620Y-63923554D01*
X33221296Y-64136420D01*
X33221293Y-64136426D01*
X33151483Y-64364378D01*
X33121202Y-64600846D01*
X33131319Y-64839028D01*
X33131319Y-64839032D01*
X33181545Y-65072080D01*
X33270435Y-65293288D01*
X33270436Y-65293290D01*
X33370210Y-65455334D01*
X33395432Y-65496296D01*
X33524888Y-65643387D01*
X33552936Y-65675255D01*
X33738420Y-65825023D01*
X33946546Y-65941290D01*
X34105599Y-65997487D01*
X34171329Y-66020711D01*
X34406290Y-66060999D01*
X34406298Y-66060999D01*
X34406300Y-66061000D01*
X34629482Y-66061000D01*
X34696521Y-66080685D01*
X34718910Y-66099101D01*
X34750898Y-66132404D01*
X34780102Y-66162809D01*
X34780105Y-66162812D01*
X34838338Y-66206571D01*
X34844174Y-66211238D01*
X34899688Y-66258458D01*
X34921937Y-66271908D01*
X34933716Y-66279028D01*
X34944062Y-66286017D01*
X34975838Y-66309896D01*
X34975842Y-66309898D01*
X34975846Y-66309901D01*
X35008315Y-66326942D01*
X35040349Y-66343755D01*
X35046868Y-66347432D01*
X35109225Y-66385128D01*
X35146122Y-66399978D01*
X35157438Y-66405208D01*
X35192649Y-66423688D01*
X35261779Y-66446767D01*
X35268751Y-66449331D01*
X35336369Y-66476545D01*
X35375158Y-66485281D01*
X35387178Y-66488632D01*
X35398957Y-66492564D01*
X35424897Y-66501224D01*
X35496836Y-66512914D01*
X35504133Y-66514328D01*
X35575236Y-66530342D01*
X35614945Y-66532743D01*
X35627311Y-66534118D01*
X35666575Y-66540500D01*
X35739413Y-66540500D01*
X35746899Y-66540726D01*
X35819638Y-66545126D01*
X35856189Y-66541432D01*
X35859209Y-66541128D01*
X35871673Y-66540500D01*
X39915000Y-66540500D01*
X39982039Y-66560185D01*
X40027794Y-66612989D01*
X40039000Y-66664500D01*
X40039000Y-66806000D01*
X41252500Y-66806000D01*
X41319539Y-66825685D01*
X41365294Y-66878489D01*
X41376500Y-66930000D01*
X41376500Y-67182000D01*
X41356815Y-67249039D01*
X41304011Y-67294794D01*
X41252500Y-67306000D01*
X40039001Y-67306000D01*
X40039001Y-67580986D01*
X40049494Y-67683697D01*
X40104641Y-67850119D01*
X40104643Y-67850124D01*
X40160074Y-67939991D01*
X40178514Y-68007384D01*
X40157591Y-68074047D01*
X40103949Y-68118817D01*
X40090532Y-68123748D01*
X39998193Y-68151759D01*
X39823001Y-68245401D01*
X39822994Y-68245405D01*
X39669434Y-68371429D01*
X39641710Y-68405211D01*
X39633538Y-68414226D01*
X39204229Y-68843535D01*
X39195215Y-68851706D01*
X39161432Y-68879431D01*
X39035407Y-69032992D01*
X39025699Y-69051154D01*
X38952347Y-69188388D01*
X38941759Y-69208194D01*
X38941756Y-69208202D01*
X38884091Y-69398296D01*
X38870513Y-69536162D01*
X38864620Y-69596000D01*
X38866262Y-69612677D01*
X38868903Y-69639487D01*
X38869500Y-69651641D01*
X38869500Y-70398302D01*
X38849815Y-70465341D01*
X38797011Y-70511096D01*
X38727853Y-70521040D01*
X38706231Y-70515920D01*
X38672745Y-70504740D01*
X38665718Y-70502156D01*
X38663735Y-70501358D01*
X38643468Y-70493201D01*
X38598130Y-70474954D01*
X38559335Y-70466217D01*
X38547317Y-70462866D01*
X38509602Y-70450275D01*
X38509594Y-70450273D01*
X38437690Y-70438588D01*
X38430337Y-70437164D01*
X38359267Y-70421158D01*
X38319568Y-70418756D01*
X38307171Y-70417377D01*
X38267925Y-70411000D01*
X38195076Y-70411000D01*
X38187590Y-70410774D01*
X38163468Y-70409315D01*
X38114862Y-70406375D01*
X38114861Y-70406375D01*
X38114860Y-70406375D01*
X38114859Y-70406375D01*
X38075300Y-70410372D01*
X38062836Y-70411000D01*
X35364371Y-70411000D01*
X35181445Y-70425767D01*
X34943713Y-70484363D01*
X34943708Y-70484365D01*
X34866925Y-70517078D01*
X34818323Y-70527000D01*
X33825498Y-70527000D01*
X33825480Y-70527001D01*
X33722703Y-70537500D01*
X33722700Y-70537501D01*
X33556168Y-70592685D01*
X33556163Y-70592687D01*
X33406842Y-70684789D01*
X33282789Y-70808842D01*
X33190687Y-70958163D01*
X33190685Y-70958168D01*
X33167072Y-71029427D01*
X33135501Y-71124703D01*
X33135501Y-71124704D01*
X33135500Y-71124704D01*
X33125000Y-71227483D01*
X33125000Y-72627501D01*
X33125001Y-72627518D01*
X33135500Y-72730296D01*
X33135501Y-72730299D01*
X33190685Y-72896831D01*
X33190687Y-72896836D01*
X33198984Y-72910288D01*
X33282788Y-73046156D01*
X33406844Y-73170212D01*
X33556166Y-73262314D01*
X33722703Y-73317499D01*
X33825491Y-73328000D01*
X34811429Y-73327999D01*
X34850696Y-73334381D01*
X35061396Y-73404724D01*
X35094988Y-73410183D01*
X35303073Y-73443999D01*
X35303074Y-73444000D01*
X35303075Y-73444000D01*
X37465983Y-73444000D01*
X37533022Y-73463685D01*
X37553664Y-73480319D01*
X38579181Y-74505836D01*
X38612666Y-74567159D01*
X38615500Y-74593517D01*
X38615500Y-77785128D01*
X38630267Y-77968054D01*
X38688864Y-78205791D01*
X38784832Y-78431037D01*
X38784835Y-78431042D01*
X38784837Y-78431046D01*
X38854370Y-78541003D01*
X38915704Y-78637994D01*
X39078063Y-78821260D01*
X39125968Y-78860373D01*
X39260622Y-78970315D01*
X39267725Y-78976114D01*
X39267728Y-78976117D01*
X39479769Y-79098538D01*
X39479770Y-79098538D01*
X39479773Y-79098540D01*
X39576063Y-79135058D01*
X39631765Y-79177236D01*
X39655822Y-79242834D01*
X39640595Y-79311024D01*
X39590919Y-79360157D01*
X39532091Y-79375000D01*
X32001000Y-79375000D01*
X31933961Y-79355315D01*
X31888206Y-79302511D01*
X31877000Y-79251000D01*
X31877000Y-75177500D01*
X33146082Y-75177500D01*
X34879618Y-75177500D01*
X34840944Y-75270869D01*
X34820323Y-75427500D01*
X34840944Y-75584131D01*
X34879618Y-75677500D01*
X33147234Y-75677500D01*
X33182025Y-75838933D01*
X33270883Y-76060062D01*
X33395833Y-76262994D01*
X33553280Y-76441889D01*
X33553286Y-76441896D01*
X33738694Y-76591602D01*
X33738704Y-76591609D01*
X33946748Y-76707831D01*
X34171447Y-76787222D01*
X34171461Y-76787226D01*
X34406332Y-76827499D01*
X34406343Y-76827500D01*
X35175500Y-76827500D01*
X35175500Y-75973381D01*
X35268869Y-76012056D01*
X35386177Y-76027500D01*
X35464823Y-76027500D01*
X35582131Y-76012056D01*
X35675500Y-75973381D01*
X35675500Y-76827500D01*
X36384972Y-76827500D01*
X36384991Y-76827499D01*
X36562950Y-76812352D01*
X36562953Y-76812351D01*
X36793578Y-76752302D01*
X37010741Y-76654139D01*
X37010744Y-76654137D01*
X37208188Y-76520687D01*
X37208190Y-76520685D01*
X37380236Y-76355793D01*
X37521950Y-76164183D01*
X37629242Y-75951384D01*
X37699024Y-75723520D01*
X37704918Y-75677500D01*
X35971382Y-75677500D01*
X36010056Y-75584131D01*
X36030677Y-75427500D01*
X36010056Y-75270869D01*
X35971382Y-75177500D01*
X37703766Y-75177500D01*
X37703765Y-75177499D01*
X37668974Y-75016066D01*
X37580116Y-74794937D01*
X37455166Y-74592005D01*
X37297719Y-74413110D01*
X37297713Y-74413103D01*
X37112305Y-74263397D01*
X37112295Y-74263390D01*
X36904251Y-74147168D01*
X36679552Y-74067777D01*
X36679538Y-74067773D01*
X36444667Y-74027500D01*
X35675500Y-74027500D01*
X35675500Y-74881618D01*
X35582131Y-74842944D01*
X35464823Y-74827500D01*
X35386177Y-74827500D01*
X35268869Y-74842944D01*
X35175500Y-74881618D01*
X35175500Y-74027500D01*
X34466008Y-74027500D01*
X34288049Y-74042647D01*
X34288046Y-74042648D01*
X34057421Y-74102697D01*
X33840258Y-74200860D01*
X33840255Y-74200862D01*
X33642811Y-74334312D01*
X33642809Y-74334314D01*
X33470763Y-74499206D01*
X33329049Y-74690816D01*
X33221757Y-74903615D01*
X33151975Y-75131479D01*
X33146082Y-75177500D01*
X31877000Y-75177500D01*
X31877000Y-49232967D01*
X31896685Y-49165928D01*
X31949489Y-49120173D01*
X32018647Y-49110229D01*
X32029520Y-49112291D01*
X32035010Y-49113588D01*
X32035017Y-49113591D01*
X32035023Y-49113591D01*
X32035025Y-49113592D01*
X32043732Y-49114528D01*
X32094627Y-49120000D01*
X34190372Y-49119999D01*
X34249983Y-49113591D01*
X34384831Y-49063296D01*
X34406954Y-49046734D01*
X34472417Y-49022316D01*
X34481266Y-49022000D01*
X35081273Y-49022000D01*
X35125243Y-49030057D01*
G37*
%TD.AperFunction*%
%TA.AperFunction,Conductor*%
G36*
X70412827Y-65117265D02*
G01*
X70462387Y-65243541D01*
X70546965Y-65349599D01*
X70659047Y-65426016D01*
X70766799Y-65459253D01*
X70166927Y-66059124D01*
X70229112Y-66102666D01*
X70427340Y-66195101D01*
X70427349Y-66195105D01*
X70638605Y-66251710D01*
X70638615Y-66251712D01*
X70856499Y-66270775D01*
X70856501Y-66270775D01*
X71074384Y-66251712D01*
X71074394Y-66251710D01*
X71285650Y-66195105D01*
X71285659Y-66195101D01*
X71398795Y-66142346D01*
X71467873Y-66131854D01*
X71531657Y-66160374D01*
X71569896Y-66218850D01*
X71575200Y-66254728D01*
X71575200Y-67867546D01*
X71581259Y-67929079D01*
X71578515Y-67969819D01*
X71575199Y-67983810D01*
X71574361Y-67990987D01*
X71574307Y-67990980D01*
X71573530Y-67998596D01*
X71573583Y-67998601D01*
X71572953Y-68005790D01*
X71575148Y-68081193D01*
X71575200Y-68084800D01*
X71575200Y-73522754D01*
X71573891Y-73540723D01*
X71570384Y-73564662D01*
X71574728Y-73614299D01*
X71575200Y-73625108D01*
X71575200Y-73630700D01*
X71578816Y-73661639D01*
X71579182Y-73665224D01*
X71585756Y-73740364D01*
X71587216Y-73747431D01*
X71587164Y-73747441D01*
X71588823Y-73754927D01*
X71588876Y-73754915D01*
X71592206Y-73768968D01*
X71592050Y-73769004D01*
X71597007Y-73790474D01*
X71614055Y-73952672D01*
X71614056Y-73952675D01*
X71672962Y-74133972D01*
X71672965Y-74133978D01*
X71768284Y-74299075D01*
X71812718Y-74348424D01*
X71895840Y-74440742D01*
X71895843Y-74440744D01*
X71895846Y-74440747D01*
X72004060Y-74519369D01*
X72050075Y-74552801D01*
X72224227Y-74630339D01*
X72224232Y-74630341D01*
X72410704Y-74669977D01*
X72528646Y-74669977D01*
X72595685Y-74689662D01*
X72641440Y-74742466D01*
X72646577Y-74755659D01*
X72699939Y-74919895D01*
X72699942Y-74919901D01*
X72795261Y-75084998D01*
X72812303Y-75103925D01*
X72922817Y-75226665D01*
X72922820Y-75226667D01*
X72922823Y-75226670D01*
X73036618Y-75309347D01*
X73077052Y-75338724D01*
X73251204Y-75416262D01*
X73251209Y-75416264D01*
X73437681Y-75455900D01*
X73628319Y-75455900D01*
X73814791Y-75416264D01*
X73988948Y-75338724D01*
X74143177Y-75226670D01*
X74155649Y-75212819D01*
X74187450Y-75177500D01*
X74270739Y-75084998D01*
X74366058Y-74919901D01*
X74424968Y-74738594D01*
X74444895Y-74549000D01*
X74424968Y-74359406D01*
X74366058Y-74178099D01*
X74365447Y-74177041D01*
X74304113Y-74070806D01*
X74287500Y-74008806D01*
X74287500Y-73469992D01*
X74288809Y-73452022D01*
X74291449Y-73433998D01*
X74292314Y-73428093D01*
X74291776Y-73421947D01*
X74287972Y-73378463D01*
X74287500Y-73367655D01*
X74287500Y-73362066D01*
X74287499Y-73362050D01*
X74283877Y-73331063D01*
X74283514Y-73327517D01*
X74280293Y-73290689D01*
X74294061Y-73222189D01*
X74342678Y-73172008D01*
X74410707Y-73156076D01*
X74476550Y-73179453D01*
X74485580Y-73186657D01*
X74497427Y-73197046D01*
X74517788Y-73214902D01*
X74771255Y-73384264D01*
X74868476Y-73432208D01*
X75044657Y-73519091D01*
X75044667Y-73519095D01*
X75325132Y-73614299D01*
X75333325Y-73617080D01*
X75632310Y-73676552D01*
X75661520Y-73678466D01*
X75936493Y-73696490D01*
X75936500Y-73696490D01*
X75936507Y-73696490D01*
X76198810Y-73679297D01*
X76240690Y-73676552D01*
X76539675Y-73617080D01*
X76764617Y-73540723D01*
X76828332Y-73519095D01*
X76828342Y-73519091D01*
X76846434Y-73510169D01*
X77101745Y-73384264D01*
X77355212Y-73214902D01*
X77584405Y-73013905D01*
X77785402Y-72784712D01*
X77954764Y-72531245D01*
X78024400Y-72390037D01*
X78071705Y-72338617D01*
X78139300Y-72320935D01*
X78205724Y-72342605D01*
X78249889Y-72396746D01*
X78258953Y-72436542D01*
X78259202Y-72436518D01*
X78259395Y-72438483D01*
X78259461Y-72438771D01*
X78259498Y-72439526D01*
X78266903Y-72514717D01*
X78267500Y-72526869D01*
X78267500Y-72690000D01*
X78267501Y-72690019D01*
X78278000Y-72792796D01*
X78278001Y-72792799D01*
X78333185Y-72959331D01*
X78333187Y-72959336D01*
X78337033Y-72965571D01*
X78425288Y-73108656D01*
X78549344Y-73232712D01*
X78698666Y-73324814D01*
X78865203Y-73379999D01*
X78967991Y-73390500D01*
X79114902Y-73390499D01*
X79181942Y-73410183D01*
X79227697Y-73462987D01*
X79237641Y-73532145D01*
X79208616Y-73595701D01*
X79202584Y-73602180D01*
X78565229Y-74239535D01*
X78556215Y-74247706D01*
X78522432Y-74275431D01*
X78396405Y-74428994D01*
X78396403Y-74428997D01*
X78366369Y-74485189D01*
X78330230Y-74552801D01*
X78322556Y-74567159D01*
X78302758Y-74604196D01*
X78245091Y-74794296D01*
X78245090Y-74794298D01*
X78235180Y-74894918D01*
X78229483Y-74921766D01*
X78174001Y-75089200D01*
X78174000Y-75089204D01*
X78163500Y-75191983D01*
X78163500Y-76192001D01*
X78163501Y-76192019D01*
X78174000Y-76294796D01*
X78174001Y-76294799D01*
X78224206Y-76446305D01*
X78230500Y-76485309D01*
X78230500Y-76897357D01*
X78229903Y-76909510D01*
X78226998Y-76939004D01*
X78225620Y-76953000D01*
X78228072Y-76977901D01*
X78245091Y-77150703D01*
X78288428Y-77293562D01*
X78288428Y-77293563D01*
X78302759Y-77340805D01*
X78396401Y-77515998D01*
X78396402Y-77515999D01*
X78396405Y-77516004D01*
X78443853Y-77573820D01*
X78471166Y-77638128D01*
X78472000Y-77652484D01*
X78472000Y-77888551D01*
X78460385Y-77940949D01*
X78458188Y-77945660D01*
X78458186Y-77945665D01*
X78458186Y-77945666D01*
X78403001Y-78112203D01*
X78403001Y-78112204D01*
X78403000Y-78112204D01*
X78392500Y-78214983D01*
X78392500Y-78214996D01*
X78392501Y-79251000D01*
X78372817Y-79318039D01*
X78320013Y-79363794D01*
X78268501Y-79375000D01*
X61659520Y-79375000D01*
X61592481Y-79355315D01*
X61546726Y-79302511D01*
X61536946Y-79243192D01*
X61535839Y-79243136D01*
X61536000Y-79239973D01*
X61536000Y-78990000D01*
X60310000Y-78990000D01*
X60242961Y-78970315D01*
X60197206Y-78917511D01*
X60186000Y-78866000D01*
X60186000Y-77540000D01*
X60686000Y-77540000D01*
X60686000Y-78490000D01*
X61535999Y-78490000D01*
X61535999Y-78240028D01*
X61535998Y-78240013D01*
X61525505Y-78137302D01*
X61470358Y-77970880D01*
X61470356Y-77970875D01*
X61378315Y-77821654D01*
X61254345Y-77697684D01*
X61105124Y-77605643D01*
X61105119Y-77605641D01*
X60938697Y-77550494D01*
X60938690Y-77550493D01*
X60835986Y-77540000D01*
X60686000Y-77540000D01*
X60186000Y-77540000D01*
X60036027Y-77540000D01*
X60036012Y-77540001D01*
X59933302Y-77550494D01*
X59766880Y-77605641D01*
X59766875Y-77605643D01*
X59617657Y-77697682D01*
X59524034Y-77791305D01*
X59462710Y-77824789D01*
X59393019Y-77819805D01*
X59348672Y-77791304D01*
X59254657Y-77697289D01*
X59254656Y-77697288D01*
X59121083Y-77614900D01*
X59105336Y-77605187D01*
X59105331Y-77605185D01*
X59103862Y-77604698D01*
X58938797Y-77550001D01*
X58938795Y-77550000D01*
X58836016Y-77539500D01*
X58836009Y-77539500D01*
X58383531Y-77539500D01*
X58316492Y-77519815D01*
X58270737Y-77467011D01*
X58260793Y-77397853D01*
X58267349Y-77372167D01*
X58274311Y-77353500D01*
X58316091Y-77241483D01*
X58322500Y-77181873D01*
X58322500Y-77027700D01*
X58342185Y-76960661D01*
X58394989Y-76914906D01*
X58446500Y-76903700D01*
X62377856Y-76903700D01*
X62444895Y-76923385D01*
X62485243Y-76965700D01*
X62524951Y-77034475D01*
X62577713Y-77125862D01*
X62600080Y-77150703D01*
X62705269Y-77267529D01*
X62705272Y-77267531D01*
X62705275Y-77267534D01*
X62838867Y-77364594D01*
X62859504Y-77379588D01*
X63033656Y-77457126D01*
X63033661Y-77457128D01*
X63220133Y-77496764D01*
X63410771Y-77496764D01*
X63597243Y-77457128D01*
X63771400Y-77379588D01*
X63925629Y-77267534D01*
X64039444Y-77141128D01*
X64098928Y-77104483D01*
X64168785Y-77105812D01*
X64226833Y-77144698D01*
X64238979Y-77162103D01*
X64286260Y-77243997D01*
X64413817Y-77385665D01*
X64413820Y-77385667D01*
X64413823Y-77385670D01*
X64540216Y-77477500D01*
X64568052Y-77497724D01*
X64742204Y-77575262D01*
X64742209Y-77575264D01*
X64928681Y-77614900D01*
X65119319Y-77614900D01*
X65305791Y-77575264D01*
X65479948Y-77497724D01*
X65634177Y-77385670D01*
X65639654Y-77379588D01*
X65666162Y-77350147D01*
X65761739Y-77243998D01*
X65805097Y-77168899D01*
X65855664Y-77120684D01*
X65912484Y-77106900D01*
X66565176Y-77106900D01*
X66583145Y-77108209D01*
X66588526Y-77108996D01*
X66607082Y-77111715D01*
X66656724Y-77107371D01*
X66667531Y-77106900D01*
X66673110Y-77106900D01*
X66673117Y-77106900D01*
X66704079Y-77103280D01*
X66707610Y-77102919D01*
X66782788Y-77096343D01*
X66782791Y-77096341D01*
X66789869Y-77094881D01*
X66789880Y-77094935D01*
X66797339Y-77093281D01*
X66797327Y-77093227D01*
X66804354Y-77091561D01*
X66804355Y-77091560D01*
X66804360Y-77091560D01*
X66875271Y-77065750D01*
X66878570Y-77064603D01*
X66950212Y-77040864D01*
X66950214Y-77040862D01*
X66950216Y-77040862D01*
X66956757Y-77037812D01*
X66956780Y-77037862D01*
X66963674Y-77034525D01*
X66963649Y-77034475D01*
X66970096Y-77031237D01*
X66970100Y-77031236D01*
X67033143Y-76989770D01*
X67036118Y-76987876D01*
X67100330Y-76948270D01*
X67100338Y-76948261D01*
X67105999Y-76943787D01*
X67106033Y-76943830D01*
X67111958Y-76939004D01*
X67111923Y-76938962D01*
X67117452Y-76934320D01*
X67117461Y-76934315D01*
X67169247Y-76879423D01*
X67171692Y-76876906D01*
X69871564Y-74177034D01*
X69885183Y-74165264D01*
X69904594Y-74150815D01*
X69936634Y-74112630D01*
X69943923Y-74104675D01*
X69947883Y-74100717D01*
X69967227Y-74076250D01*
X69969461Y-74073508D01*
X70017967Y-74015703D01*
X70017971Y-74015694D01*
X70021937Y-74009666D01*
X70021983Y-74009696D01*
X70026095Y-74003241D01*
X70026048Y-74003212D01*
X70029832Y-73997075D01*
X70029839Y-73997067D01*
X70050539Y-73952675D01*
X70061723Y-73928692D01*
X70063295Y-73925444D01*
X70072809Y-73906500D01*
X70097124Y-73858087D01*
X70097125Y-73858084D01*
X70099597Y-73851293D01*
X70099649Y-73851311D01*
X70102160Y-73844086D01*
X70102109Y-73844070D01*
X70104378Y-73837221D01*
X70104378Y-73837219D01*
X70104380Y-73837216D01*
X70119643Y-73763288D01*
X70120408Y-73759839D01*
X70137800Y-73686464D01*
X70137800Y-73686462D01*
X70137801Y-73686458D01*
X70138639Y-73679291D01*
X70138692Y-73679297D01*
X70139470Y-73671681D01*
X70139417Y-73671677D01*
X70140046Y-73664486D01*
X70137852Y-73589080D01*
X70137800Y-73585474D01*
X70137800Y-70209299D01*
X70139109Y-70191329D01*
X70139791Y-70186674D01*
X70142615Y-70167394D01*
X70142389Y-70164814D01*
X70138272Y-70117752D01*
X70137800Y-70106944D01*
X70137800Y-70101366D01*
X70137800Y-70101359D01*
X70134179Y-70070382D01*
X70133815Y-70066810D01*
X70127243Y-69991688D01*
X70127241Y-69991683D01*
X70125783Y-69984619D01*
X70125837Y-69984607D01*
X70124181Y-69977137D01*
X70124127Y-69977150D01*
X70122460Y-69970122D01*
X70122460Y-69970116D01*
X70096669Y-69899257D01*
X70095486Y-69895852D01*
X70090893Y-69881992D01*
X70071764Y-69824264D01*
X70071761Y-69824260D01*
X70068712Y-69817719D01*
X70068761Y-69817695D01*
X70065428Y-69810809D01*
X70065379Y-69810834D01*
X70062135Y-69804375D01*
X70020676Y-69741338D01*
X70018769Y-69738346D01*
X69979170Y-69674146D01*
X69979167Y-69674143D01*
X69974692Y-69668483D01*
X69974734Y-69668449D01*
X69969897Y-69662511D01*
X69969856Y-69662546D01*
X69965212Y-69657012D01*
X69910361Y-69605263D01*
X69907773Y-69602749D01*
X69321253Y-69016229D01*
X69287768Y-68954906D01*
X69292752Y-68885214D01*
X69334624Y-68829281D01*
X69336016Y-68828253D01*
X69444177Y-68749670D01*
X69445531Y-68748167D01*
X69484214Y-68705204D01*
X69571739Y-68607998D01*
X69667058Y-68442901D01*
X69725968Y-68261594D01*
X69745895Y-68072000D01*
X69725968Y-67882406D01*
X69682153Y-67747558D01*
X69667060Y-67701104D01*
X69667057Y-67701098D01*
X69657885Y-67685212D01*
X69642014Y-67657722D01*
X69625542Y-67589824D01*
X69648394Y-67523797D01*
X69676518Y-67495405D01*
X69698177Y-67479670D01*
X69825739Y-67337998D01*
X69921058Y-67172901D01*
X69979968Y-66991594D01*
X69999895Y-66802000D01*
X69979968Y-66612406D01*
X69930280Y-66459482D01*
X69921060Y-66431104D01*
X69921057Y-66431098D01*
X69910027Y-66411993D01*
X69825739Y-66266002D01*
X69761903Y-66195105D01*
X69698182Y-66124334D01*
X69698179Y-66124332D01*
X69698178Y-66124331D01*
X69698177Y-66124330D01*
X69543948Y-66012276D01*
X69543947Y-66012275D01*
X69377598Y-65938211D01*
X69324361Y-65892961D01*
X69304040Y-65826112D01*
X69323086Y-65758888D01*
X69326446Y-65753827D01*
X69403602Y-65643639D01*
X69474395Y-65491822D01*
X69520566Y-65439385D01*
X69587760Y-65420233D01*
X69654641Y-65440449D01*
X69699158Y-65491824D01*
X69769833Y-65643387D01*
X69813374Y-65705571D01*
X70412049Y-65106895D01*
X70412827Y-65117265D01*
G37*
%TD.AperFunction*%
%TA.AperFunction,Conductor*%
G36*
X87718539Y-67576185D02*
G01*
X87764294Y-67628989D01*
X87775500Y-67680500D01*
X87775500Y-69530001D01*
X87775501Y-69530018D01*
X87786000Y-69632796D01*
X87786001Y-69632799D01*
X87841185Y-69799331D01*
X87841187Y-69799336D01*
X87866326Y-69840092D01*
X87933288Y-69948656D01*
X88057344Y-70072712D01*
X88206666Y-70164814D01*
X88373203Y-70219999D01*
X88475991Y-70230500D01*
X90576008Y-70230499D01*
X90678797Y-70219999D01*
X90798890Y-70180203D01*
X90868717Y-70177802D01*
X90925574Y-70210229D01*
X92483181Y-71767836D01*
X92516666Y-71829159D01*
X92519500Y-71855517D01*
X92519500Y-74737128D01*
X92534267Y-74920054D01*
X92592863Y-75157786D01*
X92592864Y-75157789D01*
X92613615Y-75206495D01*
X92625578Y-75234572D01*
X92635500Y-75283175D01*
X92635500Y-76276001D01*
X92635501Y-76276019D01*
X92646000Y-76378796D01*
X92646001Y-76378799D01*
X92693018Y-76520685D01*
X92701186Y-76545334D01*
X92793288Y-76694656D01*
X92917344Y-76818712D01*
X93066666Y-76910814D01*
X93233203Y-76965999D01*
X93335991Y-76976500D01*
X94736008Y-76976499D01*
X94838797Y-76965999D01*
X95005334Y-76910814D01*
X95154656Y-76818712D01*
X95278712Y-76694656D01*
X95370814Y-76545334D01*
X95425999Y-76378797D01*
X95436500Y-76276009D01*
X95436499Y-75635515D01*
X96135500Y-75635515D01*
X96150652Y-75813536D01*
X96210724Y-76044248D01*
X96308919Y-76261480D01*
X96308924Y-76261488D01*
X96442413Y-76458993D01*
X96442418Y-76458998D01*
X96442421Y-76459003D01*
X96607379Y-76631118D01*
X96799053Y-76772879D01*
X97011926Y-76880207D01*
X97239877Y-76950016D01*
X97476346Y-76980298D01*
X97714532Y-76970180D01*
X97947581Y-76919954D01*
X98168790Y-76831064D01*
X98371795Y-76706069D01*
X98550755Y-76548564D01*
X98700523Y-76363080D01*
X98816790Y-76154954D01*
X98896211Y-75930171D01*
X98916224Y-75813453D01*
X98936499Y-75695209D01*
X98936500Y-75695198D01*
X98936500Y-75635491D01*
X99636000Y-75635491D01*
X99651147Y-75813450D01*
X99651148Y-75813453D01*
X99711197Y-76044078D01*
X99809360Y-76261241D01*
X99809362Y-76261244D01*
X99942812Y-76458688D01*
X99942814Y-76458690D01*
X100107706Y-76630736D01*
X100299316Y-76772450D01*
X100512115Y-76879741D01*
X100739987Y-76949526D01*
X100739985Y-76949526D01*
X100786000Y-76955418D01*
X100786000Y-75221881D01*
X100879369Y-75260556D01*
X100996677Y-75276000D01*
X101075323Y-75276000D01*
X101192631Y-75260556D01*
X101286000Y-75221881D01*
X101286000Y-76954264D01*
X101447434Y-76919473D01*
X101668562Y-76830616D01*
X101871494Y-76705666D01*
X102050389Y-76548219D01*
X102050396Y-76548213D01*
X102200102Y-76362805D01*
X102200109Y-76362795D01*
X102316331Y-76154751D01*
X102395722Y-75930052D01*
X102395726Y-75930038D01*
X102435999Y-75695167D01*
X102436000Y-75695156D01*
X102436000Y-74926000D01*
X101581882Y-74926000D01*
X101620556Y-74832631D01*
X101641177Y-74676000D01*
X101620556Y-74519369D01*
X101581882Y-74426000D01*
X102436000Y-74426000D01*
X102436000Y-73716527D01*
X102435999Y-73716508D01*
X102420852Y-73538549D01*
X102420851Y-73538546D01*
X102360802Y-73307921D01*
X102262639Y-73090758D01*
X102262637Y-73090755D01*
X102129187Y-72893311D01*
X102129185Y-72893309D01*
X101964293Y-72721263D01*
X101772683Y-72579549D01*
X101559884Y-72472257D01*
X101332020Y-72402475D01*
X101286000Y-72396581D01*
X101286000Y-74130118D01*
X101192631Y-74091444D01*
X101075323Y-74076000D01*
X100996677Y-74076000D01*
X100879369Y-74091444D01*
X100786000Y-74130118D01*
X100786000Y-72397734D01*
X100785999Y-72397734D01*
X100624566Y-72432525D01*
X100403437Y-72521383D01*
X100200505Y-72646333D01*
X100021610Y-72803780D01*
X100021603Y-72803786D01*
X99871897Y-72989194D01*
X99871890Y-72989204D01*
X99755668Y-73197248D01*
X99676277Y-73421947D01*
X99676273Y-73421961D01*
X99636000Y-73656832D01*
X99636000Y-74426000D01*
X100490118Y-74426000D01*
X100451444Y-74519369D01*
X100430823Y-74676000D01*
X100451444Y-74832631D01*
X100490118Y-74926000D01*
X99636000Y-74926000D01*
X99636000Y-75635491D01*
X98936500Y-75635491D01*
X98936500Y-73716503D01*
X98936499Y-73716484D01*
X98921347Y-73538463D01*
X98906686Y-73482158D01*
X98861275Y-73307751D01*
X98845834Y-73273591D01*
X98763080Y-73090519D01*
X98763075Y-73090511D01*
X98629586Y-72893006D01*
X98629582Y-72893001D01*
X98629579Y-72892997D01*
X98464621Y-72720882D01*
X98463739Y-72720230D01*
X98375268Y-72654797D01*
X98272947Y-72579121D01*
X98060074Y-72471793D01*
X97930283Y-72432045D01*
X97832121Y-72401983D01*
X97595647Y-72371701D01*
X97357471Y-72381819D01*
X97357467Y-72381819D01*
X97124419Y-72432045D01*
X96903211Y-72520935D01*
X96700203Y-72645932D01*
X96521245Y-72803435D01*
X96436222Y-72908734D01*
X96371477Y-72988920D01*
X96371476Y-72988922D01*
X96255210Y-73197044D01*
X96175788Y-73421829D01*
X96135500Y-73656790D01*
X96135500Y-75635515D01*
X95436499Y-75635515D01*
X95436499Y-75290068D01*
X95442880Y-75250804D01*
X95513224Y-75040103D01*
X95552500Y-74798425D01*
X95552500Y-71192526D01*
X95552525Y-71190029D01*
X95552749Y-71178893D01*
X95554658Y-71084137D01*
X95544419Y-71011986D01*
X95543596Y-71004584D01*
X95537732Y-70931945D01*
X95528213Y-70893327D01*
X95525841Y-70881076D01*
X95524526Y-70871811D01*
X95520256Y-70841717D01*
X95498582Y-70772167D01*
X95496571Y-70764951D01*
X95496047Y-70762825D01*
X95479136Y-70694211D01*
X95463547Y-70657623D01*
X95459238Y-70645908D01*
X95447412Y-70607955D01*
X95414863Y-70542782D01*
X95411721Y-70535984D01*
X95407893Y-70527000D01*
X95383163Y-70468954D01*
X95361909Y-70435344D01*
X95355786Y-70424488D01*
X95338015Y-70388904D01*
X95338010Y-70388897D01*
X95338010Y-70388896D01*
X95312939Y-70354097D01*
X95295422Y-70329782D01*
X95291249Y-70323605D01*
X95252299Y-70262010D01*
X95252295Y-70262005D01*
X95225933Y-70232249D01*
X95218136Y-70222501D01*
X95202117Y-70200265D01*
X95194895Y-70190240D01*
X95194894Y-70190239D01*
X95194891Y-70190235D01*
X95143380Y-70138725D01*
X95138262Y-70133289D01*
X95089934Y-70078738D01*
X95089932Y-70078736D01*
X95089931Y-70078735D01*
X95059125Y-70053582D01*
X95049869Y-70045214D01*
X94296836Y-69292181D01*
X94263351Y-69230858D01*
X94268335Y-69161166D01*
X94310207Y-69105233D01*
X94375671Y-69080816D01*
X94384517Y-69080500D01*
X103059545Y-69080500D01*
X103069273Y-69080882D01*
X103073164Y-69081188D01*
X103124000Y-69085189D01*
X103179654Y-69080808D01*
X103184377Y-69080529D01*
X103185083Y-69080500D01*
X103185119Y-69080500D01*
X103244844Y-69075678D01*
X103361966Y-69066461D01*
X103361971Y-69066459D01*
X103363556Y-69066335D01*
X103366505Y-69065983D01*
X103368047Y-69065732D01*
X103368055Y-69065732D01*
X103482442Y-69037537D01*
X103482910Y-69037423D01*
X103594073Y-69010737D01*
X103598712Y-69009230D01*
X103598823Y-69009572D01*
X103601087Y-69008825D01*
X103601051Y-69008717D01*
X103605773Y-69007139D01*
X103605789Y-69007136D01*
X103711174Y-68962234D01*
X103711845Y-68961952D01*
X103814605Y-68919389D01*
X103814614Y-68919383D01*
X103818952Y-68917174D01*
X103818990Y-68917249D01*
X103829560Y-68911795D01*
X103831046Y-68911163D01*
X103831055Y-68911156D01*
X103831369Y-68910993D01*
X103831512Y-68910964D01*
X103835655Y-68909200D01*
X103836021Y-68910060D01*
X103899877Y-68897265D01*
X103964931Y-68922754D01*
X104005878Y-68979368D01*
X104013000Y-69020787D01*
X104013000Y-79251000D01*
X103993315Y-79318039D01*
X103940511Y-79363794D01*
X103889000Y-79375000D01*
X82767000Y-79375000D01*
X82699961Y-79355315D01*
X82654206Y-79302511D01*
X82643000Y-79251000D01*
X82643000Y-78990000D01*
X81429500Y-78990000D01*
X81362461Y-78970315D01*
X81316706Y-78917511D01*
X81305500Y-78866000D01*
X81305500Y-77515000D01*
X81805500Y-77515000D01*
X81805500Y-78490000D01*
X82642999Y-78490000D01*
X82642999Y-78215028D01*
X82642998Y-78215013D01*
X82632505Y-78112302D01*
X82577358Y-77945880D01*
X82577356Y-77945875D01*
X82485315Y-77796654D01*
X82361345Y-77672684D01*
X82212124Y-77580643D01*
X82212119Y-77580641D01*
X82045697Y-77525494D01*
X82045690Y-77525493D01*
X81942986Y-77515000D01*
X81805500Y-77515000D01*
X81305500Y-77515000D01*
X81168027Y-77515000D01*
X81168012Y-77515001D01*
X81065302Y-77525494D01*
X80898880Y-77580641D01*
X80898875Y-77580643D01*
X80749654Y-77672684D01*
X80700681Y-77721658D01*
X80639358Y-77755143D01*
X80569666Y-77750159D01*
X80513733Y-77708287D01*
X80489316Y-77642823D01*
X80489000Y-77633977D01*
X80489000Y-77250141D01*
X80489597Y-77237987D01*
X80492501Y-77208499D01*
X80493880Y-77194500D01*
X80493880Y-77194499D01*
X80493880Y-77192487D01*
X80494178Y-77191471D01*
X80494477Y-77188438D01*
X80495052Y-77188494D01*
X80513565Y-77125448D01*
X80566369Y-77079693D01*
X80635527Y-77069749D01*
X80675507Y-77082691D01*
X80692651Y-77091689D01*
X80924896Y-77169224D01*
X80968167Y-77176256D01*
X81166573Y-77208499D01*
X81166574Y-77208500D01*
X81166575Y-77208500D01*
X85006035Y-77208500D01*
X85073074Y-77228185D01*
X85118829Y-77280989D01*
X85128773Y-77350147D01*
X85125810Y-77364594D01*
X85074859Y-77554742D01*
X85074858Y-77554749D01*
X85055034Y-77781346D01*
X85055034Y-77781351D01*
X85074858Y-78007948D01*
X85074860Y-78007959D01*
X85133730Y-78227666D01*
X85133735Y-78227680D01*
X85229863Y-78433827D01*
X85280974Y-78506821D01*
X85962046Y-77825748D01*
X85974835Y-77906497D01*
X86032359Y-78019394D01*
X86121955Y-78108990D01*
X86234852Y-78166514D01*
X86315599Y-78179302D01*
X85634526Y-78860374D01*
X85707513Y-78911481D01*
X85707521Y-78911485D01*
X85913668Y-79007613D01*
X85913682Y-79007618D01*
X86133389Y-79066488D01*
X86133400Y-79066490D01*
X86359998Y-79086315D01*
X86360002Y-79086315D01*
X86586599Y-79066490D01*
X86586610Y-79066488D01*
X86806317Y-79007618D01*
X86806331Y-79007613D01*
X87012478Y-78911485D01*
X87085471Y-78860373D01*
X86404400Y-78179302D01*
X86485148Y-78166514D01*
X86598045Y-78108990D01*
X86687641Y-78019394D01*
X86745165Y-77906497D01*
X86757953Y-77825749D01*
X87439024Y-78506820D01*
X87490136Y-78433827D01*
X87586264Y-78227680D01*
X87586269Y-78227666D01*
X87645139Y-78007959D01*
X87645141Y-78007948D01*
X87664966Y-77781351D01*
X87664966Y-77781346D01*
X87645141Y-77554749D01*
X87645139Y-77554738D01*
X87586269Y-77335031D01*
X87586264Y-77335017D01*
X87490136Y-77128870D01*
X87490132Y-77128862D01*
X87439025Y-77055875D01*
X86757953Y-77736947D01*
X86745165Y-77656201D01*
X86687641Y-77543304D01*
X86598045Y-77453708D01*
X86485148Y-77396184D01*
X86404399Y-77383395D01*
X87085472Y-76702323D01*
X87012480Y-76651213D01*
X86843551Y-76572440D01*
X86791112Y-76526268D01*
X86771960Y-76459074D01*
X86792176Y-76392193D01*
X86808266Y-76372387D01*
X87420672Y-75759981D01*
X87422355Y-75758331D01*
X87498810Y-75684897D01*
X87499478Y-75684009D01*
X87510379Y-75669501D01*
X87542586Y-75626640D01*
X87547230Y-75620833D01*
X87594458Y-75565312D01*
X87615031Y-75531277D01*
X87622012Y-75520942D01*
X87645901Y-75489154D01*
X87679755Y-75424648D01*
X87683434Y-75418127D01*
X87684560Y-75416264D01*
X87721128Y-75355775D01*
X87735982Y-75318864D01*
X87741201Y-75307573D01*
X87759688Y-75272351D01*
X87782765Y-75203224D01*
X87785332Y-75196244D01*
X87812545Y-75128631D01*
X87821286Y-75089816D01*
X87824625Y-75077838D01*
X87837224Y-75040103D01*
X87848915Y-74968158D01*
X87850326Y-74960873D01*
X87866342Y-74889765D01*
X87868743Y-74850055D01*
X87870118Y-74837690D01*
X87876500Y-74798425D01*
X87876500Y-74725575D01*
X87876726Y-74718089D01*
X87877398Y-74706984D01*
X87881125Y-74645362D01*
X87877127Y-74605799D01*
X87876500Y-74593336D01*
X87876500Y-72720239D01*
X87876499Y-72720220D01*
X87874059Y-72690000D01*
X87861732Y-72537294D01*
X87803136Y-72299560D01*
X87795721Y-72282157D01*
X87707165Y-72074308D01*
X87707165Y-72074307D01*
X87707164Y-72074305D01*
X87707163Y-72074303D01*
X87679694Y-72030865D01*
X87660499Y-71964593D01*
X87660499Y-71933478D01*
X87660498Y-71933472D01*
X87660132Y-71930070D01*
X87654091Y-71873866D01*
X87650190Y-71863408D01*
X87603797Y-71739020D01*
X87603793Y-71739013D01*
X87517547Y-71623804D01*
X87517544Y-71623801D01*
X87402335Y-71537555D01*
X87402328Y-71537551D01*
X87267482Y-71487257D01*
X87267483Y-71487257D01*
X87207883Y-71480850D01*
X87207881Y-71480849D01*
X87207873Y-71480849D01*
X87207865Y-71480849D01*
X87173694Y-71480849D01*
X87111694Y-71464236D01*
X87012229Y-71406809D01*
X86783287Y-71319983D01*
X86543395Y-71271008D01*
X86543385Y-71271007D01*
X86298744Y-71261148D01*
X86298743Y-71261148D01*
X86055672Y-71290661D01*
X85820496Y-71358781D01*
X85820492Y-71358783D01*
X85599283Y-71463749D01*
X85599281Y-71463750D01*
X85599267Y-71463757D01*
X85598419Y-71464247D01*
X85597997Y-71464359D01*
X85594771Y-71465891D01*
X85594490Y-71465299D01*
X85536442Y-71480849D01*
X85512132Y-71480849D01*
X85512122Y-71480850D01*
X85473753Y-71484975D01*
X85404994Y-71472568D01*
X85353857Y-71424957D01*
X85336500Y-71361685D01*
X85336500Y-70665516D01*
X85356185Y-70598477D01*
X85372815Y-70577839D01*
X85683836Y-70266817D01*
X85745159Y-70233333D01*
X85771517Y-70230499D01*
X86276002Y-70230499D01*
X86276008Y-70230499D01*
X86378797Y-70219999D01*
X86545334Y-70164814D01*
X86694656Y-70072712D01*
X86818712Y-69948656D01*
X86910814Y-69799334D01*
X86965999Y-69632797D01*
X86976500Y-69530009D01*
X86976499Y-67680499D01*
X86996184Y-67613461D01*
X87048987Y-67567706D01*
X87100499Y-67556500D01*
X87651500Y-67556500D01*
X87718539Y-67576185D01*
G37*
%TD.AperFunction*%
%TA.AperFunction,Conductor*%
G36*
X52364540Y-73926185D02*
G01*
X52410295Y-73978989D01*
X52421501Y-74030500D01*
X52421501Y-74153478D01*
X52401816Y-74220517D01*
X52349012Y-74266272D01*
X52279854Y-74276216D01*
X52216298Y-74247191D01*
X52209820Y-74241159D01*
X52110344Y-74141683D01*
X52110340Y-74141680D01*
X52101193Y-74136038D01*
X52054468Y-74084090D01*
X52043247Y-74015128D01*
X52071090Y-73951046D01*
X52129159Y-73912190D01*
X52166290Y-73906500D01*
X52297501Y-73906500D01*
X52364540Y-73926185D01*
G37*
%TD.AperFunction*%
%TA.AperFunction,Conductor*%
G36*
X60023740Y-71014234D02*
G01*
X60049829Y-71044339D01*
X60055472Y-71053487D01*
X60053835Y-71054496D01*
X60076322Y-71110253D01*
X60063274Y-71178893D01*
X60040596Y-71210036D01*
X59917287Y-71333345D01*
X59825187Y-71482663D01*
X59825185Y-71482668D01*
X59805796Y-71541180D01*
X59770001Y-71649203D01*
X59770001Y-71649204D01*
X59770000Y-71649204D01*
X59759500Y-71751983D01*
X59759500Y-72552001D01*
X59759501Y-72552019D01*
X59770000Y-72654796D01*
X59770001Y-72654799D01*
X59825185Y-72821331D01*
X59825187Y-72821336D01*
X59851951Y-72864728D01*
X59913521Y-72964549D01*
X59917289Y-72970657D01*
X60010951Y-73064319D01*
X60044436Y-73125642D01*
X60039452Y-73195334D01*
X60010951Y-73239681D01*
X60007509Y-73243123D01*
X59946186Y-73276608D01*
X59876494Y-73271624D01*
X59832147Y-73243123D01*
X58956819Y-72367795D01*
X58923334Y-72306472D01*
X58920500Y-72280114D01*
X58920500Y-72199992D01*
X58921809Y-72182022D01*
X58922194Y-72179388D01*
X58925314Y-72158093D01*
X58922681Y-72128000D01*
X58920972Y-72108460D01*
X58920500Y-72097652D01*
X58920500Y-72092064D01*
X58920499Y-72092052D01*
X58916882Y-72061109D01*
X58916515Y-72057517D01*
X58909943Y-71982389D01*
X58908483Y-71975318D01*
X58908537Y-71975306D01*
X58906881Y-71967837D01*
X58906827Y-71967850D01*
X58905160Y-71960822D01*
X58905160Y-71960816D01*
X58879369Y-71889957D01*
X58878186Y-71886552D01*
X58867902Y-71855517D01*
X58854464Y-71814964D01*
X58854461Y-71814960D01*
X58851412Y-71808419D01*
X58851461Y-71808395D01*
X58848128Y-71801509D01*
X58848079Y-71801534D01*
X58844835Y-71795075D01*
X58803376Y-71732038D01*
X58801469Y-71729046D01*
X58761870Y-71664846D01*
X58761867Y-71664843D01*
X58757392Y-71659183D01*
X58757434Y-71659149D01*
X58752597Y-71653211D01*
X58752556Y-71653246D01*
X58747912Y-71647712D01*
X58693061Y-71595963D01*
X58690473Y-71593449D01*
X58638204Y-71541180D01*
X58604719Y-71479857D01*
X58609703Y-71410165D01*
X58651575Y-71354232D01*
X58717039Y-71329815D01*
X58725885Y-71329499D01*
X59294002Y-71329499D01*
X59294008Y-71329499D01*
X59396797Y-71318999D01*
X59563334Y-71263814D01*
X59712656Y-71171712D01*
X59836712Y-71047656D01*
X59838752Y-71044347D01*
X59840745Y-71042555D01*
X59841193Y-71041989D01*
X59841289Y-71042065D01*
X59890694Y-70997623D01*
X59959656Y-70986395D01*
X60023740Y-71014234D01*
G37*
%TD.AperFunction*%
%TA.AperFunction,Conductor*%
G36*
X81748539Y-69111685D02*
G01*
X81794294Y-69164489D01*
X81805500Y-69216000D01*
X81805500Y-70566999D01*
X81942972Y-70566999D01*
X81942986Y-70566998D01*
X82045695Y-70556506D01*
X82140495Y-70525092D01*
X82210324Y-70522690D01*
X82270366Y-70558421D01*
X82301559Y-70620942D01*
X82303500Y-70642798D01*
X82303500Y-71276747D01*
X82283815Y-71343786D01*
X82231011Y-71389541D01*
X82166898Y-71400105D01*
X82067988Y-71390000D01*
X82018000Y-71390000D01*
X82018000Y-72468700D01*
X81998315Y-72535739D01*
X81945511Y-72581494D01*
X81894000Y-72592700D01*
X80685440Y-72592700D01*
X80673286Y-72592103D01*
X80629800Y-72587820D01*
X80520675Y-72598568D01*
X80432094Y-72607292D01*
X80426124Y-72608480D01*
X80425889Y-72607301D01*
X80362382Y-72607860D01*
X80303274Y-72570603D01*
X80273692Y-72507305D01*
X80272867Y-72476428D01*
X80276500Y-72439547D01*
X80276500Y-72140000D01*
X80768000Y-72140000D01*
X81518000Y-72140000D01*
X81518000Y-71390000D01*
X81517999Y-71389999D01*
X81468029Y-71390000D01*
X81468011Y-71390001D01*
X81365302Y-71400494D01*
X81198880Y-71455641D01*
X81198875Y-71455643D01*
X81049654Y-71547684D01*
X80925684Y-71671654D01*
X80833643Y-71820875D01*
X80833641Y-71820880D01*
X80778494Y-71987302D01*
X80778493Y-71987309D01*
X80768000Y-72090013D01*
X80768000Y-72140000D01*
X80276500Y-72140000D01*
X80276500Y-71551648D01*
X80296185Y-71484609D01*
X80304641Y-71472989D01*
X80323095Y-71450504D01*
X80416741Y-71275304D01*
X80474408Y-71085201D01*
X80483047Y-70997489D01*
X80493880Y-70887500D01*
X80489597Y-70844014D01*
X80489000Y-70831860D01*
X80489000Y-70448023D01*
X80508685Y-70380984D01*
X80561489Y-70335229D01*
X80630647Y-70325285D01*
X80694203Y-70354310D01*
X80700681Y-70360342D01*
X80749654Y-70409315D01*
X80898875Y-70501356D01*
X80898880Y-70501358D01*
X81065302Y-70556505D01*
X81065309Y-70556506D01*
X81168019Y-70566999D01*
X81305499Y-70566999D01*
X81305500Y-70566998D01*
X81305500Y-69216000D01*
X81325185Y-69148961D01*
X81377989Y-69103206D01*
X81429500Y-69092000D01*
X81681500Y-69092000D01*
X81748539Y-69111685D01*
G37*
%TD.AperFunction*%
%TA.AperFunction,Conductor*%
G36*
X55278329Y-69714749D02*
G01*
X55312339Y-69752064D01*
X55331858Y-69785068D01*
X55349449Y-69814813D01*
X55356731Y-69827125D01*
X55374000Y-69890247D01*
X55374000Y-70473000D01*
X55874000Y-70473000D01*
X55874000Y-70222499D01*
X55893685Y-70155460D01*
X55946489Y-70109705D01*
X55997996Y-70098499D01*
X56379436Y-70098499D01*
X56408037Y-70101843D01*
X56410804Y-70102499D01*
X56410811Y-70102499D01*
X56410812Y-70102500D01*
X56845480Y-70102500D01*
X56912519Y-70122185D01*
X56958274Y-70174989D01*
X56968218Y-70244147D01*
X56964140Y-70262496D01*
X56918091Y-70414296D01*
X56898620Y-70612000D01*
X56918091Y-70809703D01*
X56975759Y-70999807D01*
X56977601Y-71004253D01*
X56985067Y-71073722D01*
X56953789Y-71136200D01*
X56893698Y-71171850D01*
X56863038Y-71175700D01*
X55998000Y-71175700D01*
X55930961Y-71156015D01*
X55885206Y-71103211D01*
X55874000Y-71051700D01*
X55874000Y-70973000D01*
X55198499Y-70973000D01*
X55131460Y-70953315D01*
X55085705Y-70900511D01*
X55074499Y-70849000D01*
X55074499Y-70842560D01*
X55077842Y-70813961D01*
X55078500Y-70811188D01*
X55078500Y-69881992D01*
X55079809Y-69864022D01*
X55080483Y-69859420D01*
X55083314Y-69840093D01*
X55082080Y-69825995D01*
X55095844Y-69757499D01*
X55144457Y-69707313D01*
X55212485Y-69691377D01*
X55278329Y-69714749D01*
G37*
%TD.AperFunction*%
%TA.AperFunction,Conductor*%
G36*
X42207686Y-70008194D02*
G01*
X42252034Y-70036695D01*
X42345654Y-70130315D01*
X42494875Y-70222356D01*
X42494880Y-70222358D01*
X42661302Y-70277505D01*
X42661309Y-70277506D01*
X42764019Y-70287999D01*
X42853914Y-70287999D01*
X42920953Y-70307683D01*
X42966709Y-70360486D01*
X42976653Y-70429645D01*
X42947629Y-70493201D01*
X42925039Y-70513574D01*
X42816594Y-70589508D01*
X42649506Y-70756597D01*
X42649505Y-70756599D01*
X42604674Y-70820624D01*
X42550096Y-70864249D01*
X42503099Y-70873500D01*
X41363096Y-70873500D01*
X41296057Y-70853815D01*
X41275415Y-70837181D01*
X40938414Y-70500180D01*
X40904929Y-70438857D01*
X40909913Y-70369165D01*
X40951785Y-70313232D01*
X41017249Y-70288815D01*
X41026095Y-70288499D01*
X41564002Y-70288499D01*
X41564008Y-70288499D01*
X41666797Y-70277999D01*
X41833334Y-70222814D01*
X41982656Y-70130712D01*
X42076675Y-70036692D01*
X42137994Y-70003210D01*
X42207686Y-70008194D01*
G37*
%TD.AperFunction*%
%TA.AperFunction,Conductor*%
G36*
X62441153Y-63766185D02*
G01*
X62461795Y-63782819D01*
X62709181Y-64030205D01*
X62742666Y-64091528D01*
X62745500Y-64117886D01*
X62745500Y-66230000D01*
X62744191Y-66247969D01*
X62740684Y-66271908D01*
X62741976Y-66286666D01*
X62744856Y-66319586D01*
X62745028Y-66321545D01*
X62745500Y-66332354D01*
X62745500Y-66337946D01*
X62749116Y-66368885D01*
X62749482Y-66372470D01*
X62756056Y-66447610D01*
X62757516Y-66454677D01*
X62757464Y-66454687D01*
X62759123Y-66462167D01*
X62759174Y-66462155D01*
X62760840Y-66469185D01*
X62786621Y-66540020D01*
X62787804Y-66543423D01*
X62811533Y-66615029D01*
X62814586Y-66621575D01*
X62814536Y-66621598D01*
X62817876Y-66628497D01*
X62817925Y-66628473D01*
X62821167Y-66634930D01*
X62862613Y-66697946D01*
X62864550Y-66700986D01*
X62904131Y-66765156D01*
X62908611Y-66770822D01*
X62908569Y-66770855D01*
X62913401Y-66776786D01*
X62913443Y-66776752D01*
X62918088Y-66782288D01*
X62972938Y-66834036D01*
X62975525Y-66836549D01*
X63561634Y-67422658D01*
X63573415Y-67436290D01*
X63587861Y-67455694D01*
X63591487Y-67458737D01*
X63626034Y-67487725D01*
X63634009Y-67495033D01*
X63637957Y-67498981D01*
X63637965Y-67498988D01*
X63662408Y-67518317D01*
X63665200Y-67520591D01*
X63711974Y-67559838D01*
X63722973Y-67569067D01*
X63722975Y-67569068D01*
X63729007Y-67573035D01*
X63728976Y-67573080D01*
X63735438Y-67577197D01*
X63735467Y-67577151D01*
X63741603Y-67580936D01*
X63741605Y-67580937D01*
X63741608Y-67580939D01*
X63809997Y-67612829D01*
X63813177Y-67614368D01*
X63848607Y-67632162D01*
X63899679Y-67679836D01*
X63916870Y-67747558D01*
X63910886Y-67781288D01*
X63878034Y-67882399D01*
X63878032Y-67882404D01*
X63858105Y-68072000D01*
X63878032Y-68261595D01*
X63878033Y-68261597D01*
X63936939Y-68442895D01*
X63936942Y-68442901D01*
X64032261Y-68607998D01*
X64065041Y-68644404D01*
X64159817Y-68749665D01*
X64159820Y-68749667D01*
X64159823Y-68749670D01*
X64269594Y-68829423D01*
X64271876Y-68831081D01*
X64314541Y-68886411D01*
X64320520Y-68956024D01*
X64287914Y-69017819D01*
X64227075Y-69052177D01*
X64207107Y-69055133D01*
X64202323Y-69055446D01*
X64202311Y-69055447D01*
X64202310Y-69055448D01*
X64202304Y-69055449D01*
X64202299Y-69055450D01*
X63903335Y-69114917D01*
X63903313Y-69114923D01*
X63614667Y-69212904D01*
X63614651Y-69212911D01*
X63339293Y-69348702D01*
X63270461Y-69360698D01*
X63206070Y-69333577D01*
X63166565Y-69275948D01*
X63164486Y-69206109D01*
X63166519Y-69199172D01*
X63168024Y-69194541D01*
X63223568Y-69023594D01*
X63243495Y-68834000D01*
X63223568Y-68644406D01*
X63176031Y-68498101D01*
X63164660Y-68463104D01*
X63164657Y-68463098D01*
X63161790Y-68458132D01*
X63069339Y-68298002D01*
X63002365Y-68223620D01*
X62941782Y-68156334D01*
X62941779Y-68156332D01*
X62941778Y-68156331D01*
X62941777Y-68156330D01*
X62787548Y-68044276D01*
X62787547Y-68044275D01*
X62613395Y-67966737D01*
X62613390Y-67966735D01*
X62426919Y-67927100D01*
X62236281Y-67927100D01*
X62049809Y-67966735D01*
X62049804Y-67966737D01*
X61875653Y-68044275D01*
X61875648Y-68044278D01*
X61721423Y-68156328D01*
X61721422Y-68156329D01*
X61593860Y-68298003D01*
X61498542Y-68463098D01*
X61498539Y-68463104D01*
X61439633Y-68644402D01*
X61439632Y-68644404D01*
X61438154Y-68658470D01*
X61427012Y-68764484D01*
X61426646Y-68767962D01*
X61400061Y-68832577D01*
X61342764Y-68872561D01*
X61303325Y-68879000D01*
X61231500Y-68879000D01*
X61231500Y-70230000D01*
X61211815Y-70297039D01*
X61159011Y-70342794D01*
X61107500Y-70354000D01*
X60855500Y-70354000D01*
X60788461Y-70334315D01*
X60742706Y-70281511D01*
X60731500Y-70230000D01*
X60731500Y-68879000D01*
X60594027Y-68879000D01*
X60594012Y-68879001D01*
X60491302Y-68889494D01*
X60324880Y-68944641D01*
X60324875Y-68944643D01*
X60175654Y-69036684D01*
X60051683Y-69160655D01*
X60051679Y-69160660D01*
X60049826Y-69163665D01*
X60048018Y-69165290D01*
X60047202Y-69166323D01*
X60047025Y-69166183D01*
X59997874Y-69210385D01*
X59928911Y-69221601D01*
X59864831Y-69193752D01*
X59838753Y-69163653D01*
X59837219Y-69161166D01*
X59836712Y-69160344D01*
X59712656Y-69036288D01*
X59609417Y-68972610D01*
X59563336Y-68944187D01*
X59563331Y-68944185D01*
X59548480Y-68939264D01*
X59396797Y-68889001D01*
X59396795Y-68889000D01*
X59294016Y-68878500D01*
X59294009Y-68878500D01*
X58803873Y-68878500D01*
X58736834Y-68858815D01*
X58708026Y-68831923D01*
X58707992Y-68831956D01*
X58707475Y-68831408D01*
X58704408Y-68828545D01*
X58703039Y-68826706D01*
X58703037Y-68826704D01*
X58703038Y-68826704D01*
X58664867Y-68794676D01*
X58656884Y-68787360D01*
X58652944Y-68783419D01*
X58628487Y-68764081D01*
X58625691Y-68761803D01*
X58567927Y-68713333D01*
X58561894Y-68709365D01*
X58561922Y-68709321D01*
X58555461Y-68705204D01*
X58555434Y-68705250D01*
X58549290Y-68701460D01*
X58480942Y-68669589D01*
X58477696Y-68668017D01*
X58410315Y-68634177D01*
X58403531Y-68631708D01*
X58403549Y-68631658D01*
X58396307Y-68629141D01*
X58396291Y-68629191D01*
X58389438Y-68626920D01*
X58315588Y-68611671D01*
X58312067Y-68610891D01*
X58238681Y-68593498D01*
X58231514Y-68592661D01*
X58231520Y-68592607D01*
X58223905Y-68591829D01*
X58223901Y-68591883D01*
X58216710Y-68591253D01*
X58141304Y-68593448D01*
X58137698Y-68593500D01*
X57873499Y-68593500D01*
X57806460Y-68573815D01*
X57760705Y-68521011D01*
X57749499Y-68469500D01*
X57749499Y-68359848D01*
X57749498Y-68359824D01*
X57748853Y-68351630D01*
X57746709Y-68324373D01*
X57705519Y-68182594D01*
X57705519Y-68113405D01*
X57736725Y-68005991D01*
X57746709Y-67971627D01*
X57749500Y-67936163D01*
X57749499Y-67768228D01*
X57769183Y-67701190D01*
X57821987Y-67655435D01*
X57891145Y-67645491D01*
X57954701Y-67674516D01*
X57961180Y-67680548D01*
X58009344Y-67728712D01*
X58158666Y-67820814D01*
X58325203Y-67875999D01*
X58427991Y-67886500D01*
X59428008Y-67886499D01*
X59428016Y-67886498D01*
X59428019Y-67886498D01*
X59484302Y-67880748D01*
X59530797Y-67875999D01*
X59697334Y-67820814D01*
X59846656Y-67728712D01*
X59856668Y-67718699D01*
X59917987Y-67685212D01*
X59987679Y-67690191D01*
X60032034Y-67718695D01*
X60041654Y-67728315D01*
X60190875Y-67820356D01*
X60190880Y-67820358D01*
X60357302Y-67875505D01*
X60357309Y-67875506D01*
X60460019Y-67885999D01*
X60709999Y-67885999D01*
X60710000Y-67885998D01*
X60710000Y-67036000D01*
X61210000Y-67036000D01*
X61210000Y-67885999D01*
X61459972Y-67885999D01*
X61459986Y-67885998D01*
X61562697Y-67875505D01*
X61729119Y-67820358D01*
X61729124Y-67820356D01*
X61878345Y-67728315D01*
X62002315Y-67604345D01*
X62094356Y-67455124D01*
X62094358Y-67455119D01*
X62149505Y-67288697D01*
X62149506Y-67288690D01*
X62159999Y-67185986D01*
X62160000Y-67185973D01*
X62160000Y-67036000D01*
X61210000Y-67036000D01*
X60710000Y-67036000D01*
X60710000Y-66660000D01*
X60729685Y-66592961D01*
X60782489Y-66547206D01*
X60834000Y-66536000D01*
X62159999Y-66536000D01*
X62159999Y-66386028D01*
X62159998Y-66386013D01*
X62149505Y-66283302D01*
X62094358Y-66116880D01*
X62094356Y-66116875D01*
X62002315Y-65967654D01*
X61908695Y-65874034D01*
X61875210Y-65812711D01*
X61880194Y-65743019D01*
X61908691Y-65698676D01*
X62002712Y-65604656D01*
X62094814Y-65455334D01*
X62149999Y-65288797D01*
X62160500Y-65186009D01*
X62160499Y-64385992D01*
X62154414Y-64326428D01*
X62149999Y-64283203D01*
X62149998Y-64283200D01*
X62134750Y-64237186D01*
X62094814Y-64116666D01*
X62002712Y-63967344D01*
X61993549Y-63958181D01*
X61960064Y-63896858D01*
X61965048Y-63827166D01*
X62006920Y-63771233D01*
X62072384Y-63746816D01*
X62081230Y-63746500D01*
X62374114Y-63746500D01*
X62441153Y-63766185D01*
G37*
%TD.AperFunction*%
%TA.AperFunction,Conductor*%
G36*
X55191540Y-67722185D02*
G01*
X55237295Y-67774989D01*
X55248501Y-67826500D01*
X55248501Y-67936175D01*
X55251290Y-67971624D01*
X55292481Y-68113406D01*
X55292481Y-68182594D01*
X55251291Y-68324373D01*
X55251290Y-68324379D01*
X55248500Y-68359829D01*
X55248500Y-68736150D01*
X55248501Y-68736175D01*
X55251290Y-68771624D01*
X55292481Y-68913406D01*
X55292481Y-68982594D01*
X55251291Y-69124373D01*
X55251290Y-69124379D01*
X55248500Y-69159829D01*
X55248500Y-69443818D01*
X55228815Y-69510857D01*
X55176011Y-69556612D01*
X55106853Y-69566556D01*
X55043297Y-69537531D01*
X55016984Y-69502668D01*
X55016259Y-69503116D01*
X55013291Y-69498305D01*
X55012575Y-69496826D01*
X55012116Y-69496218D01*
X55009408Y-69490410D01*
X55009457Y-69490386D01*
X55006128Y-69483509D01*
X55006079Y-69483534D01*
X55002835Y-69477075D01*
X55002261Y-69476203D01*
X54980962Y-69443818D01*
X54961376Y-69414038D01*
X54959469Y-69411046D01*
X54919870Y-69346846D01*
X54919867Y-69346843D01*
X54915392Y-69341183D01*
X54915434Y-69341149D01*
X54910597Y-69335211D01*
X54910556Y-69335246D01*
X54905912Y-69329712D01*
X54851061Y-69277963D01*
X54848473Y-69275449D01*
X53563166Y-67990142D01*
X53551384Y-67976509D01*
X53544107Y-67966735D01*
X53536939Y-67957106D01*
X53536937Y-67957104D01*
X53536938Y-67957104D01*
X53503538Y-67929079D01*
X53498762Y-67925071D01*
X53490779Y-67917755D01*
X53487194Y-67914169D01*
X53453717Y-67852841D01*
X53458711Y-67783150D01*
X53500590Y-67727223D01*
X53566058Y-67702815D01*
X53574887Y-67702500D01*
X55124501Y-67702500D01*
X55191540Y-67722185D01*
G37*
%TD.AperFunction*%
%TA.AperFunction,Conductor*%
G36*
X80560979Y-67976194D02*
G01*
X80605327Y-68004695D01*
X80699344Y-68098712D01*
X80705825Y-68102710D01*
X80752549Y-68154657D01*
X80763772Y-68223620D01*
X80735928Y-68287702D01*
X80728410Y-68295929D01*
X80625679Y-68398660D01*
X80623826Y-68401665D01*
X80622018Y-68403290D01*
X80621202Y-68404323D01*
X80621025Y-68404183D01*
X80571874Y-68448385D01*
X80502911Y-68459601D01*
X80438831Y-68431752D01*
X80412753Y-68401653D01*
X80412737Y-68401628D01*
X80410712Y-68398344D01*
X80307664Y-68295296D01*
X80274179Y-68233973D01*
X80279163Y-68164281D01*
X80321035Y-68108348D01*
X80330252Y-68102074D01*
X80336342Y-68098317D01*
X80429964Y-68004695D01*
X80491287Y-67971210D01*
X80560979Y-67976194D01*
G37*
%TD.AperFunction*%
%TA.AperFunction,Conductor*%
G36*
X95379545Y-59027152D02*
G01*
X95428950Y-59076557D01*
X95437825Y-59096980D01*
X95476642Y-59214121D01*
X95476643Y-59214124D01*
X95568684Y-59363345D01*
X95692656Y-59487317D01*
X95815647Y-59563178D01*
X95862372Y-59615126D01*
X95873595Y-59684088D01*
X95845751Y-59748171D01*
X95838233Y-59756398D01*
X95721285Y-59873346D01*
X95629189Y-60022655D01*
X95629184Y-60022666D01*
X95574001Y-60189198D01*
X95563500Y-60291980D01*
X95563500Y-61859500D01*
X95543815Y-61926539D01*
X95491011Y-61972294D01*
X95439500Y-61983500D01*
X94211162Y-61983500D01*
X94146065Y-61965038D01*
X94133429Y-61957244D01*
X94086704Y-61905296D01*
X94075483Y-61836334D01*
X94103326Y-61772252D01*
X94133430Y-61746167D01*
X94282343Y-61654317D01*
X94406315Y-61530345D01*
X94498356Y-61381124D01*
X94498358Y-61381119D01*
X94553505Y-61214697D01*
X94553506Y-61214690D01*
X94563999Y-61111986D01*
X94564000Y-61111973D01*
X94564000Y-60962000D01*
X91364001Y-60962000D01*
X91364001Y-61111986D01*
X91374494Y-61214697D01*
X91429641Y-61381119D01*
X91429643Y-61381124D01*
X91521684Y-61530345D01*
X91645654Y-61654315D01*
X91794570Y-61746167D01*
X91841294Y-61798115D01*
X91852517Y-61867078D01*
X91824673Y-61931160D01*
X91794570Y-61957245D01*
X91645342Y-62049289D01*
X91521289Y-62173342D01*
X91429187Y-62322663D01*
X91429185Y-62322668D01*
X91411932Y-62374735D01*
X91374001Y-62489203D01*
X91374001Y-62489204D01*
X91374000Y-62489204D01*
X91363500Y-62591983D01*
X91363500Y-63392001D01*
X91363501Y-63392019D01*
X91374000Y-63494796D01*
X91374001Y-63494799D01*
X91414264Y-63616302D01*
X91429186Y-63661334D01*
X91521288Y-63810656D01*
X91645344Y-63934712D01*
X91794092Y-64026460D01*
X91794094Y-64026461D01*
X91840818Y-64078409D01*
X91852041Y-64147372D01*
X91824197Y-64211454D01*
X91794094Y-64237539D01*
X91645342Y-64329289D01*
X91521289Y-64453342D01*
X91429187Y-64602663D01*
X91429185Y-64602668D01*
X91417795Y-64637042D01*
X91374001Y-64769203D01*
X91374001Y-64769204D01*
X91374000Y-64769204D01*
X91363500Y-64871983D01*
X91363500Y-65672001D01*
X91363501Y-65672019D01*
X91374000Y-65774796D01*
X91374001Y-65774799D01*
X91429185Y-65941332D01*
X91432240Y-65947883D01*
X91431110Y-65948409D01*
X91447500Y-66006192D01*
X91447500Y-66531450D01*
X91447475Y-66533946D01*
X91445442Y-66634924D01*
X91445342Y-66639866D01*
X91445342Y-66639867D01*
X91455575Y-66711984D01*
X91456403Y-66719423D01*
X91462268Y-66792057D01*
X91471783Y-66830663D01*
X91474156Y-66842911D01*
X91479744Y-66882282D01*
X91485762Y-66901596D01*
X91486912Y-66971456D01*
X91450111Y-67030848D01*
X91387042Y-67060916D01*
X91379848Y-67061856D01*
X91369808Y-67062871D01*
X91357336Y-67063500D01*
X90991256Y-67063500D01*
X90926160Y-67045039D01*
X90845340Y-66995189D01*
X90845335Y-66995187D01*
X90845334Y-66995186D01*
X90678797Y-66940001D01*
X90678795Y-66940000D01*
X90576016Y-66929500D01*
X90576009Y-66929500D01*
X89228095Y-66929500D01*
X89161056Y-66909815D01*
X89115301Y-66857011D01*
X89105357Y-66787853D01*
X89134382Y-66724297D01*
X89140414Y-66717819D01*
X89587458Y-66270775D01*
X90041780Y-65816452D01*
X90050776Y-65808299D01*
X90084568Y-65780568D01*
X90210595Y-65627004D01*
X90304241Y-65451804D01*
X90320730Y-65397447D01*
X90361909Y-65261701D01*
X90381380Y-65064000D01*
X90377097Y-65020510D01*
X90376500Y-65008357D01*
X90376500Y-64709162D01*
X90396185Y-64642123D01*
X90398899Y-64638076D01*
X90498568Y-64495734D01*
X90594739Y-64289496D01*
X90653635Y-64069692D01*
X90673468Y-63843000D01*
X90672892Y-63836422D01*
X90663693Y-63731277D01*
X90653635Y-63616308D01*
X90594739Y-63396504D01*
X90498568Y-63190266D01*
X90368047Y-63003861D01*
X90368045Y-63003858D01*
X90207141Y-62842954D01*
X90020734Y-62712432D01*
X90020732Y-62712431D01*
X89814497Y-62616261D01*
X89814488Y-62616258D01*
X89594697Y-62557366D01*
X89594693Y-62557365D01*
X89594692Y-62557365D01*
X89594691Y-62557364D01*
X89594686Y-62557364D01*
X89368002Y-62537532D01*
X89367998Y-62537532D01*
X89141313Y-62557364D01*
X89141302Y-62557366D01*
X88921511Y-62616258D01*
X88921502Y-62616261D01*
X88715267Y-62712431D01*
X88715265Y-62712432D01*
X88528858Y-62842954D01*
X88367954Y-63003858D01*
X88241092Y-63185039D01*
X88237432Y-63190266D01*
X88230380Y-63205387D01*
X88184209Y-63257825D01*
X88117015Y-63276976D01*
X88050134Y-63256760D01*
X88005619Y-63205387D01*
X87998568Y-63190266D01*
X87868047Y-63003861D01*
X87868045Y-63003858D01*
X87707141Y-62842954D01*
X87520734Y-62712432D01*
X87520732Y-62712431D01*
X87314497Y-62616261D01*
X87314488Y-62616258D01*
X87094697Y-62557366D01*
X87094693Y-62557365D01*
X87094692Y-62557365D01*
X87094691Y-62557364D01*
X87094686Y-62557364D01*
X86868002Y-62537532D01*
X86867998Y-62537532D01*
X86641313Y-62557364D01*
X86641302Y-62557366D01*
X86421511Y-62616258D01*
X86421502Y-62616261D01*
X86215267Y-62712431D01*
X86215265Y-62712432D01*
X86028858Y-62842954D01*
X85867954Y-63003858D01*
X85741092Y-63185039D01*
X85737432Y-63190266D01*
X85730380Y-63205387D01*
X85684209Y-63257825D01*
X85617015Y-63276976D01*
X85550134Y-63256760D01*
X85505619Y-63205387D01*
X85498568Y-63190266D01*
X85398925Y-63047959D01*
X85376597Y-62981752D01*
X85376500Y-62976836D01*
X85376500Y-61409162D01*
X85396185Y-61342123D01*
X85398899Y-61338076D01*
X85498568Y-61195734D01*
X85505617Y-61180616D01*
X85551789Y-61128177D01*
X85618982Y-61109024D01*
X85685864Y-61129239D01*
X85730380Y-61180612D01*
X85737432Y-61195734D01*
X85768282Y-61239793D01*
X85867954Y-61382141D01*
X86028858Y-61543045D01*
X86028861Y-61543047D01*
X86215266Y-61673568D01*
X86421504Y-61769739D01*
X86421509Y-61769740D01*
X86421511Y-61769741D01*
X86439362Y-61774524D01*
X86641308Y-61828635D01*
X86793282Y-61841931D01*
X86867998Y-61848468D01*
X86868000Y-61848468D01*
X86868002Y-61848468D01*
X86942718Y-61841931D01*
X87094692Y-61828635D01*
X87314496Y-61769739D01*
X87520734Y-61673568D01*
X87707139Y-61543047D01*
X87868047Y-61382139D01*
X87998568Y-61195734D01*
X88005618Y-61180614D01*
X88051789Y-61128176D01*
X88118982Y-61109023D01*
X88185864Y-61129238D01*
X88230381Y-61180614D01*
X88237432Y-61195733D01*
X88237432Y-61195734D01*
X88367954Y-61382141D01*
X88528858Y-61543045D01*
X88528861Y-61543047D01*
X88715266Y-61673568D01*
X88921504Y-61769739D01*
X88921509Y-61769740D01*
X88921511Y-61769741D01*
X88939362Y-61774524D01*
X89141308Y-61828635D01*
X89293282Y-61841931D01*
X89367998Y-61848468D01*
X89368000Y-61848468D01*
X89368002Y-61848468D01*
X89442718Y-61841931D01*
X89594692Y-61828635D01*
X89814496Y-61769739D01*
X90020734Y-61673568D01*
X90207139Y-61543047D01*
X90368047Y-61382139D01*
X90498568Y-61195734D01*
X90594739Y-60989496D01*
X90653635Y-60769692D01*
X90673468Y-60543000D01*
X90673392Y-60542137D01*
X90665839Y-60455797D01*
X90653635Y-60316308D01*
X90608916Y-60149415D01*
X90594741Y-60096511D01*
X90594740Y-60096510D01*
X90594739Y-60096504D01*
X90569652Y-60042705D01*
X90559160Y-59973627D01*
X90587680Y-59909843D01*
X90646156Y-59871604D01*
X90682034Y-59866300D01*
X91317341Y-59866300D01*
X91384380Y-59885985D01*
X91430135Y-59938789D01*
X91440079Y-60007947D01*
X91431732Y-60035962D01*
X91431914Y-60036023D01*
X91429933Y-60041999D01*
X91429724Y-60042703D01*
X91429642Y-60042877D01*
X91374494Y-60209302D01*
X91374493Y-60209309D01*
X91364000Y-60312013D01*
X91364000Y-60462000D01*
X94563999Y-60462000D01*
X94563999Y-60312028D01*
X94563998Y-60312013D01*
X94553505Y-60209302D01*
X94498358Y-60042880D01*
X94498356Y-60042875D01*
X94406315Y-59893654D01*
X94280720Y-59768059D01*
X94247235Y-59706736D01*
X94252219Y-59637044D01*
X94280718Y-59592699D01*
X94727600Y-59145818D01*
X94788923Y-59112333D01*
X94815281Y-59109499D01*
X95029871Y-59109499D01*
X95029872Y-59109499D01*
X95089483Y-59103091D01*
X95224331Y-59052796D01*
X95245807Y-59036718D01*
X95311271Y-59012301D01*
X95379545Y-59027152D01*
G37*
%TD.AperFunction*%
%TA.AperFunction,Conductor*%
G36*
X70629624Y-63165570D02*
G01*
X70673166Y-63103388D01*
X70743840Y-62951825D01*
X70790012Y-62899386D01*
X70857206Y-62880233D01*
X70924087Y-62900448D01*
X70968605Y-62951824D01*
X71039397Y-63103638D01*
X71039398Y-63103639D01*
X71164902Y-63282877D01*
X71319623Y-63437598D01*
X71498861Y-63563102D01*
X71697170Y-63655575D01*
X71697176Y-63655576D01*
X71697177Y-63655577D01*
X71718663Y-63661334D01*
X71908523Y-63712207D01*
X72091426Y-63728208D01*
X72126498Y-63731277D01*
X72126500Y-63731277D01*
X72126502Y-63731277D01*
X72157488Y-63728566D01*
X72344477Y-63712207D01*
X72555830Y-63655575D01*
X72754139Y-63563102D01*
X72933377Y-63437598D01*
X73088098Y-63282877D01*
X73213602Y-63103639D01*
X73284118Y-62952414D01*
X73330290Y-62899977D01*
X73397484Y-62880825D01*
X73464365Y-62901041D01*
X73508881Y-62952414D01*
X73579398Y-63103639D01*
X73704902Y-63282877D01*
X73859623Y-63437598D01*
X74038861Y-63563102D01*
X74237170Y-63655575D01*
X74237176Y-63655576D01*
X74237177Y-63655577D01*
X74316093Y-63676722D01*
X74375753Y-63713086D01*
X74406283Y-63775933D01*
X74408000Y-63796497D01*
X74408000Y-63960182D01*
X74388315Y-64027221D01*
X74335511Y-64072976D01*
X74266353Y-64082920D01*
X74208216Y-64056929D01*
X74207811Y-64057508D01*
X74204808Y-64055405D01*
X74204306Y-64055181D01*
X74203388Y-64054411D01*
X74203381Y-64054406D01*
X74203377Y-64054402D01*
X74057776Y-63952451D01*
X74024138Y-63928897D01*
X73924984Y-63882661D01*
X73825830Y-63836425D01*
X73825826Y-63836424D01*
X73825822Y-63836422D01*
X73614477Y-63779793D01*
X73396502Y-63760723D01*
X73396498Y-63760723D01*
X73276367Y-63771233D01*
X73178523Y-63779793D01*
X73178520Y-63779793D01*
X72967177Y-63836422D01*
X72967168Y-63836426D01*
X72768861Y-63928898D01*
X72768857Y-63928900D01*
X72589621Y-64054402D01*
X72434902Y-64209121D01*
X72309400Y-64388357D01*
X72309400Y-64388358D01*
X72309398Y-64388361D01*
X72309398Y-64388362D01*
X72299763Y-64409024D01*
X72238605Y-64540176D01*
X72192432Y-64592615D01*
X72125238Y-64611766D01*
X72058357Y-64591550D01*
X72013841Y-64540175D01*
X71943167Y-64388614D01*
X71943166Y-64388612D01*
X71899624Y-64326428D01*
X71899624Y-64326427D01*
X71300949Y-64925102D01*
X71300173Y-64914735D01*
X71250613Y-64788459D01*
X71166035Y-64682401D01*
X71053953Y-64605984D01*
X70946199Y-64572746D01*
X71546071Y-63972874D01*
X71483887Y-63929333D01*
X71285659Y-63836898D01*
X71285650Y-63836894D01*
X71074394Y-63780289D01*
X71074384Y-63780287D01*
X70856501Y-63761225D01*
X70856499Y-63761225D01*
X70638615Y-63780287D01*
X70638605Y-63780289D01*
X70427349Y-63836894D01*
X70427340Y-63836898D01*
X70229113Y-63929333D01*
X70166928Y-63972874D01*
X70768269Y-64574215D01*
X70722362Y-64581135D01*
X70600143Y-64639993D01*
X70500702Y-64732260D01*
X70432875Y-64849740D01*
X70415000Y-64928054D01*
X69813374Y-64326428D01*
X69769833Y-64388613D01*
X69699158Y-64540175D01*
X69652985Y-64592614D01*
X69585792Y-64611766D01*
X69518911Y-64591550D01*
X69474394Y-64540175D01*
X69446619Y-64480612D01*
X69403602Y-64388362D01*
X69403599Y-64388358D01*
X69403599Y-64388357D01*
X69278099Y-64209124D01*
X69205395Y-64136420D01*
X69123377Y-64054402D01*
X68985478Y-63957844D01*
X68944138Y-63928897D01*
X68844984Y-63882661D01*
X68745830Y-63836425D01*
X68745826Y-63836424D01*
X68745822Y-63836422D01*
X68534477Y-63779793D01*
X68316502Y-63760723D01*
X68316497Y-63760723D01*
X68200991Y-63770827D01*
X68132491Y-63757060D01*
X68102504Y-63734980D01*
X67916930Y-63549406D01*
X67883445Y-63488083D01*
X67888429Y-63418391D01*
X67916926Y-63374048D01*
X68008098Y-63282877D01*
X68133602Y-63103639D01*
X68204395Y-62951822D01*
X68250566Y-62899385D01*
X68317760Y-62880233D01*
X68384641Y-62900449D01*
X68429158Y-62951824D01*
X68499833Y-63103387D01*
X68543374Y-63165571D01*
X69142049Y-62566895D01*
X69142827Y-62577265D01*
X69192387Y-62703541D01*
X69276965Y-62809599D01*
X69389047Y-62886016D01*
X69496799Y-62919253D01*
X68896927Y-63519124D01*
X68959112Y-63562666D01*
X69157340Y-63655101D01*
X69157349Y-63655105D01*
X69368605Y-63711710D01*
X69368615Y-63711712D01*
X69586499Y-63730775D01*
X69586501Y-63730775D01*
X69804384Y-63711712D01*
X69804394Y-63711710D01*
X70015650Y-63655105D01*
X70015664Y-63655100D01*
X70213883Y-63562669D01*
X70213885Y-63562668D01*
X70276071Y-63519124D01*
X69674732Y-62917784D01*
X69720638Y-62910865D01*
X69842857Y-62852007D01*
X69942298Y-62759740D01*
X70010125Y-62642260D01*
X70027999Y-62563945D01*
X70629624Y-63165570D01*
G37*
%TD.AperFunction*%
%TA.AperFunction,Conductor*%
G36*
X48739451Y-62519789D02*
G01*
X48771678Y-62581782D01*
X48774000Y-62605664D01*
X48774000Y-62869500D01*
X48754315Y-62936539D01*
X48701511Y-62982294D01*
X48650000Y-62993500D01*
X48194837Y-62993500D01*
X48127798Y-62973815D01*
X48082043Y-62921011D01*
X48072099Y-62851853D01*
X48101124Y-62788297D01*
X48103850Y-62785518D01*
X48103829Y-62785500D01*
X48235735Y-62639003D01*
X48235735Y-62639001D01*
X48235739Y-62638998D01*
X48256849Y-62602432D01*
X48307412Y-62554219D01*
X48350348Y-62541213D01*
X48510232Y-62523199D01*
X48510233Y-62523199D01*
X48607385Y-62489204D01*
X48609045Y-62488622D01*
X48678823Y-62485060D01*
X48739451Y-62519789D01*
G37*
%TD.AperFunction*%
%TA.AperFunction,Conductor*%
G36*
X72504094Y-59714521D02*
G01*
X72540504Y-59725099D01*
X72540510Y-59725100D01*
X72577350Y-59727999D01*
X72577366Y-59728000D01*
X73012758Y-59728000D01*
X73079797Y-59747685D01*
X73125552Y-59800489D01*
X73135496Y-59869647D01*
X73106471Y-59933203D01*
X73095194Y-59944628D01*
X73093515Y-59946122D01*
X73092536Y-59946994D01*
X73092527Y-59947004D01*
X73056604Y-59998306D01*
X73052300Y-60004088D01*
X73013462Y-60053207D01*
X73008670Y-60063484D01*
X72997866Y-60082197D01*
X72991368Y-60091477D01*
X72991367Y-60091479D01*
X72968255Y-60149653D01*
X72965401Y-60156270D01*
X72938920Y-60213062D01*
X72938919Y-60213064D01*
X72936626Y-60224168D01*
X72930431Y-60244860D01*
X72926248Y-60255389D01*
X72926247Y-60255394D01*
X72917169Y-60317362D01*
X72915917Y-60324462D01*
X72903253Y-60385791D01*
X72903253Y-60385792D01*
X72903583Y-60397124D01*
X72902326Y-60418694D01*
X72900685Y-60429898D01*
X72900684Y-60429911D01*
X72906141Y-60492281D01*
X72906560Y-60499477D01*
X72908383Y-60562095D01*
X72908384Y-60562101D01*
X72911316Y-60573042D01*
X72915069Y-60594325D01*
X72916056Y-60605610D01*
X72916057Y-60605612D01*
X72929138Y-60645090D01*
X72935751Y-60665045D01*
X72937819Y-60671953D01*
X72954034Y-60732462D01*
X72954035Y-60732465D01*
X72959413Y-60742440D01*
X72967971Y-60762279D01*
X72971535Y-60773034D01*
X72971537Y-60773038D01*
X73004414Y-60826341D01*
X73008019Y-60832585D01*
X73037739Y-60887702D01*
X73037743Y-60887709D01*
X73045277Y-60896176D01*
X73058178Y-60913505D01*
X73064130Y-60923154D01*
X73064131Y-60923156D01*
X73108420Y-60967445D01*
X73113370Y-60972692D01*
X73154991Y-61019462D01*
X73154997Y-61019467D01*
X73164276Y-61025964D01*
X73180835Y-61039859D01*
X73589234Y-61448258D01*
X73601015Y-61461890D01*
X73615461Y-61481294D01*
X73653638Y-61513328D01*
X73661614Y-61520638D01*
X73665557Y-61524581D01*
X73668249Y-61526977D01*
X73668109Y-61527134D01*
X73668117Y-61527142D01*
X73667982Y-61527276D01*
X73667372Y-61527961D01*
X73704628Y-61580555D01*
X73707779Y-61650353D01*
X73688922Y-61691943D01*
X73579401Y-61848357D01*
X73579398Y-61848361D01*
X73508882Y-61999583D01*
X73462709Y-62052022D01*
X73395516Y-62071174D01*
X73328635Y-62050958D01*
X73284118Y-61999583D01*
X73258178Y-61943955D01*
X73213602Y-61848362D01*
X73213600Y-61848359D01*
X73213599Y-61848357D01*
X73088099Y-61669124D01*
X73013642Y-61594667D01*
X72933377Y-61514402D01*
X72754139Y-61388898D01*
X72754140Y-61388898D01*
X72754138Y-61388897D01*
X72645069Y-61338038D01*
X72555830Y-61296425D01*
X72555826Y-61296424D01*
X72555822Y-61296422D01*
X72344477Y-61239793D01*
X72126502Y-61220723D01*
X72126497Y-61220723D01*
X72010991Y-61230827D01*
X71942491Y-61217060D01*
X71912504Y-61194980D01*
X71895960Y-61178436D01*
X71862475Y-61117113D01*
X71867459Y-61047421D01*
X71909331Y-60991488D01*
X71918534Y-60985222D01*
X72063656Y-60895712D01*
X72187712Y-60771656D01*
X72279814Y-60622334D01*
X72334999Y-60455797D01*
X72345500Y-60353009D01*
X72345499Y-59833595D01*
X72365183Y-59766558D01*
X72417987Y-59720803D01*
X72487146Y-59710859D01*
X72504094Y-59714521D01*
G37*
%TD.AperFunction*%
%TA.AperFunction,Conductor*%
G36*
X53783333Y-57346413D02*
G01*
X53839267Y-57388284D01*
X53848179Y-57412179D01*
X53864000Y-57428000D01*
X54990000Y-57428000D01*
X55057039Y-57447685D01*
X55102794Y-57500489D01*
X55114000Y-57552000D01*
X55114000Y-57804000D01*
X55094315Y-57871039D01*
X55041511Y-57916794D01*
X54990000Y-57928000D01*
X53864001Y-57928000D01*
X53864001Y-57977986D01*
X53874494Y-58080697D01*
X53929641Y-58247119D01*
X53929643Y-58247124D01*
X54021684Y-58396345D01*
X54145655Y-58520316D01*
X54145659Y-58520319D01*
X54234595Y-58575176D01*
X54281320Y-58627124D01*
X54292541Y-58696086D01*
X54264698Y-58760168D01*
X54261652Y-58763682D01*
X54253262Y-58773000D01*
X54253258Y-58773005D01*
X54157942Y-58938098D01*
X54157939Y-58938104D01*
X54099033Y-59119402D01*
X54099032Y-59119404D01*
X54094279Y-59164628D01*
X54080463Y-59296085D01*
X54079105Y-59309003D01*
X54081722Y-59333908D01*
X54069151Y-59402637D01*
X54046085Y-59434544D01*
X54021293Y-59459337D01*
X54021289Y-59459342D01*
X54021288Y-59459344D01*
X53986406Y-59515897D01*
X53929187Y-59608663D01*
X53929185Y-59608668D01*
X53915752Y-59649206D01*
X53874001Y-59775203D01*
X53874001Y-59775204D01*
X53874000Y-59775204D01*
X53863500Y-59877983D01*
X53863500Y-60224507D01*
X53843815Y-60291546D01*
X53791011Y-60337301D01*
X53785286Y-60339744D01*
X53781682Y-60341175D01*
X53765235Y-60350044D01*
X53747338Y-60357941D01*
X53732706Y-60363060D01*
X53685460Y-60392746D01*
X53678344Y-60396894D01*
X53626440Y-60424882D01*
X53626434Y-60424886D01*
X53615219Y-60434865D01*
X53598766Y-60447221D01*
X53588741Y-60453520D01*
X53588738Y-60453522D01*
X53546695Y-60495565D01*
X53541450Y-60500514D01*
X53494678Y-60542137D01*
X53494677Y-60542138D01*
X53488175Y-60551424D01*
X53474293Y-60567967D01*
X53468524Y-60573736D01*
X53468514Y-60573749D01*
X53434937Y-60627185D01*
X53431521Y-60632332D01*
X53395768Y-60683395D01*
X53341193Y-60727021D01*
X53271694Y-60734216D01*
X53209339Y-60702695D01*
X53193877Y-60685163D01*
X53185065Y-60673035D01*
X53185058Y-60673028D01*
X53151287Y-60645090D01*
X53142647Y-60637228D01*
X52988576Y-60483157D01*
X52978731Y-60470868D01*
X52978513Y-60471049D01*
X52973540Y-60465038D01*
X52954567Y-60447221D01*
X52924351Y-60418846D01*
X52921554Y-60416135D01*
X52901997Y-60396577D01*
X52898807Y-60394103D01*
X52889916Y-60386510D01*
X52857968Y-60356508D01*
X52857963Y-60356504D01*
X52840322Y-60346806D01*
X52824057Y-60336122D01*
X52811557Y-60326426D01*
X52808162Y-60323792D01*
X52767935Y-60306384D01*
X52757447Y-60301245D01*
X52719038Y-60280129D01*
X52719028Y-60280126D01*
X52699534Y-60275120D01*
X52681133Y-60268820D01*
X52662659Y-60260826D01*
X52662652Y-60260824D01*
X52619373Y-60253970D01*
X52607933Y-60251601D01*
X52565479Y-60240700D01*
X52565472Y-60240700D01*
X52545342Y-60240700D01*
X52525943Y-60239173D01*
X52506068Y-60236025D01*
X52506067Y-60236025D01*
X52462430Y-60240150D01*
X52450761Y-60240700D01*
X50598000Y-60240700D01*
X50530961Y-60221015D01*
X50485206Y-60168211D01*
X50474000Y-60116700D01*
X50474000Y-60099500D01*
X50493685Y-60032461D01*
X50546489Y-59986706D01*
X50598000Y-59975500D01*
X51123500Y-59975500D01*
X51123500Y-59762000D01*
X51143185Y-59694961D01*
X51195989Y-59649206D01*
X51247500Y-59638000D01*
X51461000Y-59638000D01*
X51461000Y-59112500D01*
X51480685Y-59045461D01*
X51533489Y-58999706D01*
X51585000Y-58988500D01*
X51637000Y-58988500D01*
X51704039Y-59008185D01*
X51749794Y-59060989D01*
X51761000Y-59112500D01*
X51761000Y-59638000D01*
X51986183Y-59638000D01*
X51986197Y-59637999D01*
X52098604Y-59623199D01*
X52098608Y-59623198D01*
X52238478Y-59565263D01*
X52358594Y-59473094D01*
X52450763Y-59352978D01*
X52508698Y-59213108D01*
X52508699Y-59213103D01*
X52518588Y-59138000D01*
X52314315Y-59138000D01*
X52247276Y-59118315D01*
X52201521Y-59065511D01*
X52191577Y-58996353D01*
X52220602Y-58932797D01*
X52238828Y-58915625D01*
X52242491Y-58912814D01*
X52306596Y-58863624D01*
X52371764Y-58838430D01*
X52382082Y-58838000D01*
X52518588Y-58838000D01*
X52518588Y-58837999D01*
X52508699Y-58762896D01*
X52508699Y-58762894D01*
X52487248Y-58711106D01*
X52479779Y-58641636D01*
X52487245Y-58616206D01*
X52509187Y-58563236D01*
X52524000Y-58450720D01*
X52524000Y-58225280D01*
X52518621Y-58184425D01*
X52529386Y-58115394D01*
X52575765Y-58063137D01*
X52629403Y-58044840D01*
X52760701Y-58031909D01*
X52950804Y-57974241D01*
X53126003Y-57880595D01*
X53241082Y-57786152D01*
X53652320Y-57374913D01*
X53713642Y-57341429D01*
X53783333Y-57346413D01*
G37*
%TD.AperFunction*%
%TA.AperFunction,Conductor*%
G36*
X86982215Y-49028718D02*
G01*
X87021094Y-49042066D01*
X87128565Y-49078961D01*
X87128886Y-49079071D01*
X87374165Y-49120000D01*
X87528841Y-49120000D01*
X87595880Y-49139685D01*
X87641635Y-49192489D01*
X87651579Y-49261647D01*
X87622554Y-49325203D01*
X87593939Y-49349538D01*
X87563956Y-49368031D01*
X87444032Y-49487955D01*
X87444029Y-49487959D01*
X87355001Y-49632294D01*
X87354996Y-49632305D01*
X87301651Y-49793290D01*
X87291500Y-49892647D01*
X87291500Y-50439337D01*
X87291501Y-50439355D01*
X87301650Y-50538707D01*
X87301651Y-50538710D01*
X87354996Y-50699694D01*
X87355001Y-50699705D01*
X87444029Y-50844040D01*
X87444032Y-50844044D01*
X87563955Y-50963967D01*
X87563959Y-50963970D01*
X87708294Y-51052998D01*
X87708297Y-51052999D01*
X87708303Y-51053003D01*
X87869292Y-51106349D01*
X87968655Y-51116500D01*
X88062479Y-51116499D01*
X88129516Y-51136183D01*
X88175272Y-51188986D01*
X88185216Y-51258145D01*
X88156192Y-51321701D01*
X88098474Y-51359159D01*
X88004194Y-51387759D01*
X87829001Y-51481401D01*
X87828994Y-51481405D01*
X87675431Y-51607431D01*
X87549405Y-51760994D01*
X87549401Y-51761001D01*
X87455760Y-51936191D01*
X87398091Y-52126300D01*
X87388233Y-52226396D01*
X87384809Y-52261168D01*
X87383500Y-52274456D01*
X87383500Y-52850926D01*
X87365039Y-52916022D01*
X87355000Y-52932296D01*
X87354996Y-52932305D01*
X87301651Y-53093290D01*
X87291500Y-53192647D01*
X87291500Y-53739337D01*
X87291501Y-53739355D01*
X87301650Y-53838707D01*
X87301651Y-53838710D01*
X87354996Y-53999694D01*
X87355001Y-53999705D01*
X87444029Y-54144040D01*
X87444032Y-54144044D01*
X87563955Y-54263967D01*
X87563959Y-54263970D01*
X87700187Y-54347997D01*
X87746912Y-54399945D01*
X87758133Y-54468907D01*
X87730290Y-54532989D01*
X87722777Y-54541211D01*
X87720029Y-54543959D01*
X87631001Y-54688294D01*
X87630996Y-54688305D01*
X87577651Y-54849290D01*
X87567500Y-54948647D01*
X87567500Y-55795337D01*
X87567501Y-55795355D01*
X87577650Y-55894707D01*
X87577651Y-55894710D01*
X87613480Y-56002834D01*
X87615882Y-56072663D01*
X87583455Y-56129519D01*
X86379742Y-57333232D01*
X86366113Y-57345011D01*
X86346707Y-57359459D01*
X86314674Y-57397633D01*
X86307387Y-57405586D01*
X86303420Y-57409554D01*
X86303418Y-57409556D01*
X86284089Y-57434001D01*
X86281815Y-57436793D01*
X86233334Y-57494571D01*
X86229366Y-57500605D01*
X86229322Y-57500576D01*
X86225209Y-57507031D01*
X86225254Y-57507059D01*
X86221462Y-57513206D01*
X86189581Y-57581572D01*
X86188012Y-57584812D01*
X86154175Y-57652191D01*
X86151704Y-57658979D01*
X86151655Y-57658961D01*
X86149141Y-57666193D01*
X86149191Y-57666210D01*
X86146920Y-57673062D01*
X86131671Y-57746911D01*
X86130891Y-57750430D01*
X86113499Y-57823816D01*
X86112661Y-57830987D01*
X86112607Y-57830980D01*
X86111830Y-57838596D01*
X86111883Y-57838601D01*
X86111253Y-57845790D01*
X86113448Y-57921193D01*
X86113500Y-57924800D01*
X86113500Y-59419138D01*
X86093815Y-59486177D01*
X86060626Y-59520710D01*
X86040216Y-59535002D01*
X86028861Y-59542953D01*
X85867951Y-59703862D01*
X85737433Y-59890264D01*
X85737432Y-59890266D01*
X85730380Y-59905387D01*
X85684209Y-59957825D01*
X85617015Y-59976976D01*
X85550134Y-59956760D01*
X85505619Y-59905387D01*
X85498568Y-59890266D01*
X85368047Y-59703861D01*
X85368045Y-59703858D01*
X85207141Y-59542954D01*
X85020734Y-59412432D01*
X85020732Y-59412431D01*
X84814497Y-59316261D01*
X84814488Y-59316258D01*
X84594697Y-59257366D01*
X84594693Y-59257365D01*
X84594692Y-59257365D01*
X84594691Y-59257364D01*
X84594686Y-59257364D01*
X84368002Y-59237532D01*
X84367998Y-59237532D01*
X84141313Y-59257364D01*
X84141302Y-59257366D01*
X83921511Y-59316258D01*
X83921502Y-59316261D01*
X83715267Y-59412431D01*
X83715265Y-59412432D01*
X83648278Y-59459337D01*
X83573730Y-59511536D01*
X83572960Y-59512075D01*
X83506754Y-59534402D01*
X83501837Y-59534500D01*
X83305708Y-59534500D01*
X83238669Y-59514815D01*
X83192914Y-59462011D01*
X83182970Y-59392853D01*
X83187777Y-59372183D01*
X83187843Y-59371977D01*
X83187968Y-59371594D01*
X83205992Y-59200096D01*
X83232576Y-59135484D01*
X83289874Y-59095499D01*
X83303515Y-59091774D01*
X83339791Y-59084064D01*
X83339795Y-59084062D01*
X83339796Y-59084062D01*
X83407316Y-59054000D01*
X83513948Y-59006524D01*
X83668177Y-58894470D01*
X83675163Y-58886712D01*
X83703718Y-58854998D01*
X83795739Y-58752798D01*
X83891058Y-58587701D01*
X83949968Y-58406394D01*
X83951608Y-58390787D01*
X83978188Y-58326172D01*
X84035484Y-58286184D01*
X84049130Y-58282457D01*
X84101791Y-58271264D01*
X84275948Y-58193724D01*
X84430177Y-58081670D01*
X84431054Y-58080697D01*
X84474983Y-58031908D01*
X84557739Y-57939998D01*
X84603192Y-57861269D01*
X84653757Y-57813056D01*
X84722363Y-57799832D01*
X84736343Y-57801977D01*
X84740681Y-57802900D01*
X84740686Y-57802900D01*
X84931319Y-57802900D01*
X85117791Y-57763264D01*
X85291948Y-57685724D01*
X85446177Y-57573670D01*
X85573739Y-57431998D01*
X85669058Y-57266901D01*
X85727968Y-57085594D01*
X85747895Y-56896000D01*
X85727968Y-56706406D01*
X85681072Y-56562077D01*
X85679078Y-56492238D01*
X85715158Y-56432405D01*
X85746609Y-56411374D01*
X85751683Y-56409007D01*
X85751697Y-56409003D01*
X85896044Y-56319968D01*
X86015968Y-56200044D01*
X86105003Y-56055697D01*
X86158349Y-55894708D01*
X86168500Y-55795345D01*
X86168499Y-54948656D01*
X86167257Y-54936501D01*
X86158349Y-54849292D01*
X86158348Y-54849289D01*
X86152723Y-54832315D01*
X86105003Y-54688303D01*
X86104999Y-54688297D01*
X86104998Y-54688294D01*
X86015970Y-54543959D01*
X86015967Y-54543955D01*
X86008819Y-54536807D01*
X85975334Y-54475484D01*
X85972500Y-54449126D01*
X85972500Y-53577885D01*
X85992185Y-53510846D01*
X86008810Y-53490213D01*
X86156423Y-53342599D01*
X86193662Y-53317006D01*
X86307948Y-53266124D01*
X86462177Y-53154070D01*
X86463738Y-53152337D01*
X86492480Y-53120415D01*
X86589739Y-53012398D01*
X86685058Y-52847301D01*
X86686172Y-52843874D01*
X86692412Y-52824667D01*
X86743968Y-52665994D01*
X86763895Y-52476400D01*
X86743968Y-52286806D01*
X86700791Y-52153921D01*
X86685060Y-52105504D01*
X86685057Y-52105498D01*
X86684019Y-52103700D01*
X86589739Y-51940402D01*
X86499787Y-51840500D01*
X86462180Y-51798732D01*
X86459194Y-51796044D01*
X86457968Y-51794054D01*
X86457829Y-51793900D01*
X86457857Y-51793874D01*
X86422544Y-51736559D01*
X86423871Y-51666702D01*
X86462755Y-51608652D01*
X86507568Y-51584815D01*
X86535310Y-51576755D01*
X86621398Y-51551744D01*
X86762865Y-51468081D01*
X86879081Y-51351865D01*
X86962744Y-51210398D01*
X86996505Y-51094191D01*
X87008597Y-51052573D01*
X87008598Y-51052567D01*
X87010426Y-51029339D01*
X87011500Y-51015694D01*
X87011500Y-50584306D01*
X87008598Y-50547431D01*
X87008182Y-50546000D01*
X86967553Y-50406155D01*
X86962744Y-50389602D01*
X86879081Y-50248135D01*
X86879079Y-50248133D01*
X86879076Y-50248129D01*
X86818319Y-50187372D01*
X86784834Y-50126049D01*
X86782000Y-50099691D01*
X86782000Y-49146000D01*
X86801685Y-49078961D01*
X86854489Y-49033206D01*
X86906000Y-49022000D01*
X86941953Y-49022000D01*
X86982215Y-49028718D01*
G37*
%TD.AperFunction*%
%TA.AperFunction,Conductor*%
G36*
X93732693Y-56357272D02*
G01*
X93774064Y-56413577D01*
X93781500Y-56455872D01*
X93781500Y-56756869D01*
X93781501Y-56756876D01*
X93787909Y-56816484D01*
X93813712Y-56885668D01*
X93818696Y-56955360D01*
X93813712Y-56972332D01*
X93787910Y-57041511D01*
X93787909Y-57041515D01*
X93787909Y-57041517D01*
X93781500Y-57101127D01*
X93781500Y-57101134D01*
X93781500Y-57101135D01*
X93781500Y-57706870D01*
X93781501Y-57706876D01*
X93787909Y-57766484D01*
X93813712Y-57835668D01*
X93818696Y-57905360D01*
X93813712Y-57922332D01*
X93787909Y-57991514D01*
X93787908Y-57991516D01*
X93781799Y-58048345D01*
X93781501Y-58051123D01*
X93781500Y-58051135D01*
X93781500Y-58265718D01*
X93761815Y-58332757D01*
X93745181Y-58353399D01*
X93523600Y-58574981D01*
X93462277Y-58608466D01*
X93435919Y-58611300D01*
X93286500Y-58611300D01*
X93219461Y-58591615D01*
X93173706Y-58538811D01*
X93162500Y-58487300D01*
X93162499Y-58051129D01*
X93162498Y-58051123D01*
X93162497Y-58051116D01*
X93156091Y-57991517D01*
X93130019Y-57921616D01*
X93125036Y-57851927D01*
X93130021Y-57834950D01*
X93155597Y-57766379D01*
X93155597Y-57766377D01*
X93161999Y-57706844D01*
X93162000Y-57706827D01*
X93162000Y-57654000D01*
X92923475Y-57654000D01*
X92880142Y-57646182D01*
X92769482Y-57604908D01*
X92769483Y-57604908D01*
X92709883Y-57598501D01*
X92709881Y-57598500D01*
X92709873Y-57598500D01*
X92709865Y-57598500D01*
X91951558Y-57598500D01*
X91901122Y-57587780D01*
X91895949Y-57585476D01*
X91895948Y-57585476D01*
X91721791Y-57507936D01*
X91721789Y-57507935D01*
X91721788Y-57507935D01*
X91535319Y-57468300D01*
X91344681Y-57468300D01*
X91158209Y-57507935D01*
X91158204Y-57507937D01*
X90984053Y-57585475D01*
X90984048Y-57585478D01*
X90829823Y-57697528D01*
X90829822Y-57697529D01*
X90702260Y-57839203D01*
X90606942Y-58004298D01*
X90606939Y-58004304D01*
X90548033Y-58185602D01*
X90548032Y-58185604D01*
X90541567Y-58247119D01*
X90528105Y-58375200D01*
X90536042Y-58450720D01*
X90538525Y-58474339D01*
X90525955Y-58543068D01*
X90478223Y-58594092D01*
X90415204Y-58611300D01*
X89920708Y-58611300D01*
X89862255Y-58596658D01*
X89755808Y-58539760D01*
X89657998Y-58510090D01*
X89565701Y-58482092D01*
X89565699Y-58482091D01*
X89565701Y-58482091D01*
X89368000Y-58462620D01*
X89170300Y-58482091D01*
X88980191Y-58539760D01*
X88805001Y-58633401D01*
X88804994Y-58633405D01*
X88651431Y-58759431D01*
X88525405Y-58912994D01*
X88525401Y-58913001D01*
X88431760Y-59088191D01*
X88374091Y-59278300D01*
X88365579Y-59364733D01*
X88359921Y-59422184D01*
X88359500Y-59426456D01*
X88359500Y-59676836D01*
X88339815Y-59743875D01*
X88337075Y-59747959D01*
X88240430Y-59885985D01*
X88237432Y-59890266D01*
X88230380Y-59905387D01*
X88184209Y-59957825D01*
X88117015Y-59976976D01*
X88050134Y-59956760D01*
X88005619Y-59905387D01*
X87998568Y-59890266D01*
X87905194Y-59756913D01*
X87868048Y-59703862D01*
X87787605Y-59623419D01*
X87707139Y-59542953D01*
X87675374Y-59520710D01*
X87631751Y-59466135D01*
X87622500Y-59419138D01*
X87622500Y-58275886D01*
X87642185Y-58208847D01*
X87658819Y-58188205D01*
X88602205Y-57244819D01*
X88663528Y-57211334D01*
X88689886Y-57208500D01*
X91898184Y-57208500D01*
X91911439Y-57209211D01*
X91914127Y-57209500D01*
X92709872Y-57209499D01*
X92769483Y-57203091D01*
X92794758Y-57193664D01*
X92880142Y-57161818D01*
X92923475Y-57154000D01*
X93162000Y-57154000D01*
X93162000Y-57101172D01*
X93161999Y-57101155D01*
X93155598Y-57041627D01*
X93155597Y-57041623D01*
X93130020Y-56973048D01*
X93125036Y-56903356D01*
X93130019Y-56886385D01*
X93156091Y-56816483D01*
X93162500Y-56756873D01*
X93162499Y-56603642D01*
X93182183Y-56536604D01*
X93234987Y-56490849D01*
X93262314Y-56482024D01*
X93263890Y-56481709D01*
X93263901Y-56481709D01*
X93454004Y-56424041D01*
X93475899Y-56412338D01*
X93599047Y-56346513D01*
X93667450Y-56332272D01*
X93732693Y-56357272D01*
G37*
%TD.AperFunction*%
%TA.AperFunction,Conductor*%
G36*
X103956039Y-44342685D02*
G01*
X104001794Y-44395489D01*
X104013000Y-44447000D01*
X104013000Y-50902257D01*
X103993315Y-50969296D01*
X103940511Y-51015051D01*
X103871353Y-51024995D01*
X103854406Y-51021334D01*
X103818492Y-51010900D01*
X103816000Y-51010703D01*
X103816000Y-52371500D01*
X103796315Y-52438539D01*
X103743511Y-52484294D01*
X103692000Y-52495500D01*
X102766000Y-52495500D01*
X102766000Y-52898649D01*
X102768899Y-52935489D01*
X102768900Y-52935495D01*
X102814716Y-53093193D01*
X102814717Y-53093196D01*
X102898314Y-53234552D01*
X102898321Y-53234561D01*
X102965079Y-53301319D01*
X102998564Y-53362642D01*
X102993580Y-53432334D01*
X102951708Y-53488267D01*
X102886244Y-53512684D01*
X102877398Y-53513000D01*
X102866000Y-53513000D01*
X102866000Y-56013000D01*
X103590973Y-56013000D01*
X103590985Y-56012999D01*
X103693689Y-56002506D01*
X103693696Y-56002505D01*
X103849996Y-55950712D01*
X103919824Y-55948310D01*
X103979866Y-55984042D01*
X104011059Y-56046562D01*
X104013000Y-56068418D01*
X104013000Y-56707054D01*
X103993315Y-56774093D01*
X103940511Y-56819848D01*
X103871353Y-56829792D01*
X103849996Y-56824760D01*
X103768146Y-56797638D01*
X103693797Y-56773001D01*
X103693795Y-56773000D01*
X103591015Y-56762500D01*
X103591008Y-56762500D01*
X103516298Y-56762500D01*
X103454298Y-56745887D01*
X103268228Y-56638460D01*
X103083814Y-56568521D01*
X103039290Y-56551635D01*
X103039289Y-56551634D01*
X103039287Y-56551634D01*
X102799395Y-56502659D01*
X102799385Y-56502658D01*
X102554744Y-56492799D01*
X102554743Y-56492799D01*
X102311672Y-56522312D01*
X102076496Y-56590432D01*
X102076492Y-56590434D01*
X101855283Y-56695400D01*
X101855281Y-56695400D01*
X101855273Y-56695405D01*
X101789873Y-56740549D01*
X101723518Y-56762433D01*
X101719432Y-56762500D01*
X101640984Y-56762500D01*
X101538204Y-56773000D01*
X101538203Y-56773001D01*
X101371664Y-56828186D01*
X101371662Y-56828187D01*
X101222348Y-56920286D01*
X101222344Y-56920289D01*
X101098289Y-57044344D01*
X101098286Y-57044348D01*
X101006187Y-57193662D01*
X101006186Y-57193664D01*
X100951001Y-57360203D01*
X100951000Y-57360204D01*
X100940500Y-57462984D01*
X100940500Y-58563015D01*
X100951000Y-58665795D01*
X100951001Y-58665797D01*
X100970569Y-58724849D01*
X100987385Y-58775598D01*
X101006186Y-58832334D01*
X101020980Y-58856319D01*
X101058796Y-58917628D01*
X101077236Y-58985021D01*
X101056313Y-59051684D01*
X101040938Y-59070406D01*
X100556164Y-59555181D01*
X100494841Y-59588666D01*
X100468483Y-59591500D01*
X100214000Y-59591500D01*
X100146961Y-59571815D01*
X100101206Y-59519011D01*
X100090000Y-59467500D01*
X100090000Y-58358890D01*
X100089999Y-58358871D01*
X100086625Y-58317080D01*
X100075232Y-58175945D01*
X100016636Y-57938211D01*
X100009567Y-57921619D01*
X99920667Y-57712962D01*
X99920665Y-57712959D01*
X99920663Y-57712954D01*
X99789799Y-57506010D01*
X99789795Y-57506005D01*
X99627436Y-57322739D01*
X99437774Y-57167885D01*
X99437771Y-57167882D01*
X99225728Y-57045460D01*
X98996787Y-56958634D01*
X98756895Y-56909659D01*
X98756885Y-56909658D01*
X98659215Y-56905722D01*
X98593023Y-56883354D01*
X98576528Y-56869504D01*
X98258499Y-56551475D01*
X98225014Y-56490152D01*
X98229998Y-56420460D01*
X98271870Y-56364527D01*
X98310178Y-56345136D01*
X98431804Y-56308241D01*
X98448895Y-56299106D01*
X98565522Y-56236767D01*
X98607003Y-56214595D01*
X98722082Y-56120152D01*
X99351780Y-55490452D01*
X99360776Y-55482299D01*
X99394568Y-55454568D01*
X99520595Y-55301004D01*
X99614241Y-55125804D01*
X99648460Y-55013000D01*
X100941000Y-55013000D01*
X100941000Y-55312985D01*
X100951493Y-55415689D01*
X100951494Y-55415696D01*
X101006641Y-55582118D01*
X101006643Y-55582123D01*
X101098684Y-55731344D01*
X101222655Y-55855315D01*
X101371876Y-55947356D01*
X101371881Y-55947358D01*
X101538303Y-56002505D01*
X101538310Y-56002506D01*
X101641014Y-56012999D01*
X101641027Y-56013000D01*
X102366000Y-56013000D01*
X102366000Y-55013000D01*
X100941000Y-55013000D01*
X99648460Y-55013000D01*
X99671908Y-54935701D01*
X99686500Y-54787547D01*
X99691380Y-54738000D01*
X99687097Y-54694514D01*
X99686500Y-54682360D01*
X99686500Y-54306456D01*
X99683415Y-54275136D01*
X99671908Y-54158299D01*
X99633838Y-54032798D01*
X99628499Y-53996803D01*
X99628499Y-53932662D01*
X99628498Y-53932644D01*
X99618349Y-53833292D01*
X99618348Y-53833289D01*
X99605546Y-53794655D01*
X99565003Y-53672303D01*
X99564999Y-53672297D01*
X99564998Y-53672294D01*
X99475970Y-53527959D01*
X99475967Y-53527955D01*
X99356044Y-53408032D01*
X99356040Y-53408029D01*
X99211705Y-53319001D01*
X99211699Y-53318998D01*
X99211697Y-53318997D01*
X99211694Y-53318996D01*
X99050709Y-53265651D01*
X98951352Y-53255500D01*
X98951345Y-53255500D01*
X98838095Y-53255500D01*
X98771056Y-53235815D01*
X98725301Y-53183011D01*
X98715357Y-53113853D01*
X98744382Y-53050297D01*
X98750414Y-53043819D01*
X98841415Y-52952818D01*
X98902738Y-52919333D01*
X98929096Y-52916499D01*
X98951338Y-52916499D01*
X98951344Y-52916499D01*
X98951352Y-52916498D01*
X98951355Y-52916498D01*
X99021917Y-52909290D01*
X99050708Y-52906349D01*
X99211697Y-52853003D01*
X99356044Y-52763968D01*
X99475968Y-52644044D01*
X99475975Y-52644032D01*
X99476159Y-52643801D01*
X99476337Y-52643674D01*
X99481075Y-52638937D01*
X99481884Y-52639746D01*
X99533177Y-52603418D01*
X99602976Y-52600273D01*
X99623864Y-52607421D01*
X99705289Y-52643674D01*
X99780146Y-52677003D01*
X99794209Y-52683264D01*
X99862456Y-52697770D01*
X99923935Y-52730960D01*
X99924354Y-52731378D01*
X99926734Y-52733758D01*
X99938516Y-52747391D01*
X99951155Y-52764369D01*
X99952961Y-52766794D01*
X99991138Y-52798828D01*
X99999114Y-52806138D01*
X100003054Y-52810079D01*
X100003058Y-52810082D01*
X100003059Y-52810083D01*
X100021502Y-52824666D01*
X100027510Y-52829416D01*
X100030307Y-52831695D01*
X100088072Y-52880167D01*
X100094109Y-52884137D01*
X100094079Y-52884182D01*
X100100538Y-52888296D01*
X100100567Y-52888250D01*
X100106707Y-52892037D01*
X100106709Y-52892039D01*
X100175057Y-52923910D01*
X100178275Y-52925468D01*
X100243646Y-52958298D01*
X100245689Y-52959324D01*
X100245691Y-52959324D01*
X100252479Y-52961795D01*
X100252460Y-52961847D01*
X100259685Y-52964358D01*
X100259703Y-52964307D01*
X100266555Y-52966577D01*
X100266556Y-52966577D01*
X100266560Y-52966579D01*
X100340503Y-52981846D01*
X100343910Y-52982602D01*
X100417312Y-53000000D01*
X100417315Y-53000000D01*
X100424486Y-53000839D01*
X100424479Y-53000892D01*
X100432094Y-53001670D01*
X100432099Y-53001617D01*
X100439289Y-53002246D01*
X100439293Y-53002245D01*
X100439294Y-53002246D01*
X100501327Y-53000440D01*
X100514696Y-53000052D01*
X100518302Y-53000000D01*
X100574312Y-53000000D01*
X100794019Y-53000000D01*
X100861058Y-53019685D01*
X100906813Y-53072489D01*
X100913095Y-53089402D01*
X100914255Y-53093397D01*
X100997917Y-53234862D01*
X100997923Y-53234870D01*
X101114129Y-53351076D01*
X101114133Y-53351079D01*
X101114135Y-53351081D01*
X101226640Y-53417616D01*
X101257364Y-53435786D01*
X101305047Y-53486855D01*
X101317551Y-53555597D01*
X101290906Y-53620186D01*
X101259340Y-53648056D01*
X101222660Y-53670680D01*
X101222656Y-53670683D01*
X101098684Y-53794655D01*
X101006643Y-53943876D01*
X101006641Y-53943881D01*
X100951494Y-54110303D01*
X100951493Y-54110310D01*
X100941000Y-54213014D01*
X100941000Y-54513000D01*
X102366000Y-54513000D01*
X102366000Y-53513000D01*
X102355309Y-53513000D01*
X102288270Y-53493315D01*
X102242515Y-53440511D01*
X102232571Y-53371353D01*
X102261596Y-53307797D01*
X102267628Y-53301319D01*
X102334076Y-53234870D01*
X102334081Y-53234865D01*
X102417744Y-53093398D01*
X102455953Y-52961884D01*
X102463597Y-52935573D01*
X102463598Y-52935567D01*
X102463855Y-52932303D01*
X102466500Y-52898694D01*
X102466500Y-51732500D01*
X102486185Y-51665461D01*
X102538989Y-51619706D01*
X102590500Y-51608500D01*
X102642000Y-51608500D01*
X102709039Y-51628185D01*
X102754794Y-51680989D01*
X102766000Y-51732500D01*
X102766000Y-51995500D01*
X103316000Y-51995500D01*
X103316000Y-51339814D01*
X103333267Y-51276694D01*
X103367744Y-51218398D01*
X103407278Y-51082321D01*
X103413597Y-51060573D01*
X103413598Y-51060567D01*
X103413702Y-51059253D01*
X103416500Y-51023694D01*
X103416500Y-51023693D01*
X103416691Y-51021267D01*
X103417537Y-51021333D01*
X103438730Y-50958291D01*
X103444498Y-50950680D01*
X103458595Y-50933504D01*
X103458597Y-50933498D01*
X103458600Y-50933496D01*
X103552239Y-50758308D01*
X103552239Y-50758307D01*
X103552241Y-50758304D01*
X103609908Y-50568201D01*
X103629380Y-50370500D01*
X103609908Y-50172799D01*
X103552241Y-49982696D01*
X103552239Y-49982693D01*
X103552239Y-49982691D01*
X103458596Y-49807497D01*
X103458593Y-49807494D01*
X103457442Y-49806092D01*
X103444521Y-49790347D01*
X103417208Y-49726039D01*
X103416718Y-49719730D01*
X103416691Y-49719733D01*
X103413598Y-49680432D01*
X103413597Y-49680426D01*
X103367745Y-49522606D01*
X103367744Y-49522603D01*
X103367744Y-49522602D01*
X103284081Y-49381135D01*
X103284079Y-49381133D01*
X103284076Y-49381129D01*
X103167870Y-49264923D01*
X103167862Y-49264917D01*
X103057399Y-49199590D01*
X103026398Y-49181256D01*
X103026397Y-49181255D01*
X103026396Y-49181255D01*
X103026393Y-49181254D01*
X102972302Y-49165539D01*
X102913416Y-49127933D01*
X102884210Y-49064460D01*
X102893956Y-48995274D01*
X102939560Y-48942339D01*
X102947880Y-48937408D01*
X102998208Y-48910172D01*
X103054009Y-48879974D01*
X103250244Y-48727238D01*
X103418664Y-48544285D01*
X103554673Y-48336107D01*
X103654563Y-48108381D01*
X103715608Y-47867321D01*
X103720499Y-47808300D01*
X103736143Y-47619505D01*
X103736143Y-47619494D01*
X103715609Y-47371687D01*
X103715607Y-47371675D01*
X103654563Y-47130618D01*
X103554673Y-46902893D01*
X103418666Y-46694717D01*
X103376499Y-46648912D01*
X103250244Y-46511762D01*
X103054009Y-46359026D01*
X103054007Y-46359025D01*
X103054006Y-46359024D01*
X102835311Y-46240672D01*
X102835302Y-46240669D01*
X102600116Y-46159929D01*
X102354835Y-46119000D01*
X102106165Y-46119000D01*
X101860883Y-46159929D01*
X101625697Y-46240669D01*
X101625688Y-46240672D01*
X101406993Y-46359024D01*
X101383681Y-46377169D01*
X101284660Y-46454239D01*
X101219668Y-46479881D01*
X101151128Y-46466314D01*
X101100803Y-46417846D01*
X101084500Y-46356385D01*
X101084500Y-46178456D01*
X101082675Y-46159929D01*
X101069908Y-46030299D01*
X101012241Y-45840196D01*
X101012239Y-45840193D01*
X101012239Y-45840191D01*
X100918598Y-45665001D01*
X100918594Y-45664994D01*
X100792568Y-45511431D01*
X100639005Y-45385405D01*
X100638998Y-45385401D01*
X100463808Y-45291760D01*
X100344495Y-45255567D01*
X100273701Y-45234092D01*
X100273699Y-45234091D01*
X100273701Y-45234091D01*
X100076000Y-45214620D01*
X99878300Y-45234091D01*
X99688191Y-45291760D01*
X99513001Y-45385401D01*
X99512994Y-45385405D01*
X99359431Y-45511431D01*
X99233405Y-45664994D01*
X99233401Y-45665001D01*
X99139760Y-45840191D01*
X99082091Y-46030300D01*
X99072724Y-46125409D01*
X99069325Y-46159929D01*
X99067500Y-46178456D01*
X99067500Y-48074856D01*
X99066903Y-48087009D01*
X99062620Y-48130498D01*
X99082090Y-48328197D01*
X99112863Y-48429642D01*
X99139759Y-48518305D01*
X99212983Y-48655297D01*
X99227225Y-48723700D01*
X99202225Y-48788944D01*
X99145920Y-48830314D01*
X99103625Y-48837750D01*
X97519944Y-48837750D01*
X97501975Y-48836441D01*
X97478041Y-48832935D01*
X97432947Y-48836881D01*
X97428409Y-48837278D01*
X97417605Y-48837750D01*
X97412007Y-48837750D01*
X97381043Y-48841369D01*
X97377456Y-48841735D01*
X97302345Y-48848306D01*
X97295271Y-48849767D01*
X97295260Y-48849715D01*
X97287784Y-48851372D01*
X97287797Y-48851424D01*
X97280764Y-48853090D01*
X97209877Y-48878889D01*
X97206477Y-48880071D01*
X97134914Y-48903786D01*
X97128372Y-48906837D01*
X97128349Y-48906789D01*
X97121459Y-48910125D01*
X97121483Y-48910172D01*
X97115028Y-48913413D01*
X97052019Y-48954854D01*
X97048982Y-48956789D01*
X96984798Y-48996380D01*
X96979131Y-49000861D01*
X96979098Y-49000819D01*
X96973166Y-49005651D01*
X96973200Y-49005692D01*
X96967664Y-49010337D01*
X96915896Y-49065206D01*
X96913385Y-49067791D01*
X96276797Y-49704381D01*
X96215474Y-49737866D01*
X96189116Y-49740700D01*
X89554463Y-49740700D01*
X89487424Y-49721015D01*
X89441669Y-49668211D01*
X89436757Y-49655704D01*
X89429003Y-49632303D01*
X89428999Y-49632297D01*
X89428998Y-49632294D01*
X89339970Y-49487959D01*
X89339967Y-49487955D01*
X89220044Y-49368032D01*
X89220040Y-49368029D01*
X89075705Y-49279001D01*
X89075699Y-49278998D01*
X89075697Y-49278997D01*
X89029550Y-49263705D01*
X88972106Y-49223933D01*
X88945283Y-49159417D01*
X88957598Y-49090641D01*
X89005141Y-49039442D01*
X89068555Y-49022000D01*
X90731734Y-49022000D01*
X90798773Y-49041685D01*
X90806038Y-49046729D01*
X90816689Y-49054702D01*
X90828167Y-49063295D01*
X90828171Y-49063297D01*
X90963017Y-49113591D01*
X90963016Y-49113591D01*
X90969944Y-49114335D01*
X91022627Y-49120000D01*
X93118372Y-49119999D01*
X93177983Y-49113591D01*
X93312831Y-49063296D01*
X93334954Y-49046734D01*
X93400417Y-49022316D01*
X93409266Y-49022000D01*
X94009273Y-49022000D01*
X94053243Y-49030057D01*
X94187210Y-49080865D01*
X94283007Y-49100422D01*
X94427104Y-49129840D01*
X94427108Y-49129840D01*
X94427111Y-49129841D01*
X94493094Y-49132500D01*
X94671755Y-49139700D01*
X94671756Y-49139700D01*
X94671757Y-49139699D01*
X94671762Y-49139700D01*
X94897498Y-49112291D01*
X94914827Y-49110187D01*
X94982307Y-49090641D01*
X95150008Y-49042066D01*
X95167066Y-49033971D01*
X95220223Y-49022000D01*
X96012000Y-49022000D01*
X96012000Y-48230573D01*
X96018382Y-48191306D01*
X96087724Y-47983603D01*
X96087724Y-47983602D01*
X96106621Y-47867321D01*
X96127000Y-47741925D01*
X96127000Y-45737626D01*
X96127025Y-45735129D01*
X96129158Y-45629238D01*
X96118919Y-45557088D01*
X96118094Y-45549667D01*
X96112232Y-45477043D01*
X96102715Y-45438434D01*
X96100341Y-45426176D01*
X96094757Y-45386825D01*
X96094756Y-45386817D01*
X96073077Y-45317250D01*
X96071071Y-45310051D01*
X96053636Y-45239311D01*
X96053635Y-45239308D01*
X96038050Y-45202729D01*
X96033741Y-45191015D01*
X96021913Y-45153055D01*
X96021909Y-45153046D01*
X96020962Y-45150691D01*
X96020611Y-45148879D01*
X96020426Y-45148285D01*
X96020492Y-45148264D01*
X96012000Y-45104406D01*
X96012000Y-44447000D01*
X96031685Y-44379961D01*
X96084489Y-44334206D01*
X96136000Y-44323000D01*
X103889000Y-44323000D01*
X103956039Y-44342685D01*
G37*
%TD.AperFunction*%
%TA.AperFunction,Conductor*%
G36*
X50195943Y-56127014D02*
G01*
X50248264Y-56148687D01*
X50341855Y-56161008D01*
X50356184Y-56162895D01*
X50360780Y-56163500D01*
X50360787Y-56163500D01*
X50574000Y-56163500D01*
X50641039Y-56183185D01*
X50686794Y-56235989D01*
X50698000Y-56287500D01*
X50698000Y-56500727D01*
X50709544Y-56588407D01*
X50712795Y-56613103D01*
X50712813Y-56613235D01*
X50712813Y-56613236D01*
X50734481Y-56665549D01*
X50741948Y-56735019D01*
X50734481Y-56760451D01*
X50712813Y-56812763D01*
X50712813Y-56812764D01*
X50698000Y-56925272D01*
X50698000Y-57150727D01*
X50712813Y-57263235D01*
X50712813Y-57263236D01*
X50734481Y-57315549D01*
X50741948Y-57385019D01*
X50734481Y-57410451D01*
X50712813Y-57462763D01*
X50712813Y-57462764D01*
X50698000Y-57575272D01*
X50698000Y-57800727D01*
X50712813Y-57913235D01*
X50712813Y-57913236D01*
X50734481Y-57965549D01*
X50741948Y-58035019D01*
X50734481Y-58060451D01*
X50712813Y-58112763D01*
X50712813Y-58112764D01*
X50698000Y-58225272D01*
X50698000Y-58450727D01*
X50712812Y-58563233D01*
X50712812Y-58563235D01*
X50712813Y-58563236D01*
X50724568Y-58591615D01*
X50734752Y-58616201D01*
X50742220Y-58685671D01*
X50734752Y-58711103D01*
X50713300Y-58762895D01*
X50703411Y-58837999D01*
X50703412Y-58838000D01*
X50839918Y-58838000D01*
X50906957Y-58857685D01*
X50915399Y-58863620D01*
X50979509Y-58912814D01*
X50983172Y-58915625D01*
X51024374Y-58972053D01*
X51028529Y-59041799D01*
X50994316Y-59102719D01*
X50932599Y-59135471D01*
X50907685Y-59138000D01*
X50703411Y-59138000D01*
X50671433Y-59174464D01*
X50659964Y-59185933D01*
X50623500Y-59217911D01*
X50623500Y-59422184D01*
X50603815Y-59489223D01*
X50551011Y-59534978D01*
X50481853Y-59544922D01*
X50418297Y-59515897D01*
X50401124Y-59497670D01*
X50349124Y-59429902D01*
X50323930Y-59364733D01*
X50323500Y-59354416D01*
X50323500Y-59217911D01*
X50323499Y-59217911D01*
X50248395Y-59227800D01*
X50196603Y-59249252D01*
X50127134Y-59256719D01*
X50101701Y-59249252D01*
X50101047Y-59248981D01*
X50048736Y-59227313D01*
X50048735Y-59227312D01*
X50048733Y-59227312D01*
X49936227Y-59212500D01*
X49936220Y-59212500D01*
X49710780Y-59212500D01*
X49710772Y-59212500D01*
X49598264Y-59227313D01*
X49598263Y-59227313D01*
X49545951Y-59248981D01*
X49476481Y-59256448D01*
X49451049Y-59248981D01*
X49423407Y-59237532D01*
X49398736Y-59227313D01*
X49384671Y-59225461D01*
X49286227Y-59212500D01*
X49286220Y-59212500D01*
X49060780Y-59212500D01*
X49060772Y-59212500D01*
X48948264Y-59227313D01*
X48948263Y-59227313D01*
X48895951Y-59248981D01*
X48826481Y-59256448D01*
X48801049Y-59248981D01*
X48773407Y-59237532D01*
X48748736Y-59227313D01*
X48734671Y-59225461D01*
X48636227Y-59212500D01*
X48636220Y-59212500D01*
X48410780Y-59212500D01*
X48410772Y-59212500D01*
X48298264Y-59227313D01*
X48298263Y-59227313D01*
X48245951Y-59248981D01*
X48176481Y-59256448D01*
X48151049Y-59248981D01*
X48123407Y-59237532D01*
X48098736Y-59227313D01*
X48084671Y-59225461D01*
X47986227Y-59212500D01*
X47986220Y-59212500D01*
X47765106Y-59212500D01*
X47698067Y-59192815D01*
X47671877Y-59170258D01*
X47643588Y-59138000D01*
X47439315Y-59138000D01*
X47372276Y-59118315D01*
X47326521Y-59065511D01*
X47316577Y-58996353D01*
X47345602Y-58932797D01*
X47363828Y-58915625D01*
X47367491Y-58912814D01*
X47431596Y-58863624D01*
X47496764Y-58838430D01*
X47507082Y-58838000D01*
X47643588Y-58838000D01*
X47643588Y-58837999D01*
X47633699Y-58762896D01*
X47633699Y-58762894D01*
X47612248Y-58711106D01*
X47604779Y-58641636D01*
X47612245Y-58616206D01*
X47634187Y-58563236D01*
X47649000Y-58450720D01*
X47649000Y-58225280D01*
X47648900Y-58224524D01*
X47642183Y-58173500D01*
X47634187Y-58112764D01*
X47612517Y-58060449D01*
X47605049Y-57990985D01*
X47612514Y-57965556D01*
X47634187Y-57913236D01*
X47649000Y-57800720D01*
X47649000Y-57575280D01*
X47634187Y-57462764D01*
X47612517Y-57410449D01*
X47605049Y-57340985D01*
X47612514Y-57315556D01*
X47634187Y-57263236D01*
X47649000Y-57150720D01*
X47649000Y-56925280D01*
X47634187Y-56812764D01*
X47612247Y-56759798D01*
X47604779Y-56690330D01*
X47612248Y-56664892D01*
X47633700Y-56613103D01*
X47643588Y-56538000D01*
X47507082Y-56538000D01*
X47440043Y-56518315D01*
X47431595Y-56512375D01*
X47430608Y-56511618D01*
X47363827Y-56460374D01*
X47322626Y-56403947D01*
X47318471Y-56334201D01*
X47352684Y-56273281D01*
X47414401Y-56240529D01*
X47439315Y-56238000D01*
X47643588Y-56238000D01*
X47671877Y-56205742D01*
X47730879Y-56168317D01*
X47765106Y-56163500D01*
X47986213Y-56163500D01*
X47986220Y-56163500D01*
X48098736Y-56148687D01*
X48151050Y-56127017D01*
X48220515Y-56119549D01*
X48245943Y-56127014D01*
X48298264Y-56148687D01*
X48391855Y-56161008D01*
X48406184Y-56162895D01*
X48410780Y-56163500D01*
X48410787Y-56163500D01*
X48636213Y-56163500D01*
X48636220Y-56163500D01*
X48748736Y-56148687D01*
X48801050Y-56127017D01*
X48870515Y-56119549D01*
X48895943Y-56127014D01*
X48948264Y-56148687D01*
X49041855Y-56161008D01*
X49056184Y-56162895D01*
X49060780Y-56163500D01*
X49060787Y-56163500D01*
X49286213Y-56163500D01*
X49286220Y-56163500D01*
X49398736Y-56148687D01*
X49451050Y-56127017D01*
X49520515Y-56119549D01*
X49545943Y-56127014D01*
X49598264Y-56148687D01*
X49691855Y-56161008D01*
X49706184Y-56162895D01*
X49710780Y-56163500D01*
X49710787Y-56163500D01*
X49936213Y-56163500D01*
X49936220Y-56163500D01*
X50048736Y-56148687D01*
X50101050Y-56127017D01*
X50170515Y-56119549D01*
X50195943Y-56127014D01*
G37*
%TD.AperFunction*%
%TA.AperFunction,Conductor*%
G36*
X74199306Y-58695268D02*
G01*
X74257602Y-58729744D01*
X74299224Y-58741836D01*
X74415426Y-58775597D01*
X74415429Y-58775597D01*
X74415431Y-58775598D01*
X74452306Y-58778500D01*
X74452314Y-58778500D01*
X75758686Y-58778500D01*
X75758694Y-58778500D01*
X75795569Y-58775598D01*
X75934236Y-58735310D01*
X75947278Y-58732275D01*
X75985846Y-58725474D01*
X75992955Y-58724432D01*
X76055184Y-58717160D01*
X76055187Y-58717158D01*
X76061628Y-58716406D01*
X76130499Y-58728175D01*
X76167631Y-58758098D01*
X76168181Y-58757549D01*
X76266951Y-58856319D01*
X76300436Y-58917642D01*
X76295452Y-58987334D01*
X76266951Y-59031681D01*
X76173287Y-59125344D01*
X76169901Y-59129627D01*
X76112878Y-59170001D01*
X76043079Y-59173137D01*
X76009518Y-59159445D01*
X75974676Y-59138840D01*
X75953398Y-59126256D01*
X75953396Y-59126255D01*
X75953394Y-59126254D01*
X75795573Y-59080402D01*
X75795567Y-59080401D01*
X75758701Y-59077500D01*
X75758694Y-59077500D01*
X74452306Y-59077500D01*
X74452298Y-59077500D01*
X74415436Y-59080401D01*
X74415434Y-59080401D01*
X74415431Y-59080402D01*
X74299866Y-59113976D01*
X74261671Y-59118847D01*
X74256091Y-59118684D01*
X74206452Y-59123028D01*
X74195644Y-59123500D01*
X74190051Y-59123500D01*
X74159113Y-59127116D01*
X74155529Y-59127482D01*
X74080387Y-59134056D01*
X74073321Y-59135516D01*
X74073310Y-59135464D01*
X74065831Y-59137122D01*
X74065844Y-59137174D01*
X74058816Y-59138839D01*
X73987962Y-59164628D01*
X73984560Y-59165811D01*
X73972954Y-59169657D01*
X73966773Y-59171705D01*
X73927767Y-59178000D01*
X73104500Y-59178000D01*
X73037461Y-59158315D01*
X72991706Y-59105511D01*
X72980500Y-59054000D01*
X72980500Y-58922037D01*
X73000185Y-58854998D01*
X73052989Y-58809243D01*
X73078716Y-58800748D01*
X73179791Y-58779264D01*
X73353948Y-58701724D01*
X73354010Y-58701679D01*
X73354051Y-58701664D01*
X73359581Y-58698472D01*
X73360164Y-58699483D01*
X73419818Y-58678202D01*
X73426892Y-58678000D01*
X74136185Y-58678000D01*
X74199306Y-58695268D01*
G37*
%TD.AperFunction*%
%TA.AperFunction,Conductor*%
G36*
X64589243Y-49030057D02*
G01*
X64723210Y-49080865D01*
X64819007Y-49100422D01*
X64963104Y-49129840D01*
X64963108Y-49129840D01*
X64963111Y-49129841D01*
X65029094Y-49132500D01*
X65207755Y-49139700D01*
X65207756Y-49139700D01*
X65207757Y-49139699D01*
X65207762Y-49139700D01*
X65433498Y-49112291D01*
X65450827Y-49110187D01*
X65518307Y-49090641D01*
X65686008Y-49042066D01*
X65703066Y-49033971D01*
X65756223Y-49022000D01*
X65920300Y-49022000D01*
X65987339Y-49041685D01*
X66033094Y-49094489D01*
X66044300Y-49146000D01*
X66044300Y-49667500D01*
X66024615Y-49734539D01*
X65971811Y-49780294D01*
X65920300Y-49791500D01*
X64241074Y-49791500D01*
X64175976Y-49773038D01*
X64159697Y-49762997D01*
X64092409Y-49740700D01*
X63998709Y-49709651D01*
X63899346Y-49699500D01*
X63352662Y-49699500D01*
X63352644Y-49699501D01*
X63253292Y-49709650D01*
X63253289Y-49709651D01*
X63092305Y-49762996D01*
X63092294Y-49763001D01*
X62947959Y-49852029D01*
X62947955Y-49852032D01*
X62828032Y-49971955D01*
X62828029Y-49971959D01*
X62739001Y-50116294D01*
X62738996Y-50116305D01*
X62685651Y-50277290D01*
X62675500Y-50376647D01*
X62675500Y-50440806D01*
X62670161Y-50476801D01*
X62632091Y-50602300D01*
X62614688Y-50779001D01*
X62612620Y-50800000D01*
X62613774Y-50811717D01*
X62632091Y-50997699D01*
X62670161Y-51123201D01*
X62675500Y-51159193D01*
X62675500Y-51223335D01*
X62675501Y-51223356D01*
X62685650Y-51322707D01*
X62685651Y-51322710D01*
X62738996Y-51483694D01*
X62739001Y-51483705D01*
X62828029Y-51628040D01*
X62828032Y-51628044D01*
X62947955Y-51747967D01*
X62947959Y-51747970D01*
X63092294Y-51836998D01*
X63092297Y-51836999D01*
X63092303Y-51837003D01*
X63253292Y-51890349D01*
X63352655Y-51900500D01*
X63899344Y-51900499D01*
X63899352Y-51900498D01*
X63899355Y-51900498D01*
X63953760Y-51894940D01*
X63998708Y-51890349D01*
X64159697Y-51837003D01*
X64175976Y-51826961D01*
X64241074Y-51808500D01*
X66570858Y-51808500D01*
X66583011Y-51809097D01*
X66586312Y-51809422D01*
X66626500Y-51813380D01*
X66824201Y-51793909D01*
X67014304Y-51736241D01*
X67081048Y-51700565D01*
X67149449Y-51686324D01*
X67214693Y-51711323D01*
X67256064Y-51767628D01*
X67263500Y-51809924D01*
X67263500Y-51965701D01*
X67266401Y-52002567D01*
X67266402Y-52002573D01*
X67312254Y-52160393D01*
X67312255Y-52160396D01*
X67312256Y-52160398D01*
X67335637Y-52199934D01*
X67395917Y-52301862D01*
X67395923Y-52301870D01*
X67512129Y-52418076D01*
X67512133Y-52418079D01*
X67512135Y-52418081D01*
X67653602Y-52501744D01*
X67789308Y-52541170D01*
X67848192Y-52578776D01*
X67877399Y-52642248D01*
X67867653Y-52711435D01*
X67822049Y-52764369D01*
X67819811Y-52765783D01*
X67795658Y-52780680D01*
X67671683Y-52904655D01*
X67671679Y-52904660D01*
X67669826Y-52907665D01*
X67668018Y-52909290D01*
X67667202Y-52910323D01*
X67667025Y-52910183D01*
X67617874Y-52954385D01*
X67548911Y-52965601D01*
X67484831Y-52937752D01*
X67458753Y-52907653D01*
X67458528Y-52907288D01*
X67456712Y-52904344D01*
X67332656Y-52780288D01*
X67198869Y-52697768D01*
X67183336Y-52688187D01*
X67183331Y-52688185D01*
X67149583Y-52677002D01*
X67016797Y-52633001D01*
X67016795Y-52633000D01*
X66914010Y-52622500D01*
X66138998Y-52622500D01*
X66138980Y-52622501D01*
X66036203Y-52633000D01*
X66036200Y-52633001D01*
X65869668Y-52688185D01*
X65869663Y-52688187D01*
X65720342Y-52780289D01*
X65596289Y-52904342D01*
X65504187Y-53053663D01*
X65504186Y-53053666D01*
X65463545Y-53176312D01*
X65423772Y-53233756D01*
X65359256Y-53260579D01*
X65290480Y-53248264D01*
X65240300Y-53202403D01*
X65213317Y-53158656D01*
X65089345Y-53034684D01*
X64940124Y-52942643D01*
X64940119Y-52942641D01*
X64773697Y-52887494D01*
X64773690Y-52887493D01*
X64670986Y-52877000D01*
X64533500Y-52877000D01*
X64533500Y-55326999D01*
X64670972Y-55326999D01*
X64670986Y-55326998D01*
X64773697Y-55316505D01*
X64940119Y-55261358D01*
X64940124Y-55261356D01*
X65089345Y-55169315D01*
X65213315Y-55045345D01*
X65305356Y-54896124D01*
X65305359Y-54896117D01*
X65345906Y-54773753D01*
X65385678Y-54716308D01*
X65450194Y-54689484D01*
X65518969Y-54701799D01*
X65569150Y-54747658D01*
X65596288Y-54791656D01*
X65720344Y-54915712D01*
X65833834Y-54985713D01*
X65840096Y-54989575D01*
X65886821Y-55041523D01*
X65899000Y-55095114D01*
X65899000Y-55586008D01*
X65879315Y-55653047D01*
X65862681Y-55673689D01*
X65447853Y-56088516D01*
X65435569Y-56098359D01*
X65435749Y-56098577D01*
X65429737Y-56103550D01*
X65383546Y-56152737D01*
X65380841Y-56155528D01*
X65361279Y-56175090D01*
X65361275Y-56175095D01*
X65358795Y-56178293D01*
X65351217Y-56187164D01*
X65321208Y-56219120D01*
X65321205Y-56219124D01*
X65311506Y-56236767D01*
X65300828Y-56253023D01*
X65288494Y-56268924D01*
X65288489Y-56268932D01*
X65271085Y-56309152D01*
X65265946Y-56319642D01*
X65244827Y-56358057D01*
X65239820Y-56377558D01*
X65233521Y-56395954D01*
X65230063Y-56403947D01*
X65225525Y-56414434D01*
X65225524Y-56414436D01*
X65218669Y-56457721D01*
X65216301Y-56469157D01*
X65205400Y-56511613D01*
X65205400Y-56531748D01*
X65203873Y-56551147D01*
X65202142Y-56562079D01*
X65200725Y-56571023D01*
X65204716Y-56613236D01*
X65204850Y-56614657D01*
X65205400Y-56626327D01*
X65205400Y-57408466D01*
X65185715Y-57475505D01*
X65132911Y-57521260D01*
X65081400Y-57532466D01*
X64027412Y-57532466D01*
X63960373Y-57512781D01*
X63914618Y-57459977D01*
X63904473Y-57424651D01*
X63897925Y-57374914D01*
X63892044Y-57330238D01*
X63883434Y-57309454D01*
X63875965Y-57239986D01*
X63883435Y-57214545D01*
X63885525Y-57209499D01*
X63892044Y-57193762D01*
X63907500Y-57076361D01*
X63907499Y-56797640D01*
X63892044Y-56680238D01*
X63883434Y-56659454D01*
X63875965Y-56589986D01*
X63883435Y-56564545D01*
X63892044Y-56543762D01*
X63907500Y-56426361D01*
X63907499Y-56147640D01*
X63907215Y-56145486D01*
X63901040Y-56098577D01*
X63892044Y-56030238D01*
X63883434Y-56009454D01*
X63875965Y-55939986D01*
X63883435Y-55914545D01*
X63892044Y-55893762D01*
X63907500Y-55776361D01*
X63907499Y-55497640D01*
X63903489Y-55467182D01*
X63914254Y-55398151D01*
X63960633Y-55345894D01*
X64026428Y-55326999D01*
X64033499Y-55326999D01*
X64033500Y-55326998D01*
X64033500Y-52877000D01*
X63896027Y-52877000D01*
X63896012Y-52877001D01*
X63793302Y-52887494D01*
X63626880Y-52942641D01*
X63626875Y-52942643D01*
X63477654Y-53034684D01*
X63353683Y-53158655D01*
X63353679Y-53158660D01*
X63351826Y-53161665D01*
X63350018Y-53163290D01*
X63349202Y-53164323D01*
X63349025Y-53164183D01*
X63299874Y-53208385D01*
X63230911Y-53219601D01*
X63166831Y-53191752D01*
X63140753Y-53161653D01*
X63140737Y-53161628D01*
X63138712Y-53158344D01*
X63014656Y-53034288D01*
X62918632Y-52975060D01*
X62865336Y-52942187D01*
X62865331Y-52942185D01*
X62824029Y-52928499D01*
X62698797Y-52887001D01*
X62698795Y-52887000D01*
X62596010Y-52876500D01*
X61820998Y-52876500D01*
X61820980Y-52876501D01*
X61718203Y-52887000D01*
X61718200Y-52887001D01*
X61551668Y-52942185D01*
X61551663Y-52942187D01*
X61472196Y-52991203D01*
X61402344Y-53034288D01*
X61402342Y-53034289D01*
X61402340Y-53034291D01*
X61372448Y-53064182D01*
X61311124Y-53097665D01*
X61296924Y-53099901D01*
X61213773Y-53108090D01*
X61122970Y-53135636D01*
X61053103Y-53136259D01*
X60993991Y-53099011D01*
X60964400Y-53035717D01*
X60963654Y-53029931D01*
X60962969Y-53023411D01*
X60962968Y-53023407D01*
X60959390Y-53012396D01*
X60931146Y-52925468D01*
X60904060Y-52842104D01*
X60904057Y-52842098D01*
X60902509Y-52839417D01*
X60852178Y-52752241D01*
X60808740Y-52677003D01*
X60808735Y-52676996D01*
X60766662Y-52630270D01*
X60736432Y-52567279D01*
X60745057Y-52497944D01*
X60751420Y-52485305D01*
X60777058Y-52440901D01*
X60835968Y-52259594D01*
X60855895Y-52070000D01*
X60841279Y-51930945D01*
X60853848Y-51862220D01*
X60899500Y-51812451D01*
X61004044Y-51747968D01*
X61123968Y-51628044D01*
X61213003Y-51483697D01*
X61266349Y-51322708D01*
X61276500Y-51223345D01*
X61276499Y-51159190D01*
X61281838Y-51123196D01*
X61319908Y-50997701D01*
X61334500Y-50849547D01*
X61334500Y-49230823D01*
X61354185Y-49163784D01*
X61406989Y-49118029D01*
X61476147Y-49108085D01*
X61491423Y-49111984D01*
X61491465Y-49111807D01*
X61499016Y-49113591D01*
X61505944Y-49114335D01*
X61558627Y-49120000D01*
X63654372Y-49119999D01*
X63713983Y-49113591D01*
X63848831Y-49063296D01*
X63870954Y-49046734D01*
X63936417Y-49022316D01*
X63945266Y-49022000D01*
X64545273Y-49022000D01*
X64589243Y-49030057D01*
G37*
%TD.AperFunction*%
%TA.AperFunction,Conductor*%
G36*
X45571943Y-53860185D02*
G01*
X45592585Y-53876819D01*
X46819911Y-55104147D01*
X46819916Y-55104151D01*
X46819917Y-55104152D01*
X46907734Y-55176221D01*
X46934994Y-55198592D01*
X46935001Y-55198598D01*
X47110188Y-55292237D01*
X47110189Y-55292237D01*
X47110196Y-55292241D01*
X47134996Y-55299764D01*
X47193432Y-55338057D01*
X47221890Y-55401869D01*
X47223000Y-55418423D01*
X47223000Y-55614000D01*
X47203315Y-55681039D01*
X47150511Y-55726794D01*
X47099000Y-55738000D01*
X46886000Y-55738000D01*
X46886000Y-56263500D01*
X46866315Y-56330539D01*
X46813511Y-56376294D01*
X46762000Y-56387500D01*
X46710000Y-56387500D01*
X46642961Y-56367815D01*
X46597206Y-56315011D01*
X46586000Y-56263500D01*
X46586000Y-55738000D01*
X46360802Y-55738000D01*
X46248395Y-55752800D01*
X46248391Y-55752801D01*
X46108521Y-55810736D01*
X45988405Y-55902905D01*
X45896236Y-56023021D01*
X45838301Y-56162891D01*
X45838300Y-56162895D01*
X45823500Y-56275302D01*
X45823500Y-56286500D01*
X45803815Y-56353539D01*
X45751011Y-56399294D01*
X45699500Y-56410500D01*
X44377960Y-56410500D01*
X44310921Y-56390815D01*
X44265166Y-56338011D01*
X44254602Y-56299106D01*
X44254600Y-56299086D01*
X44253999Y-56293203D01*
X44198814Y-56126666D01*
X44198810Y-56126659D01*
X44102985Y-55971301D01*
X44084545Y-55903909D01*
X44105468Y-55837245D01*
X44120841Y-55818526D01*
X44131712Y-55807656D01*
X44223814Y-55658334D01*
X44278999Y-55491797D01*
X44289500Y-55389009D01*
X44289499Y-54338992D01*
X44286342Y-54308091D01*
X44278999Y-54236203D01*
X44278998Y-54236200D01*
X44261131Y-54182282D01*
X44223814Y-54069666D01*
X44223809Y-54069659D01*
X44220762Y-54063122D01*
X44222364Y-54062374D01*
X44206500Y-54006430D01*
X44206500Y-53964500D01*
X44226185Y-53897461D01*
X44278989Y-53851706D01*
X44330500Y-53840500D01*
X45504904Y-53840500D01*
X45571943Y-53860185D01*
G37*
%TD.AperFunction*%
%TA.AperFunction,Conductor*%
G36*
X72250215Y-49028718D02*
G01*
X72289094Y-49042066D01*
X72396565Y-49078961D01*
X72396886Y-49079071D01*
X72642165Y-49120000D01*
X72890835Y-49120000D01*
X73136114Y-49079071D01*
X73282784Y-49028718D01*
X73323047Y-49022000D01*
X75999734Y-49022000D01*
X76066773Y-49041685D01*
X76074038Y-49046729D01*
X76084689Y-49054702D01*
X76096167Y-49063295D01*
X76096171Y-49063297D01*
X76231017Y-49113591D01*
X76231016Y-49113591D01*
X76237944Y-49114335D01*
X76290627Y-49120000D01*
X77534804Y-49119999D01*
X77601843Y-49139684D01*
X77647598Y-49192487D01*
X77657542Y-49261646D01*
X77628517Y-49325202D01*
X77622485Y-49331680D01*
X77452985Y-49501181D01*
X77391662Y-49534666D01*
X77365304Y-49537500D01*
X77197074Y-49537500D01*
X77131976Y-49519038D01*
X77115697Y-49508997D01*
X77052196Y-49487955D01*
X76954709Y-49455651D01*
X76855346Y-49445500D01*
X76308662Y-49445500D01*
X76308644Y-49445501D01*
X76209292Y-49455650D01*
X76209289Y-49455651D01*
X76048305Y-49508996D01*
X76048294Y-49509001D01*
X75903959Y-49598029D01*
X75903955Y-49598032D01*
X75784032Y-49717955D01*
X75784029Y-49717959D01*
X75695001Y-49862294D01*
X75694996Y-49862305D01*
X75641651Y-50023290D01*
X75631500Y-50122647D01*
X75631500Y-50186806D01*
X75626161Y-50222801D01*
X75588091Y-50348300D01*
X75571824Y-50513465D01*
X75568620Y-50546000D01*
X75568761Y-50547431D01*
X75588091Y-50743699D01*
X75626161Y-50869201D01*
X75631500Y-50905193D01*
X75631500Y-50969335D01*
X75631501Y-50969356D01*
X75641650Y-51068707D01*
X75641651Y-51068710D01*
X75694996Y-51229694D01*
X75695001Y-51229705D01*
X75784029Y-51374040D01*
X75784032Y-51374044D01*
X75903956Y-51493968D01*
X75942855Y-51517961D01*
X75989580Y-51569909D01*
X76000803Y-51638871D01*
X75972959Y-51702954D01*
X75914891Y-51741810D01*
X75877760Y-51747500D01*
X75699999Y-51747500D01*
X75699980Y-51747501D01*
X75597203Y-51758000D01*
X75597200Y-51758001D01*
X75430668Y-51813185D01*
X75430663Y-51813187D01*
X75281342Y-51905289D01*
X75157289Y-52029342D01*
X75065187Y-52178663D01*
X75065186Y-52178666D01*
X75010001Y-52345203D01*
X75010001Y-52345204D01*
X75010000Y-52345204D01*
X74999500Y-52447983D01*
X74999500Y-53248001D01*
X74999501Y-53248019D01*
X75010000Y-53350796D01*
X75010001Y-53350799D01*
X75065185Y-53517331D01*
X75065187Y-53517336D01*
X75079269Y-53540167D01*
X75145815Y-53648056D01*
X75157289Y-53666657D01*
X75250951Y-53760319D01*
X75284436Y-53821642D01*
X75279452Y-53891334D01*
X75250951Y-53935681D01*
X75157289Y-54029342D01*
X75065187Y-54178663D01*
X75065185Y-54178668D01*
X75058171Y-54199836D01*
X75010001Y-54345203D01*
X75010001Y-54345204D01*
X75010000Y-54345204D01*
X74999500Y-54447983D01*
X74999500Y-55248001D01*
X74999501Y-55248019D01*
X75010000Y-55350796D01*
X75010001Y-55350799D01*
X75048988Y-55468452D01*
X75065186Y-55517334D01*
X75113991Y-55596460D01*
X75132431Y-55663852D01*
X75111508Y-55730515D01*
X75057866Y-55775285D01*
X74988536Y-55783946D01*
X74964013Y-55776626D01*
X74963975Y-55776745D01*
X74959062Y-55775148D01*
X74958024Y-55774839D01*
X74957795Y-55774737D01*
X74957791Y-55774736D01*
X74889543Y-55760229D01*
X74828062Y-55727036D01*
X74827644Y-55726620D01*
X74400019Y-55298995D01*
X74366534Y-55237672D01*
X74363700Y-55211314D01*
X74363700Y-52102192D01*
X74380313Y-52040192D01*
X74382383Y-52036607D01*
X74442258Y-51932901D01*
X74501168Y-51751594D01*
X74521095Y-51562000D01*
X74501168Y-51372406D01*
X74459046Y-51242768D01*
X74442260Y-51191104D01*
X74442257Y-51191098D01*
X74346939Y-51026002D01*
X74291083Y-50963968D01*
X74219382Y-50884334D01*
X74219379Y-50884332D01*
X74219378Y-50884331D01*
X74219377Y-50884330D01*
X74103307Y-50800000D01*
X74065147Y-50772275D01*
X73890995Y-50694737D01*
X73890990Y-50694735D01*
X73704519Y-50655100D01*
X73513881Y-50655100D01*
X73327409Y-50694735D01*
X73327404Y-50694737D01*
X73153253Y-50772275D01*
X73153248Y-50772278D01*
X72999023Y-50884328D01*
X72999022Y-50884329D01*
X72871465Y-51025996D01*
X72871460Y-51026003D01*
X72846038Y-51070035D01*
X72795470Y-51118250D01*
X72726863Y-51131471D01*
X72683002Y-51118844D01*
X72649812Y-51102176D01*
X72643031Y-51099708D01*
X72643049Y-51099658D01*
X72635807Y-51097141D01*
X72635791Y-51097191D01*
X72628938Y-51094920D01*
X72555088Y-51079671D01*
X72551567Y-51078891D01*
X72478181Y-51061498D01*
X72471014Y-51060661D01*
X72471020Y-51060607D01*
X72463405Y-51059829D01*
X72463401Y-51059883D01*
X72456210Y-51059253D01*
X72380804Y-51061448D01*
X72377198Y-51061500D01*
X70521739Y-51061500D01*
X70495958Y-51058790D01*
X70326319Y-51022732D01*
X70135681Y-51022732D01*
X69949209Y-51062367D01*
X69949204Y-51062369D01*
X69775053Y-51139907D01*
X69729718Y-51172845D01*
X69663911Y-51196324D01*
X69595857Y-51180498D01*
X69569156Y-51160210D01*
X69490865Y-51081919D01*
X69486443Y-51079304D01*
X69378884Y-51015694D01*
X69349398Y-50998256D01*
X69349397Y-50998255D01*
X69349396Y-50998255D01*
X69349393Y-50998254D01*
X69191573Y-50952402D01*
X69191567Y-50952401D01*
X69154701Y-50949500D01*
X69154694Y-50949500D01*
X68095437Y-50949500D01*
X68028398Y-50929815D01*
X67982643Y-50877011D01*
X67972699Y-50807853D01*
X67986078Y-50767048D01*
X67986876Y-50765552D01*
X67989041Y-50761504D01*
X67996170Y-50738003D01*
X68034468Y-50679565D01*
X68098281Y-50651109D01*
X68114830Y-50650000D01*
X68251500Y-50650000D01*
X68251500Y-50100000D01*
X68751500Y-50100000D01*
X68751500Y-50650000D01*
X69154634Y-50650000D01*
X69154649Y-50649999D01*
X69191489Y-50647100D01*
X69191495Y-50647099D01*
X69349193Y-50601283D01*
X69349196Y-50601282D01*
X69490552Y-50517685D01*
X69490561Y-50517678D01*
X69606678Y-50401561D01*
X69606685Y-50401552D01*
X69690281Y-50260198D01*
X69736100Y-50102486D01*
X69736295Y-50100001D01*
X69736295Y-50100000D01*
X68751500Y-50100000D01*
X68251500Y-50100000D01*
X68251500Y-49724000D01*
X68271185Y-49656961D01*
X68323989Y-49611206D01*
X68375500Y-49600000D01*
X69736295Y-49600000D01*
X69736295Y-49599998D01*
X69736100Y-49597513D01*
X69690281Y-49439801D01*
X69606685Y-49298447D01*
X69606678Y-49298438D01*
X69541921Y-49233681D01*
X69508436Y-49172358D01*
X69513420Y-49102666D01*
X69555292Y-49046733D01*
X69620756Y-49022316D01*
X69629602Y-49022000D01*
X72209953Y-49022000D01*
X72250215Y-49028718D01*
G37*
%TD.AperFunction*%
%TA.AperFunction,Conductor*%
G36*
X56310893Y-52590185D02*
G01*
X56331535Y-52606819D01*
X56922535Y-53197819D01*
X56956020Y-53259142D01*
X56951036Y-53328834D01*
X56909164Y-53384767D01*
X56843700Y-53409184D01*
X56834856Y-53409500D01*
X56765999Y-53409500D01*
X56765980Y-53409501D01*
X56663203Y-53420000D01*
X56663198Y-53420001D01*
X56628980Y-53431340D01*
X56559152Y-53433740D01*
X56499111Y-53398007D01*
X56472273Y-53352637D01*
X56415358Y-53180880D01*
X56415356Y-53180875D01*
X56323315Y-53031654D01*
X56199345Y-52907684D01*
X56050124Y-52815643D01*
X56050117Y-52815640D01*
X56039752Y-52812206D01*
X55982307Y-52772434D01*
X55955483Y-52707918D01*
X55967798Y-52639143D01*
X56015340Y-52587942D01*
X56078755Y-52570500D01*
X56243854Y-52570500D01*
X56310893Y-52590185D01*
G37*
%TD.AperFunction*%
%TA.AperFunction,Conductor*%
G36*
X83077036Y-50609424D02*
G01*
X83208426Y-50647597D01*
X83208429Y-50647597D01*
X83208431Y-50647598D01*
X83245306Y-50650500D01*
X84411500Y-50650500D01*
X84478539Y-50670185D01*
X84524294Y-50722989D01*
X84535500Y-50774500D01*
X84535500Y-50826000D01*
X84515815Y-50893039D01*
X84463011Y-50938794D01*
X84411500Y-50950000D01*
X84148500Y-50950000D01*
X84148500Y-51876000D01*
X84128815Y-51943039D01*
X84076011Y-51988794D01*
X84024500Y-52000000D01*
X82663705Y-52000000D01*
X82663704Y-52000001D01*
X82663899Y-52002486D01*
X82709718Y-52160198D01*
X82762447Y-52249358D01*
X82779630Y-52317082D01*
X82757470Y-52383345D01*
X82703004Y-52427108D01*
X82699049Y-52428661D01*
X82653334Y-52445712D01*
X82583642Y-52450696D01*
X82566668Y-52445712D01*
X82497485Y-52419909D01*
X82497483Y-52419908D01*
X82437883Y-52413501D01*
X82437881Y-52413500D01*
X82437873Y-52413500D01*
X82437865Y-52413500D01*
X81804952Y-52413500D01*
X81737913Y-52393815D01*
X81692158Y-52341011D01*
X81681631Y-52302462D01*
X81681569Y-52301870D01*
X81663968Y-52134406D01*
X81618835Y-51995500D01*
X81605060Y-51953104D01*
X81602417Y-51947169D01*
X81604649Y-51946174D01*
X81590769Y-51889011D01*
X81613607Y-51822979D01*
X81649528Y-51789350D01*
X81798653Y-51697369D01*
X81996024Y-51499998D01*
X82663704Y-51499998D01*
X82663705Y-51500000D01*
X83648500Y-51500000D01*
X83648500Y-50950000D01*
X83245350Y-50950000D01*
X83208510Y-50952899D01*
X83208504Y-50952900D01*
X83050806Y-50998716D01*
X83050803Y-50998717D01*
X82909447Y-51082314D01*
X82909438Y-51082321D01*
X82793321Y-51198438D01*
X82793314Y-51198447D01*
X82709718Y-51339801D01*
X82663899Y-51497513D01*
X82663704Y-51499998D01*
X81996024Y-51499998D01*
X82855203Y-50640819D01*
X82916526Y-50607334D01*
X82942884Y-50604500D01*
X83042441Y-50604500D01*
X83077036Y-50609424D01*
G37*
%TD.AperFunction*%
%TA.AperFunction,Conductor*%
G36*
X46602773Y-49041685D02*
G01*
X46610038Y-49046729D01*
X46620689Y-49054702D01*
X46632167Y-49063295D01*
X46632171Y-49063297D01*
X46767017Y-49113591D01*
X46767016Y-49113591D01*
X46773944Y-49114335D01*
X46826627Y-49120000D01*
X48115899Y-49119999D01*
X48182937Y-49139684D01*
X48228692Y-49192487D01*
X48238636Y-49261646D01*
X48209611Y-49325202D01*
X48203580Y-49331679D01*
X48170822Y-49364437D01*
X48170814Y-49364447D01*
X48087218Y-49505801D01*
X48041399Y-49663513D01*
X48041204Y-49665998D01*
X48041205Y-49666000D01*
X49402000Y-49666000D01*
X49469039Y-49685685D01*
X49514794Y-49738489D01*
X49526000Y-49790000D01*
X49526000Y-50716000D01*
X49929134Y-50716000D01*
X49929149Y-50715999D01*
X49965989Y-50713100D01*
X49965992Y-50713099D01*
X50080787Y-50679748D01*
X50150657Y-50679947D01*
X50209327Y-50717889D01*
X50238171Y-50781527D01*
X50238741Y-50786222D01*
X50241651Y-50814708D01*
X50241651Y-50814711D01*
X50269415Y-50898496D01*
X50271817Y-50968325D01*
X50236085Y-51028367D01*
X50173564Y-51059559D01*
X50151709Y-51061500D01*
X50132059Y-51061500D01*
X50097464Y-51056576D01*
X49966073Y-51018402D01*
X49966067Y-51018401D01*
X49929201Y-51015500D01*
X49929194Y-51015500D01*
X48763000Y-51015500D01*
X48695961Y-50995815D01*
X48650206Y-50943011D01*
X48639000Y-50891500D01*
X48639000Y-50840000D01*
X48658685Y-50772961D01*
X48711489Y-50727206D01*
X48763000Y-50716000D01*
X49026000Y-50716000D01*
X49026000Y-50166000D01*
X48370315Y-50166000D01*
X48307194Y-50148732D01*
X48303094Y-50146307D01*
X48248898Y-50114256D01*
X48248897Y-50114255D01*
X48248896Y-50114255D01*
X48248893Y-50114254D01*
X48091073Y-50068402D01*
X48091067Y-50068401D01*
X48051767Y-50065309D01*
X48051832Y-50064480D01*
X47988730Y-50043225D01*
X47981151Y-50037477D01*
X47964006Y-50023406D01*
X47964002Y-50023403D01*
X47788808Y-49929760D01*
X47666462Y-49892647D01*
X47598701Y-49872092D01*
X47598699Y-49872091D01*
X47598701Y-49872091D01*
X47484336Y-49860827D01*
X47450547Y-49857500D01*
X47450544Y-49857500D01*
X46255096Y-49857500D01*
X46188057Y-49837815D01*
X46167415Y-49821181D01*
X45964464Y-49618230D01*
X45956291Y-49609213D01*
X45928567Y-49575430D01*
X45775005Y-49449405D01*
X45774998Y-49449401D01*
X45599805Y-49355759D01*
X45409703Y-49298091D01*
X45277900Y-49285110D01*
X45212000Y-49278620D01*
X45211999Y-49278620D01*
X45168511Y-49282903D01*
X45156358Y-49283500D01*
X44937074Y-49283500D01*
X44871975Y-49265037D01*
X44850089Y-49251537D01*
X44803366Y-49199589D01*
X44792145Y-49130626D01*
X44819989Y-49066544D01*
X44878059Y-49027689D01*
X44915188Y-49022000D01*
X46535734Y-49022000D01*
X46602773Y-49041685D01*
G37*
%TD.AperFunction*%
%TA.AperFunction,Conductor*%
G36*
X57280437Y-49041685D02*
G01*
X57326192Y-49094489D01*
X57336136Y-49163647D01*
X57307111Y-49227203D01*
X57301079Y-49233681D01*
X57236321Y-49298438D01*
X57236314Y-49298447D01*
X57152718Y-49439801D01*
X57106899Y-49597513D01*
X57106704Y-49599998D01*
X57106705Y-49600000D01*
X58467500Y-49600000D01*
X58534539Y-49619685D01*
X58580294Y-49672489D01*
X58591500Y-49724000D01*
X58591500Y-50650000D01*
X58994634Y-50650000D01*
X58994649Y-50649999D01*
X59031489Y-50647100D01*
X59031495Y-50647099D01*
X59158905Y-50610083D01*
X59228774Y-50610282D01*
X59287444Y-50648224D01*
X59316288Y-50711862D01*
X59317500Y-50729159D01*
X59317500Y-50849544D01*
X59318392Y-50858608D01*
X59305368Y-50927253D01*
X59257300Y-50977960D01*
X59189447Y-50994629D01*
X59160393Y-50989829D01*
X59031573Y-50952402D01*
X59031567Y-50952401D01*
X58994701Y-50949500D01*
X58994694Y-50949500D01*
X57828500Y-50949500D01*
X57761461Y-50929815D01*
X57715706Y-50877011D01*
X57704500Y-50825500D01*
X57704500Y-50774000D01*
X57724185Y-50706961D01*
X57776989Y-50661206D01*
X57828500Y-50650000D01*
X58091500Y-50650000D01*
X58091500Y-50100000D01*
X57435815Y-50100000D01*
X57372694Y-50082732D01*
X57314396Y-50048255D01*
X57314393Y-50048254D01*
X57156573Y-50002402D01*
X57156567Y-50002401D01*
X57117267Y-49999309D01*
X57117332Y-49998480D01*
X57054230Y-49977225D01*
X57046651Y-49971477D01*
X57029506Y-49957406D01*
X57029502Y-49957403D01*
X56854308Y-49863760D01*
X56713943Y-49821181D01*
X56664201Y-49806092D01*
X56664199Y-49806091D01*
X56664201Y-49806091D01*
X56549836Y-49794827D01*
X56516047Y-49791500D01*
X56516044Y-49791500D01*
X55519249Y-49791500D01*
X55452210Y-49771815D01*
X55406455Y-49719011D01*
X55401543Y-49706504D01*
X55400840Y-49704381D01*
X55369003Y-49608303D01*
X55368999Y-49608297D01*
X55368998Y-49608294D01*
X55279970Y-49463959D01*
X55279967Y-49463955D01*
X55160044Y-49344032D01*
X55160040Y-49344029D01*
X55010090Y-49251538D01*
X54963365Y-49199590D01*
X54952144Y-49130628D01*
X54979987Y-49066546D01*
X55038056Y-49027690D01*
X55075187Y-49022000D01*
X57213398Y-49022000D01*
X57280437Y-49041685D01*
G37*
%TD.AperFunction*%
%TD*%
M02*
