<?xml version="1.0" standalone="no"?>
 <!DOCTYPE svg PUBLIC "-//W3C//DTD SVG 1.1//EN" 
 "http://www.w3.org/Graphics/SVG/1.1/DTD/svg11.dtd"> 
<svg
  xmlns:svg="http://www.w3.org/2000/svg"
  xmlns="http://www.w3.org/2000/svg"
  xmlns:xlink="http://www.w3.org/1999/xlink"
  version="1.1"
  width="297.0022mm" height="210.0072mm" viewBox="0.0000 0.0000 297.0022 210.0072">
<title>SVG Image created as ParaPRZEKAZNIK-NPTH-drl_map.svg date 2025/07/11 21:35:38 </title>
  <desc>Image generated by PCBNEW </desc>
<g style="fill:#000000; fill-opacity:1.0000;stroke:#000000; stroke-opacity:1.0000;
stroke-linecap:round; stroke-linejoin:round;"
 transform="translate(0 0) scale(1 1)">
</g>
<g style="fill:#000000; fill-opacity:0.0; 
stroke:#000000; stroke-width:0.0000; stroke-opacity:1; 
stroke-linecap:round; stroke-linejoin:round;">
</g>
<g style="fill:#000000; fill-opacity:0.0; 
stroke:#000000; stroke-width:0.2315; stroke-opacity:1; 
stroke-linecap:round; stroke-linejoin:round;">
<path d="M235.3307 5.1158
L61.6715 5.1158
" />
<path d="M61.6715 120.8885
L235.3307 120.8885
" />
<path d="M235.3307 120.8885
L235.3307 5.1158
" />
<path d="M61.6715 5.1158
L61.6715 120.8885
" />
</g>
<g style="fill:#000000; fill-opacity:0.0; 
stroke:#000000; stroke-width:0.4631; stroke-opacity:1; 
stroke-linecap:round; stroke-linejoin:round;">
</g>
<g style="fill:#000000; fill-opacity:0.0; 
stroke:#000000; stroke-width:0.7988; stroke-opacity:1; 
stroke-linecap:round; stroke-linejoin:round;">
<path d="M137.5756 96.9027
L145.5639 104.8911
" />
<path d="M145.5639 96.9027
L137.5756 104.8911
" />
<path d="M164.0413 96.9027
L172.0296 104.8911
" />
<path d="M172.0296 96.9027
L164.0413 104.8911
" />
</g>
<g style="fill:#000000; fill-opacity:0.0; 
stroke:#000000; stroke-width:0.4631; stroke-opacity:1; 
stroke-linecap:round; stroke-linejoin:round;">
</g>
<g style="fill:#000000; fill-opacity:0.0; 
stroke:#000000; stroke-width:0.2000; stroke-opacity:1; 
stroke-linecap:round; stroke-linejoin:round;">
<text x="63.5557" y="124.2043"
textLength="14.8667" font-size="2.6667" lengthAdjust="spacingAndGlyphs"
text-anchor="start" opacity="0">Drill Map:</text>
<g class="stroked-text"><desc>Drill Map:</desc>
<path d="M64.1635 124.1192
L64.1635 122.1192
" />
<path d="M64.1635 122.1192
L64.6397 122.1192
" />
<path d="M64.6397 122.1192
L64.9254 122.2144
" />
<path d="M64.9254 122.2144
L65.1159 122.4049
" />
<path d="M65.1159 122.4049
L65.2111 122.5953
" />
<path d="M65.2111 122.5953
L65.3064 122.9763
" />
<path d="M65.3064 122.9763
L65.3064 123.2620
" />
<path d="M65.3064 123.2620
L65.2111 123.6430
" />
<path d="M65.2111 123.6430
L65.1159 123.8334
" />
<path d="M65.1159 123.8334
L64.9254 124.0239
" />
<path d="M64.9254 124.0239
L64.6397 124.1192
" />
<path d="M64.6397 124.1192
L64.1635 124.1192
" />
<path d="M66.1635 124.1192
L66.1635 122.7858
" />
<path d="M66.1635 123.1668
L66.2588 122.9763
" />
<path d="M66.2588 122.9763
L66.3540 122.8811
" />
<path d="M66.3540 122.8811
L66.5445 122.7858
" />
<path d="M66.5445 122.7858
L66.7349 122.7858
" />
<path d="M67.4016 124.1192
L67.4016 122.7858
" />
<path d="M67.4016 122.1192
L67.3064 122.2144
" />
<path d="M67.3064 122.2144
L67.4016 122.3096
" />
<path d="M67.4016 122.3096
L67.4968 122.2144
" />
<path d="M67.4968 122.2144
L67.4016 122.1192
" />
<path d="M67.4016 122.1192
L67.4016 122.3096
" />
<path d="M68.6397 124.1192
L68.4492 124.0239
" />
<path d="M68.4492 124.0239
L68.3540 123.8334
" />
<path d="M68.3540 123.8334
L68.3540 122.1192
" />
<path d="M69.6873 124.1192
L69.4968 124.0239
" />
<path d="M69.4968 124.0239
L69.4016 123.8334
" />
<path d="M69.4016 123.8334
L69.4016 122.1192
" />
<path d="M71.9730 124.1192
L71.9730 122.1192
" />
<path d="M71.9730 122.1192
L72.6397 123.5477
" />
<path d="M72.6397 123.5477
L73.3064 122.1192
" />
<path d="M73.3064 122.1192
L73.3064 124.1192
" />
<path d="M75.1159 124.1192
L75.1159 123.0715
" />
<path d="M75.1159 123.0715
L75.0207 122.8811
" />
<path d="M75.0207 122.8811
L74.8302 122.7858
" />
<path d="M74.8302 122.7858
L74.4492 122.7858
" />
<path d="M74.4492 122.7858
L74.2588 122.8811
" />
<path d="M75.1159 124.0239
L74.9254 124.1192
" />
<path d="M74.9254 124.1192
L74.4492 124.1192
" />
<path d="M74.4492 124.1192
L74.2588 124.0239
" />
<path d="M74.2588 124.0239
L74.1635 123.8334
" />
<path d="M74.1635 123.8334
L74.1635 123.6430
" />
<path d="M74.1635 123.6430
L74.2588 123.4525
" />
<path d="M74.2588 123.4525
L74.4492 123.3573
" />
<path d="M74.4492 123.3573
L74.9254 123.3573
" />
<path d="M74.9254 123.3573
L75.1159 123.2620
" />
<path d="M76.0683 122.7858
L76.0683 124.7858
" />
<path d="M76.0683 122.8811
L76.2588 122.7858
" />
<path d="M76.2588 122.7858
L76.6397 122.7858
" />
<path d="M76.6397 122.7858
L76.8302 122.8811
" />
<path d="M76.8302 122.8811
L76.9254 122.9763
" />
<path d="M76.9254 122.9763
L77.0207 123.1668
" />
<path d="M77.0207 123.1668
L77.0207 123.7382
" />
<path d="M77.0207 123.7382
L76.9254 123.9287
" />
<path d="M76.9254 123.9287
L76.8302 124.0239
" />
<path d="M76.8302 124.0239
L76.6397 124.1192
" />
<path d="M76.6397 124.1192
L76.2588 124.1192
" />
<path d="M76.2588 124.1192
L76.0683 124.0239
" />
<path d="M77.8778 123.9287
L77.9730 124.0239
" />
<path d="M77.9730 124.0239
L77.8778 124.1192
" />
<path d="M77.8778 124.1192
L77.7826 124.0239
" />
<path d="M77.7826 124.0239
L77.8778 123.9287
" />
<path d="M77.8778 123.9287
L77.8778 124.1192
" />
<path d="M77.8778 122.8811
L77.9730 122.9763
" />
<path d="M77.9730 122.9763
L77.8778 123.0715
" />
<path d="M77.8778 123.0715
L77.7826 122.9763
" />
<path d="M77.7826 122.9763
L77.8778 122.8811
" />
<path d="M77.8778 122.8811
L77.8778 123.0715
" />
</g></g>
<g style="fill:#000000; fill-opacity:0.0; 
stroke:#000000; stroke-width:0.2315; stroke-opacity:1; 
stroke-linecap:round; stroke-linejoin:round;">
<path d="M59.5557 126.4043
L61.5557 128.4043
" />
<path d="M61.5557 126.4043
L59.5557 128.4043
" />
</g>
<g style="fill:#000000; fill-opacity:0.0; 
stroke:#000000; stroke-width:0.4631; stroke-opacity:1; 
stroke-linecap:round; stroke-linejoin:round;">
</g>
<g style="fill:#000000; fill-opacity:0.0; 
stroke:#000000; stroke-width:0.2000; stroke-opacity:1; 
stroke-linecap:round; stroke-linejoin:round;">
<text x="63.5557" y="128.4043"
textLength="66.6762" font-size="2.6667" lengthAdjust="spacingAndGlyphs"
text-anchor="start" opacity="0">3.450mm / 0.1358" (2 holes) (not plated)</text>
<g class="stroked-text"><desc>3.450mm / 0.1358" (2 holes) (not plated)</desc>
<path d="M63.9730 126.3192
L65.2111 126.3192
" />
<path d="M65.2111 126.3192
L64.5445 127.0811
" />
<path d="M64.5445 127.0811
L64.8302 127.0811
" />
<path d="M64.8302 127.0811
L65.0207 127.1763
" />
<path d="M65.0207 127.1763
L65.1159 127.2715
" />
<path d="M65.1159 127.2715
L65.2111 127.4620
" />
<path d="M65.2111 127.4620
L65.2111 127.9382
" />
<path d="M65.2111 127.9382
L65.1159 128.1287
" />
<path d="M65.1159 128.1287
L65.0207 128.2239
" />
<path d="M65.0207 128.2239
L64.8302 128.3192
" />
<path d="M64.8302 128.3192
L64.2588 128.3192
" />
<path d="M64.2588 128.3192
L64.0683 128.2239
" />
<path d="M64.0683 128.2239
L63.9730 128.1287
" />
<path d="M66.0683 128.1287
L66.1635 128.2239
" />
<path d="M66.1635 128.2239
L66.0683 128.3192
" />
<path d="M66.0683 128.3192
L65.9730 128.2239
" />
<path d="M65.9730 128.2239
L66.0683 128.1287
" />
<path d="M66.0683 128.1287
L66.0683 128.3192
" />
<path d="M67.8778 126.9858
L67.8778 128.3192
" />
<path d="M67.4016 126.2239
L66.9254 127.6525
" />
<path d="M66.9254 127.6525
L68.1635 127.6525
" />
<path d="M69.8778 126.3192
L68.9254 126.3192
" />
<path d="M68.9254 126.3192
L68.8302 127.2715
" />
<path d="M68.8302 127.2715
L68.9254 127.1763
" />
<path d="M68.9254 127.1763
L69.1159 127.0811
" />
<path d="M69.1159 127.0811
L69.5921 127.0811
" />
<path d="M69.5921 127.0811
L69.7826 127.1763
" />
<path d="M69.7826 127.1763
L69.8778 127.2715
" />
<path d="M69.8778 127.2715
L69.9730 127.4620
" />
<path d="M69.9730 127.4620
L69.9730 127.9382
" />
<path d="M69.9730 127.9382
L69.8778 128.1287
" />
<path d="M69.8778 128.1287
L69.7826 128.2239
" />
<path d="M69.7826 128.2239
L69.5921 128.3192
" />
<path d="M69.5921 128.3192
L69.1159 128.3192
" />
<path d="M69.1159 128.3192
L68.9254 128.2239
" />
<path d="M68.9254 128.2239
L68.8302 128.1287
" />
<path d="M71.2111 126.3192
L71.4016 126.3192
" />
<path d="M71.4016 126.3192
L71.5921 126.4144
" />
<path d="M71.5921 126.4144
L71.6873 126.5096
" />
<path d="M71.6873 126.5096
L71.7826 126.7001
" />
<path d="M71.7826 126.7001
L71.8778 127.0811
" />
<path d="M71.8778 127.0811
L71.8778 127.5573
" />
<path d="M71.8778 127.5573
L71.7826 127.9382
" />
<path d="M71.7826 127.9382
L71.6873 128.1287
" />
<path d="M71.6873 128.1287
L71.5921 128.2239
" />
<path d="M71.5921 128.2239
L71.4016 128.3192
" />
<path d="M71.4016 128.3192
L71.2111 128.3192
" />
<path d="M71.2111 128.3192
L71.0207 128.2239
" />
<path d="M71.0207 128.2239
L70.9254 128.1287
" />
<path d="M70.9254 128.1287
L70.8302 127.9382
" />
<path d="M70.8302 127.9382
L70.7349 127.5573
" />
<path d="M70.7349 127.5573
L70.7349 127.0811
" />
<path d="M70.7349 127.0811
L70.8302 126.7001
" />
<path d="M70.8302 126.7001
L70.9254 126.5096
" />
<path d="M70.9254 126.5096
L71.0207 126.4144
" />
<path d="M71.0207 126.4144
L71.2111 126.3192
" />
<path d="M72.7349 128.3192
L72.7349 126.9858
" />
<path d="M72.7349 127.1763
L72.8302 127.0811
" />
<path d="M72.8302 127.0811
L73.0207 126.9858
" />
<path d="M73.0207 126.9858
L73.3064 126.9858
" />
<path d="M73.3064 126.9858
L73.4969 127.0811
" />
<path d="M73.4969 127.0811
L73.5921 127.2715
" />
<path d="M73.5921 127.2715
L73.5921 128.3192
" />
<path d="M73.5921 127.2715
L73.6873 127.0811
" />
<path d="M73.6873 127.0811
L73.8778 126.9858
" />
<path d="M73.8778 126.9858
L74.1635 126.9858
" />
<path d="M74.1635 126.9858
L74.3540 127.0811
" />
<path d="M74.3540 127.0811
L74.4492 127.2715
" />
<path d="M74.4492 127.2715
L74.4492 128.3192
" />
<path d="M75.4016 128.3192
L75.4016 126.9858
" />
<path d="M75.4016 127.1763
L75.4969 127.0811
" />
<path d="M75.4969 127.0811
L75.6873 126.9858
" />
<path d="M75.6873 126.9858
L75.9730 126.9858
" />
<path d="M75.9730 126.9858
L76.1635 127.0811
" />
<path d="M76.1635 127.0811
L76.2588 127.2715
" />
<path d="M76.2588 127.2715
L76.2588 128.3192
" />
<path d="M76.2588 127.2715
L76.3540 127.0811
" />
<path d="M76.3540 127.0811
L76.5445 126.9858
" />
<path d="M76.5445 126.9858
L76.8302 126.9858
" />
<path d="M76.8302 126.9858
L77.0207 127.0811
" />
<path d="M77.0207 127.0811
L77.1159 127.2715
" />
<path d="M77.1159 127.2715
L77.1159 128.3192
" />
<path d="M81.0207 126.2239
L79.3064 128.7953
" />
<path d="M83.5921 126.3192
L83.7826 126.3192
" />
<path d="M83.7826 126.3192
L83.9730 126.4144
" />
<path d="M83.9730 126.4144
L84.0683 126.5096
" />
<path d="M84.0683 126.5096
L84.1635 126.7001
" />
<path d="M84.1635 126.7001
L84.2588 127.0811
" />
<path d="M84.2588 127.0811
L84.2588 127.5573
" />
<path d="M84.2588 127.5573
L84.1635 127.9382
" />
<path d="M84.1635 127.9382
L84.0683 128.1287
" />
<path d="M84.0683 128.1287
L83.9730 128.2239
" />
<path d="M83.9730 128.2239
L83.7826 128.3192
" />
<path d="M83.7826 128.3192
L83.5921 128.3192
" />
<path d="M83.5921 128.3192
L83.4016 128.2239
" />
<path d="M83.4016 128.2239
L83.3064 128.1287
" />
<path d="M83.3064 128.1287
L83.2111 127.9382
" />
<path d="M83.2111 127.9382
L83.1159 127.5573
" />
<path d="M83.1159 127.5573
L83.1159 127.0811
" />
<path d="M83.1159 127.0811
L83.2111 126.7001
" />
<path d="M83.2111 126.7001
L83.3064 126.5096
" />
<path d="M83.3064 126.5096
L83.4016 126.4144
" />
<path d="M83.4016 126.4144
L83.5921 126.3192
" />
<path d="M85.1159 128.1287
L85.2111 128.2239
" />
<path d="M85.2111 128.2239
L85.1159 128.3192
" />
<path d="M85.1159 128.3192
L85.0207 128.2239
" />
<path d="M85.0207 128.2239
L85.1159 128.1287
" />
<path d="M85.1159 128.1287
L85.1159 128.3192
" />
<path d="M87.1159 128.3192
L85.9730 128.3192
" />
<path d="M86.5445 128.3192
L86.5445 126.3192
" />
<path d="M86.5445 126.3192
L86.3540 126.6049
" />
<path d="M86.3540 126.6049
L86.1635 126.7953
" />
<path d="M86.1635 126.7953
L85.9730 126.8906
" />
<path d="M87.7826 126.3192
L89.0207 126.3192
" />
<path d="M89.0207 126.3192
L88.3540 127.0811
" />
<path d="M88.3540 127.0811
L88.6397 127.0811
" />
<path d="M88.6397 127.0811
L88.8302 127.1763
" />
<path d="M88.8302 127.1763
L88.9254 127.2715
" />
<path d="M88.9254 127.2715
L89.0207 127.4620
" />
<path d="M89.0207 127.4620
L89.0207 127.9382
" />
<path d="M89.0207 127.9382
L88.9254 128.1287
" />
<path d="M88.9254 128.1287
L88.8302 128.2239
" />
<path d="M88.8302 128.2239
L88.6397 128.3192
" />
<path d="M88.6397 128.3192
L88.0683 128.3192
" />
<path d="M88.0683 128.3192
L87.8778 128.2239
" />
<path d="M87.8778 128.2239
L87.7826 128.1287
" />
<path d="M90.8302 126.3192
L89.8778 126.3192
" />
<path d="M89.8778 126.3192
L89.7826 127.2715
" />
<path d="M89.7826 127.2715
L89.8778 127.1763
" />
<path d="M89.8778 127.1763
L90.0683 127.0811
" />
<path d="M90.0683 127.0811
L90.5445 127.0811
" />
<path d="M90.5445 127.0811
L90.7350 127.1763
" />
<path d="M90.7350 127.1763
L90.8302 127.2715
" />
<path d="M90.8302 127.2715
L90.9254 127.4620
" />
<path d="M90.9254 127.4620
L90.9254 127.9382
" />
<path d="M90.9254 127.9382
L90.8302 128.1287
" />
<path d="M90.8302 128.1287
L90.7350 128.2239
" />
<path d="M90.7350 128.2239
L90.5445 128.3192
" />
<path d="M90.5445 128.3192
L90.0683 128.3192
" />
<path d="M90.0683 128.3192
L89.8778 128.2239
" />
<path d="M89.8778 128.2239
L89.7826 128.1287
" />
<path d="M92.0683 127.1763
L91.8778 127.0811
" />
<path d="M91.8778 127.0811
L91.7826 126.9858
" />
<path d="M91.7826 126.9858
L91.6873 126.7953
" />
<path d="M91.6873 126.7953
L91.6873 126.7001
" />
<path d="M91.6873 126.7001
L91.7826 126.5096
" />
<path d="M91.7826 126.5096
L91.8778 126.4144
" />
<path d="M91.8778 126.4144
L92.0683 126.3192
" />
<path d="M92.0683 126.3192
L92.4492 126.3192
" />
<path d="M92.4492 126.3192
L92.6397 126.4144
" />
<path d="M92.6397 126.4144
L92.7350 126.5096
" />
<path d="M92.7350 126.5096
L92.8302 126.7001
" />
<path d="M92.8302 126.7001
L92.8302 126.7953
" />
<path d="M92.8302 126.7953
L92.7350 126.9858
" />
<path d="M92.7350 126.9858
L92.6397 127.0811
" />
<path d="M92.6397 127.0811
L92.4492 127.1763
" />
<path d="M92.4492 127.1763
L92.0683 127.1763
" />
<path d="M92.0683 127.1763
L91.8778 127.2715
" />
<path d="M91.8778 127.2715
L91.7826 127.3668
" />
<path d="M91.7826 127.3668
L91.6873 127.5573
" />
<path d="M91.6873 127.5573
L91.6873 127.9382
" />
<path d="M91.6873 127.9382
L91.7826 128.1287
" />
<path d="M91.7826 128.1287
L91.8778 128.2239
" />
<path d="M91.8778 128.2239
L92.0683 128.3192
" />
<path d="M92.0683 128.3192
L92.4492 128.3192
" />
<path d="M92.4492 128.3192
L92.6397 128.2239
" />
<path d="M92.6397 128.2239
L92.7350 128.1287
" />
<path d="M92.7350 128.1287
L92.8302 127.9382
" />
<path d="M92.8302 127.9382
L92.8302 127.5573
" />
<path d="M92.8302 127.5573
L92.7350 127.3668
" />
<path d="M92.7350 127.3668
L92.6397 127.2715
" />
<path d="M92.6397 127.2715
L92.4492 127.1763
" />
<path d="M93.5921 126.3192
L93.5921 126.7001
" />
<path d="M94.3540 126.3192
L94.3540 126.7001
" />
<path d="M97.3064 129.0811
L97.2111 128.9858
" />
<path d="M97.2111 128.9858
L97.0207 128.7001
" />
<path d="M97.0207 128.7001
L96.9254 128.5096
" />
<path d="M96.9254 128.5096
L96.8302 128.2239
" />
<path d="M96.8302 128.2239
L96.7350 127.7477
" />
<path d="M96.7350 127.7477
L96.7350 127.3668
" />
<path d="M96.7350 127.3668
L96.8302 126.8906
" />
<path d="M96.8302 126.8906
L96.9254 126.6049
" />
<path d="M96.9254 126.6049
L97.0207 126.4144
" />
<path d="M97.0207 126.4144
L97.2111 126.1287
" />
<path d="M97.2111 126.1287
L97.3064 126.0334
" />
<path d="M97.9731 126.5096
L98.0683 126.4144
" />
<path d="M98.0683 126.4144
L98.2588 126.3192
" />
<path d="M98.2588 126.3192
L98.7350 126.3192
" />
<path d="M98.7350 126.3192
L98.9254 126.4144
" />
<path d="M98.9254 126.4144
L99.0207 126.5096
" />
<path d="M99.0207 126.5096
L99.1159 126.7001
" />
<path d="M99.1159 126.7001
L99.1159 126.8906
" />
<path d="M99.1159 126.8906
L99.0207 127.1763
" />
<path d="M99.0207 127.1763
L97.8778 128.3192
" />
<path d="M97.8778 128.3192
L99.1159 128.3192
" />
<path d="M101.4969 128.3192
L101.4969 126.3192
" />
<path d="M102.3540 128.3192
L102.3540 127.2715
" />
<path d="M102.3540 127.2715
L102.2588 127.0811
" />
<path d="M102.2588 127.0811
L102.0683 126.9858
" />
<path d="M102.0683 126.9858
L101.7826 126.9858
" />
<path d="M101.7826 126.9858
L101.5921 127.0811
" />
<path d="M101.5921 127.0811
L101.4969 127.1763
" />
<path d="M103.5921 128.3192
L103.4016 128.2239
" />
<path d="M103.4016 128.2239
L103.3064 128.1287
" />
<path d="M103.3064 128.1287
L103.2112 127.9382
" />
<path d="M103.2112 127.9382
L103.2112 127.3668
" />
<path d="M103.2112 127.3668
L103.3064 127.1763
" />
<path d="M103.3064 127.1763
L103.4016 127.0811
" />
<path d="M103.4016 127.0811
L103.5921 126.9858
" />
<path d="M103.5921 126.9858
L103.8778 126.9858
" />
<path d="M103.8778 126.9858
L104.0683 127.0811
" />
<path d="M104.0683 127.0811
L104.1635 127.1763
" />
<path d="M104.1635 127.1763
L104.2588 127.3668
" />
<path d="M104.2588 127.3668
L104.2588 127.9382
" />
<path d="M104.2588 127.9382
L104.1635 128.1287
" />
<path d="M104.1635 128.1287
L104.0683 128.2239
" />
<path d="M104.0683 128.2239
L103.8778 128.3192
" />
<path d="M103.8778 128.3192
L103.5921 128.3192
" />
<path d="M105.4016 128.3192
L105.2112 128.2239
" />
<path d="M105.2112 128.2239
L105.1159 128.0334
" />
<path d="M105.1159 128.0334
L105.1159 126.3192
" />
<path d="M106.9254 128.2239
L106.7350 128.3192
" />
<path d="M106.7350 128.3192
L106.3540 128.3192
" />
<path d="M106.3540 128.3192
L106.1635 128.2239
" />
<path d="M106.1635 128.2239
L106.0683 128.0334
" />
<path d="M106.0683 128.0334
L106.0683 127.2715
" />
<path d="M106.0683 127.2715
L106.1635 127.0811
" />
<path d="M106.1635 127.0811
L106.3540 126.9858
" />
<path d="M106.3540 126.9858
L106.7350 126.9858
" />
<path d="M106.7350 126.9858
L106.9254 127.0811
" />
<path d="M106.9254 127.0811
L107.0207 127.2715
" />
<path d="M107.0207 127.2715
L107.0207 127.4620
" />
<path d="M107.0207 127.4620
L106.0683 127.6525
" />
<path d="M107.7826 128.2239
L107.9731 128.3192
" />
<path d="M107.9731 128.3192
L108.3540 128.3192
" />
<path d="M108.3540 128.3192
L108.5445 128.2239
" />
<path d="M108.5445 128.2239
L108.6397 128.0334
" />
<path d="M108.6397 128.0334
L108.6397 127.9382
" />
<path d="M108.6397 127.9382
L108.5445 127.7477
" />
<path d="M108.5445 127.7477
L108.3540 127.6525
" />
<path d="M108.3540 127.6525
L108.0683 127.6525
" />
<path d="M108.0683 127.6525
L107.8778 127.5573
" />
<path d="M107.8778 127.5573
L107.7826 127.3668
" />
<path d="M107.7826 127.3668
L107.7826 127.2715
" />
<path d="M107.7826 127.2715
L107.8778 127.0811
" />
<path d="M107.8778 127.0811
L108.0683 126.9858
" />
<path d="M108.0683 126.9858
L108.3540 126.9858
" />
<path d="M108.3540 126.9858
L108.5445 127.0811
" />
<path d="M109.3064 129.0811
L109.4016 128.9858
" />
<path d="M109.4016 128.9858
L109.5921 128.7001
" />
<path d="M109.5921 128.7001
L109.6873 128.5096
" />
<path d="M109.6873 128.5096
L109.7826 128.2239
" />
<path d="M109.7826 128.2239
L109.8778 127.7477
" />
<path d="M109.8778 127.7477
L109.8778 127.3668
" />
<path d="M109.8778 127.3668
L109.7826 126.8906
" />
<path d="M109.7826 126.8906
L109.6873 126.6049
" />
<path d="M109.6873 126.6049
L109.5921 126.4144
" />
<path d="M109.5921 126.4144
L109.4016 126.1287
" />
<path d="M109.4016 126.1287
L109.3064 126.0334
" />
<path d="M112.9254 129.0811
L112.8302 128.9858
" />
<path d="M112.8302 128.9858
L112.6397 128.7001
" />
<path d="M112.6397 128.7001
L112.5445 128.5096
" />
<path d="M112.5445 128.5096
L112.4492 128.2239
" />
<path d="M112.4492 128.2239
L112.3540 127.7477
" />
<path d="M112.3540 127.7477
L112.3540 127.3668
" />
<path d="M112.3540 127.3668
L112.4492 126.8906
" />
<path d="M112.4492 126.8906
L112.5445 126.6049
" />
<path d="M112.5445 126.6049
L112.6397 126.4144
" />
<path d="M112.6397 126.4144
L112.8302 126.1287
" />
<path d="M112.8302 126.1287
L112.9254 126.0334
" />
<path d="M113.6873 126.9858
L113.6873 128.3192
" />
<path d="M113.6873 127.1763
L113.7826 127.0811
" />
<path d="M113.7826 127.0811
L113.9731 126.9858
" />
<path d="M113.9731 126.9858
L114.2588 126.9858
" />
<path d="M114.2588 126.9858
L114.4493 127.0811
" />
<path d="M114.4493 127.0811
L114.5445 127.2715
" />
<path d="M114.5445 127.2715
L114.5445 128.3192
" />
<path d="M115.7826 128.3192
L115.5921 128.2239
" />
<path d="M115.5921 128.2239
L115.4969 128.1287
" />
<path d="M115.4969 128.1287
L115.4016 127.9382
" />
<path d="M115.4016 127.9382
L115.4016 127.3668
" />
<path d="M115.4016 127.3668
L115.4969 127.1763
" />
<path d="M115.4969 127.1763
L115.5921 127.0811
" />
<path d="M115.5921 127.0811
L115.7826 126.9858
" />
<path d="M115.7826 126.9858
L116.0683 126.9858
" />
<path d="M116.0683 126.9858
L116.2588 127.0811
" />
<path d="M116.2588 127.0811
L116.3540 127.1763
" />
<path d="M116.3540 127.1763
L116.4493 127.3668
" />
<path d="M116.4493 127.3668
L116.4493 127.9382
" />
<path d="M116.4493 127.9382
L116.3540 128.1287
" />
<path d="M116.3540 128.1287
L116.2588 128.2239
" />
<path d="M116.2588 128.2239
L116.0683 128.3192
" />
<path d="M116.0683 128.3192
L115.7826 128.3192
" />
<path d="M117.0207 126.9858
L117.7826 126.9858
" />
<path d="M117.3064 126.3192
L117.3064 128.0334
" />
<path d="M117.3064 128.0334
L117.4016 128.2239
" />
<path d="M117.4016 128.2239
L117.5921 128.3192
" />
<path d="M117.5921 128.3192
L117.7826 128.3192
" />
<path d="M119.9731 126.9858
L119.9731 128.9858
" />
<path d="M119.9731 127.0811
L120.1635 126.9858
" />
<path d="M120.1635 126.9858
L120.5445 126.9858
" />
<path d="M120.5445 126.9858
L120.7350 127.0811
" />
<path d="M120.7350 127.0811
L120.8302 127.1763
" />
<path d="M120.8302 127.1763
L120.9254 127.3668
" />
<path d="M120.9254 127.3668
L120.9254 127.9382
" />
<path d="M120.9254 127.9382
L120.8302 128.1287
" />
<path d="M120.8302 128.1287
L120.7350 128.2239
" />
<path d="M120.7350 128.2239
L120.5445 128.3192
" />
<path d="M120.5445 128.3192
L120.1635 128.3192
" />
<path d="M120.1635 128.3192
L119.9731 128.2239
" />
<path d="M122.0683 128.3192
L121.8778 128.2239
" />
<path d="M121.8778 128.2239
L121.7826 128.0334
" />
<path d="M121.7826 128.0334
L121.7826 126.3192
" />
<path d="M123.6873 128.3192
L123.6873 127.2715
" />
<path d="M123.6873 127.2715
L123.5921 127.0811
" />
<path d="M123.5921 127.0811
L123.4016 126.9858
" />
<path d="M123.4016 126.9858
L123.0207 126.9858
" />
<path d="M123.0207 126.9858
L122.8302 127.0811
" />
<path d="M123.6873 128.2239
L123.4969 128.3192
" />
<path d="M123.4969 128.3192
L123.0207 128.3192
" />
<path d="M123.0207 128.3192
L122.8302 128.2239
" />
<path d="M122.8302 128.2239
L122.7350 128.0334
" />
<path d="M122.7350 128.0334
L122.7350 127.8430
" />
<path d="M122.7350 127.8430
L122.8302 127.6525
" />
<path d="M122.8302 127.6525
L123.0207 127.5573
" />
<path d="M123.0207 127.5573
L123.4969 127.5573
" />
<path d="M123.4969 127.5573
L123.6873 127.4620
" />
<path d="M124.3540 126.9858
L125.1159 126.9858
" />
<path d="M124.6397 126.3192
L124.6397 128.0334
" />
<path d="M124.6397 128.0334
L124.7350 128.2239
" />
<path d="M124.7350 128.2239
L124.9254 128.3192
" />
<path d="M124.9254 128.3192
L125.1159 128.3192
" />
<path d="M126.5445 128.2239
L126.3540 128.3192
" />
<path d="M126.3540 128.3192
L125.9731 128.3192
" />
<path d="M125.9731 128.3192
L125.7826 128.2239
" />
<path d="M125.7826 128.2239
L125.6873 128.0334
" />
<path d="M125.6873 128.0334
L125.6873 127.2715
" />
<path d="M125.6873 127.2715
L125.7826 127.0811
" />
<path d="M125.7826 127.0811
L125.9731 126.9858
" />
<path d="M125.9731 126.9858
L126.3540 126.9858
" />
<path d="M126.3540 126.9858
L126.5445 127.0811
" />
<path d="M126.5445 127.0811
L126.6397 127.2715
" />
<path d="M126.6397 127.2715
L126.6397 127.4620
" />
<path d="M126.6397 127.4620
L125.6873 127.6525
" />
<path d="M128.3540 128.3192
L128.3540 126.3192
" />
<path d="M128.3540 128.2239
L128.1635 128.3192
" />
<path d="M128.1635 128.3192
L127.7826 128.3192
" />
<path d="M127.7826 128.3192
L127.5921 128.2239
" />
<path d="M127.5921 128.2239
L127.4969 128.1287
" />
<path d="M127.4969 128.1287
L127.4016 127.9382
" />
<path d="M127.4016 127.9382
L127.4016 127.3668
" />
<path d="M127.4016 127.3668
L127.4969 127.1763
" />
<path d="M127.4969 127.1763
L127.5921 127.0811
" />
<path d="M127.5921 127.0811
L127.7826 126.9858
" />
<path d="M127.7826 126.9858
L128.1635 126.9858
" />
<path d="M128.1635 126.9858
L128.3540 127.0811
" />
<path d="M129.1159 129.0811
L129.2112 128.9858
" />
<path d="M129.2112 128.9858
L129.4016 128.7001
" />
<path d="M129.4016 128.7001
L129.4969 128.5096
" />
<path d="M129.4969 128.5096
L129.5921 128.2239
" />
<path d="M129.5921 128.2239
L129.6873 127.7477
" />
<path d="M129.6873 127.7477
L129.6873 127.3668
" />
<path d="M129.6873 127.3668
L129.5921 126.8906
" />
<path d="M129.5921 126.8906
L129.4969 126.6049
" />
<path d="M129.4969 126.6049
L129.4016 126.4144
" />
<path d="M129.4016 126.4144
L129.2112 126.1287
" />
<path d="M129.2112 126.1287
L129.1159 126.0334
" />
</g></g> 
</svg>
