%TF.GenerationSoftware,KiCad,Pcbnew,7.0.11+dfsg-1build4*%
%TF.CreationDate,2025-07-11T21:35:19+02:00*%
%TF.ProjectId,ParaPRZEKAZNIK,50617261-5052-45a4-954b-415a4e494b2e,rev?*%
%TF.SameCoordinates,Original*%
%TF.FileFunction,Legend,Top*%
%TF.FilePolarity,Positive*%
%FSLAX46Y46*%
G04 Gerber Fmt 4.6, Leading zero omitted, Abs format (unit mm)*
G04 Created by KiCad (PCBNEW 7.0.11+dfsg-1build4) date 2025-07-11 21:35:19*
%MOMM*%
%LPD*%
G01*
G04 APERTURE LIST*
%ADD10C,0.203200*%
%ADD11C,0.152400*%
%ADD12C,0.150000*%
%ADD13C,0.100000*%
%ADD14C,0.120000*%
%ADD15C,3.650000*%
G04 APERTURE END LIST*
D10*
X91368064Y-68946199D02*
X92335684Y-68946199D01*
X91851874Y-69430009D02*
X91851874Y-68462390D01*
X93605684Y-69430009D02*
X92879969Y-69430009D01*
X93242826Y-69430009D02*
X93242826Y-68160009D01*
X93242826Y-68160009D02*
X93121874Y-68341437D01*
X93121874Y-68341437D02*
X93000922Y-68462390D01*
X93000922Y-68462390D02*
X92879969Y-68522866D01*
X94089493Y-68280961D02*
X94149969Y-68220485D01*
X94149969Y-68220485D02*
X94270922Y-68160009D01*
X94270922Y-68160009D02*
X94573303Y-68160009D01*
X94573303Y-68160009D02*
X94694255Y-68220485D01*
X94694255Y-68220485D02*
X94754731Y-68280961D01*
X94754731Y-68280961D02*
X94815208Y-68401913D01*
X94815208Y-68401913D02*
X94815208Y-68522866D01*
X94815208Y-68522866D02*
X94754731Y-68704294D01*
X94754731Y-68704294D02*
X94029017Y-69430009D01*
X94029017Y-69430009D02*
X94815208Y-69430009D01*
X95178065Y-68160009D02*
X95601398Y-69430009D01*
X95601398Y-69430009D02*
X96024732Y-68160009D01*
X100161303Y-68220485D02*
X100040350Y-68160009D01*
X100040350Y-68160009D02*
X99858922Y-68160009D01*
X99858922Y-68160009D02*
X99677493Y-68220485D01*
X99677493Y-68220485D02*
X99556541Y-68341437D01*
X99556541Y-68341437D02*
X99496064Y-68462390D01*
X99496064Y-68462390D02*
X99435588Y-68704294D01*
X99435588Y-68704294D02*
X99435588Y-68885723D01*
X99435588Y-68885723D02*
X99496064Y-69127628D01*
X99496064Y-69127628D02*
X99556541Y-69248580D01*
X99556541Y-69248580D02*
X99677493Y-69369533D01*
X99677493Y-69369533D02*
X99858922Y-69430009D01*
X99858922Y-69430009D02*
X99979874Y-69430009D01*
X99979874Y-69430009D02*
X100161303Y-69369533D01*
X100161303Y-69369533D02*
X100221779Y-69309056D01*
X100221779Y-69309056D02*
X100221779Y-68885723D01*
X100221779Y-68885723D02*
X99979874Y-68885723D01*
X100766064Y-69430009D02*
X100766064Y-68160009D01*
X100766064Y-68160009D02*
X101491779Y-69430009D01*
X101491779Y-69430009D02*
X101491779Y-68160009D01*
X102096540Y-69430009D02*
X102096540Y-68160009D01*
X102096540Y-68160009D02*
X102398921Y-68160009D01*
X102398921Y-68160009D02*
X102580350Y-68220485D01*
X102580350Y-68220485D02*
X102701302Y-68341437D01*
X102701302Y-68341437D02*
X102761779Y-68462390D01*
X102761779Y-68462390D02*
X102822255Y-68704294D01*
X102822255Y-68704294D02*
X102822255Y-68885723D01*
X102822255Y-68885723D02*
X102761779Y-69127628D01*
X102761779Y-69127628D02*
X102701302Y-69248580D01*
X102701302Y-69248580D02*
X102580350Y-69369533D01*
X102580350Y-69369533D02*
X102398921Y-69430009D01*
X102398921Y-69430009D02*
X102096540Y-69430009D01*
X96956064Y-68414009D02*
X96956064Y-67144009D01*
X97560826Y-68414009D02*
X97560826Y-67144009D01*
X97560826Y-67144009D02*
X98286541Y-68414009D01*
X98286541Y-68414009D02*
X98286541Y-67144009D01*
X84352826Y-66128009D02*
X83748064Y-66128009D01*
X83748064Y-66128009D02*
X83748064Y-64858009D01*
X85018064Y-64858009D02*
X85259969Y-64858009D01*
X85259969Y-64858009D02*
X85380921Y-64918485D01*
X85380921Y-64918485D02*
X85501874Y-65039437D01*
X85501874Y-65039437D02*
X85562350Y-65281342D01*
X85562350Y-65281342D02*
X85562350Y-65704675D01*
X85562350Y-65704675D02*
X85501874Y-65946580D01*
X85501874Y-65946580D02*
X85380921Y-66067533D01*
X85380921Y-66067533D02*
X85259969Y-66128009D01*
X85259969Y-66128009D02*
X85018064Y-66128009D01*
X85018064Y-66128009D02*
X84897112Y-66067533D01*
X84897112Y-66067533D02*
X84776159Y-65946580D01*
X84776159Y-65946580D02*
X84715683Y-65704675D01*
X84715683Y-65704675D02*
X84715683Y-65281342D01*
X84715683Y-65281342D02*
X84776159Y-65039437D01*
X84776159Y-65039437D02*
X84897112Y-64918485D01*
X84897112Y-64918485D02*
X85018064Y-64858009D01*
D11*
X65233120Y-79146820D02*
X64979120Y-78783963D01*
X64797691Y-79146820D02*
X64797691Y-78384820D01*
X64797691Y-78384820D02*
X65087977Y-78384820D01*
X65087977Y-78384820D02*
X65160548Y-78421106D01*
X65160548Y-78421106D02*
X65196834Y-78457392D01*
X65196834Y-78457392D02*
X65233120Y-78529963D01*
X65233120Y-78529963D02*
X65233120Y-78638820D01*
X65233120Y-78638820D02*
X65196834Y-78711392D01*
X65196834Y-78711392D02*
X65160548Y-78747677D01*
X65160548Y-78747677D02*
X65087977Y-78783963D01*
X65087977Y-78783963D02*
X64797691Y-78783963D01*
X65523405Y-79110535D02*
X65632263Y-79146820D01*
X65632263Y-79146820D02*
X65813691Y-79146820D01*
X65813691Y-79146820D02*
X65886263Y-79110535D01*
X65886263Y-79110535D02*
X65922548Y-79074249D01*
X65922548Y-79074249D02*
X65958834Y-79001677D01*
X65958834Y-79001677D02*
X65958834Y-78929106D01*
X65958834Y-78929106D02*
X65922548Y-78856535D01*
X65922548Y-78856535D02*
X65886263Y-78820249D01*
X65886263Y-78820249D02*
X65813691Y-78783963D01*
X65813691Y-78783963D02*
X65668548Y-78747677D01*
X65668548Y-78747677D02*
X65595977Y-78711392D01*
X65595977Y-78711392D02*
X65559691Y-78675106D01*
X65559691Y-78675106D02*
X65523405Y-78602535D01*
X65523405Y-78602535D02*
X65523405Y-78529963D01*
X65523405Y-78529963D02*
X65559691Y-78457392D01*
X65559691Y-78457392D02*
X65595977Y-78421106D01*
X65595977Y-78421106D02*
X65668548Y-78384820D01*
X65668548Y-78384820D02*
X65849977Y-78384820D01*
X65849977Y-78384820D02*
X65958834Y-78421106D01*
X66249119Y-78457392D02*
X66285405Y-78421106D01*
X66285405Y-78421106D02*
X66357977Y-78384820D01*
X66357977Y-78384820D02*
X66539405Y-78384820D01*
X66539405Y-78384820D02*
X66611977Y-78421106D01*
X66611977Y-78421106D02*
X66648262Y-78457392D01*
X66648262Y-78457392D02*
X66684548Y-78529963D01*
X66684548Y-78529963D02*
X66684548Y-78602535D01*
X66684548Y-78602535D02*
X66648262Y-78711392D01*
X66648262Y-78711392D02*
X66212834Y-79146820D01*
X66212834Y-79146820D02*
X66684548Y-79146820D01*
X66938548Y-78384820D02*
X67410262Y-78384820D01*
X67410262Y-78384820D02*
X67156262Y-78675106D01*
X67156262Y-78675106D02*
X67265119Y-78675106D01*
X67265119Y-78675106D02*
X67337691Y-78711392D01*
X67337691Y-78711392D02*
X67373976Y-78747677D01*
X67373976Y-78747677D02*
X67410262Y-78820249D01*
X67410262Y-78820249D02*
X67410262Y-79001677D01*
X67410262Y-79001677D02*
X67373976Y-79074249D01*
X67373976Y-79074249D02*
X67337691Y-79110535D01*
X67337691Y-79110535D02*
X67265119Y-79146820D01*
X67265119Y-79146820D02*
X67047405Y-79146820D01*
X67047405Y-79146820D02*
X66974833Y-79110535D01*
X66974833Y-79110535D02*
X66938548Y-79074249D01*
X67700547Y-78457392D02*
X67736833Y-78421106D01*
X67736833Y-78421106D02*
X67809405Y-78384820D01*
X67809405Y-78384820D02*
X67990833Y-78384820D01*
X67990833Y-78384820D02*
X68063405Y-78421106D01*
X68063405Y-78421106D02*
X68099690Y-78457392D01*
X68099690Y-78457392D02*
X68135976Y-78529963D01*
X68135976Y-78529963D02*
X68135976Y-78602535D01*
X68135976Y-78602535D02*
X68099690Y-78711392D01*
X68099690Y-78711392D02*
X67664262Y-79146820D01*
X67664262Y-79146820D02*
X68135976Y-79146820D01*
X69478547Y-79074249D02*
X69442261Y-79110535D01*
X69442261Y-79110535D02*
X69333404Y-79146820D01*
X69333404Y-79146820D02*
X69260832Y-79146820D01*
X69260832Y-79146820D02*
X69151975Y-79110535D01*
X69151975Y-79110535D02*
X69079404Y-79037963D01*
X69079404Y-79037963D02*
X69043118Y-78965392D01*
X69043118Y-78965392D02*
X69006832Y-78820249D01*
X69006832Y-78820249D02*
X69006832Y-78711392D01*
X69006832Y-78711392D02*
X69043118Y-78566249D01*
X69043118Y-78566249D02*
X69079404Y-78493677D01*
X69079404Y-78493677D02*
X69151975Y-78421106D01*
X69151975Y-78421106D02*
X69260832Y-78384820D01*
X69260832Y-78384820D02*
X69333404Y-78384820D01*
X69333404Y-78384820D02*
X69442261Y-78421106D01*
X69442261Y-78421106D02*
X69478547Y-78457392D01*
X69805118Y-79146820D02*
X69805118Y-78638820D01*
X69805118Y-78384820D02*
X69768832Y-78421106D01*
X69768832Y-78421106D02*
X69805118Y-78457392D01*
X69805118Y-78457392D02*
X69841404Y-78421106D01*
X69841404Y-78421106D02*
X69805118Y-78384820D01*
X69805118Y-78384820D02*
X69805118Y-78457392D01*
X70131689Y-79110535D02*
X70204261Y-79146820D01*
X70204261Y-79146820D02*
X70349404Y-79146820D01*
X70349404Y-79146820D02*
X70421975Y-79110535D01*
X70421975Y-79110535D02*
X70458261Y-79037963D01*
X70458261Y-79037963D02*
X70458261Y-79001677D01*
X70458261Y-79001677D02*
X70421975Y-78929106D01*
X70421975Y-78929106D02*
X70349404Y-78892820D01*
X70349404Y-78892820D02*
X70240547Y-78892820D01*
X70240547Y-78892820D02*
X70167975Y-78856535D01*
X70167975Y-78856535D02*
X70131689Y-78783963D01*
X70131689Y-78783963D02*
X70131689Y-78747677D01*
X70131689Y-78747677D02*
X70167975Y-78675106D01*
X70167975Y-78675106D02*
X70240547Y-78638820D01*
X70240547Y-78638820D02*
X70349404Y-78638820D01*
X70349404Y-78638820D02*
X70421975Y-78675106D01*
X71111404Y-79110535D02*
X71038832Y-79146820D01*
X71038832Y-79146820D02*
X70893689Y-79146820D01*
X70893689Y-79146820D02*
X70821118Y-79110535D01*
X70821118Y-79110535D02*
X70784832Y-79074249D01*
X70784832Y-79074249D02*
X70748546Y-79001677D01*
X70748546Y-79001677D02*
X70748546Y-78783963D01*
X70748546Y-78783963D02*
X70784832Y-78711392D01*
X70784832Y-78711392D02*
X70821118Y-78675106D01*
X70821118Y-78675106D02*
X70893689Y-78638820D01*
X70893689Y-78638820D02*
X71038832Y-78638820D01*
X71038832Y-78638820D02*
X71111404Y-78675106D01*
X71546832Y-79146820D02*
X71474261Y-79110535D01*
X71474261Y-79110535D02*
X71437975Y-79074249D01*
X71437975Y-79074249D02*
X71401689Y-79001677D01*
X71401689Y-79001677D02*
X71401689Y-78783963D01*
X71401689Y-78783963D02*
X71437975Y-78711392D01*
X71437975Y-78711392D02*
X71474261Y-78675106D01*
X71474261Y-78675106D02*
X71546832Y-78638820D01*
X71546832Y-78638820D02*
X71655689Y-78638820D01*
X71655689Y-78638820D02*
X71728261Y-78675106D01*
X71728261Y-78675106D02*
X71764547Y-78711392D01*
X71764547Y-78711392D02*
X71800832Y-78783963D01*
X71800832Y-78783963D02*
X71800832Y-79001677D01*
X71800832Y-79001677D02*
X71764547Y-79074249D01*
X71764547Y-79074249D02*
X71728261Y-79110535D01*
X71728261Y-79110535D02*
X71655689Y-79146820D01*
X71655689Y-79146820D02*
X71546832Y-79146820D01*
X72671689Y-79110535D02*
X72744261Y-79146820D01*
X72744261Y-79146820D02*
X72889404Y-79146820D01*
X72889404Y-79146820D02*
X72961975Y-79110535D01*
X72961975Y-79110535D02*
X72998261Y-79037963D01*
X72998261Y-79037963D02*
X72998261Y-79001677D01*
X72998261Y-79001677D02*
X72961975Y-78929106D01*
X72961975Y-78929106D02*
X72889404Y-78892820D01*
X72889404Y-78892820D02*
X72780547Y-78892820D01*
X72780547Y-78892820D02*
X72707975Y-78856535D01*
X72707975Y-78856535D02*
X72671689Y-78783963D01*
X72671689Y-78783963D02*
X72671689Y-78747677D01*
X72671689Y-78747677D02*
X72707975Y-78675106D01*
X72707975Y-78675106D02*
X72780547Y-78638820D01*
X72780547Y-78638820D02*
X72889404Y-78638820D01*
X72889404Y-78638820D02*
X72961975Y-78675106D01*
X73215975Y-78638820D02*
X73506261Y-78638820D01*
X73324832Y-78384820D02*
X73324832Y-79037963D01*
X73324832Y-79037963D02*
X73361118Y-79110535D01*
X73361118Y-79110535D02*
X73433689Y-79146820D01*
X73433689Y-79146820D02*
X73506261Y-79146820D01*
X73687690Y-78638820D02*
X73869118Y-79146820D01*
X74050547Y-78638820D02*
X73869118Y-79146820D01*
X73869118Y-79146820D02*
X73796547Y-79328249D01*
X73796547Y-79328249D02*
X73760261Y-79364535D01*
X73760261Y-79364535D02*
X73687690Y-79400820D01*
X74449689Y-79146820D02*
X74377118Y-79110535D01*
X74377118Y-79110535D02*
X74340832Y-79037963D01*
X74340832Y-79037963D02*
X74340832Y-78384820D01*
X75030261Y-79110535D02*
X74957689Y-79146820D01*
X74957689Y-79146820D02*
X74812547Y-79146820D01*
X74812547Y-79146820D02*
X74739975Y-79110535D01*
X74739975Y-79110535D02*
X74703689Y-79037963D01*
X74703689Y-79037963D02*
X74703689Y-78747677D01*
X74703689Y-78747677D02*
X74739975Y-78675106D01*
X74739975Y-78675106D02*
X74812547Y-78638820D01*
X74812547Y-78638820D02*
X74957689Y-78638820D01*
X74957689Y-78638820D02*
X75030261Y-78675106D01*
X75030261Y-78675106D02*
X75066547Y-78747677D01*
X75066547Y-78747677D02*
X75066547Y-78820249D01*
X75066547Y-78820249D02*
X74703689Y-78892820D01*
D10*
X88828064Y-66128009D02*
X88828064Y-64858009D01*
X88828064Y-65462771D02*
X89553779Y-65462771D01*
X89553779Y-66128009D02*
X89553779Y-64858009D01*
X90158540Y-66128009D02*
X90158540Y-64858009D01*
X84195588Y-58907152D02*
X84800350Y-58907152D01*
X84074636Y-59270009D02*
X84497969Y-58000009D01*
X84497969Y-58000009D02*
X84921303Y-59270009D01*
X86070350Y-59149056D02*
X86009874Y-59209533D01*
X86009874Y-59209533D02*
X85828445Y-59270009D01*
X85828445Y-59270009D02*
X85707493Y-59270009D01*
X85707493Y-59270009D02*
X85526064Y-59209533D01*
X85526064Y-59209533D02*
X85405112Y-59088580D01*
X85405112Y-59088580D02*
X85344635Y-58967628D01*
X85344635Y-58967628D02*
X85284159Y-58725723D01*
X85284159Y-58725723D02*
X85284159Y-58544294D01*
X85284159Y-58544294D02*
X85344635Y-58302390D01*
X85344635Y-58302390D02*
X85405112Y-58181437D01*
X85405112Y-58181437D02*
X85526064Y-58060485D01*
X85526064Y-58060485D02*
X85707493Y-58000009D01*
X85707493Y-58000009D02*
X85828445Y-58000009D01*
X85828445Y-58000009D02*
X86009874Y-58060485D01*
X86009874Y-58060485D02*
X86070350Y-58120961D01*
X86433207Y-58000009D02*
X87158921Y-58000009D01*
X86796064Y-59270009D02*
X86796064Y-58000009D01*
X87582254Y-59270009D02*
X87582254Y-58000009D01*
X88005588Y-58000009D02*
X88428921Y-59270009D01*
X88428921Y-59270009D02*
X88852255Y-58000009D01*
X89275587Y-58604771D02*
X89698921Y-58604771D01*
X89880349Y-59270009D02*
X89275587Y-59270009D01*
X89275587Y-59270009D02*
X89275587Y-58000009D01*
X89275587Y-58000009D02*
X89880349Y-58000009D01*
D12*
X51617714Y-52778819D02*
X51617714Y-51778819D01*
X51617714Y-51778819D02*
X51855809Y-51778819D01*
X51855809Y-51778819D02*
X51998666Y-51826438D01*
X51998666Y-51826438D02*
X52093904Y-51921676D01*
X52093904Y-51921676D02*
X52141523Y-52016914D01*
X52141523Y-52016914D02*
X52189142Y-52207390D01*
X52189142Y-52207390D02*
X52189142Y-52350247D01*
X52189142Y-52350247D02*
X52141523Y-52540723D01*
X52141523Y-52540723D02*
X52093904Y-52635961D01*
X52093904Y-52635961D02*
X51998666Y-52731200D01*
X51998666Y-52731200D02*
X51855809Y-52778819D01*
X51855809Y-52778819D02*
X51617714Y-52778819D01*
X53141523Y-52778819D02*
X52570095Y-52778819D01*
X52855809Y-52778819D02*
X52855809Y-51778819D01*
X52855809Y-51778819D02*
X52760571Y-51921676D01*
X52760571Y-51921676D02*
X52665333Y-52016914D01*
X52665333Y-52016914D02*
X52570095Y-52064533D01*
X54093904Y-52778819D02*
X53522476Y-52778819D01*
X53808190Y-52778819D02*
X53808190Y-51778819D01*
X53808190Y-51778819D02*
X53712952Y-51921676D01*
X53712952Y-51921676D02*
X53617714Y-52016914D01*
X53617714Y-52016914D02*
X53522476Y-52064533D01*
X46174819Y-51506285D02*
X45174819Y-51506285D01*
X45174819Y-51506285D02*
X45174819Y-51268190D01*
X45174819Y-51268190D02*
X45222438Y-51125333D01*
X45222438Y-51125333D02*
X45317676Y-51030095D01*
X45317676Y-51030095D02*
X45412914Y-50982476D01*
X45412914Y-50982476D02*
X45603390Y-50934857D01*
X45603390Y-50934857D02*
X45746247Y-50934857D01*
X45746247Y-50934857D02*
X45936723Y-50982476D01*
X45936723Y-50982476D02*
X46031961Y-51030095D01*
X46031961Y-51030095D02*
X46127200Y-51125333D01*
X46127200Y-51125333D02*
X46174819Y-51268190D01*
X46174819Y-51268190D02*
X46174819Y-51506285D01*
X46174819Y-49982476D02*
X46174819Y-50553904D01*
X46174819Y-50268190D02*
X45174819Y-50268190D01*
X45174819Y-50268190D02*
X45317676Y-50363428D01*
X45317676Y-50363428D02*
X45412914Y-50458666D01*
X45412914Y-50458666D02*
X45460533Y-50553904D01*
X45174819Y-49363428D02*
X45174819Y-49268190D01*
X45174819Y-49268190D02*
X45222438Y-49172952D01*
X45222438Y-49172952D02*
X45270057Y-49125333D01*
X45270057Y-49125333D02*
X45365295Y-49077714D01*
X45365295Y-49077714D02*
X45555771Y-49030095D01*
X45555771Y-49030095D02*
X45793866Y-49030095D01*
X45793866Y-49030095D02*
X45984342Y-49077714D01*
X45984342Y-49077714D02*
X46079580Y-49125333D01*
X46079580Y-49125333D02*
X46127200Y-49172952D01*
X46127200Y-49172952D02*
X46174819Y-49268190D01*
X46174819Y-49268190D02*
X46174819Y-49363428D01*
X46174819Y-49363428D02*
X46127200Y-49458666D01*
X46127200Y-49458666D02*
X46079580Y-49506285D01*
X46079580Y-49506285D02*
X45984342Y-49553904D01*
X45984342Y-49553904D02*
X45793866Y-49601523D01*
X45793866Y-49601523D02*
X45555771Y-49601523D01*
X45555771Y-49601523D02*
X45365295Y-49553904D01*
X45365295Y-49553904D02*
X45270057Y-49506285D01*
X45270057Y-49506285D02*
X45222438Y-49458666D01*
X45222438Y-49458666D02*
X45174819Y-49363428D01*
X82573905Y-71828819D02*
X82573905Y-70828819D01*
X82573905Y-70828819D02*
X82812000Y-70828819D01*
X82812000Y-70828819D02*
X82954857Y-70876438D01*
X82954857Y-70876438D02*
X83050095Y-70971676D01*
X83050095Y-70971676D02*
X83097714Y-71066914D01*
X83097714Y-71066914D02*
X83145333Y-71257390D01*
X83145333Y-71257390D02*
X83145333Y-71400247D01*
X83145333Y-71400247D02*
X83097714Y-71590723D01*
X83097714Y-71590723D02*
X83050095Y-71685961D01*
X83050095Y-71685961D02*
X82954857Y-71781200D01*
X82954857Y-71781200D02*
X82812000Y-71828819D01*
X82812000Y-71828819D02*
X82573905Y-71828819D01*
X83478667Y-70828819D02*
X84097714Y-70828819D01*
X84097714Y-70828819D02*
X83764381Y-71209771D01*
X83764381Y-71209771D02*
X83907238Y-71209771D01*
X83907238Y-71209771D02*
X84002476Y-71257390D01*
X84002476Y-71257390D02*
X84050095Y-71305009D01*
X84050095Y-71305009D02*
X84097714Y-71400247D01*
X84097714Y-71400247D02*
X84097714Y-71638342D01*
X84097714Y-71638342D02*
X84050095Y-71733580D01*
X84050095Y-71733580D02*
X84002476Y-71781200D01*
X84002476Y-71781200D02*
X83907238Y-71828819D01*
X83907238Y-71828819D02*
X83621524Y-71828819D01*
X83621524Y-71828819D02*
X83526286Y-71781200D01*
X83526286Y-71781200D02*
X83478667Y-71733580D01*
X57999333Y-53540819D02*
X57666000Y-53064628D01*
X57427905Y-53540819D02*
X57427905Y-52540819D01*
X57427905Y-52540819D02*
X57808857Y-52540819D01*
X57808857Y-52540819D02*
X57904095Y-52588438D01*
X57904095Y-52588438D02*
X57951714Y-52636057D01*
X57951714Y-52636057D02*
X57999333Y-52731295D01*
X57999333Y-52731295D02*
X57999333Y-52874152D01*
X57999333Y-52874152D02*
X57951714Y-52969390D01*
X57951714Y-52969390D02*
X57904095Y-53017009D01*
X57904095Y-53017009D02*
X57808857Y-53064628D01*
X57808857Y-53064628D02*
X57427905Y-53064628D01*
X58380286Y-52636057D02*
X58427905Y-52588438D01*
X58427905Y-52588438D02*
X58523143Y-52540819D01*
X58523143Y-52540819D02*
X58761238Y-52540819D01*
X58761238Y-52540819D02*
X58856476Y-52588438D01*
X58856476Y-52588438D02*
X58904095Y-52636057D01*
X58904095Y-52636057D02*
X58951714Y-52731295D01*
X58951714Y-52731295D02*
X58951714Y-52826533D01*
X58951714Y-52826533D02*
X58904095Y-52969390D01*
X58904095Y-52969390D02*
X58332667Y-53540819D01*
X58332667Y-53540819D02*
X58951714Y-53540819D01*
X80097333Y-74622819D02*
X79621143Y-74622819D01*
X79621143Y-74622819D02*
X79621143Y-73622819D01*
X80906857Y-73622819D02*
X80430667Y-73622819D01*
X80430667Y-73622819D02*
X80383048Y-74099009D01*
X80383048Y-74099009D02*
X80430667Y-74051390D01*
X80430667Y-74051390D02*
X80525905Y-74003771D01*
X80525905Y-74003771D02*
X80764000Y-74003771D01*
X80764000Y-74003771D02*
X80859238Y-74051390D01*
X80859238Y-74051390D02*
X80906857Y-74099009D01*
X80906857Y-74099009D02*
X80954476Y-74194247D01*
X80954476Y-74194247D02*
X80954476Y-74432342D01*
X80954476Y-74432342D02*
X80906857Y-74527580D01*
X80906857Y-74527580D02*
X80859238Y-74575200D01*
X80859238Y-74575200D02*
X80764000Y-74622819D01*
X80764000Y-74622819D02*
X80525905Y-74622819D01*
X80525905Y-74622819D02*
X80430667Y-74575200D01*
X80430667Y-74575200D02*
X80383048Y-74527580D01*
X79875142Y-71225580D02*
X79827523Y-71273200D01*
X79827523Y-71273200D02*
X79684666Y-71320819D01*
X79684666Y-71320819D02*
X79589428Y-71320819D01*
X79589428Y-71320819D02*
X79446571Y-71273200D01*
X79446571Y-71273200D02*
X79351333Y-71177961D01*
X79351333Y-71177961D02*
X79303714Y-71082723D01*
X79303714Y-71082723D02*
X79256095Y-70892247D01*
X79256095Y-70892247D02*
X79256095Y-70749390D01*
X79256095Y-70749390D02*
X79303714Y-70558914D01*
X79303714Y-70558914D02*
X79351333Y-70463676D01*
X79351333Y-70463676D02*
X79446571Y-70368438D01*
X79446571Y-70368438D02*
X79589428Y-70320819D01*
X79589428Y-70320819D02*
X79684666Y-70320819D01*
X79684666Y-70320819D02*
X79827523Y-70368438D01*
X79827523Y-70368438D02*
X79875142Y-70416057D01*
X80827523Y-71320819D02*
X80256095Y-71320819D01*
X80541809Y-71320819D02*
X80541809Y-70320819D01*
X80541809Y-70320819D02*
X80446571Y-70463676D01*
X80446571Y-70463676D02*
X80351333Y-70558914D01*
X80351333Y-70558914D02*
X80256095Y-70606533D01*
X81779904Y-71320819D02*
X81208476Y-71320819D01*
X81494190Y-71320819D02*
X81494190Y-70320819D01*
X81494190Y-70320819D02*
X81398952Y-70463676D01*
X81398952Y-70463676D02*
X81303714Y-70558914D01*
X81303714Y-70558914D02*
X81208476Y-70606533D01*
X45158819Y-65190666D02*
X45158819Y-65666856D01*
X45158819Y-65666856D02*
X44158819Y-65666856D01*
X44492152Y-64428761D02*
X45158819Y-64428761D01*
X44111200Y-64666856D02*
X44825485Y-64904951D01*
X44825485Y-64904951D02*
X44825485Y-64285904D01*
X46386761Y-53816057D02*
X46291523Y-53768438D01*
X46291523Y-53768438D02*
X46196285Y-53673200D01*
X46196285Y-53673200D02*
X46053428Y-53530342D01*
X46053428Y-53530342D02*
X45958190Y-53482723D01*
X45958190Y-53482723D02*
X45862952Y-53482723D01*
X45910571Y-53720819D02*
X45815333Y-53673200D01*
X45815333Y-53673200D02*
X45720095Y-53577961D01*
X45720095Y-53577961D02*
X45672476Y-53387485D01*
X45672476Y-53387485D02*
X45672476Y-53054152D01*
X45672476Y-53054152D02*
X45720095Y-52863676D01*
X45720095Y-52863676D02*
X45815333Y-52768438D01*
X45815333Y-52768438D02*
X45910571Y-52720819D01*
X45910571Y-52720819D02*
X46101047Y-52720819D01*
X46101047Y-52720819D02*
X46196285Y-52768438D01*
X46196285Y-52768438D02*
X46291523Y-52863676D01*
X46291523Y-52863676D02*
X46339142Y-53054152D01*
X46339142Y-53054152D02*
X46339142Y-53387485D01*
X46339142Y-53387485D02*
X46291523Y-53577961D01*
X46291523Y-53577961D02*
X46196285Y-53673200D01*
X46196285Y-53673200D02*
X46101047Y-53720819D01*
X46101047Y-53720819D02*
X45910571Y-53720819D01*
X46720095Y-52816057D02*
X46767714Y-52768438D01*
X46767714Y-52768438D02*
X46862952Y-52720819D01*
X46862952Y-52720819D02*
X47101047Y-52720819D01*
X47101047Y-52720819D02*
X47196285Y-52768438D01*
X47196285Y-52768438D02*
X47243904Y-52816057D01*
X47243904Y-52816057D02*
X47291523Y-52911295D01*
X47291523Y-52911295D02*
X47291523Y-53006533D01*
X47291523Y-53006533D02*
X47243904Y-53149390D01*
X47243904Y-53149390D02*
X46672476Y-53720819D01*
X46672476Y-53720819D02*
X47291523Y-53720819D01*
X78178819Y-54538476D02*
X77702628Y-54871809D01*
X78178819Y-55109904D02*
X77178819Y-55109904D01*
X77178819Y-55109904D02*
X77178819Y-54728952D01*
X77178819Y-54728952D02*
X77226438Y-54633714D01*
X77226438Y-54633714D02*
X77274057Y-54586095D01*
X77274057Y-54586095D02*
X77369295Y-54538476D01*
X77369295Y-54538476D02*
X77512152Y-54538476D01*
X77512152Y-54538476D02*
X77607390Y-54586095D01*
X77607390Y-54586095D02*
X77655009Y-54633714D01*
X77655009Y-54633714D02*
X77702628Y-54728952D01*
X77702628Y-54728952D02*
X77702628Y-55109904D01*
X78178819Y-54109904D02*
X77178819Y-54109904D01*
X77178819Y-54109904D02*
X78178819Y-53538476D01*
X78178819Y-53538476D02*
X77178819Y-53538476D01*
X77274057Y-53109904D02*
X77226438Y-53062285D01*
X77226438Y-53062285D02*
X77178819Y-52967047D01*
X77178819Y-52967047D02*
X77178819Y-52728952D01*
X77178819Y-52728952D02*
X77226438Y-52633714D01*
X77226438Y-52633714D02*
X77274057Y-52586095D01*
X77274057Y-52586095D02*
X77369295Y-52538476D01*
X77369295Y-52538476D02*
X77464533Y-52538476D01*
X77464533Y-52538476D02*
X77607390Y-52586095D01*
X77607390Y-52586095D02*
X78178819Y-53157523D01*
X78178819Y-53157523D02*
X78178819Y-52538476D01*
X59652819Y-59689904D02*
X60462342Y-59689904D01*
X60462342Y-59689904D02*
X60557580Y-59642285D01*
X60557580Y-59642285D02*
X60605200Y-59594666D01*
X60605200Y-59594666D02*
X60652819Y-59499428D01*
X60652819Y-59499428D02*
X60652819Y-59308952D01*
X60652819Y-59308952D02*
X60605200Y-59213714D01*
X60605200Y-59213714D02*
X60557580Y-59166095D01*
X60557580Y-59166095D02*
X60462342Y-59118476D01*
X60462342Y-59118476D02*
X59652819Y-59118476D01*
X59748057Y-58689904D02*
X59700438Y-58642285D01*
X59700438Y-58642285D02*
X59652819Y-58547047D01*
X59652819Y-58547047D02*
X59652819Y-58308952D01*
X59652819Y-58308952D02*
X59700438Y-58213714D01*
X59700438Y-58213714D02*
X59748057Y-58166095D01*
X59748057Y-58166095D02*
X59843295Y-58118476D01*
X59843295Y-58118476D02*
X59938533Y-58118476D01*
X59938533Y-58118476D02*
X60081390Y-58166095D01*
X60081390Y-58166095D02*
X60652819Y-58737523D01*
X60652819Y-58737523D02*
X60652819Y-58118476D01*
X59269333Y-77670819D02*
X58936000Y-77194628D01*
X58697905Y-77670819D02*
X58697905Y-76670819D01*
X58697905Y-76670819D02*
X59078857Y-76670819D01*
X59078857Y-76670819D02*
X59174095Y-76718438D01*
X59174095Y-76718438D02*
X59221714Y-76766057D01*
X59221714Y-76766057D02*
X59269333Y-76861295D01*
X59269333Y-76861295D02*
X59269333Y-77004152D01*
X59269333Y-77004152D02*
X59221714Y-77099390D01*
X59221714Y-77099390D02*
X59174095Y-77147009D01*
X59174095Y-77147009D02*
X59078857Y-77194628D01*
X59078857Y-77194628D02*
X58697905Y-77194628D01*
X59602667Y-76670819D02*
X60221714Y-76670819D01*
X60221714Y-76670819D02*
X59888381Y-77051771D01*
X59888381Y-77051771D02*
X60031238Y-77051771D01*
X60031238Y-77051771D02*
X60126476Y-77099390D01*
X60126476Y-77099390D02*
X60174095Y-77147009D01*
X60174095Y-77147009D02*
X60221714Y-77242247D01*
X60221714Y-77242247D02*
X60221714Y-77480342D01*
X60221714Y-77480342D02*
X60174095Y-77575580D01*
X60174095Y-77575580D02*
X60126476Y-77623200D01*
X60126476Y-77623200D02*
X60031238Y-77670819D01*
X60031238Y-77670819D02*
X59745524Y-77670819D01*
X59745524Y-77670819D02*
X59650286Y-77623200D01*
X59650286Y-77623200D02*
X59602667Y-77575580D01*
X59326819Y-75874476D02*
X58850628Y-76207809D01*
X59326819Y-76445904D02*
X58326819Y-76445904D01*
X58326819Y-76445904D02*
X58326819Y-76064952D01*
X58326819Y-76064952D02*
X58374438Y-75969714D01*
X58374438Y-75969714D02*
X58422057Y-75922095D01*
X58422057Y-75922095D02*
X58517295Y-75874476D01*
X58517295Y-75874476D02*
X58660152Y-75874476D01*
X58660152Y-75874476D02*
X58755390Y-75922095D01*
X58755390Y-75922095D02*
X58803009Y-75969714D01*
X58803009Y-75969714D02*
X58850628Y-76064952D01*
X58850628Y-76064952D02*
X58850628Y-76445904D01*
X59326819Y-75445904D02*
X58326819Y-75445904D01*
X58326819Y-75445904D02*
X59326819Y-74874476D01*
X59326819Y-74874476D02*
X58326819Y-74874476D01*
X59326819Y-73874476D02*
X59326819Y-74445904D01*
X59326819Y-74160190D02*
X58326819Y-74160190D01*
X58326819Y-74160190D02*
X58469676Y-74255428D01*
X58469676Y-74255428D02*
X58564914Y-74350666D01*
X58564914Y-74350666D02*
X58612533Y-74445904D01*
X80097333Y-62938819D02*
X79764000Y-62462628D01*
X79525905Y-62938819D02*
X79525905Y-61938819D01*
X79525905Y-61938819D02*
X79906857Y-61938819D01*
X79906857Y-61938819D02*
X80002095Y-61986438D01*
X80002095Y-61986438D02*
X80049714Y-62034057D01*
X80049714Y-62034057D02*
X80097333Y-62129295D01*
X80097333Y-62129295D02*
X80097333Y-62272152D01*
X80097333Y-62272152D02*
X80049714Y-62367390D01*
X80049714Y-62367390D02*
X80002095Y-62415009D01*
X80002095Y-62415009D02*
X79906857Y-62462628D01*
X79906857Y-62462628D02*
X79525905Y-62462628D01*
X80668762Y-62367390D02*
X80573524Y-62319771D01*
X80573524Y-62319771D02*
X80525905Y-62272152D01*
X80525905Y-62272152D02*
X80478286Y-62176914D01*
X80478286Y-62176914D02*
X80478286Y-62129295D01*
X80478286Y-62129295D02*
X80525905Y-62034057D01*
X80525905Y-62034057D02*
X80573524Y-61986438D01*
X80573524Y-61986438D02*
X80668762Y-61938819D01*
X80668762Y-61938819D02*
X80859238Y-61938819D01*
X80859238Y-61938819D02*
X80954476Y-61986438D01*
X80954476Y-61986438D02*
X81002095Y-62034057D01*
X81002095Y-62034057D02*
X81049714Y-62129295D01*
X81049714Y-62129295D02*
X81049714Y-62176914D01*
X81049714Y-62176914D02*
X81002095Y-62272152D01*
X81002095Y-62272152D02*
X80954476Y-62319771D01*
X80954476Y-62319771D02*
X80859238Y-62367390D01*
X80859238Y-62367390D02*
X80668762Y-62367390D01*
X80668762Y-62367390D02*
X80573524Y-62415009D01*
X80573524Y-62415009D02*
X80525905Y-62462628D01*
X80525905Y-62462628D02*
X80478286Y-62557866D01*
X80478286Y-62557866D02*
X80478286Y-62748342D01*
X80478286Y-62748342D02*
X80525905Y-62843580D01*
X80525905Y-62843580D02*
X80573524Y-62891200D01*
X80573524Y-62891200D02*
X80668762Y-62938819D01*
X80668762Y-62938819D02*
X80859238Y-62938819D01*
X80859238Y-62938819D02*
X80954476Y-62891200D01*
X80954476Y-62891200D02*
X81002095Y-62843580D01*
X81002095Y-62843580D02*
X81049714Y-62748342D01*
X81049714Y-62748342D02*
X81049714Y-62557866D01*
X81049714Y-62557866D02*
X81002095Y-62462628D01*
X81002095Y-62462628D02*
X80954476Y-62415009D01*
X80954476Y-62415009D02*
X80859238Y-62367390D01*
X31680319Y-61498118D02*
X30680319Y-61498118D01*
X30680319Y-61498118D02*
X30680319Y-61117166D01*
X30680319Y-61117166D02*
X30727938Y-61021928D01*
X30727938Y-61021928D02*
X30775557Y-60974309D01*
X30775557Y-60974309D02*
X30870795Y-60926690D01*
X30870795Y-60926690D02*
X31013652Y-60926690D01*
X31013652Y-60926690D02*
X31108890Y-60974309D01*
X31108890Y-60974309D02*
X31156509Y-61021928D01*
X31156509Y-61021928D02*
X31204128Y-61117166D01*
X31204128Y-61117166D02*
X31204128Y-61498118D01*
X30680319Y-60640975D02*
X30680319Y-60069547D01*
X31680319Y-60355261D02*
X30680319Y-60355261D01*
X31680319Y-59212404D02*
X31680319Y-59783832D01*
X31680319Y-59498118D02*
X30680319Y-59498118D01*
X30680319Y-59498118D02*
X30823176Y-59593356D01*
X30823176Y-59593356D02*
X30918414Y-59688594D01*
X30918414Y-59688594D02*
X30966033Y-59783832D01*
X30680319Y-58593356D02*
X30680319Y-58498118D01*
X30680319Y-58498118D02*
X30727938Y-58402880D01*
X30727938Y-58402880D02*
X30775557Y-58355261D01*
X30775557Y-58355261D02*
X30870795Y-58307642D01*
X30870795Y-58307642D02*
X31061271Y-58260023D01*
X31061271Y-58260023D02*
X31299366Y-58260023D01*
X31299366Y-58260023D02*
X31489842Y-58307642D01*
X31489842Y-58307642D02*
X31585080Y-58355261D01*
X31585080Y-58355261D02*
X31632700Y-58402880D01*
X31632700Y-58402880D02*
X31680319Y-58498118D01*
X31680319Y-58498118D02*
X31680319Y-58593356D01*
X31680319Y-58593356D02*
X31632700Y-58688594D01*
X31632700Y-58688594D02*
X31585080Y-58736213D01*
X31585080Y-58736213D02*
X31489842Y-58783832D01*
X31489842Y-58783832D02*
X31299366Y-58831451D01*
X31299366Y-58831451D02*
X31061271Y-58831451D01*
X31061271Y-58831451D02*
X30870795Y-58783832D01*
X30870795Y-58783832D02*
X30775557Y-58736213D01*
X30775557Y-58736213D02*
X30727938Y-58688594D01*
X30727938Y-58688594D02*
X30680319Y-58593356D01*
X30680319Y-57640975D02*
X30680319Y-57545737D01*
X30680319Y-57545737D02*
X30727938Y-57450499D01*
X30727938Y-57450499D02*
X30775557Y-57402880D01*
X30775557Y-57402880D02*
X30870795Y-57355261D01*
X30870795Y-57355261D02*
X31061271Y-57307642D01*
X31061271Y-57307642D02*
X31299366Y-57307642D01*
X31299366Y-57307642D02*
X31489842Y-57355261D01*
X31489842Y-57355261D02*
X31585080Y-57402880D01*
X31585080Y-57402880D02*
X31632700Y-57450499D01*
X31632700Y-57450499D02*
X31680319Y-57545737D01*
X31680319Y-57545737D02*
X31680319Y-57640975D01*
X31680319Y-57640975D02*
X31632700Y-57736213D01*
X31632700Y-57736213D02*
X31585080Y-57783832D01*
X31585080Y-57783832D02*
X31489842Y-57831451D01*
X31489842Y-57831451D02*
X31299366Y-57879070D01*
X31299366Y-57879070D02*
X31061271Y-57879070D01*
X31061271Y-57879070D02*
X30870795Y-57831451D01*
X30870795Y-57831451D02*
X30775557Y-57783832D01*
X30775557Y-57783832D02*
X30727938Y-57736213D01*
X30727938Y-57736213D02*
X30680319Y-57640975D01*
X30680319Y-56688594D02*
X30680319Y-56593356D01*
X30680319Y-56593356D02*
X30727938Y-56498118D01*
X30727938Y-56498118D02*
X30775557Y-56450499D01*
X30775557Y-56450499D02*
X30870795Y-56402880D01*
X30870795Y-56402880D02*
X31061271Y-56355261D01*
X31061271Y-56355261D02*
X31299366Y-56355261D01*
X31299366Y-56355261D02*
X31489842Y-56402880D01*
X31489842Y-56402880D02*
X31585080Y-56450499D01*
X31585080Y-56450499D02*
X31632700Y-56498118D01*
X31632700Y-56498118D02*
X31680319Y-56593356D01*
X31680319Y-56593356D02*
X31680319Y-56688594D01*
X31680319Y-56688594D02*
X31632700Y-56783832D01*
X31632700Y-56783832D02*
X31585080Y-56831451D01*
X31585080Y-56831451D02*
X31489842Y-56879070D01*
X31489842Y-56879070D02*
X31299366Y-56926689D01*
X31299366Y-56926689D02*
X31061271Y-56926689D01*
X31061271Y-56926689D02*
X30870795Y-56879070D01*
X30870795Y-56879070D02*
X30775557Y-56831451D01*
X30775557Y-56831451D02*
X30727938Y-56783832D01*
X30727938Y-56783832D02*
X30680319Y-56688594D01*
X61414819Y-76842857D02*
X60938628Y-77176190D01*
X61414819Y-77414285D02*
X60414819Y-77414285D01*
X60414819Y-77414285D02*
X60414819Y-77033333D01*
X60414819Y-77033333D02*
X60462438Y-76938095D01*
X60462438Y-76938095D02*
X60510057Y-76890476D01*
X60510057Y-76890476D02*
X60605295Y-76842857D01*
X60605295Y-76842857D02*
X60748152Y-76842857D01*
X60748152Y-76842857D02*
X60843390Y-76890476D01*
X60843390Y-76890476D02*
X60891009Y-76938095D01*
X60891009Y-76938095D02*
X60938628Y-77033333D01*
X60938628Y-77033333D02*
X60938628Y-77414285D01*
X61414819Y-75890476D02*
X61414819Y-76461904D01*
X61414819Y-76176190D02*
X60414819Y-76176190D01*
X60414819Y-76176190D02*
X60557676Y-76271428D01*
X60557676Y-76271428D02*
X60652914Y-76366666D01*
X60652914Y-76366666D02*
X60700533Y-76461904D01*
X60510057Y-75509523D02*
X60462438Y-75461904D01*
X60462438Y-75461904D02*
X60414819Y-75366666D01*
X60414819Y-75366666D02*
X60414819Y-75128571D01*
X60414819Y-75128571D02*
X60462438Y-75033333D01*
X60462438Y-75033333D02*
X60510057Y-74985714D01*
X60510057Y-74985714D02*
X60605295Y-74938095D01*
X60605295Y-74938095D02*
X60700533Y-74938095D01*
X60700533Y-74938095D02*
X60843390Y-74985714D01*
X60843390Y-74985714D02*
X61414819Y-75557142D01*
X61414819Y-75557142D02*
X61414819Y-74938095D01*
X65478819Y-52014285D02*
X64478819Y-52014285D01*
X64478819Y-52014285D02*
X64478819Y-51776190D01*
X64478819Y-51776190D02*
X64526438Y-51633333D01*
X64526438Y-51633333D02*
X64621676Y-51538095D01*
X64621676Y-51538095D02*
X64716914Y-51490476D01*
X64716914Y-51490476D02*
X64907390Y-51442857D01*
X64907390Y-51442857D02*
X65050247Y-51442857D01*
X65050247Y-51442857D02*
X65240723Y-51490476D01*
X65240723Y-51490476D02*
X65335961Y-51538095D01*
X65335961Y-51538095D02*
X65431200Y-51633333D01*
X65431200Y-51633333D02*
X65478819Y-51776190D01*
X65478819Y-51776190D02*
X65478819Y-52014285D01*
X65478819Y-50490476D02*
X65478819Y-51061904D01*
X65478819Y-50776190D02*
X64478819Y-50776190D01*
X64478819Y-50776190D02*
X64621676Y-50871428D01*
X64621676Y-50871428D02*
X64716914Y-50966666D01*
X64716914Y-50966666D02*
X64764533Y-51061904D01*
X64574057Y-50109523D02*
X64526438Y-50061904D01*
X64526438Y-50061904D02*
X64478819Y-49966666D01*
X64478819Y-49966666D02*
X64478819Y-49728571D01*
X64478819Y-49728571D02*
X64526438Y-49633333D01*
X64526438Y-49633333D02*
X64574057Y-49585714D01*
X64574057Y-49585714D02*
X64669295Y-49538095D01*
X64669295Y-49538095D02*
X64764533Y-49538095D01*
X64764533Y-49538095D02*
X64907390Y-49585714D01*
X64907390Y-49585714D02*
X65478819Y-50157142D01*
X65478819Y-50157142D02*
X65478819Y-49538095D01*
X80351333Y-59890819D02*
X80018000Y-59414628D01*
X79779905Y-59890819D02*
X79779905Y-58890819D01*
X79779905Y-58890819D02*
X80160857Y-58890819D01*
X80160857Y-58890819D02*
X80256095Y-58938438D01*
X80256095Y-58938438D02*
X80303714Y-58986057D01*
X80303714Y-58986057D02*
X80351333Y-59081295D01*
X80351333Y-59081295D02*
X80351333Y-59224152D01*
X80351333Y-59224152D02*
X80303714Y-59319390D01*
X80303714Y-59319390D02*
X80256095Y-59367009D01*
X80256095Y-59367009D02*
X80160857Y-59414628D01*
X80160857Y-59414628D02*
X79779905Y-59414628D01*
X80827524Y-59890819D02*
X81018000Y-59890819D01*
X81018000Y-59890819D02*
X81113238Y-59843200D01*
X81113238Y-59843200D02*
X81160857Y-59795580D01*
X81160857Y-59795580D02*
X81256095Y-59652723D01*
X81256095Y-59652723D02*
X81303714Y-59462247D01*
X81303714Y-59462247D02*
X81303714Y-59081295D01*
X81303714Y-59081295D02*
X81256095Y-58986057D01*
X81256095Y-58986057D02*
X81208476Y-58938438D01*
X81208476Y-58938438D02*
X81113238Y-58890819D01*
X81113238Y-58890819D02*
X80922762Y-58890819D01*
X80922762Y-58890819D02*
X80827524Y-58938438D01*
X80827524Y-58938438D02*
X80779905Y-58986057D01*
X80779905Y-58986057D02*
X80732286Y-59081295D01*
X80732286Y-59081295D02*
X80732286Y-59319390D01*
X80732286Y-59319390D02*
X80779905Y-59414628D01*
X80779905Y-59414628D02*
X80827524Y-59462247D01*
X80827524Y-59462247D02*
X80922762Y-59509866D01*
X80922762Y-59509866D02*
X81113238Y-59509866D01*
X81113238Y-59509866D02*
X81208476Y-59462247D01*
X81208476Y-59462247D02*
X81256095Y-59414628D01*
X81256095Y-59414628D02*
X81303714Y-59319390D01*
X103086819Y-63753904D02*
X103896342Y-63753904D01*
X103896342Y-63753904D02*
X103991580Y-63706285D01*
X103991580Y-63706285D02*
X104039200Y-63658666D01*
X104039200Y-63658666D02*
X104086819Y-63563428D01*
X104086819Y-63563428D02*
X104086819Y-63372952D01*
X104086819Y-63372952D02*
X104039200Y-63277714D01*
X104039200Y-63277714D02*
X103991580Y-63230095D01*
X103991580Y-63230095D02*
X103896342Y-63182476D01*
X103896342Y-63182476D02*
X103086819Y-63182476D01*
X103086819Y-62230095D02*
X103086819Y-62706285D01*
X103086819Y-62706285D02*
X103563009Y-62753904D01*
X103563009Y-62753904D02*
X103515390Y-62706285D01*
X103515390Y-62706285D02*
X103467771Y-62611047D01*
X103467771Y-62611047D02*
X103467771Y-62372952D01*
X103467771Y-62372952D02*
X103515390Y-62277714D01*
X103515390Y-62277714D02*
X103563009Y-62230095D01*
X103563009Y-62230095D02*
X103658247Y-62182476D01*
X103658247Y-62182476D02*
X103896342Y-62182476D01*
X103896342Y-62182476D02*
X103991580Y-62230095D01*
X103991580Y-62230095D02*
X104039200Y-62277714D01*
X104039200Y-62277714D02*
X104086819Y-62372952D01*
X104086819Y-62372952D02*
X104086819Y-62611047D01*
X104086819Y-62611047D02*
X104039200Y-62706285D01*
X104039200Y-62706285D02*
X103991580Y-62753904D01*
X58761333Y-68780819D02*
X58428000Y-68304628D01*
X58189905Y-68780819D02*
X58189905Y-67780819D01*
X58189905Y-67780819D02*
X58570857Y-67780819D01*
X58570857Y-67780819D02*
X58666095Y-67828438D01*
X58666095Y-67828438D02*
X58713714Y-67876057D01*
X58713714Y-67876057D02*
X58761333Y-67971295D01*
X58761333Y-67971295D02*
X58761333Y-68114152D01*
X58761333Y-68114152D02*
X58713714Y-68209390D01*
X58713714Y-68209390D02*
X58666095Y-68257009D01*
X58666095Y-68257009D02*
X58570857Y-68304628D01*
X58570857Y-68304628D02*
X58189905Y-68304628D01*
X59666095Y-67780819D02*
X59189905Y-67780819D01*
X59189905Y-67780819D02*
X59142286Y-68257009D01*
X59142286Y-68257009D02*
X59189905Y-68209390D01*
X59189905Y-68209390D02*
X59285143Y-68161771D01*
X59285143Y-68161771D02*
X59523238Y-68161771D01*
X59523238Y-68161771D02*
X59618476Y-68209390D01*
X59618476Y-68209390D02*
X59666095Y-68257009D01*
X59666095Y-68257009D02*
X59713714Y-68352247D01*
X59713714Y-68352247D02*
X59713714Y-68590342D01*
X59713714Y-68590342D02*
X59666095Y-68685580D01*
X59666095Y-68685580D02*
X59618476Y-68733200D01*
X59618476Y-68733200D02*
X59523238Y-68780819D01*
X59523238Y-68780819D02*
X59285143Y-68780819D01*
X59285143Y-68780819D02*
X59189905Y-68733200D01*
X59189905Y-68733200D02*
X59142286Y-68685580D01*
X64770095Y-60816819D02*
X64770095Y-61626342D01*
X64770095Y-61626342D02*
X64817714Y-61721580D01*
X64817714Y-61721580D02*
X64865333Y-61769200D01*
X64865333Y-61769200D02*
X64960571Y-61816819D01*
X64960571Y-61816819D02*
X65151047Y-61816819D01*
X65151047Y-61816819D02*
X65246285Y-61769200D01*
X65246285Y-61769200D02*
X65293904Y-61721580D01*
X65293904Y-61721580D02*
X65341523Y-61626342D01*
X65341523Y-61626342D02*
X65341523Y-60816819D01*
X65722476Y-60816819D02*
X66341523Y-60816819D01*
X66341523Y-60816819D02*
X66008190Y-61197771D01*
X66008190Y-61197771D02*
X66151047Y-61197771D01*
X66151047Y-61197771D02*
X66246285Y-61245390D01*
X66246285Y-61245390D02*
X66293904Y-61293009D01*
X66293904Y-61293009D02*
X66341523Y-61388247D01*
X66341523Y-61388247D02*
X66341523Y-61626342D01*
X66341523Y-61626342D02*
X66293904Y-61721580D01*
X66293904Y-61721580D02*
X66246285Y-61769200D01*
X66246285Y-61769200D02*
X66151047Y-61816819D01*
X66151047Y-61816819D02*
X65865333Y-61816819D01*
X65865333Y-61816819D02*
X65770095Y-61769200D01*
X65770095Y-61769200D02*
X65722476Y-61721580D01*
X60861319Y-45857594D02*
X59861319Y-45857594D01*
X60861319Y-45286166D02*
X60289890Y-45714737D01*
X59861319Y-45286166D02*
X60432747Y-45857594D01*
X59861319Y-44952832D02*
X59861319Y-44333785D01*
X59861319Y-44333785D02*
X60242271Y-44667118D01*
X60242271Y-44667118D02*
X60242271Y-44524261D01*
X60242271Y-44524261D02*
X60289890Y-44429023D01*
X60289890Y-44429023D02*
X60337509Y-44381404D01*
X60337509Y-44381404D02*
X60432747Y-44333785D01*
X60432747Y-44333785D02*
X60670842Y-44333785D01*
X60670842Y-44333785D02*
X60766080Y-44381404D01*
X60766080Y-44381404D02*
X60813700Y-44429023D01*
X60813700Y-44429023D02*
X60861319Y-44524261D01*
X60861319Y-44524261D02*
X60861319Y-44809975D01*
X60861319Y-44809975D02*
X60813700Y-44905213D01*
X60813700Y-44905213D02*
X60766080Y-44952832D01*
X100766057Y-50387238D02*
X100718438Y-50482476D01*
X100718438Y-50482476D02*
X100623200Y-50577714D01*
X100623200Y-50577714D02*
X100480342Y-50720571D01*
X100480342Y-50720571D02*
X100432723Y-50815809D01*
X100432723Y-50815809D02*
X100432723Y-50911047D01*
X100670819Y-50863428D02*
X100623200Y-50958666D01*
X100623200Y-50958666D02*
X100527961Y-51053904D01*
X100527961Y-51053904D02*
X100337485Y-51101523D01*
X100337485Y-51101523D02*
X100004152Y-51101523D01*
X100004152Y-51101523D02*
X99813676Y-51053904D01*
X99813676Y-51053904D02*
X99718438Y-50958666D01*
X99718438Y-50958666D02*
X99670819Y-50863428D01*
X99670819Y-50863428D02*
X99670819Y-50672952D01*
X99670819Y-50672952D02*
X99718438Y-50577714D01*
X99718438Y-50577714D02*
X99813676Y-50482476D01*
X99813676Y-50482476D02*
X100004152Y-50434857D01*
X100004152Y-50434857D02*
X100337485Y-50434857D01*
X100337485Y-50434857D02*
X100527961Y-50482476D01*
X100527961Y-50482476D02*
X100623200Y-50577714D01*
X100623200Y-50577714D02*
X100670819Y-50672952D01*
X100670819Y-50672952D02*
X100670819Y-50863428D01*
X99670819Y-49577714D02*
X99670819Y-49768190D01*
X99670819Y-49768190D02*
X99718438Y-49863428D01*
X99718438Y-49863428D02*
X99766057Y-49911047D01*
X99766057Y-49911047D02*
X99908914Y-50006285D01*
X99908914Y-50006285D02*
X100099390Y-50053904D01*
X100099390Y-50053904D02*
X100480342Y-50053904D01*
X100480342Y-50053904D02*
X100575580Y-50006285D01*
X100575580Y-50006285D02*
X100623200Y-49958666D01*
X100623200Y-49958666D02*
X100670819Y-49863428D01*
X100670819Y-49863428D02*
X100670819Y-49672952D01*
X100670819Y-49672952D02*
X100623200Y-49577714D01*
X100623200Y-49577714D02*
X100575580Y-49530095D01*
X100575580Y-49530095D02*
X100480342Y-49482476D01*
X100480342Y-49482476D02*
X100242247Y-49482476D01*
X100242247Y-49482476D02*
X100147009Y-49530095D01*
X100147009Y-49530095D02*
X100099390Y-49577714D01*
X100099390Y-49577714D02*
X100051771Y-49672952D01*
X100051771Y-49672952D02*
X100051771Y-49863428D01*
X100051771Y-49863428D02*
X100099390Y-49958666D01*
X100099390Y-49958666D02*
X100147009Y-50006285D01*
X100147009Y-50006285D02*
X100242247Y-50053904D01*
X91209905Y-54810819D02*
X91209905Y-53810819D01*
X91209905Y-53810819D02*
X91448000Y-53810819D01*
X91448000Y-53810819D02*
X91590857Y-53858438D01*
X91590857Y-53858438D02*
X91686095Y-53953676D01*
X91686095Y-53953676D02*
X91733714Y-54048914D01*
X91733714Y-54048914D02*
X91781333Y-54239390D01*
X91781333Y-54239390D02*
X91781333Y-54382247D01*
X91781333Y-54382247D02*
X91733714Y-54572723D01*
X91733714Y-54572723D02*
X91686095Y-54667961D01*
X91686095Y-54667961D02*
X91590857Y-54763200D01*
X91590857Y-54763200D02*
X91448000Y-54810819D01*
X91448000Y-54810819D02*
X91209905Y-54810819D01*
X92638476Y-53810819D02*
X92448000Y-53810819D01*
X92448000Y-53810819D02*
X92352762Y-53858438D01*
X92352762Y-53858438D02*
X92305143Y-53906057D01*
X92305143Y-53906057D02*
X92209905Y-54048914D01*
X92209905Y-54048914D02*
X92162286Y-54239390D01*
X92162286Y-54239390D02*
X92162286Y-54620342D01*
X92162286Y-54620342D02*
X92209905Y-54715580D01*
X92209905Y-54715580D02*
X92257524Y-54763200D01*
X92257524Y-54763200D02*
X92352762Y-54810819D01*
X92352762Y-54810819D02*
X92543238Y-54810819D01*
X92543238Y-54810819D02*
X92638476Y-54763200D01*
X92638476Y-54763200D02*
X92686095Y-54715580D01*
X92686095Y-54715580D02*
X92733714Y-54620342D01*
X92733714Y-54620342D02*
X92733714Y-54382247D01*
X92733714Y-54382247D02*
X92686095Y-54287009D01*
X92686095Y-54287009D02*
X92638476Y-54239390D01*
X92638476Y-54239390D02*
X92543238Y-54191771D01*
X92543238Y-54191771D02*
X92352762Y-54191771D01*
X92352762Y-54191771D02*
X92257524Y-54239390D01*
X92257524Y-54239390D02*
X92209905Y-54287009D01*
X92209905Y-54287009D02*
X92162286Y-54382247D01*
X37784166Y-31090819D02*
X37784166Y-31805104D01*
X37784166Y-31805104D02*
X37736547Y-31947961D01*
X37736547Y-31947961D02*
X37641309Y-32043200D01*
X37641309Y-32043200D02*
X37498452Y-32090819D01*
X37498452Y-32090819D02*
X37403214Y-32090819D01*
X38688928Y-31090819D02*
X38498452Y-31090819D01*
X38498452Y-31090819D02*
X38403214Y-31138438D01*
X38403214Y-31138438D02*
X38355595Y-31186057D01*
X38355595Y-31186057D02*
X38260357Y-31328914D01*
X38260357Y-31328914D02*
X38212738Y-31519390D01*
X38212738Y-31519390D02*
X38212738Y-31900342D01*
X38212738Y-31900342D02*
X38260357Y-31995580D01*
X38260357Y-31995580D02*
X38307976Y-32043200D01*
X38307976Y-32043200D02*
X38403214Y-32090819D01*
X38403214Y-32090819D02*
X38593690Y-32090819D01*
X38593690Y-32090819D02*
X38688928Y-32043200D01*
X38688928Y-32043200D02*
X38736547Y-31995580D01*
X38736547Y-31995580D02*
X38784166Y-31900342D01*
X38784166Y-31900342D02*
X38784166Y-31662247D01*
X38784166Y-31662247D02*
X38736547Y-31567009D01*
X38736547Y-31567009D02*
X38688928Y-31519390D01*
X38688928Y-31519390D02*
X38593690Y-31471771D01*
X38593690Y-31471771D02*
X38403214Y-31471771D01*
X38403214Y-31471771D02*
X38307976Y-31519390D01*
X38307976Y-31519390D02*
X38260357Y-31567009D01*
X38260357Y-31567009D02*
X38212738Y-31662247D01*
X75130819Y-54490857D02*
X74654628Y-54824190D01*
X75130819Y-55062285D02*
X74130819Y-55062285D01*
X74130819Y-55062285D02*
X74130819Y-54681333D01*
X74130819Y-54681333D02*
X74178438Y-54586095D01*
X74178438Y-54586095D02*
X74226057Y-54538476D01*
X74226057Y-54538476D02*
X74321295Y-54490857D01*
X74321295Y-54490857D02*
X74464152Y-54490857D01*
X74464152Y-54490857D02*
X74559390Y-54538476D01*
X74559390Y-54538476D02*
X74607009Y-54586095D01*
X74607009Y-54586095D02*
X74654628Y-54681333D01*
X74654628Y-54681333D02*
X74654628Y-55062285D01*
X75130819Y-53538476D02*
X75130819Y-54109904D01*
X75130819Y-53824190D02*
X74130819Y-53824190D01*
X74130819Y-53824190D02*
X74273676Y-53919428D01*
X74273676Y-53919428D02*
X74368914Y-54014666D01*
X74368914Y-54014666D02*
X74416533Y-54109904D01*
X74130819Y-53205142D02*
X74130819Y-52586095D01*
X74130819Y-52586095D02*
X74511771Y-52919428D01*
X74511771Y-52919428D02*
X74511771Y-52776571D01*
X74511771Y-52776571D02*
X74559390Y-52681333D01*
X74559390Y-52681333D02*
X74607009Y-52633714D01*
X74607009Y-52633714D02*
X74702247Y-52586095D01*
X74702247Y-52586095D02*
X74940342Y-52586095D01*
X74940342Y-52586095D02*
X75035580Y-52633714D01*
X75035580Y-52633714D02*
X75083200Y-52681333D01*
X75083200Y-52681333D02*
X75130819Y-52776571D01*
X75130819Y-52776571D02*
X75130819Y-53062285D01*
X75130819Y-53062285D02*
X75083200Y-53157523D01*
X75083200Y-53157523D02*
X75035580Y-53205142D01*
X96893142Y-57099580D02*
X96845523Y-57147200D01*
X96845523Y-57147200D02*
X96702666Y-57194819D01*
X96702666Y-57194819D02*
X96607428Y-57194819D01*
X96607428Y-57194819D02*
X96464571Y-57147200D01*
X96464571Y-57147200D02*
X96369333Y-57051961D01*
X96369333Y-57051961D02*
X96321714Y-56956723D01*
X96321714Y-56956723D02*
X96274095Y-56766247D01*
X96274095Y-56766247D02*
X96274095Y-56623390D01*
X96274095Y-56623390D02*
X96321714Y-56432914D01*
X96321714Y-56432914D02*
X96369333Y-56337676D01*
X96369333Y-56337676D02*
X96464571Y-56242438D01*
X96464571Y-56242438D02*
X96607428Y-56194819D01*
X96607428Y-56194819D02*
X96702666Y-56194819D01*
X96702666Y-56194819D02*
X96845523Y-56242438D01*
X96845523Y-56242438D02*
X96893142Y-56290057D01*
X97845523Y-57194819D02*
X97274095Y-57194819D01*
X97559809Y-57194819D02*
X97559809Y-56194819D01*
X97559809Y-56194819D02*
X97464571Y-56337676D01*
X97464571Y-56337676D02*
X97369333Y-56432914D01*
X97369333Y-56432914D02*
X97274095Y-56480533D01*
X98178857Y-56194819D02*
X98845523Y-56194819D01*
X98845523Y-56194819D02*
X98416952Y-57194819D01*
X96289905Y-54810819D02*
X96289905Y-53810819D01*
X96289905Y-53810819D02*
X96528000Y-53810819D01*
X96528000Y-53810819D02*
X96670857Y-53858438D01*
X96670857Y-53858438D02*
X96766095Y-53953676D01*
X96766095Y-53953676D02*
X96813714Y-54048914D01*
X96813714Y-54048914D02*
X96861333Y-54239390D01*
X96861333Y-54239390D02*
X96861333Y-54382247D01*
X96861333Y-54382247D02*
X96813714Y-54572723D01*
X96813714Y-54572723D02*
X96766095Y-54667961D01*
X96766095Y-54667961D02*
X96670857Y-54763200D01*
X96670857Y-54763200D02*
X96528000Y-54810819D01*
X96528000Y-54810819D02*
X96289905Y-54810819D01*
X97766095Y-53810819D02*
X97289905Y-53810819D01*
X97289905Y-53810819D02*
X97242286Y-54287009D01*
X97242286Y-54287009D02*
X97289905Y-54239390D01*
X97289905Y-54239390D02*
X97385143Y-54191771D01*
X97385143Y-54191771D02*
X97623238Y-54191771D01*
X97623238Y-54191771D02*
X97718476Y-54239390D01*
X97718476Y-54239390D02*
X97766095Y-54287009D01*
X97766095Y-54287009D02*
X97813714Y-54382247D01*
X97813714Y-54382247D02*
X97813714Y-54620342D01*
X97813714Y-54620342D02*
X97766095Y-54715580D01*
X97766095Y-54715580D02*
X97718476Y-54763200D01*
X97718476Y-54763200D02*
X97623238Y-54810819D01*
X97623238Y-54810819D02*
X97385143Y-54810819D01*
X97385143Y-54810819D02*
X97289905Y-54763200D01*
X97289905Y-54763200D02*
X97242286Y-54715580D01*
X89717714Y-50238819D02*
X89717714Y-49238819D01*
X89717714Y-49238819D02*
X89955809Y-49238819D01*
X89955809Y-49238819D02*
X90098666Y-49286438D01*
X90098666Y-49286438D02*
X90193904Y-49381676D01*
X90193904Y-49381676D02*
X90241523Y-49476914D01*
X90241523Y-49476914D02*
X90289142Y-49667390D01*
X90289142Y-49667390D02*
X90289142Y-49810247D01*
X90289142Y-49810247D02*
X90241523Y-50000723D01*
X90241523Y-50000723D02*
X90193904Y-50095961D01*
X90193904Y-50095961D02*
X90098666Y-50191200D01*
X90098666Y-50191200D02*
X89955809Y-50238819D01*
X89955809Y-50238819D02*
X89717714Y-50238819D01*
X91241523Y-50238819D02*
X90670095Y-50238819D01*
X90955809Y-50238819D02*
X90955809Y-49238819D01*
X90955809Y-49238819D02*
X90860571Y-49381676D01*
X90860571Y-49381676D02*
X90765333Y-49476914D01*
X90765333Y-49476914D02*
X90670095Y-49524533D01*
X92098666Y-49572152D02*
X92098666Y-50238819D01*
X91860571Y-49191200D02*
X91622476Y-49905485D01*
X91622476Y-49905485D02*
X92241523Y-49905485D01*
X67225416Y-31090819D02*
X67225416Y-31805104D01*
X67225416Y-31805104D02*
X67177797Y-31947961D01*
X67177797Y-31947961D02*
X67082559Y-32043200D01*
X67082559Y-32043200D02*
X66939702Y-32090819D01*
X66939702Y-32090819D02*
X66844464Y-32090819D01*
X67844464Y-31519390D02*
X67749226Y-31471771D01*
X67749226Y-31471771D02*
X67701607Y-31424152D01*
X67701607Y-31424152D02*
X67653988Y-31328914D01*
X67653988Y-31328914D02*
X67653988Y-31281295D01*
X67653988Y-31281295D02*
X67701607Y-31186057D01*
X67701607Y-31186057D02*
X67749226Y-31138438D01*
X67749226Y-31138438D02*
X67844464Y-31090819D01*
X67844464Y-31090819D02*
X68034940Y-31090819D01*
X68034940Y-31090819D02*
X68130178Y-31138438D01*
X68130178Y-31138438D02*
X68177797Y-31186057D01*
X68177797Y-31186057D02*
X68225416Y-31281295D01*
X68225416Y-31281295D02*
X68225416Y-31328914D01*
X68225416Y-31328914D02*
X68177797Y-31424152D01*
X68177797Y-31424152D02*
X68130178Y-31471771D01*
X68130178Y-31471771D02*
X68034940Y-31519390D01*
X68034940Y-31519390D02*
X67844464Y-31519390D01*
X67844464Y-31519390D02*
X67749226Y-31567009D01*
X67749226Y-31567009D02*
X67701607Y-31614628D01*
X67701607Y-31614628D02*
X67653988Y-31709866D01*
X67653988Y-31709866D02*
X67653988Y-31900342D01*
X67653988Y-31900342D02*
X67701607Y-31995580D01*
X67701607Y-31995580D02*
X67749226Y-32043200D01*
X67749226Y-32043200D02*
X67844464Y-32090819D01*
X67844464Y-32090819D02*
X68034940Y-32090819D01*
X68034940Y-32090819D02*
X68130178Y-32043200D01*
X68130178Y-32043200D02*
X68177797Y-31995580D01*
X68177797Y-31995580D02*
X68225416Y-31900342D01*
X68225416Y-31900342D02*
X68225416Y-31709866D01*
X68225416Y-31709866D02*
X68177797Y-31614628D01*
X68177797Y-31614628D02*
X68130178Y-31567009D01*
X68130178Y-31567009D02*
X68034940Y-31519390D01*
X75638819Y-51760285D02*
X74638819Y-51760285D01*
X74638819Y-51760285D02*
X74638819Y-51522190D01*
X74638819Y-51522190D02*
X74686438Y-51379333D01*
X74686438Y-51379333D02*
X74781676Y-51284095D01*
X74781676Y-51284095D02*
X74876914Y-51236476D01*
X74876914Y-51236476D02*
X75067390Y-51188857D01*
X75067390Y-51188857D02*
X75210247Y-51188857D01*
X75210247Y-51188857D02*
X75400723Y-51236476D01*
X75400723Y-51236476D02*
X75495961Y-51284095D01*
X75495961Y-51284095D02*
X75591200Y-51379333D01*
X75591200Y-51379333D02*
X75638819Y-51522190D01*
X75638819Y-51522190D02*
X75638819Y-51760285D01*
X75638819Y-50236476D02*
X75638819Y-50807904D01*
X75638819Y-50522190D02*
X74638819Y-50522190D01*
X74638819Y-50522190D02*
X74781676Y-50617428D01*
X74781676Y-50617428D02*
X74876914Y-50712666D01*
X74876914Y-50712666D02*
X74924533Y-50807904D01*
X74638819Y-49903142D02*
X74638819Y-49284095D01*
X74638819Y-49284095D02*
X75019771Y-49617428D01*
X75019771Y-49617428D02*
X75019771Y-49474571D01*
X75019771Y-49474571D02*
X75067390Y-49379333D01*
X75067390Y-49379333D02*
X75115009Y-49331714D01*
X75115009Y-49331714D02*
X75210247Y-49284095D01*
X75210247Y-49284095D02*
X75448342Y-49284095D01*
X75448342Y-49284095D02*
X75543580Y-49331714D01*
X75543580Y-49331714D02*
X75591200Y-49379333D01*
X75591200Y-49379333D02*
X75638819Y-49474571D01*
X75638819Y-49474571D02*
X75638819Y-49760285D01*
X75638819Y-49760285D02*
X75591200Y-49855523D01*
X75591200Y-49855523D02*
X75543580Y-49903142D01*
X45063580Y-55030666D02*
X45111200Y-55078285D01*
X45111200Y-55078285D02*
X45158819Y-55221142D01*
X45158819Y-55221142D02*
X45158819Y-55316380D01*
X45158819Y-55316380D02*
X45111200Y-55459237D01*
X45111200Y-55459237D02*
X45015961Y-55554475D01*
X45015961Y-55554475D02*
X44920723Y-55602094D01*
X44920723Y-55602094D02*
X44730247Y-55649713D01*
X44730247Y-55649713D02*
X44587390Y-55649713D01*
X44587390Y-55649713D02*
X44396914Y-55602094D01*
X44396914Y-55602094D02*
X44301676Y-55554475D01*
X44301676Y-55554475D02*
X44206438Y-55459237D01*
X44206438Y-55459237D02*
X44158819Y-55316380D01*
X44158819Y-55316380D02*
X44158819Y-55221142D01*
X44158819Y-55221142D02*
X44206438Y-55078285D01*
X44206438Y-55078285D02*
X44254057Y-55030666D01*
X45158819Y-54078285D02*
X45158819Y-54649713D01*
X45158819Y-54363999D02*
X44158819Y-54363999D01*
X44158819Y-54363999D02*
X44301676Y-54459237D01*
X44301676Y-54459237D02*
X44396914Y-54554475D01*
X44396914Y-54554475D02*
X44444533Y-54649713D01*
X46129319Y-45857594D02*
X45129319Y-45857594D01*
X46129319Y-45286166D02*
X45557890Y-45714737D01*
X45129319Y-45286166D02*
X45700747Y-45857594D01*
X45224557Y-44905213D02*
X45176938Y-44857594D01*
X45176938Y-44857594D02*
X45129319Y-44762356D01*
X45129319Y-44762356D02*
X45129319Y-44524261D01*
X45129319Y-44524261D02*
X45176938Y-44429023D01*
X45176938Y-44429023D02*
X45224557Y-44381404D01*
X45224557Y-44381404D02*
X45319795Y-44333785D01*
X45319795Y-44333785D02*
X45415033Y-44333785D01*
X45415033Y-44333785D02*
X45557890Y-44381404D01*
X45557890Y-44381404D02*
X46129319Y-44952832D01*
X46129319Y-44952832D02*
X46129319Y-44333785D01*
X49649142Y-73988819D02*
X49315809Y-73512628D01*
X49077714Y-73988819D02*
X49077714Y-72988819D01*
X49077714Y-72988819D02*
X49458666Y-72988819D01*
X49458666Y-72988819D02*
X49553904Y-73036438D01*
X49553904Y-73036438D02*
X49601523Y-73084057D01*
X49601523Y-73084057D02*
X49649142Y-73179295D01*
X49649142Y-73179295D02*
X49649142Y-73322152D01*
X49649142Y-73322152D02*
X49601523Y-73417390D01*
X49601523Y-73417390D02*
X49553904Y-73465009D01*
X49553904Y-73465009D02*
X49458666Y-73512628D01*
X49458666Y-73512628D02*
X49077714Y-73512628D01*
X50601523Y-73988819D02*
X50030095Y-73988819D01*
X50315809Y-73988819D02*
X50315809Y-72988819D01*
X50315809Y-72988819D02*
X50220571Y-73131676D01*
X50220571Y-73131676D02*
X50125333Y-73226914D01*
X50125333Y-73226914D02*
X50030095Y-73274533D01*
X51220571Y-72988819D02*
X51315809Y-72988819D01*
X51315809Y-72988819D02*
X51411047Y-73036438D01*
X51411047Y-73036438D02*
X51458666Y-73084057D01*
X51458666Y-73084057D02*
X51506285Y-73179295D01*
X51506285Y-73179295D02*
X51553904Y-73369771D01*
X51553904Y-73369771D02*
X51553904Y-73607866D01*
X51553904Y-73607866D02*
X51506285Y-73798342D01*
X51506285Y-73798342D02*
X51458666Y-73893580D01*
X51458666Y-73893580D02*
X51411047Y-73941200D01*
X51411047Y-73941200D02*
X51315809Y-73988819D01*
X51315809Y-73988819D02*
X51220571Y-73988819D01*
X51220571Y-73988819D02*
X51125333Y-73941200D01*
X51125333Y-73941200D02*
X51077714Y-73893580D01*
X51077714Y-73893580D02*
X51030095Y-73798342D01*
X51030095Y-73798342D02*
X50982476Y-73607866D01*
X50982476Y-73607866D02*
X50982476Y-73369771D01*
X50982476Y-73369771D02*
X51030095Y-73179295D01*
X51030095Y-73179295D02*
X51077714Y-73084057D01*
X51077714Y-73084057D02*
X51125333Y-73036438D01*
X51125333Y-73036438D02*
X51220571Y-72988819D01*
X86129905Y-55826819D02*
X86129905Y-54826819D01*
X86129905Y-54826819D02*
X86368000Y-54826819D01*
X86368000Y-54826819D02*
X86510857Y-54874438D01*
X86510857Y-54874438D02*
X86606095Y-54969676D01*
X86606095Y-54969676D02*
X86653714Y-55064914D01*
X86653714Y-55064914D02*
X86701333Y-55255390D01*
X86701333Y-55255390D02*
X86701333Y-55398247D01*
X86701333Y-55398247D02*
X86653714Y-55588723D01*
X86653714Y-55588723D02*
X86606095Y-55683961D01*
X86606095Y-55683961D02*
X86510857Y-55779200D01*
X86510857Y-55779200D02*
X86368000Y-55826819D01*
X86368000Y-55826819D02*
X86129905Y-55826819D01*
X87177524Y-55826819D02*
X87368000Y-55826819D01*
X87368000Y-55826819D02*
X87463238Y-55779200D01*
X87463238Y-55779200D02*
X87510857Y-55731580D01*
X87510857Y-55731580D02*
X87606095Y-55588723D01*
X87606095Y-55588723D02*
X87653714Y-55398247D01*
X87653714Y-55398247D02*
X87653714Y-55017295D01*
X87653714Y-55017295D02*
X87606095Y-54922057D01*
X87606095Y-54922057D02*
X87558476Y-54874438D01*
X87558476Y-54874438D02*
X87463238Y-54826819D01*
X87463238Y-54826819D02*
X87272762Y-54826819D01*
X87272762Y-54826819D02*
X87177524Y-54874438D01*
X87177524Y-54874438D02*
X87129905Y-54922057D01*
X87129905Y-54922057D02*
X87082286Y-55017295D01*
X87082286Y-55017295D02*
X87082286Y-55255390D01*
X87082286Y-55255390D02*
X87129905Y-55350628D01*
X87129905Y-55350628D02*
X87177524Y-55398247D01*
X87177524Y-55398247D02*
X87272762Y-55445866D01*
X87272762Y-55445866D02*
X87463238Y-55445866D01*
X87463238Y-55445866D02*
X87558476Y-55398247D01*
X87558476Y-55398247D02*
X87606095Y-55350628D01*
X87606095Y-55350628D02*
X87653714Y-55255390D01*
X90386819Y-57149904D02*
X91196342Y-57149904D01*
X91196342Y-57149904D02*
X91291580Y-57102285D01*
X91291580Y-57102285D02*
X91339200Y-57054666D01*
X91339200Y-57054666D02*
X91386819Y-56959428D01*
X91386819Y-56959428D02*
X91386819Y-56768952D01*
X91386819Y-56768952D02*
X91339200Y-56673714D01*
X91339200Y-56673714D02*
X91291580Y-56626095D01*
X91291580Y-56626095D02*
X91196342Y-56578476D01*
X91196342Y-56578476D02*
X90386819Y-56578476D01*
X90386819Y-55673714D02*
X90386819Y-55864190D01*
X90386819Y-55864190D02*
X90434438Y-55959428D01*
X90434438Y-55959428D02*
X90482057Y-56007047D01*
X90482057Y-56007047D02*
X90624914Y-56102285D01*
X90624914Y-56102285D02*
X90815390Y-56149904D01*
X90815390Y-56149904D02*
X91196342Y-56149904D01*
X91196342Y-56149904D02*
X91291580Y-56102285D01*
X91291580Y-56102285D02*
X91339200Y-56054666D01*
X91339200Y-56054666D02*
X91386819Y-55959428D01*
X91386819Y-55959428D02*
X91386819Y-55768952D01*
X91386819Y-55768952D02*
X91339200Y-55673714D01*
X91339200Y-55673714D02*
X91291580Y-55626095D01*
X91291580Y-55626095D02*
X91196342Y-55578476D01*
X91196342Y-55578476D02*
X90958247Y-55578476D01*
X90958247Y-55578476D02*
X90863009Y-55626095D01*
X90863009Y-55626095D02*
X90815390Y-55673714D01*
X90815390Y-55673714D02*
X90767771Y-55768952D01*
X90767771Y-55768952D02*
X90767771Y-55959428D01*
X90767771Y-55959428D02*
X90815390Y-56054666D01*
X90815390Y-56054666D02*
X90863009Y-56102285D01*
X90863009Y-56102285D02*
X90958247Y-56149904D01*
X82846057Y-50387238D02*
X82798438Y-50482476D01*
X82798438Y-50482476D02*
X82703200Y-50577714D01*
X82703200Y-50577714D02*
X82560342Y-50720571D01*
X82560342Y-50720571D02*
X82512723Y-50815809D01*
X82512723Y-50815809D02*
X82512723Y-50911047D01*
X82750819Y-50863428D02*
X82703200Y-50958666D01*
X82703200Y-50958666D02*
X82607961Y-51053904D01*
X82607961Y-51053904D02*
X82417485Y-51101523D01*
X82417485Y-51101523D02*
X82084152Y-51101523D01*
X82084152Y-51101523D02*
X81893676Y-51053904D01*
X81893676Y-51053904D02*
X81798438Y-50958666D01*
X81798438Y-50958666D02*
X81750819Y-50863428D01*
X81750819Y-50863428D02*
X81750819Y-50672952D01*
X81750819Y-50672952D02*
X81798438Y-50577714D01*
X81798438Y-50577714D02*
X81893676Y-50482476D01*
X81893676Y-50482476D02*
X82084152Y-50434857D01*
X82084152Y-50434857D02*
X82417485Y-50434857D01*
X82417485Y-50434857D02*
X82607961Y-50482476D01*
X82607961Y-50482476D02*
X82703200Y-50577714D01*
X82703200Y-50577714D02*
X82750819Y-50672952D01*
X82750819Y-50672952D02*
X82750819Y-50863428D01*
X81750819Y-49530095D02*
X81750819Y-50006285D01*
X81750819Y-50006285D02*
X82227009Y-50053904D01*
X82227009Y-50053904D02*
X82179390Y-50006285D01*
X82179390Y-50006285D02*
X82131771Y-49911047D01*
X82131771Y-49911047D02*
X82131771Y-49672952D01*
X82131771Y-49672952D02*
X82179390Y-49577714D01*
X82179390Y-49577714D02*
X82227009Y-49530095D01*
X82227009Y-49530095D02*
X82322247Y-49482476D01*
X82322247Y-49482476D02*
X82560342Y-49482476D01*
X82560342Y-49482476D02*
X82655580Y-49530095D01*
X82655580Y-49530095D02*
X82703200Y-49577714D01*
X82703200Y-49577714D02*
X82750819Y-49672952D01*
X82750819Y-49672952D02*
X82750819Y-49911047D01*
X82750819Y-49911047D02*
X82703200Y-50006285D01*
X82703200Y-50006285D02*
X82655580Y-50053904D01*
X31397319Y-45857594D02*
X30397319Y-45857594D01*
X31397319Y-45286166D02*
X30825890Y-45714737D01*
X30397319Y-45286166D02*
X30968747Y-45857594D01*
X31397319Y-44333785D02*
X31397319Y-44905213D01*
X31397319Y-44619499D02*
X30397319Y-44619499D01*
X30397319Y-44619499D02*
X30540176Y-44714737D01*
X30540176Y-44714737D02*
X30635414Y-44809975D01*
X30635414Y-44809975D02*
X30683033Y-44905213D01*
X45063580Y-67222666D02*
X45111200Y-67270285D01*
X45111200Y-67270285D02*
X45158819Y-67413142D01*
X45158819Y-67413142D02*
X45158819Y-67508380D01*
X45158819Y-67508380D02*
X45111200Y-67651237D01*
X45111200Y-67651237D02*
X45015961Y-67746475D01*
X45015961Y-67746475D02*
X44920723Y-67794094D01*
X44920723Y-67794094D02*
X44730247Y-67841713D01*
X44730247Y-67841713D02*
X44587390Y-67841713D01*
X44587390Y-67841713D02*
X44396914Y-67794094D01*
X44396914Y-67794094D02*
X44301676Y-67746475D01*
X44301676Y-67746475D02*
X44206438Y-67651237D01*
X44206438Y-67651237D02*
X44158819Y-67508380D01*
X44158819Y-67508380D02*
X44158819Y-67413142D01*
X44158819Y-67413142D02*
X44206438Y-67270285D01*
X44206438Y-67270285D02*
X44254057Y-67222666D01*
X44158819Y-66365523D02*
X44158819Y-66555999D01*
X44158819Y-66555999D02*
X44206438Y-66651237D01*
X44206438Y-66651237D02*
X44254057Y-66698856D01*
X44254057Y-66698856D02*
X44396914Y-66794094D01*
X44396914Y-66794094D02*
X44587390Y-66841713D01*
X44587390Y-66841713D02*
X44968342Y-66841713D01*
X44968342Y-66841713D02*
X45063580Y-66794094D01*
X45063580Y-66794094D02*
X45111200Y-66746475D01*
X45111200Y-66746475D02*
X45158819Y-66651237D01*
X45158819Y-66651237D02*
X45158819Y-66460761D01*
X45158819Y-66460761D02*
X45111200Y-66365523D01*
X45111200Y-66365523D02*
X45063580Y-66317904D01*
X45063580Y-66317904D02*
X44968342Y-66270285D01*
X44968342Y-66270285D02*
X44730247Y-66270285D01*
X44730247Y-66270285D02*
X44635009Y-66317904D01*
X44635009Y-66317904D02*
X44587390Y-66365523D01*
X44587390Y-66365523D02*
X44539771Y-66460761D01*
X44539771Y-66460761D02*
X44539771Y-66651237D01*
X44539771Y-66651237D02*
X44587390Y-66746475D01*
X44587390Y-66746475D02*
X44635009Y-66794094D01*
X44635009Y-66794094D02*
X44730247Y-66841713D01*
X45063580Y-63158666D02*
X45111200Y-63206285D01*
X45111200Y-63206285D02*
X45158819Y-63349142D01*
X45158819Y-63349142D02*
X45158819Y-63444380D01*
X45158819Y-63444380D02*
X45111200Y-63587237D01*
X45111200Y-63587237D02*
X45015961Y-63682475D01*
X45015961Y-63682475D02*
X44920723Y-63730094D01*
X44920723Y-63730094D02*
X44730247Y-63777713D01*
X44730247Y-63777713D02*
X44587390Y-63777713D01*
X44587390Y-63777713D02*
X44396914Y-63730094D01*
X44396914Y-63730094D02*
X44301676Y-63682475D01*
X44301676Y-63682475D02*
X44206438Y-63587237D01*
X44206438Y-63587237D02*
X44158819Y-63444380D01*
X44158819Y-63444380D02*
X44158819Y-63349142D01*
X44158819Y-63349142D02*
X44206438Y-63206285D01*
X44206438Y-63206285D02*
X44254057Y-63158666D01*
X44492152Y-62301523D02*
X45158819Y-62301523D01*
X44111200Y-62539618D02*
X44825485Y-62777713D01*
X44825485Y-62777713D02*
X44825485Y-62158666D01*
X52428319Y-58449904D02*
X53237842Y-58449904D01*
X53237842Y-58449904D02*
X53333080Y-58402285D01*
X53333080Y-58402285D02*
X53380700Y-58354666D01*
X53380700Y-58354666D02*
X53428319Y-58259428D01*
X53428319Y-58259428D02*
X53428319Y-58068952D01*
X53428319Y-58068952D02*
X53380700Y-57973714D01*
X53380700Y-57973714D02*
X53333080Y-57926095D01*
X53333080Y-57926095D02*
X53237842Y-57878476D01*
X53237842Y-57878476D02*
X52428319Y-57878476D01*
X53428319Y-56878476D02*
X53428319Y-57449904D01*
X53428319Y-57164190D02*
X52428319Y-57164190D01*
X52428319Y-57164190D02*
X52571176Y-57259428D01*
X52571176Y-57259428D02*
X52666414Y-57354666D01*
X52666414Y-57354666D02*
X52714033Y-57449904D01*
X96289905Y-52270819D02*
X96289905Y-51270819D01*
X96289905Y-51270819D02*
X96528000Y-51270819D01*
X96528000Y-51270819D02*
X96670857Y-51318438D01*
X96670857Y-51318438D02*
X96766095Y-51413676D01*
X96766095Y-51413676D02*
X96813714Y-51508914D01*
X96813714Y-51508914D02*
X96861333Y-51699390D01*
X96861333Y-51699390D02*
X96861333Y-51842247D01*
X96861333Y-51842247D02*
X96813714Y-52032723D01*
X96813714Y-52032723D02*
X96766095Y-52127961D01*
X96766095Y-52127961D02*
X96670857Y-52223200D01*
X96670857Y-52223200D02*
X96528000Y-52270819D01*
X96528000Y-52270819D02*
X96289905Y-52270819D01*
X97432762Y-51699390D02*
X97337524Y-51651771D01*
X97337524Y-51651771D02*
X97289905Y-51604152D01*
X97289905Y-51604152D02*
X97242286Y-51508914D01*
X97242286Y-51508914D02*
X97242286Y-51461295D01*
X97242286Y-51461295D02*
X97289905Y-51366057D01*
X97289905Y-51366057D02*
X97337524Y-51318438D01*
X97337524Y-51318438D02*
X97432762Y-51270819D01*
X97432762Y-51270819D02*
X97623238Y-51270819D01*
X97623238Y-51270819D02*
X97718476Y-51318438D01*
X97718476Y-51318438D02*
X97766095Y-51366057D01*
X97766095Y-51366057D02*
X97813714Y-51461295D01*
X97813714Y-51461295D02*
X97813714Y-51508914D01*
X97813714Y-51508914D02*
X97766095Y-51604152D01*
X97766095Y-51604152D02*
X97718476Y-51651771D01*
X97718476Y-51651771D02*
X97623238Y-51699390D01*
X97623238Y-51699390D02*
X97432762Y-51699390D01*
X97432762Y-51699390D02*
X97337524Y-51747009D01*
X97337524Y-51747009D02*
X97289905Y-51794628D01*
X97289905Y-51794628D02*
X97242286Y-51889866D01*
X97242286Y-51889866D02*
X97242286Y-52080342D01*
X97242286Y-52080342D02*
X97289905Y-52175580D01*
X97289905Y-52175580D02*
X97337524Y-52223200D01*
X97337524Y-52223200D02*
X97432762Y-52270819D01*
X97432762Y-52270819D02*
X97623238Y-52270819D01*
X97623238Y-52270819D02*
X97718476Y-52223200D01*
X97718476Y-52223200D02*
X97766095Y-52175580D01*
X97766095Y-52175580D02*
X97813714Y-52080342D01*
X97813714Y-52080342D02*
X97813714Y-51889866D01*
X97813714Y-51889866D02*
X97766095Y-51794628D01*
X97766095Y-51794628D02*
X97718476Y-51747009D01*
X97718476Y-51747009D02*
X97623238Y-51699390D01*
X92274095Y-79330819D02*
X92274095Y-78330819D01*
X92274095Y-78330819D02*
X92607428Y-79045104D01*
X92607428Y-79045104D02*
X92940761Y-78330819D01*
X92940761Y-78330819D02*
X92940761Y-79330819D01*
X93369333Y-79045104D02*
X93845523Y-79045104D01*
X93274095Y-79330819D02*
X93607428Y-78330819D01*
X93607428Y-78330819D02*
X93940761Y-79330819D01*
X94274095Y-79330819D02*
X94274095Y-78330819D01*
X94750285Y-79330819D02*
X94750285Y-78330819D01*
X94750285Y-78330819D02*
X95321713Y-79330819D01*
X95321713Y-79330819D02*
X95321713Y-78330819D01*
X95559809Y-79426057D02*
X96321713Y-79426057D01*
X97131237Y-79235580D02*
X97083618Y-79283200D01*
X97083618Y-79283200D02*
X96940761Y-79330819D01*
X96940761Y-79330819D02*
X96845523Y-79330819D01*
X96845523Y-79330819D02*
X96702666Y-79283200D01*
X96702666Y-79283200D02*
X96607428Y-79187961D01*
X96607428Y-79187961D02*
X96559809Y-79092723D01*
X96559809Y-79092723D02*
X96512190Y-78902247D01*
X96512190Y-78902247D02*
X96512190Y-78759390D01*
X96512190Y-78759390D02*
X96559809Y-78568914D01*
X96559809Y-78568914D02*
X96607428Y-78473676D01*
X96607428Y-78473676D02*
X96702666Y-78378438D01*
X96702666Y-78378438D02*
X96845523Y-78330819D01*
X96845523Y-78330819D02*
X96940761Y-78330819D01*
X96940761Y-78330819D02*
X97083618Y-78378438D01*
X97083618Y-78378438D02*
X97131237Y-78426057D01*
X97750285Y-78330819D02*
X97940761Y-78330819D01*
X97940761Y-78330819D02*
X98035999Y-78378438D01*
X98035999Y-78378438D02*
X98131237Y-78473676D01*
X98131237Y-78473676D02*
X98178856Y-78664152D01*
X98178856Y-78664152D02*
X98178856Y-78997485D01*
X98178856Y-78997485D02*
X98131237Y-79187961D01*
X98131237Y-79187961D02*
X98035999Y-79283200D01*
X98035999Y-79283200D02*
X97940761Y-79330819D01*
X97940761Y-79330819D02*
X97750285Y-79330819D01*
X97750285Y-79330819D02*
X97655047Y-79283200D01*
X97655047Y-79283200D02*
X97559809Y-79187961D01*
X97559809Y-79187961D02*
X97512190Y-78997485D01*
X97512190Y-78997485D02*
X97512190Y-78664152D01*
X97512190Y-78664152D02*
X97559809Y-78473676D01*
X97559809Y-78473676D02*
X97655047Y-78378438D01*
X97655047Y-78378438D02*
X97750285Y-78330819D01*
X98607428Y-79330819D02*
X98607428Y-78330819D01*
X98607428Y-78330819D02*
X99178856Y-79330819D01*
X99178856Y-79330819D02*
X99178856Y-78330819D01*
X99512190Y-78330819D02*
X100083618Y-78330819D01*
X99797904Y-79330819D02*
X99797904Y-78330819D01*
X100988380Y-79330819D02*
X100655047Y-78854628D01*
X100416952Y-79330819D02*
X100416952Y-78330819D01*
X100416952Y-78330819D02*
X100797904Y-78330819D01*
X100797904Y-78330819D02*
X100893142Y-78378438D01*
X100893142Y-78378438D02*
X100940761Y-78426057D01*
X100940761Y-78426057D02*
X100988380Y-78521295D01*
X100988380Y-78521295D02*
X100988380Y-78664152D01*
X100988380Y-78664152D02*
X100940761Y-78759390D01*
X100940761Y-78759390D02*
X100893142Y-78807009D01*
X100893142Y-78807009D02*
X100797904Y-78854628D01*
X100797904Y-78854628D02*
X100416952Y-78854628D01*
X101607428Y-78330819D02*
X101797904Y-78330819D01*
X101797904Y-78330819D02*
X101893142Y-78378438D01*
X101893142Y-78378438D02*
X101988380Y-78473676D01*
X101988380Y-78473676D02*
X102035999Y-78664152D01*
X102035999Y-78664152D02*
X102035999Y-78997485D01*
X102035999Y-78997485D02*
X101988380Y-79187961D01*
X101988380Y-79187961D02*
X101893142Y-79283200D01*
X101893142Y-79283200D02*
X101797904Y-79330819D01*
X101797904Y-79330819D02*
X101607428Y-79330819D01*
X101607428Y-79330819D02*
X101512190Y-79283200D01*
X101512190Y-79283200D02*
X101416952Y-79187961D01*
X101416952Y-79187961D02*
X101369333Y-78997485D01*
X101369333Y-78997485D02*
X101369333Y-78664152D01*
X101369333Y-78664152D02*
X101416952Y-78473676D01*
X101416952Y-78473676D02*
X101512190Y-78378438D01*
X101512190Y-78378438D02*
X101607428Y-78330819D01*
X102940761Y-79330819D02*
X102464571Y-79330819D01*
X102464571Y-79330819D02*
X102464571Y-78330819D01*
X74072761Y-56938057D02*
X73977523Y-56890438D01*
X73977523Y-56890438D02*
X73882285Y-56795200D01*
X73882285Y-56795200D02*
X73739428Y-56652342D01*
X73739428Y-56652342D02*
X73644190Y-56604723D01*
X73644190Y-56604723D02*
X73548952Y-56604723D01*
X73596571Y-56842819D02*
X73501333Y-56795200D01*
X73501333Y-56795200D02*
X73406095Y-56699961D01*
X73406095Y-56699961D02*
X73358476Y-56509485D01*
X73358476Y-56509485D02*
X73358476Y-56176152D01*
X73358476Y-56176152D02*
X73406095Y-55985676D01*
X73406095Y-55985676D02*
X73501333Y-55890438D01*
X73501333Y-55890438D02*
X73596571Y-55842819D01*
X73596571Y-55842819D02*
X73787047Y-55842819D01*
X73787047Y-55842819D02*
X73882285Y-55890438D01*
X73882285Y-55890438D02*
X73977523Y-55985676D01*
X73977523Y-55985676D02*
X74025142Y-56176152D01*
X74025142Y-56176152D02*
X74025142Y-56509485D01*
X74025142Y-56509485D02*
X73977523Y-56699961D01*
X73977523Y-56699961D02*
X73882285Y-56795200D01*
X73882285Y-56795200D02*
X73787047Y-56842819D01*
X73787047Y-56842819D02*
X73596571Y-56842819D01*
X74977523Y-56842819D02*
X74406095Y-56842819D01*
X74691809Y-56842819D02*
X74691809Y-55842819D01*
X74691809Y-55842819D02*
X74596571Y-55985676D01*
X74596571Y-55985676D02*
X74501333Y-56080914D01*
X74501333Y-56080914D02*
X74406095Y-56128533D01*
X60793333Y-68780819D02*
X60460000Y-68304628D01*
X60221905Y-68780819D02*
X60221905Y-67780819D01*
X60221905Y-67780819D02*
X60602857Y-67780819D01*
X60602857Y-67780819D02*
X60698095Y-67828438D01*
X60698095Y-67828438D02*
X60745714Y-67876057D01*
X60745714Y-67876057D02*
X60793333Y-67971295D01*
X60793333Y-67971295D02*
X60793333Y-68114152D01*
X60793333Y-68114152D02*
X60745714Y-68209390D01*
X60745714Y-68209390D02*
X60698095Y-68257009D01*
X60698095Y-68257009D02*
X60602857Y-68304628D01*
X60602857Y-68304628D02*
X60221905Y-68304628D01*
X61650476Y-67780819D02*
X61460000Y-67780819D01*
X61460000Y-67780819D02*
X61364762Y-67828438D01*
X61364762Y-67828438D02*
X61317143Y-67876057D01*
X61317143Y-67876057D02*
X61221905Y-68018914D01*
X61221905Y-68018914D02*
X61174286Y-68209390D01*
X61174286Y-68209390D02*
X61174286Y-68590342D01*
X61174286Y-68590342D02*
X61221905Y-68685580D01*
X61221905Y-68685580D02*
X61269524Y-68733200D01*
X61269524Y-68733200D02*
X61364762Y-68780819D01*
X61364762Y-68780819D02*
X61555238Y-68780819D01*
X61555238Y-68780819D02*
X61650476Y-68733200D01*
X61650476Y-68733200D02*
X61698095Y-68685580D01*
X61698095Y-68685580D02*
X61745714Y-68590342D01*
X61745714Y-68590342D02*
X61745714Y-68352247D01*
X61745714Y-68352247D02*
X61698095Y-68257009D01*
X61698095Y-68257009D02*
X61650476Y-68209390D01*
X61650476Y-68209390D02*
X61555238Y-68161771D01*
X61555238Y-68161771D02*
X61364762Y-68161771D01*
X61364762Y-68161771D02*
X61269524Y-68209390D01*
X61269524Y-68209390D02*
X61221905Y-68257009D01*
X61221905Y-68257009D02*
X61174286Y-68352247D01*
X75593319Y-45857594D02*
X74593319Y-45857594D01*
X75593319Y-45286166D02*
X75021890Y-45714737D01*
X74593319Y-45286166D02*
X75164747Y-45857594D01*
X74926652Y-44429023D02*
X75593319Y-44429023D01*
X74545700Y-44667118D02*
X75259985Y-44905213D01*
X75259985Y-44905213D02*
X75259985Y-44286166D01*
X45158819Y-57062666D02*
X45158819Y-57538856D01*
X45158819Y-57538856D02*
X44158819Y-57538856D01*
X44158819Y-56824570D02*
X44158819Y-56205523D01*
X44158819Y-56205523D02*
X44539771Y-56538856D01*
X44539771Y-56538856D02*
X44539771Y-56395999D01*
X44539771Y-56395999D02*
X44587390Y-56300761D01*
X44587390Y-56300761D02*
X44635009Y-56253142D01*
X44635009Y-56253142D02*
X44730247Y-56205523D01*
X44730247Y-56205523D02*
X44968342Y-56205523D01*
X44968342Y-56205523D02*
X45063580Y-56253142D01*
X45063580Y-56253142D02*
X45111200Y-56300761D01*
X45111200Y-56300761D02*
X45158819Y-56395999D01*
X45158819Y-56395999D02*
X45158819Y-56681713D01*
X45158819Y-56681713D02*
X45111200Y-56776951D01*
X45111200Y-56776951D02*
X45063580Y-56824570D01*
X79875142Y-77575580D02*
X79827523Y-77623200D01*
X79827523Y-77623200D02*
X79684666Y-77670819D01*
X79684666Y-77670819D02*
X79589428Y-77670819D01*
X79589428Y-77670819D02*
X79446571Y-77623200D01*
X79446571Y-77623200D02*
X79351333Y-77527961D01*
X79351333Y-77527961D02*
X79303714Y-77432723D01*
X79303714Y-77432723D02*
X79256095Y-77242247D01*
X79256095Y-77242247D02*
X79256095Y-77099390D01*
X79256095Y-77099390D02*
X79303714Y-76908914D01*
X79303714Y-76908914D02*
X79351333Y-76813676D01*
X79351333Y-76813676D02*
X79446571Y-76718438D01*
X79446571Y-76718438D02*
X79589428Y-76670819D01*
X79589428Y-76670819D02*
X79684666Y-76670819D01*
X79684666Y-76670819D02*
X79827523Y-76718438D01*
X79827523Y-76718438D02*
X79875142Y-76766057D01*
X80827523Y-77670819D02*
X80256095Y-77670819D01*
X80541809Y-77670819D02*
X80541809Y-76670819D01*
X80541809Y-76670819D02*
X80446571Y-76813676D01*
X80446571Y-76813676D02*
X80351333Y-76908914D01*
X80351333Y-76908914D02*
X80256095Y-76956533D01*
X81160857Y-76670819D02*
X81779904Y-76670819D01*
X81779904Y-76670819D02*
X81446571Y-77051771D01*
X81446571Y-77051771D02*
X81589428Y-77051771D01*
X81589428Y-77051771D02*
X81684666Y-77099390D01*
X81684666Y-77099390D02*
X81732285Y-77147009D01*
X81732285Y-77147009D02*
X81779904Y-77242247D01*
X81779904Y-77242247D02*
X81779904Y-77480342D01*
X81779904Y-77480342D02*
X81732285Y-77575580D01*
X81732285Y-77575580D02*
X81684666Y-77623200D01*
X81684666Y-77623200D02*
X81589428Y-77670819D01*
X81589428Y-77670819D02*
X81303714Y-77670819D01*
X81303714Y-77670819D02*
X81208476Y-77623200D01*
X81208476Y-77623200D02*
X81160857Y-77575580D01*
X44569142Y-69542819D02*
X44235809Y-69066628D01*
X43997714Y-69542819D02*
X43997714Y-68542819D01*
X43997714Y-68542819D02*
X44378666Y-68542819D01*
X44378666Y-68542819D02*
X44473904Y-68590438D01*
X44473904Y-68590438D02*
X44521523Y-68638057D01*
X44521523Y-68638057D02*
X44569142Y-68733295D01*
X44569142Y-68733295D02*
X44569142Y-68876152D01*
X44569142Y-68876152D02*
X44521523Y-68971390D01*
X44521523Y-68971390D02*
X44473904Y-69019009D01*
X44473904Y-69019009D02*
X44378666Y-69066628D01*
X44378666Y-69066628D02*
X43997714Y-69066628D01*
X45521523Y-69542819D02*
X44950095Y-69542819D01*
X45235809Y-69542819D02*
X45235809Y-68542819D01*
X45235809Y-68542819D02*
X45140571Y-68685676D01*
X45140571Y-68685676D02*
X45045333Y-68780914D01*
X45045333Y-68780914D02*
X44950095Y-68828533D01*
X46473904Y-69542819D02*
X45902476Y-69542819D01*
X46188190Y-69542819D02*
X46188190Y-68542819D01*
X46188190Y-68542819D02*
X46092952Y-68685676D01*
X46092952Y-68685676D02*
X45997714Y-68780914D01*
X45997714Y-68780914D02*
X45902476Y-68828533D01*
X100625580Y-57030857D02*
X100673200Y-57078476D01*
X100673200Y-57078476D02*
X100720819Y-57221333D01*
X100720819Y-57221333D02*
X100720819Y-57316571D01*
X100720819Y-57316571D02*
X100673200Y-57459428D01*
X100673200Y-57459428D02*
X100577961Y-57554666D01*
X100577961Y-57554666D02*
X100482723Y-57602285D01*
X100482723Y-57602285D02*
X100292247Y-57649904D01*
X100292247Y-57649904D02*
X100149390Y-57649904D01*
X100149390Y-57649904D02*
X99958914Y-57602285D01*
X99958914Y-57602285D02*
X99863676Y-57554666D01*
X99863676Y-57554666D02*
X99768438Y-57459428D01*
X99768438Y-57459428D02*
X99720819Y-57316571D01*
X99720819Y-57316571D02*
X99720819Y-57221333D01*
X99720819Y-57221333D02*
X99768438Y-57078476D01*
X99768438Y-57078476D02*
X99816057Y-57030857D01*
X100720819Y-56078476D02*
X100720819Y-56649904D01*
X100720819Y-56364190D02*
X99720819Y-56364190D01*
X99720819Y-56364190D02*
X99863676Y-56459428D01*
X99863676Y-56459428D02*
X99958914Y-56554666D01*
X99958914Y-56554666D02*
X100006533Y-56649904D01*
X100149390Y-55507047D02*
X100101771Y-55602285D01*
X100101771Y-55602285D02*
X100054152Y-55649904D01*
X100054152Y-55649904D02*
X99958914Y-55697523D01*
X99958914Y-55697523D02*
X99911295Y-55697523D01*
X99911295Y-55697523D02*
X99816057Y-55649904D01*
X99816057Y-55649904D02*
X99768438Y-55602285D01*
X99768438Y-55602285D02*
X99720819Y-55507047D01*
X99720819Y-55507047D02*
X99720819Y-55316571D01*
X99720819Y-55316571D02*
X99768438Y-55221333D01*
X99768438Y-55221333D02*
X99816057Y-55173714D01*
X99816057Y-55173714D02*
X99911295Y-55126095D01*
X99911295Y-55126095D02*
X99958914Y-55126095D01*
X99958914Y-55126095D02*
X100054152Y-55173714D01*
X100054152Y-55173714D02*
X100101771Y-55221333D01*
X100101771Y-55221333D02*
X100149390Y-55316571D01*
X100149390Y-55316571D02*
X100149390Y-55507047D01*
X100149390Y-55507047D02*
X100197009Y-55602285D01*
X100197009Y-55602285D02*
X100244628Y-55649904D01*
X100244628Y-55649904D02*
X100339866Y-55697523D01*
X100339866Y-55697523D02*
X100530342Y-55697523D01*
X100530342Y-55697523D02*
X100625580Y-55649904D01*
X100625580Y-55649904D02*
X100673200Y-55602285D01*
X100673200Y-55602285D02*
X100720819Y-55507047D01*
X100720819Y-55507047D02*
X100720819Y-55316571D01*
X100720819Y-55316571D02*
X100673200Y-55221333D01*
X100673200Y-55221333D02*
X100625580Y-55173714D01*
X100625580Y-55173714D02*
X100530342Y-55126095D01*
X100530342Y-55126095D02*
X100339866Y-55126095D01*
X100339866Y-55126095D02*
X100244628Y-55173714D01*
X100244628Y-55173714D02*
X100197009Y-55221333D01*
X100197009Y-55221333D02*
X100149390Y-55316571D01*
X40330319Y-74010833D02*
X41044604Y-74010833D01*
X41044604Y-74010833D02*
X41187461Y-74058452D01*
X41187461Y-74058452D02*
X41282700Y-74153690D01*
X41282700Y-74153690D02*
X41330319Y-74296547D01*
X41330319Y-74296547D02*
X41330319Y-74391785D01*
X40330319Y-73629880D02*
X40330319Y-73010833D01*
X40330319Y-73010833D02*
X40711271Y-73344166D01*
X40711271Y-73344166D02*
X40711271Y-73201309D01*
X40711271Y-73201309D02*
X40758890Y-73106071D01*
X40758890Y-73106071D02*
X40806509Y-73058452D01*
X40806509Y-73058452D02*
X40901747Y-73010833D01*
X40901747Y-73010833D02*
X41139842Y-73010833D01*
X41139842Y-73010833D02*
X41235080Y-73058452D01*
X41235080Y-73058452D02*
X41282700Y-73106071D01*
X41282700Y-73106071D02*
X41330319Y-73201309D01*
X41330319Y-73201309D02*
X41330319Y-73487023D01*
X41330319Y-73487023D02*
X41282700Y-73582261D01*
X41282700Y-73582261D02*
X41235080Y-73629880D01*
X30680319Y-78201309D02*
X31489842Y-78201309D01*
X31489842Y-78201309D02*
X31585080Y-78153690D01*
X31585080Y-78153690D02*
X31632700Y-78106071D01*
X31632700Y-78106071D02*
X31680319Y-78010833D01*
X31680319Y-78010833D02*
X31680319Y-77820357D01*
X31680319Y-77820357D02*
X31632700Y-77725119D01*
X31632700Y-77725119D02*
X31585080Y-77677500D01*
X31585080Y-77677500D02*
X31489842Y-77629881D01*
X31489842Y-77629881D02*
X30680319Y-77629881D01*
X31585080Y-76582262D02*
X31632700Y-76629881D01*
X31632700Y-76629881D02*
X31680319Y-76772738D01*
X31680319Y-76772738D02*
X31680319Y-76867976D01*
X31680319Y-76867976D02*
X31632700Y-77010833D01*
X31632700Y-77010833D02*
X31537461Y-77106071D01*
X31537461Y-77106071D02*
X31442223Y-77153690D01*
X31442223Y-77153690D02*
X31251747Y-77201309D01*
X31251747Y-77201309D02*
X31108890Y-77201309D01*
X31108890Y-77201309D02*
X30918414Y-77153690D01*
X30918414Y-77153690D02*
X30823176Y-77106071D01*
X30823176Y-77106071D02*
X30727938Y-77010833D01*
X30727938Y-77010833D02*
X30680319Y-76867976D01*
X30680319Y-76867976D02*
X30680319Y-76772738D01*
X30680319Y-76772738D02*
X30727938Y-76629881D01*
X30727938Y-76629881D02*
X30775557Y-76582262D01*
X31775557Y-76391786D02*
X31775557Y-75629881D01*
X31585080Y-74820357D02*
X31632700Y-74867976D01*
X31632700Y-74867976D02*
X31680319Y-75010833D01*
X31680319Y-75010833D02*
X31680319Y-75106071D01*
X31680319Y-75106071D02*
X31632700Y-75248928D01*
X31632700Y-75248928D02*
X31537461Y-75344166D01*
X31537461Y-75344166D02*
X31442223Y-75391785D01*
X31442223Y-75391785D02*
X31251747Y-75439404D01*
X31251747Y-75439404D02*
X31108890Y-75439404D01*
X31108890Y-75439404D02*
X30918414Y-75391785D01*
X30918414Y-75391785D02*
X30823176Y-75344166D01*
X30823176Y-75344166D02*
X30727938Y-75248928D01*
X30727938Y-75248928D02*
X30680319Y-75106071D01*
X30680319Y-75106071D02*
X30680319Y-75010833D01*
X30680319Y-75010833D02*
X30727938Y-74867976D01*
X30727938Y-74867976D02*
X30775557Y-74820357D01*
X30680319Y-74201309D02*
X30680319Y-74010833D01*
X30680319Y-74010833D02*
X30727938Y-73915595D01*
X30727938Y-73915595D02*
X30823176Y-73820357D01*
X30823176Y-73820357D02*
X31013652Y-73772738D01*
X31013652Y-73772738D02*
X31346985Y-73772738D01*
X31346985Y-73772738D02*
X31537461Y-73820357D01*
X31537461Y-73820357D02*
X31632700Y-73915595D01*
X31632700Y-73915595D02*
X31680319Y-74010833D01*
X31680319Y-74010833D02*
X31680319Y-74201309D01*
X31680319Y-74201309D02*
X31632700Y-74296547D01*
X31632700Y-74296547D02*
X31537461Y-74391785D01*
X31537461Y-74391785D02*
X31346985Y-74439404D01*
X31346985Y-74439404D02*
X31013652Y-74439404D01*
X31013652Y-74439404D02*
X30823176Y-74391785D01*
X30823176Y-74391785D02*
X30727938Y-74296547D01*
X30727938Y-74296547D02*
X30680319Y-74201309D01*
X31680319Y-73344166D02*
X30680319Y-73344166D01*
X30680319Y-73344166D02*
X31680319Y-72772738D01*
X31680319Y-72772738D02*
X30680319Y-72772738D01*
X30680319Y-72439404D02*
X30680319Y-71867976D01*
X31680319Y-72153690D02*
X30680319Y-72153690D01*
X31680319Y-70963214D02*
X31204128Y-71296547D01*
X31680319Y-71534642D02*
X30680319Y-71534642D01*
X30680319Y-71534642D02*
X30680319Y-71153690D01*
X30680319Y-71153690D02*
X30727938Y-71058452D01*
X30727938Y-71058452D02*
X30775557Y-71010833D01*
X30775557Y-71010833D02*
X30870795Y-70963214D01*
X30870795Y-70963214D02*
X31013652Y-70963214D01*
X31013652Y-70963214D02*
X31108890Y-71010833D01*
X31108890Y-71010833D02*
X31156509Y-71058452D01*
X31156509Y-71058452D02*
X31204128Y-71153690D01*
X31204128Y-71153690D02*
X31204128Y-71534642D01*
X30680319Y-70344166D02*
X30680319Y-70153690D01*
X30680319Y-70153690D02*
X30727938Y-70058452D01*
X30727938Y-70058452D02*
X30823176Y-69963214D01*
X30823176Y-69963214D02*
X31013652Y-69915595D01*
X31013652Y-69915595D02*
X31346985Y-69915595D01*
X31346985Y-69915595D02*
X31537461Y-69963214D01*
X31537461Y-69963214D02*
X31632700Y-70058452D01*
X31632700Y-70058452D02*
X31680319Y-70153690D01*
X31680319Y-70153690D02*
X31680319Y-70344166D01*
X31680319Y-70344166D02*
X31632700Y-70439404D01*
X31632700Y-70439404D02*
X31537461Y-70534642D01*
X31537461Y-70534642D02*
X31346985Y-70582261D01*
X31346985Y-70582261D02*
X31013652Y-70582261D01*
X31013652Y-70582261D02*
X30823176Y-70534642D01*
X30823176Y-70534642D02*
X30727938Y-70439404D01*
X30727938Y-70439404D02*
X30680319Y-70344166D01*
X31680319Y-69010833D02*
X31680319Y-69487023D01*
X31680319Y-69487023D02*
X30680319Y-69487023D01*
X45158819Y-61126666D02*
X45158819Y-61602856D01*
X45158819Y-61602856D02*
X44158819Y-61602856D01*
X44254057Y-60840951D02*
X44206438Y-60793332D01*
X44206438Y-60793332D02*
X44158819Y-60698094D01*
X44158819Y-60698094D02*
X44158819Y-60459999D01*
X44158819Y-60459999D02*
X44206438Y-60364761D01*
X44206438Y-60364761D02*
X44254057Y-60317142D01*
X44254057Y-60317142D02*
X44349295Y-60269523D01*
X44349295Y-60269523D02*
X44444533Y-60269523D01*
X44444533Y-60269523D02*
X44587390Y-60317142D01*
X44587390Y-60317142D02*
X45158819Y-60888570D01*
X45158819Y-60888570D02*
X45158819Y-60269523D01*
X57255580Y-78906666D02*
X57303200Y-78954285D01*
X57303200Y-78954285D02*
X57350819Y-79097142D01*
X57350819Y-79097142D02*
X57350819Y-79192380D01*
X57350819Y-79192380D02*
X57303200Y-79335237D01*
X57303200Y-79335237D02*
X57207961Y-79430475D01*
X57207961Y-79430475D02*
X57112723Y-79478094D01*
X57112723Y-79478094D02*
X56922247Y-79525713D01*
X56922247Y-79525713D02*
X56779390Y-79525713D01*
X56779390Y-79525713D02*
X56588914Y-79478094D01*
X56588914Y-79478094D02*
X56493676Y-79430475D01*
X56493676Y-79430475D02*
X56398438Y-79335237D01*
X56398438Y-79335237D02*
X56350819Y-79192380D01*
X56350819Y-79192380D02*
X56350819Y-79097142D01*
X56350819Y-79097142D02*
X56398438Y-78954285D01*
X56398438Y-78954285D02*
X56446057Y-78906666D01*
X56779390Y-78335237D02*
X56731771Y-78430475D01*
X56731771Y-78430475D02*
X56684152Y-78478094D01*
X56684152Y-78478094D02*
X56588914Y-78525713D01*
X56588914Y-78525713D02*
X56541295Y-78525713D01*
X56541295Y-78525713D02*
X56446057Y-78478094D01*
X56446057Y-78478094D02*
X56398438Y-78430475D01*
X56398438Y-78430475D02*
X56350819Y-78335237D01*
X56350819Y-78335237D02*
X56350819Y-78144761D01*
X56350819Y-78144761D02*
X56398438Y-78049523D01*
X56398438Y-78049523D02*
X56446057Y-78001904D01*
X56446057Y-78001904D02*
X56541295Y-77954285D01*
X56541295Y-77954285D02*
X56588914Y-77954285D01*
X56588914Y-77954285D02*
X56684152Y-78001904D01*
X56684152Y-78001904D02*
X56731771Y-78049523D01*
X56731771Y-78049523D02*
X56779390Y-78144761D01*
X56779390Y-78144761D02*
X56779390Y-78335237D01*
X56779390Y-78335237D02*
X56827009Y-78430475D01*
X56827009Y-78430475D02*
X56874628Y-78478094D01*
X56874628Y-78478094D02*
X56969866Y-78525713D01*
X56969866Y-78525713D02*
X57160342Y-78525713D01*
X57160342Y-78525713D02*
X57255580Y-78478094D01*
X57255580Y-78478094D02*
X57303200Y-78430475D01*
X57303200Y-78430475D02*
X57350819Y-78335237D01*
X57350819Y-78335237D02*
X57350819Y-78144761D01*
X57350819Y-78144761D02*
X57303200Y-78049523D01*
X57303200Y-78049523D02*
X57255580Y-78001904D01*
X57255580Y-78001904D02*
X57160342Y-77954285D01*
X57160342Y-77954285D02*
X56969866Y-77954285D01*
X56969866Y-77954285D02*
X56874628Y-78001904D01*
X56874628Y-78001904D02*
X56827009Y-78049523D01*
X56827009Y-78049523D02*
X56779390Y-78144761D01*
X90325319Y-45857594D02*
X89325319Y-45857594D01*
X90325319Y-45286166D02*
X89753890Y-45714737D01*
X89325319Y-45286166D02*
X89896747Y-45857594D01*
X89325319Y-44381404D02*
X89325319Y-44857594D01*
X89325319Y-44857594D02*
X89801509Y-44905213D01*
X89801509Y-44905213D02*
X89753890Y-44857594D01*
X89753890Y-44857594D02*
X89706271Y-44762356D01*
X89706271Y-44762356D02*
X89706271Y-44524261D01*
X89706271Y-44524261D02*
X89753890Y-44429023D01*
X89753890Y-44429023D02*
X89801509Y-44381404D01*
X89801509Y-44381404D02*
X89896747Y-44333785D01*
X89896747Y-44333785D02*
X90134842Y-44333785D01*
X90134842Y-44333785D02*
X90230080Y-44381404D01*
X90230080Y-44381404D02*
X90277700Y-44429023D01*
X90277700Y-44429023D02*
X90325319Y-44524261D01*
X90325319Y-44524261D02*
X90325319Y-44762356D01*
X90325319Y-44762356D02*
X90277700Y-44857594D01*
X90277700Y-44857594D02*
X90230080Y-44905213D01*
X51562095Y-71882819D02*
X51562095Y-72692342D01*
X51562095Y-72692342D02*
X51609714Y-72787580D01*
X51609714Y-72787580D02*
X51657333Y-72835200D01*
X51657333Y-72835200D02*
X51752571Y-72882819D01*
X51752571Y-72882819D02*
X51943047Y-72882819D01*
X51943047Y-72882819D02*
X52038285Y-72835200D01*
X52038285Y-72835200D02*
X52085904Y-72787580D01*
X52085904Y-72787580D02*
X52133523Y-72692342D01*
X52133523Y-72692342D02*
X52133523Y-71882819D01*
X53038285Y-72216152D02*
X53038285Y-72882819D01*
X52800190Y-71835200D02*
X52562095Y-72549485D01*
X52562095Y-72549485D02*
X53181142Y-72549485D01*
D13*
X77082667Y-56752895D02*
X76816000Y-56371942D01*
X76625524Y-56752895D02*
X76625524Y-55952895D01*
X76625524Y-55952895D02*
X76930286Y-55952895D01*
X76930286Y-55952895D02*
X77006476Y-55990990D01*
X77006476Y-55990990D02*
X77044571Y-56029085D01*
X77044571Y-56029085D02*
X77082667Y-56105276D01*
X77082667Y-56105276D02*
X77082667Y-56219561D01*
X77082667Y-56219561D02*
X77044571Y-56295752D01*
X77044571Y-56295752D02*
X77006476Y-56333847D01*
X77006476Y-56333847D02*
X76930286Y-56371942D01*
X76930286Y-56371942D02*
X76625524Y-56371942D01*
X77768381Y-56219561D02*
X77768381Y-56752895D01*
X77577905Y-55914800D02*
X77387428Y-56486228D01*
X77387428Y-56486228D02*
X77882667Y-56486228D01*
D12*
X45063580Y-59094666D02*
X45111200Y-59142285D01*
X45111200Y-59142285D02*
X45158819Y-59285142D01*
X45158819Y-59285142D02*
X45158819Y-59380380D01*
X45158819Y-59380380D02*
X45111200Y-59523237D01*
X45111200Y-59523237D02*
X45015961Y-59618475D01*
X45015961Y-59618475D02*
X44920723Y-59666094D01*
X44920723Y-59666094D02*
X44730247Y-59713713D01*
X44730247Y-59713713D02*
X44587390Y-59713713D01*
X44587390Y-59713713D02*
X44396914Y-59666094D01*
X44396914Y-59666094D02*
X44301676Y-59618475D01*
X44301676Y-59618475D02*
X44206438Y-59523237D01*
X44206438Y-59523237D02*
X44158819Y-59380380D01*
X44158819Y-59380380D02*
X44158819Y-59285142D01*
X44158819Y-59285142D02*
X44206438Y-59142285D01*
X44206438Y-59142285D02*
X44254057Y-59094666D01*
X44254057Y-58713713D02*
X44206438Y-58666094D01*
X44206438Y-58666094D02*
X44158819Y-58570856D01*
X44158819Y-58570856D02*
X44158819Y-58332761D01*
X44158819Y-58332761D02*
X44206438Y-58237523D01*
X44206438Y-58237523D02*
X44254057Y-58189904D01*
X44254057Y-58189904D02*
X44349295Y-58142285D01*
X44349295Y-58142285D02*
X44444533Y-58142285D01*
X44444533Y-58142285D02*
X44587390Y-58189904D01*
X44587390Y-58189904D02*
X45158819Y-58761332D01*
X45158819Y-58761332D02*
X45158819Y-58142285D01*
X70654057Y-50895238D02*
X70606438Y-50990476D01*
X70606438Y-50990476D02*
X70511200Y-51085714D01*
X70511200Y-51085714D02*
X70368342Y-51228571D01*
X70368342Y-51228571D02*
X70320723Y-51323809D01*
X70320723Y-51323809D02*
X70320723Y-51419047D01*
X70558819Y-51371428D02*
X70511200Y-51466666D01*
X70511200Y-51466666D02*
X70415961Y-51561904D01*
X70415961Y-51561904D02*
X70225485Y-51609523D01*
X70225485Y-51609523D02*
X69892152Y-51609523D01*
X69892152Y-51609523D02*
X69701676Y-51561904D01*
X69701676Y-51561904D02*
X69606438Y-51466666D01*
X69606438Y-51466666D02*
X69558819Y-51371428D01*
X69558819Y-51371428D02*
X69558819Y-51180952D01*
X69558819Y-51180952D02*
X69606438Y-51085714D01*
X69606438Y-51085714D02*
X69701676Y-50990476D01*
X69701676Y-50990476D02*
X69892152Y-50942857D01*
X69892152Y-50942857D02*
X70225485Y-50942857D01*
X70225485Y-50942857D02*
X70415961Y-50990476D01*
X70415961Y-50990476D02*
X70511200Y-51085714D01*
X70511200Y-51085714D02*
X70558819Y-51180952D01*
X70558819Y-51180952D02*
X70558819Y-51371428D01*
X69892152Y-50085714D02*
X70558819Y-50085714D01*
X69511200Y-50323809D02*
X70225485Y-50561904D01*
X70225485Y-50561904D02*
X70225485Y-49942857D01*
X53794819Y-60682094D02*
X52794819Y-60682094D01*
X52794819Y-60682094D02*
X52794819Y-60443999D01*
X52794819Y-60443999D02*
X52842438Y-60301142D01*
X52842438Y-60301142D02*
X52937676Y-60205904D01*
X52937676Y-60205904D02*
X53032914Y-60158285D01*
X53032914Y-60158285D02*
X53223390Y-60110666D01*
X53223390Y-60110666D02*
X53366247Y-60110666D01*
X53366247Y-60110666D02*
X53556723Y-60158285D01*
X53556723Y-60158285D02*
X53651961Y-60205904D01*
X53651961Y-60205904D02*
X53747200Y-60301142D01*
X53747200Y-60301142D02*
X53794819Y-60443999D01*
X53794819Y-60443999D02*
X53794819Y-60682094D01*
X52890057Y-59729713D02*
X52842438Y-59682094D01*
X52842438Y-59682094D02*
X52794819Y-59586856D01*
X52794819Y-59586856D02*
X52794819Y-59348761D01*
X52794819Y-59348761D02*
X52842438Y-59253523D01*
X52842438Y-59253523D02*
X52890057Y-59205904D01*
X52890057Y-59205904D02*
X52985295Y-59158285D01*
X52985295Y-59158285D02*
X53080533Y-59158285D01*
X53080533Y-59158285D02*
X53223390Y-59205904D01*
X53223390Y-59205904D02*
X53794819Y-59777332D01*
X53794819Y-59777332D02*
X53794819Y-59158285D01*
X49363333Y-77670819D02*
X49030000Y-77194628D01*
X48791905Y-77670819D02*
X48791905Y-76670819D01*
X48791905Y-76670819D02*
X49172857Y-76670819D01*
X49172857Y-76670819D02*
X49268095Y-76718438D01*
X49268095Y-76718438D02*
X49315714Y-76766057D01*
X49315714Y-76766057D02*
X49363333Y-76861295D01*
X49363333Y-76861295D02*
X49363333Y-77004152D01*
X49363333Y-77004152D02*
X49315714Y-77099390D01*
X49315714Y-77099390D02*
X49268095Y-77147009D01*
X49268095Y-77147009D02*
X49172857Y-77194628D01*
X49172857Y-77194628D02*
X48791905Y-77194628D01*
X50315714Y-77670819D02*
X49744286Y-77670819D01*
X50030000Y-77670819D02*
X50030000Y-76670819D01*
X50030000Y-76670819D02*
X49934762Y-76813676D01*
X49934762Y-76813676D02*
X49839524Y-76908914D01*
X49839524Y-76908914D02*
X49744286Y-76956533D01*
X96190476Y-31090819D02*
X96190476Y-31805104D01*
X96190476Y-31805104D02*
X96142857Y-31947961D01*
X96142857Y-31947961D02*
X96047619Y-32043200D01*
X96047619Y-32043200D02*
X95904762Y-32090819D01*
X95904762Y-32090819D02*
X95809524Y-32090819D01*
X97190476Y-32090819D02*
X96619048Y-32090819D01*
X96904762Y-32090819D02*
X96904762Y-31090819D01*
X96904762Y-31090819D02*
X96809524Y-31233676D01*
X96809524Y-31233676D02*
X96714286Y-31328914D01*
X96714286Y-31328914D02*
X96619048Y-31376533D01*
X97809524Y-31090819D02*
X97904762Y-31090819D01*
X97904762Y-31090819D02*
X98000000Y-31138438D01*
X98000000Y-31138438D02*
X98047619Y-31186057D01*
X98047619Y-31186057D02*
X98095238Y-31281295D01*
X98095238Y-31281295D02*
X98142857Y-31471771D01*
X98142857Y-31471771D02*
X98142857Y-31709866D01*
X98142857Y-31709866D02*
X98095238Y-31900342D01*
X98095238Y-31900342D02*
X98047619Y-31995580D01*
X98047619Y-31995580D02*
X98000000Y-32043200D01*
X98000000Y-32043200D02*
X97904762Y-32090819D01*
X97904762Y-32090819D02*
X97809524Y-32090819D01*
X97809524Y-32090819D02*
X97714286Y-32043200D01*
X97714286Y-32043200D02*
X97666667Y-31995580D01*
X97666667Y-31995580D02*
X97619048Y-31900342D01*
X97619048Y-31900342D02*
X97571429Y-31709866D01*
X97571429Y-31709866D02*
X97571429Y-31471771D01*
X97571429Y-31471771D02*
X97619048Y-31281295D01*
X97619048Y-31281295D02*
X97666667Y-31186057D01*
X97666667Y-31186057D02*
X97714286Y-31138438D01*
X97714286Y-31138438D02*
X97809524Y-31090819D01*
X57618333Y-71987580D02*
X57570714Y-72035200D01*
X57570714Y-72035200D02*
X57427857Y-72082819D01*
X57427857Y-72082819D02*
X57332619Y-72082819D01*
X57332619Y-72082819D02*
X57189762Y-72035200D01*
X57189762Y-72035200D02*
X57094524Y-71939961D01*
X57094524Y-71939961D02*
X57046905Y-71844723D01*
X57046905Y-71844723D02*
X56999286Y-71654247D01*
X56999286Y-71654247D02*
X56999286Y-71511390D01*
X56999286Y-71511390D02*
X57046905Y-71320914D01*
X57046905Y-71320914D02*
X57094524Y-71225676D01*
X57094524Y-71225676D02*
X57189762Y-71130438D01*
X57189762Y-71130438D02*
X57332619Y-71082819D01*
X57332619Y-71082819D02*
X57427857Y-71082819D01*
X57427857Y-71082819D02*
X57570714Y-71130438D01*
X57570714Y-71130438D02*
X57618333Y-71178057D01*
X58094524Y-72082819D02*
X58285000Y-72082819D01*
X58285000Y-72082819D02*
X58380238Y-72035200D01*
X58380238Y-72035200D02*
X58427857Y-71987580D01*
X58427857Y-71987580D02*
X58523095Y-71844723D01*
X58523095Y-71844723D02*
X58570714Y-71654247D01*
X58570714Y-71654247D02*
X58570714Y-71273295D01*
X58570714Y-71273295D02*
X58523095Y-71178057D01*
X58523095Y-71178057D02*
X58475476Y-71130438D01*
X58475476Y-71130438D02*
X58380238Y-71082819D01*
X58380238Y-71082819D02*
X58189762Y-71082819D01*
X58189762Y-71082819D02*
X58094524Y-71130438D01*
X58094524Y-71130438D02*
X58046905Y-71178057D01*
X58046905Y-71178057D02*
X57999286Y-71273295D01*
X57999286Y-71273295D02*
X57999286Y-71511390D01*
X57999286Y-71511390D02*
X58046905Y-71606628D01*
X58046905Y-71606628D02*
X58094524Y-71654247D01*
X58094524Y-71654247D02*
X58189762Y-71701866D01*
X58189762Y-71701866D02*
X58380238Y-71701866D01*
X58380238Y-71701866D02*
X58475476Y-71654247D01*
X58475476Y-71654247D02*
X58523095Y-71606628D01*
X58523095Y-71606628D02*
X58570714Y-71511390D01*
X87830819Y-69318094D02*
X86830819Y-69318094D01*
X86830819Y-69318094D02*
X86830819Y-69079999D01*
X86830819Y-69079999D02*
X86878438Y-68937142D01*
X86878438Y-68937142D02*
X86973676Y-68841904D01*
X86973676Y-68841904D02*
X87068914Y-68794285D01*
X87068914Y-68794285D02*
X87259390Y-68746666D01*
X87259390Y-68746666D02*
X87402247Y-68746666D01*
X87402247Y-68746666D02*
X87592723Y-68794285D01*
X87592723Y-68794285D02*
X87687961Y-68841904D01*
X87687961Y-68841904D02*
X87783200Y-68937142D01*
X87783200Y-68937142D02*
X87830819Y-69079999D01*
X87830819Y-69079999D02*
X87830819Y-69318094D01*
X87830819Y-67794285D02*
X87830819Y-68365713D01*
X87830819Y-68079999D02*
X86830819Y-68079999D01*
X86830819Y-68079999D02*
X86973676Y-68175237D01*
X86973676Y-68175237D02*
X87068914Y-68270475D01*
X87068914Y-68270475D02*
X87116533Y-68365713D01*
X43426286Y-79702819D02*
X43426286Y-78702819D01*
X43426286Y-78702819D02*
X43807238Y-78702819D01*
X43807238Y-78702819D02*
X43902476Y-78750438D01*
X43902476Y-78750438D02*
X43950095Y-78798057D01*
X43950095Y-78798057D02*
X43997714Y-78893295D01*
X43997714Y-78893295D02*
X43997714Y-79036152D01*
X43997714Y-79036152D02*
X43950095Y-79131390D01*
X43950095Y-79131390D02*
X43902476Y-79179009D01*
X43902476Y-79179009D02*
X43807238Y-79226628D01*
X43807238Y-79226628D02*
X43426286Y-79226628D01*
X44997714Y-79702819D02*
X44664381Y-79226628D01*
X44426286Y-79702819D02*
X44426286Y-78702819D01*
X44426286Y-78702819D02*
X44807238Y-78702819D01*
X44807238Y-78702819D02*
X44902476Y-78750438D01*
X44902476Y-78750438D02*
X44950095Y-78798057D01*
X44950095Y-78798057D02*
X44997714Y-78893295D01*
X44997714Y-78893295D02*
X44997714Y-79036152D01*
X44997714Y-79036152D02*
X44950095Y-79131390D01*
X44950095Y-79131390D02*
X44902476Y-79179009D01*
X44902476Y-79179009D02*
X44807238Y-79226628D01*
X44807238Y-79226628D02*
X44426286Y-79226628D01*
X45616762Y-78702819D02*
X45807238Y-78702819D01*
X45807238Y-78702819D02*
X45902476Y-78750438D01*
X45902476Y-78750438D02*
X45997714Y-78845676D01*
X45997714Y-78845676D02*
X46045333Y-79036152D01*
X46045333Y-79036152D02*
X46045333Y-79369485D01*
X46045333Y-79369485D02*
X45997714Y-79559961D01*
X45997714Y-79559961D02*
X45902476Y-79655200D01*
X45902476Y-79655200D02*
X45807238Y-79702819D01*
X45807238Y-79702819D02*
X45616762Y-79702819D01*
X45616762Y-79702819D02*
X45521524Y-79655200D01*
X45521524Y-79655200D02*
X45426286Y-79559961D01*
X45426286Y-79559961D02*
X45378667Y-79369485D01*
X45378667Y-79369485D02*
X45378667Y-79036152D01*
X45378667Y-79036152D02*
X45426286Y-78845676D01*
X45426286Y-78845676D02*
X45521524Y-78750438D01*
X45521524Y-78750438D02*
X45616762Y-78702819D01*
X46997714Y-78750438D02*
X46902476Y-78702819D01*
X46902476Y-78702819D02*
X46759619Y-78702819D01*
X46759619Y-78702819D02*
X46616762Y-78750438D01*
X46616762Y-78750438D02*
X46521524Y-78845676D01*
X46521524Y-78845676D02*
X46473905Y-78940914D01*
X46473905Y-78940914D02*
X46426286Y-79131390D01*
X46426286Y-79131390D02*
X46426286Y-79274247D01*
X46426286Y-79274247D02*
X46473905Y-79464723D01*
X46473905Y-79464723D02*
X46521524Y-79559961D01*
X46521524Y-79559961D02*
X46616762Y-79655200D01*
X46616762Y-79655200D02*
X46759619Y-79702819D01*
X46759619Y-79702819D02*
X46854857Y-79702819D01*
X46854857Y-79702819D02*
X46997714Y-79655200D01*
X46997714Y-79655200D02*
X47045333Y-79607580D01*
X47045333Y-79607580D02*
X47045333Y-79274247D01*
X47045333Y-79274247D02*
X46854857Y-79274247D01*
X81946041Y-31090819D02*
X81946041Y-31805104D01*
X81946041Y-31805104D02*
X81898422Y-31947961D01*
X81898422Y-31947961D02*
X81803184Y-32043200D01*
X81803184Y-32043200D02*
X81660327Y-32090819D01*
X81660327Y-32090819D02*
X81565089Y-32090819D01*
X82469851Y-32090819D02*
X82660327Y-32090819D01*
X82660327Y-32090819D02*
X82755565Y-32043200D01*
X82755565Y-32043200D02*
X82803184Y-31995580D01*
X82803184Y-31995580D02*
X82898422Y-31852723D01*
X82898422Y-31852723D02*
X82946041Y-31662247D01*
X82946041Y-31662247D02*
X82946041Y-31281295D01*
X82946041Y-31281295D02*
X82898422Y-31186057D01*
X82898422Y-31186057D02*
X82850803Y-31138438D01*
X82850803Y-31138438D02*
X82755565Y-31090819D01*
X82755565Y-31090819D02*
X82565089Y-31090819D01*
X82565089Y-31090819D02*
X82469851Y-31138438D01*
X82469851Y-31138438D02*
X82422232Y-31186057D01*
X82422232Y-31186057D02*
X82374613Y-31281295D01*
X82374613Y-31281295D02*
X82374613Y-31519390D01*
X82374613Y-31519390D02*
X82422232Y-31614628D01*
X82422232Y-31614628D02*
X82469851Y-31662247D01*
X82469851Y-31662247D02*
X82565089Y-31709866D01*
X82565089Y-31709866D02*
X82755565Y-31709866D01*
X82755565Y-31709866D02*
X82850803Y-31662247D01*
X82850803Y-31662247D02*
X82898422Y-31614628D01*
X82898422Y-31614628D02*
X82946041Y-31519390D01*
X56038761Y-52366057D02*
X55943523Y-52318438D01*
X55943523Y-52318438D02*
X55848285Y-52223200D01*
X55848285Y-52223200D02*
X55705428Y-52080342D01*
X55705428Y-52080342D02*
X55610190Y-52032723D01*
X55610190Y-52032723D02*
X55514952Y-52032723D01*
X55562571Y-52270819D02*
X55467333Y-52223200D01*
X55467333Y-52223200D02*
X55372095Y-52127961D01*
X55372095Y-52127961D02*
X55324476Y-51937485D01*
X55324476Y-51937485D02*
X55324476Y-51604152D01*
X55324476Y-51604152D02*
X55372095Y-51413676D01*
X55372095Y-51413676D02*
X55467333Y-51318438D01*
X55467333Y-51318438D02*
X55562571Y-51270819D01*
X55562571Y-51270819D02*
X55753047Y-51270819D01*
X55753047Y-51270819D02*
X55848285Y-51318438D01*
X55848285Y-51318438D02*
X55943523Y-51413676D01*
X55943523Y-51413676D02*
X55991142Y-51604152D01*
X55991142Y-51604152D02*
X55991142Y-51937485D01*
X55991142Y-51937485D02*
X55943523Y-52127961D01*
X55943523Y-52127961D02*
X55848285Y-52223200D01*
X55848285Y-52223200D02*
X55753047Y-52270819D01*
X55753047Y-52270819D02*
X55562571Y-52270819D01*
X56324476Y-51270819D02*
X56943523Y-51270819D01*
X56943523Y-51270819D02*
X56610190Y-51651771D01*
X56610190Y-51651771D02*
X56753047Y-51651771D01*
X56753047Y-51651771D02*
X56848285Y-51699390D01*
X56848285Y-51699390D02*
X56895904Y-51747009D01*
X56895904Y-51747009D02*
X56943523Y-51842247D01*
X56943523Y-51842247D02*
X56943523Y-52080342D01*
X56943523Y-52080342D02*
X56895904Y-52175580D01*
X56895904Y-52175580D02*
X56848285Y-52223200D01*
X56848285Y-52223200D02*
X56753047Y-52270819D01*
X56753047Y-52270819D02*
X56467333Y-52270819D01*
X56467333Y-52270819D02*
X56372095Y-52223200D01*
X56372095Y-52223200D02*
X56324476Y-52175580D01*
X91209905Y-52270819D02*
X91209905Y-51270819D01*
X91209905Y-51270819D02*
X91448000Y-51270819D01*
X91448000Y-51270819D02*
X91590857Y-51318438D01*
X91590857Y-51318438D02*
X91686095Y-51413676D01*
X91686095Y-51413676D02*
X91733714Y-51508914D01*
X91733714Y-51508914D02*
X91781333Y-51699390D01*
X91781333Y-51699390D02*
X91781333Y-51842247D01*
X91781333Y-51842247D02*
X91733714Y-52032723D01*
X91733714Y-52032723D02*
X91686095Y-52127961D01*
X91686095Y-52127961D02*
X91590857Y-52223200D01*
X91590857Y-52223200D02*
X91448000Y-52270819D01*
X91448000Y-52270819D02*
X91209905Y-52270819D01*
X92114667Y-51270819D02*
X92781333Y-51270819D01*
X92781333Y-51270819D02*
X92352762Y-52270819D01*
X85717142Y-75035580D02*
X85669523Y-75083200D01*
X85669523Y-75083200D02*
X85526666Y-75130819D01*
X85526666Y-75130819D02*
X85431428Y-75130819D01*
X85431428Y-75130819D02*
X85288571Y-75083200D01*
X85288571Y-75083200D02*
X85193333Y-74987961D01*
X85193333Y-74987961D02*
X85145714Y-74892723D01*
X85145714Y-74892723D02*
X85098095Y-74702247D01*
X85098095Y-74702247D02*
X85098095Y-74559390D01*
X85098095Y-74559390D02*
X85145714Y-74368914D01*
X85145714Y-74368914D02*
X85193333Y-74273676D01*
X85193333Y-74273676D02*
X85288571Y-74178438D01*
X85288571Y-74178438D02*
X85431428Y-74130819D01*
X85431428Y-74130819D02*
X85526666Y-74130819D01*
X85526666Y-74130819D02*
X85669523Y-74178438D01*
X85669523Y-74178438D02*
X85717142Y-74226057D01*
X86669523Y-75130819D02*
X86098095Y-75130819D01*
X86383809Y-75130819D02*
X86383809Y-74130819D01*
X86383809Y-74130819D02*
X86288571Y-74273676D01*
X86288571Y-74273676D02*
X86193333Y-74368914D01*
X86193333Y-74368914D02*
X86098095Y-74416533D01*
X87526666Y-74464152D02*
X87526666Y-75130819D01*
X87288571Y-74083200D02*
X87050476Y-74797485D01*
X87050476Y-74797485D02*
X87669523Y-74797485D01*
X52504791Y-31090819D02*
X52504791Y-31805104D01*
X52504791Y-31805104D02*
X52457172Y-31947961D01*
X52457172Y-31947961D02*
X52361934Y-32043200D01*
X52361934Y-32043200D02*
X52219077Y-32090819D01*
X52219077Y-32090819D02*
X52123839Y-32090819D01*
X52885744Y-31090819D02*
X53552410Y-31090819D01*
X53552410Y-31090819D02*
X53123839Y-32090819D01*
X53713142Y-55731580D02*
X53665523Y-55779200D01*
X53665523Y-55779200D02*
X53522666Y-55826819D01*
X53522666Y-55826819D02*
X53427428Y-55826819D01*
X53427428Y-55826819D02*
X53284571Y-55779200D01*
X53284571Y-55779200D02*
X53189333Y-55683961D01*
X53189333Y-55683961D02*
X53141714Y-55588723D01*
X53141714Y-55588723D02*
X53094095Y-55398247D01*
X53094095Y-55398247D02*
X53094095Y-55255390D01*
X53094095Y-55255390D02*
X53141714Y-55064914D01*
X53141714Y-55064914D02*
X53189333Y-54969676D01*
X53189333Y-54969676D02*
X53284571Y-54874438D01*
X53284571Y-54874438D02*
X53427428Y-54826819D01*
X53427428Y-54826819D02*
X53522666Y-54826819D01*
X53522666Y-54826819D02*
X53665523Y-54874438D01*
X53665523Y-54874438D02*
X53713142Y-54922057D01*
X54665523Y-55826819D02*
X54094095Y-55826819D01*
X54379809Y-55826819D02*
X54379809Y-54826819D01*
X54379809Y-54826819D02*
X54284571Y-54969676D01*
X54284571Y-54969676D02*
X54189333Y-55064914D01*
X54189333Y-55064914D02*
X54094095Y-55112533D01*
X55570285Y-54826819D02*
X55094095Y-54826819D01*
X55094095Y-54826819D02*
X55046476Y-55303009D01*
X55046476Y-55303009D02*
X55094095Y-55255390D01*
X55094095Y-55255390D02*
X55189333Y-55207771D01*
X55189333Y-55207771D02*
X55427428Y-55207771D01*
X55427428Y-55207771D02*
X55522666Y-55255390D01*
X55522666Y-55255390D02*
X55570285Y-55303009D01*
X55570285Y-55303009D02*
X55617904Y-55398247D01*
X55617904Y-55398247D02*
X55617904Y-55636342D01*
X55617904Y-55636342D02*
X55570285Y-55731580D01*
X55570285Y-55731580D02*
X55522666Y-55779200D01*
X55522666Y-55779200D02*
X55427428Y-55826819D01*
X55427428Y-55826819D02*
X55189333Y-55826819D01*
X55189333Y-55826819D02*
X55094095Y-55779200D01*
X55094095Y-55779200D02*
X55046476Y-55731580D01*
X45158819Y-52998666D02*
X45158819Y-53474856D01*
X45158819Y-53474856D02*
X44158819Y-53474856D01*
X45158819Y-52141523D02*
X45158819Y-52712951D01*
X45158819Y-52427237D02*
X44158819Y-52427237D01*
X44158819Y-52427237D02*
X44301676Y-52522475D01*
X44301676Y-52522475D02*
X44396914Y-52617713D01*
X44396914Y-52617713D02*
X44444533Y-52712951D01*
X80351333Y-65986819D02*
X80018000Y-65510628D01*
X79779905Y-65986819D02*
X79779905Y-64986819D01*
X79779905Y-64986819D02*
X80160857Y-64986819D01*
X80160857Y-64986819D02*
X80256095Y-65034438D01*
X80256095Y-65034438D02*
X80303714Y-65082057D01*
X80303714Y-65082057D02*
X80351333Y-65177295D01*
X80351333Y-65177295D02*
X80351333Y-65320152D01*
X80351333Y-65320152D02*
X80303714Y-65415390D01*
X80303714Y-65415390D02*
X80256095Y-65463009D01*
X80256095Y-65463009D02*
X80160857Y-65510628D01*
X80160857Y-65510628D02*
X79779905Y-65510628D01*
X80684667Y-64986819D02*
X81351333Y-64986819D01*
X81351333Y-64986819D02*
X80922762Y-65986819D01*
D14*
%TO.C,C16*%
X63507252Y-54837000D02*
X62984748Y-54837000D01*
X63507252Y-53367000D02*
X62984748Y-53367000D01*
%TO.C,D11*%
X50472000Y-49292000D02*
X50472000Y-51292000D01*
X50472000Y-49292000D02*
X54482000Y-49292000D01*
X50472000Y-51292000D02*
X54482000Y-51292000D01*
%TO.C,D10*%
X40312000Y-49292000D02*
X40312000Y-51292000D01*
X40312000Y-49292000D02*
X44322000Y-49292000D01*
X40312000Y-51292000D02*
X44322000Y-51292000D01*
%TO.C,D3*%
X78508000Y-71540000D02*
X78508000Y-73240000D01*
X78508000Y-71540000D02*
X81768000Y-71540000D01*
X78508000Y-73240000D02*
X81768000Y-73240000D01*
%TO.C,R2*%
X57938936Y-53875000D02*
X58393064Y-53875000D01*
X57938936Y-55345000D02*
X58393064Y-55345000D01*
%TO.C,L5*%
X80002748Y-74982000D02*
X80525252Y-74982000D01*
X80002748Y-76402000D02*
X80525252Y-76402000D01*
%TO.C,C11*%
X80256748Y-68607000D02*
X80779252Y-68607000D01*
X80256748Y-70077000D02*
X80779252Y-70077000D01*
%TO.C,L4*%
X41902748Y-64314000D02*
X42425252Y-64314000D01*
X41902748Y-65734000D02*
X42425252Y-65734000D01*
%TO.C,Q2*%
X48338500Y-52426000D02*
X48988500Y-52426000D01*
X48338500Y-52426000D02*
X47688500Y-52426000D01*
X48338500Y-49306000D02*
X48988500Y-49306000D01*
X48338500Y-49306000D02*
X47688500Y-49306000D01*
X49741000Y-52706000D02*
X49261000Y-52706000D01*
X49501000Y-52376000D01*
X49741000Y-52706000D01*
G36*
X49741000Y-52706000D02*
G01*
X49261000Y-52706000D01*
X49501000Y-52376000D01*
X49741000Y-52706000D01*
G37*
%TO.C,RN2*%
X78610000Y-53814000D02*
X78610000Y-55914000D01*
X83950000Y-53814000D02*
X83950000Y-55914000D01*
%TO.C,U2*%
X56302000Y-58928000D02*
X56302000Y-60428000D01*
X56302000Y-58928000D02*
X56302000Y-57428000D01*
X59522000Y-58928000D02*
X59522000Y-60428000D01*
X59522000Y-58928000D02*
X59522000Y-57428000D01*
X56477000Y-61140500D02*
X56147000Y-61380500D01*
X56147000Y-60900500D01*
X56477000Y-61140500D01*
G36*
X56477000Y-61140500D02*
G01*
X56147000Y-61380500D01*
X56147000Y-60900500D01*
X56477000Y-61140500D01*
G37*
%TO.C,R3*%
X59663064Y-79475000D02*
X59208936Y-79475000D01*
X59663064Y-78005000D02*
X59208936Y-78005000D01*
%TO.C,RN1*%
X58042000Y-76234000D02*
X58042000Y-74134000D01*
X52702000Y-76234000D02*
X52702000Y-74134000D01*
%TO.C,R8*%
X80491064Y-64743000D02*
X80036936Y-64743000D01*
X80491064Y-63273000D02*
X80036936Y-63273000D01*
%TO.C,C12*%
X70385000Y-59189252D02*
X70385000Y-58666748D01*
X71855000Y-59189252D02*
X71855000Y-58666748D01*
%TO.C,J1*%
X40175500Y-50130500D02*
X40175500Y-52130500D01*
X38925500Y-50130500D02*
X40175500Y-50130500D01*
X39785500Y-50520500D02*
X32315500Y-50520500D01*
X32315500Y-50520500D02*
X32315500Y-67370500D01*
X38825500Y-51730500D02*
X38825500Y-54730500D01*
X37475500Y-51730500D02*
X37475500Y-52480500D01*
X33175500Y-51730500D02*
X37475500Y-51730500D01*
X37825500Y-51980500D02*
X38825500Y-51730500D01*
X37825500Y-52480500D02*
X37825500Y-51980500D01*
X37475500Y-52480500D02*
X37825500Y-52480500D01*
X33175500Y-52480500D02*
X33175500Y-51730500D01*
X37825500Y-53980500D02*
X37475500Y-53980500D01*
X37475500Y-53980500D02*
X37475500Y-54730500D01*
X37825500Y-54480500D02*
X37825500Y-53980500D01*
X38825500Y-54730500D02*
X37825500Y-54480500D01*
X37475500Y-54730500D02*
X33175500Y-54730500D01*
X33175500Y-54730500D02*
X33175500Y-53980500D01*
X38825500Y-55540500D02*
X38825500Y-58540500D01*
X37475500Y-55540500D02*
X37475500Y-56290500D01*
X33175500Y-55540500D02*
X37475500Y-55540500D01*
X37825500Y-55790500D02*
X38825500Y-55540500D01*
X37825500Y-56290500D02*
X37825500Y-55790500D01*
X37475500Y-56290500D02*
X37825500Y-56290500D01*
X33175500Y-56290500D02*
X33175500Y-55540500D01*
X37825500Y-57790500D02*
X37475500Y-57790500D01*
X37475500Y-57790500D02*
X37475500Y-58540500D01*
X37825500Y-58290500D02*
X37825500Y-57790500D01*
X38825500Y-58540500D02*
X37825500Y-58290500D01*
X37475500Y-58540500D02*
X33175500Y-58540500D01*
X33175500Y-58540500D02*
X33175500Y-57790500D01*
X38825500Y-59350500D02*
X38825500Y-62350500D01*
X37475500Y-59350500D02*
X37475500Y-60100500D01*
X33175500Y-59350500D02*
X37475500Y-59350500D01*
X37825500Y-59600500D02*
X38825500Y-59350500D01*
X37825500Y-60100500D02*
X37825500Y-59600500D01*
X37475500Y-60100500D02*
X37825500Y-60100500D01*
X33175500Y-60100500D02*
X33175500Y-59350500D01*
X37825500Y-61600500D02*
X37475500Y-61600500D01*
X37475500Y-61600500D02*
X37475500Y-62350500D01*
X37825500Y-62100500D02*
X37825500Y-61600500D01*
X38825500Y-62350500D02*
X37825500Y-62100500D01*
X37475500Y-62350500D02*
X33175500Y-62350500D01*
X33175500Y-62350500D02*
X33175500Y-61600500D01*
X38825500Y-63160500D02*
X38825500Y-66160500D01*
X37475500Y-63160500D02*
X37475500Y-63910500D01*
X33175500Y-63160500D02*
X37475500Y-63160500D01*
X37825500Y-63410500D02*
X38825500Y-63160500D01*
X37825500Y-63910500D02*
X37825500Y-63410500D01*
X37475500Y-63910500D02*
X37825500Y-63910500D01*
X33175500Y-63910500D02*
X33175500Y-63160500D01*
X37825500Y-65410500D02*
X37475500Y-65410500D01*
X37475500Y-65410500D02*
X37475500Y-66160500D01*
X37825500Y-65910500D02*
X37825500Y-65410500D01*
X38825500Y-66160500D02*
X37825500Y-65910500D01*
X37475500Y-66160500D02*
X33175500Y-66160500D01*
X33175500Y-66160500D02*
X33175500Y-65410500D01*
X39785500Y-67370500D02*
X39785500Y-50520500D01*
X32315500Y-67370500D02*
X39785500Y-67370500D01*
X33175655Y-53980147D02*
G75*
G03*
X33175500Y-52480500I-1700155J749647D01*
G01*
X33175655Y-57790147D02*
G75*
G03*
X33175500Y-56290500I-1700155J749647D01*
G01*
X33175655Y-61600147D02*
G75*
G03*
X33175500Y-60100500I-1700155J749647D01*
G01*
X33175655Y-65410147D02*
G75*
G03*
X33175500Y-63910500I-1700155J749647D01*
G01*
%TO.C,R12*%
X60225000Y-73379064D02*
X60225000Y-72924936D01*
X61695000Y-73379064D02*
X61695000Y-72924936D01*
%TO.C,D12*%
X59616000Y-49800000D02*
X59616000Y-51800000D01*
X59616000Y-49800000D02*
X63626000Y-49800000D01*
X59616000Y-51800000D02*
X63626000Y-51800000D01*
%TO.C,R9*%
X80745064Y-61695000D02*
X80290936Y-61695000D01*
X80745064Y-60225000D02*
X80290936Y-60225000D01*
%TO.C,U5*%
X94694000Y-59542000D02*
X94694000Y-59812000D01*
X94694000Y-66442000D02*
X94694000Y-66172000D01*
X101114000Y-59542000D02*
X94694000Y-59542000D01*
X101114000Y-66442000D02*
X94694000Y-66442000D01*
X93279000Y-59832000D02*
X93039000Y-59502000D01*
X93519000Y-59502000D01*
X93279000Y-59832000D01*
G36*
X93279000Y-59832000D02*
G01*
X93039000Y-59502000D01*
X93519000Y-59502000D01*
X93279000Y-59832000D01*
G37*
%TO.C,R5*%
X59663000Y-65558936D02*
X59663000Y-66013064D01*
X58193000Y-65558936D02*
X58193000Y-66013064D01*
%TO.C,U3*%
X65532000Y-60647000D02*
X67732000Y-60647000D01*
X65532000Y-60647000D02*
X63332000Y-60647000D01*
X65532000Y-55177000D02*
X67732000Y-55177000D01*
X65532000Y-55177000D02*
X63332000Y-55177000D01*
X69722000Y-60427000D02*
X69392000Y-60187000D01*
X69722000Y-59947000D01*
X69722000Y-60427000D01*
G36*
X69722000Y-60427000D02*
G01*
X69392000Y-60187000D01*
X69722000Y-59947000D01*
X69722000Y-60427000D01*
G37*
%TO.C,K3*%
X61106500Y-49219500D02*
X61106500Y-47019500D01*
X63206500Y-49219500D02*
X61106500Y-49219500D01*
X61306500Y-49019500D02*
X61306500Y-41219500D01*
X74006500Y-49019500D02*
X61306500Y-49019500D01*
X66289500Y-46857500D02*
X66924500Y-46857500D01*
X66924500Y-46857500D02*
X66924500Y-46197500D01*
X66416500Y-46197500D02*
X67432500Y-46197500D01*
X67432500Y-46197500D02*
X67432500Y-44292500D01*
X66416500Y-44673500D02*
X67432500Y-45308500D01*
X66416500Y-44292500D02*
X66416500Y-46197500D01*
X66416500Y-44292500D02*
X67432500Y-44292500D01*
X66289500Y-43657500D02*
X66924500Y-43657500D01*
X66924500Y-43657500D02*
X66924500Y-44292500D01*
X61306500Y-41219500D02*
X74006500Y-41219500D01*
X74006500Y-41219500D02*
X74006500Y-49019500D01*
%TO.C,Q6*%
X101056000Y-51308000D02*
X101056000Y-51958000D01*
X101056000Y-51308000D02*
X101056000Y-50658000D01*
X104176000Y-51308000D02*
X104176000Y-51958000D01*
X104176000Y-51308000D02*
X104176000Y-50658000D01*
X101106000Y-52470500D02*
X100776000Y-52710500D01*
X100776000Y-52230500D01*
X101106000Y-52470500D01*
G36*
X101106000Y-52470500D02*
G01*
X100776000Y-52710500D01*
X100776000Y-52230500D01*
X101106000Y-52470500D01*
G37*
%TO.C,D6*%
X89588000Y-53356000D02*
X89588000Y-55356000D01*
X89588000Y-53356000D02*
X93598000Y-53356000D01*
X89588000Y-55356000D02*
X93598000Y-55356000D01*
%TO.C,J6*%
X31667500Y-32336000D02*
X33667500Y-32336000D01*
X31667500Y-33586000D02*
X31667500Y-32336000D01*
X32057500Y-32726000D02*
X32057500Y-40196000D01*
X32057500Y-40196000D02*
X44177500Y-40196000D01*
X33117500Y-33686000D02*
X36117500Y-33686000D01*
X33117500Y-35036000D02*
X33867500Y-35036000D01*
X33117500Y-39336000D02*
X33117500Y-35036000D01*
X33367500Y-34686000D02*
X33117500Y-33686000D01*
X33867500Y-34686000D02*
X33367500Y-34686000D01*
X33867500Y-35036000D02*
X33867500Y-34686000D01*
X33867500Y-39336000D02*
X33117500Y-39336000D01*
X35367500Y-34686000D02*
X35367500Y-35036000D01*
X35367500Y-35036000D02*
X36117500Y-35036000D01*
X35867500Y-34686000D02*
X35367500Y-34686000D01*
X36117500Y-33686000D02*
X35867500Y-34686000D01*
X36117500Y-35036000D02*
X36117500Y-39336000D01*
X36117500Y-39336000D02*
X35367500Y-39336000D01*
X36617500Y-33686000D02*
X39617500Y-33686000D01*
X36617500Y-35036000D02*
X37367500Y-35036000D01*
X36617500Y-39336000D02*
X36617500Y-35036000D01*
X36867500Y-34686000D02*
X36617500Y-33686000D01*
X37367500Y-34686000D02*
X36867500Y-34686000D01*
X37367500Y-35036000D02*
X37367500Y-34686000D01*
X37367500Y-39336000D02*
X36617500Y-39336000D01*
X38867500Y-34686000D02*
X38867500Y-35036000D01*
X38867500Y-35036000D02*
X39617500Y-35036000D01*
X39367500Y-34686000D02*
X38867500Y-34686000D01*
X39617500Y-33686000D02*
X39367500Y-34686000D01*
X39617500Y-35036000D02*
X39617500Y-39336000D01*
X39617500Y-39336000D02*
X38867500Y-39336000D01*
X40117500Y-33686000D02*
X43117500Y-33686000D01*
X40117500Y-35036000D02*
X40867500Y-35036000D01*
X40117500Y-39336000D02*
X40117500Y-35036000D01*
X40367500Y-34686000D02*
X40117500Y-33686000D01*
X40867500Y-34686000D02*
X40367500Y-34686000D01*
X40867500Y-35036000D02*
X40867500Y-34686000D01*
X40867500Y-39336000D02*
X40117500Y-39336000D01*
X42367500Y-34686000D02*
X42367500Y-35036000D01*
X42367500Y-35036000D02*
X43117500Y-35036000D01*
X42867500Y-34686000D02*
X42367500Y-34686000D01*
X43117500Y-33686000D02*
X42867500Y-34686000D01*
X43117500Y-35036000D02*
X43117500Y-39336000D01*
X43117500Y-39336000D02*
X42367500Y-39336000D01*
X44177500Y-32726000D02*
X32057500Y-32726000D01*
X44177500Y-40196000D02*
X44177500Y-32726000D01*
X35367147Y-39335845D02*
G75*
G03*
X33867500Y-39336000I-749647J-1700155D01*
G01*
X38867147Y-39335845D02*
G75*
G03*
X37367500Y-39336000I-749647J-1700155D01*
G01*
X42367147Y-39335845D02*
G75*
G03*
X40867500Y-39336000I-749647J-1700155D01*
G01*
%TO.C,R13*%
X76935000Y-53620936D02*
X76935000Y-54075064D01*
X75465000Y-53620936D02*
X75465000Y-54075064D01*
%TO.C,C17*%
X97274748Y-57685000D02*
X97797252Y-57685000D01*
X97274748Y-59155000D02*
X97797252Y-59155000D01*
%TO.C,D5*%
X99388000Y-55356000D02*
X99388000Y-53356000D01*
X99388000Y-55356000D02*
X95378000Y-55356000D01*
X99388000Y-53356000D02*
X95378000Y-53356000D01*
%TO.C,D14*%
X87392000Y-54176000D02*
X89392000Y-54176000D01*
X87392000Y-54176000D02*
X87392000Y-50166000D01*
X89392000Y-54176000D02*
X89392000Y-50166000D01*
%TO.C,J8*%
X61108750Y-32336000D02*
X63108750Y-32336000D01*
X61108750Y-33586000D02*
X61108750Y-32336000D01*
X61498750Y-32726000D02*
X61498750Y-40196000D01*
X61498750Y-40196000D02*
X73618750Y-40196000D01*
X62558750Y-33686000D02*
X65558750Y-33686000D01*
X62558750Y-35036000D02*
X63308750Y-35036000D01*
X62558750Y-39336000D02*
X62558750Y-35036000D01*
X62808750Y-34686000D02*
X62558750Y-33686000D01*
X63308750Y-34686000D02*
X62808750Y-34686000D01*
X63308750Y-35036000D02*
X63308750Y-34686000D01*
X63308750Y-39336000D02*
X62558750Y-39336000D01*
X64808750Y-34686000D02*
X64808750Y-35036000D01*
X64808750Y-35036000D02*
X65558750Y-35036000D01*
X65308750Y-34686000D02*
X64808750Y-34686000D01*
X65558750Y-33686000D02*
X65308750Y-34686000D01*
X65558750Y-35036000D02*
X65558750Y-39336000D01*
X65558750Y-39336000D02*
X64808750Y-39336000D01*
X66058750Y-33686000D02*
X69058750Y-33686000D01*
X66058750Y-35036000D02*
X66808750Y-35036000D01*
X66058750Y-39336000D02*
X66058750Y-35036000D01*
X66308750Y-34686000D02*
X66058750Y-33686000D01*
X66808750Y-34686000D02*
X66308750Y-34686000D01*
X66808750Y-35036000D02*
X66808750Y-34686000D01*
X66808750Y-39336000D02*
X66058750Y-39336000D01*
X68308750Y-34686000D02*
X68308750Y-35036000D01*
X68308750Y-35036000D02*
X69058750Y-35036000D01*
X68808750Y-34686000D02*
X68308750Y-34686000D01*
X69058750Y-33686000D02*
X68808750Y-34686000D01*
X69058750Y-35036000D02*
X69058750Y-39336000D01*
X69058750Y-39336000D02*
X68308750Y-39336000D01*
X69558750Y-33686000D02*
X72558750Y-33686000D01*
X69558750Y-35036000D02*
X70308750Y-35036000D01*
X69558750Y-39336000D02*
X69558750Y-35036000D01*
X69808750Y-34686000D02*
X69558750Y-33686000D01*
X70308750Y-34686000D02*
X69808750Y-34686000D01*
X70308750Y-35036000D02*
X70308750Y-34686000D01*
X70308750Y-39336000D02*
X69558750Y-39336000D01*
X71808750Y-34686000D02*
X71808750Y-35036000D01*
X71808750Y-35036000D02*
X72558750Y-35036000D01*
X72308750Y-34686000D02*
X71808750Y-34686000D01*
X72558750Y-33686000D02*
X72308750Y-34686000D01*
X72558750Y-35036000D02*
X72558750Y-39336000D01*
X72558750Y-39336000D02*
X71808750Y-39336000D01*
X73618750Y-32726000D02*
X61498750Y-32726000D01*
X73618750Y-40196000D02*
X73618750Y-32726000D01*
X64808397Y-39335845D02*
G75*
G03*
X63308750Y-39336000I-749647J-1700155D01*
G01*
X68308397Y-39335845D02*
G75*
G03*
X66808750Y-39336000I-749647J-1700155D01*
G01*
X71808397Y-39335845D02*
G75*
G03*
X70308750Y-39336000I-749647J-1700155D01*
G01*
%TO.C,D13*%
X75872000Y-49546000D02*
X75872000Y-51546000D01*
X75872000Y-49546000D02*
X79882000Y-49546000D01*
X75872000Y-51546000D02*
X79882000Y-51546000D01*
%TO.C,J2*%
X61776500Y-64516000D02*
X61776500Y-65516000D01*
X61776500Y-65516000D02*
X62276500Y-65016000D01*
X62276500Y-65016000D02*
X61776500Y-64516000D01*
X62356500Y-61226000D02*
X62356500Y-77966000D01*
X78076500Y-61226000D02*
X62356500Y-61226000D01*
X78086500Y-61226000D02*
X78086500Y-77966000D01*
X78086500Y-77966000D02*
X62356500Y-77966000D01*
%TO.C,C1*%
X41902748Y-54129000D02*
X42425252Y-54129000D01*
X41902748Y-55599000D02*
X42425252Y-55599000D01*
%TO.C,K2*%
X46374500Y-49219500D02*
X46374500Y-47019500D01*
X48474500Y-49219500D02*
X46374500Y-49219500D01*
X46574500Y-49019500D02*
X46574500Y-41219500D01*
X59274500Y-49019500D02*
X46574500Y-49019500D01*
X51557500Y-46857500D02*
X52192500Y-46857500D01*
X52192500Y-46857500D02*
X52192500Y-46197500D01*
X51684500Y-46197500D02*
X52700500Y-46197500D01*
X52700500Y-46197500D02*
X52700500Y-44292500D01*
X51684500Y-44673500D02*
X52700500Y-45308500D01*
X51684500Y-44292500D02*
X51684500Y-46197500D01*
X51684500Y-44292500D02*
X52700500Y-44292500D01*
X51557500Y-43657500D02*
X52192500Y-43657500D01*
X52192500Y-43657500D02*
X52192500Y-44292500D01*
X46574500Y-41219500D02*
X59274500Y-41219500D01*
X59274500Y-41219500D02*
X59274500Y-49019500D01*
%TO.C,R10*%
X50064936Y-74449000D02*
X50519064Y-74449000D01*
X50064936Y-75919000D02*
X50519064Y-75919000D01*
%TO.C,D9*%
X84508000Y-54372000D02*
X84508000Y-56372000D01*
X84508000Y-54372000D02*
X88518000Y-54372000D01*
X84508000Y-56372000D02*
X88518000Y-56372000D01*
%TO.C,U6*%
X92672000Y-55804000D02*
X94272000Y-55804000D01*
X92672000Y-59004000D02*
X94272000Y-59004000D01*
X92222000Y-55954000D02*
X91982000Y-55624000D01*
X92462000Y-55624000D01*
X92222000Y-55954000D01*
G36*
X92222000Y-55954000D02*
G01*
X91982000Y-55624000D01*
X92462000Y-55624000D01*
X92222000Y-55954000D01*
G37*
%TO.C,Q5*%
X84836000Y-49240000D02*
X84186000Y-49240000D01*
X84836000Y-49240000D02*
X85486000Y-49240000D01*
X84836000Y-52360000D02*
X84186000Y-52360000D01*
X84836000Y-52360000D02*
X85486000Y-52360000D01*
X83673500Y-49290000D02*
X83433500Y-48960000D01*
X83913500Y-48960000D01*
X83673500Y-49290000D01*
G36*
X83673500Y-49290000D02*
G01*
X83433500Y-48960000D01*
X83913500Y-48960000D01*
X83673500Y-49290000D01*
G37*
%TO.C,K1*%
X31642500Y-49219500D02*
X31642500Y-47019500D01*
X33742500Y-49219500D02*
X31642500Y-49219500D01*
X31842500Y-49019500D02*
X31842500Y-41219500D01*
X44542500Y-49019500D02*
X31842500Y-49019500D01*
X36825500Y-46857500D02*
X37460500Y-46857500D01*
X37460500Y-46857500D02*
X37460500Y-46197500D01*
X36952500Y-46197500D02*
X37968500Y-46197500D01*
X37968500Y-46197500D02*
X37968500Y-44292500D01*
X36952500Y-44673500D02*
X37968500Y-45308500D01*
X36952500Y-44292500D02*
X36952500Y-46197500D01*
X36952500Y-44292500D02*
X37968500Y-44292500D01*
X36825500Y-43657500D02*
X37460500Y-43657500D01*
X37460500Y-43657500D02*
X37460500Y-44292500D01*
X31842500Y-41219500D02*
X44542500Y-41219500D01*
X44542500Y-41219500D02*
X44542500Y-49019500D01*
%TO.C,C6*%
X41902748Y-66321000D02*
X42425252Y-66321000D01*
X41902748Y-67791000D02*
X42425252Y-67791000D01*
%TO.C,C4*%
X41902748Y-62257000D02*
X42425252Y-62257000D01*
X41902748Y-63727000D02*
X42425252Y-63727000D01*
%TO.C,U1*%
X50883500Y-55078000D02*
X51543500Y-55078000D01*
X46563500Y-55078000D02*
X47463500Y-55078000D01*
X51783500Y-55978000D02*
X51783500Y-55378000D01*
X46563500Y-55978000D02*
X46563500Y-55078000D01*
X51783500Y-59398000D02*
X51783500Y-60298000D01*
X46563500Y-59398000D02*
X46563500Y-60298000D01*
X51783500Y-60298000D02*
X50883500Y-60298000D01*
X46563500Y-60298000D02*
X47463500Y-60298000D01*
X52113500Y-55318000D02*
X51783500Y-55078000D01*
X52113500Y-54838000D01*
X52113500Y-55318000D01*
G36*
X52113500Y-55318000D02*
G01*
X51783500Y-55078000D01*
X52113500Y-54838000D01*
X52113500Y-55318000D01*
G37*
%TO.C,D8*%
X94668000Y-50816000D02*
X94668000Y-52816000D01*
X94668000Y-50816000D02*
X98678000Y-50816000D01*
X94668000Y-52816000D02*
X98678000Y-52816000D01*
%TO.C,J4*%
X91086000Y-69926000D02*
X93086000Y-69926000D01*
X91086000Y-71176000D02*
X91086000Y-69926000D01*
X91476000Y-70316000D02*
X91476000Y-77786000D01*
X91476000Y-77786000D02*
X103596000Y-77786000D01*
X92536000Y-71276000D02*
X95536000Y-71276000D01*
X92536000Y-72626000D02*
X93286000Y-72626000D01*
X92536000Y-76926000D02*
X92536000Y-72626000D01*
X92786000Y-72276000D02*
X92536000Y-71276000D01*
X93286000Y-72276000D02*
X92786000Y-72276000D01*
X93286000Y-72626000D02*
X93286000Y-72276000D01*
X93286000Y-76926000D02*
X92536000Y-76926000D01*
X94786000Y-72276000D02*
X94786000Y-72626000D01*
X94786000Y-72626000D02*
X95536000Y-72626000D01*
X95286000Y-72276000D02*
X94786000Y-72276000D01*
X95536000Y-71276000D02*
X95286000Y-72276000D01*
X95536000Y-72626000D02*
X95536000Y-76926000D01*
X95536000Y-76926000D02*
X94786000Y-76926000D01*
X96036000Y-71276000D02*
X99036000Y-71276000D01*
X96036000Y-72626000D02*
X96786000Y-72626000D01*
X96036000Y-76926000D02*
X96036000Y-72626000D01*
X96286000Y-72276000D02*
X96036000Y-71276000D01*
X96786000Y-72276000D02*
X96286000Y-72276000D01*
X96786000Y-72626000D02*
X96786000Y-72276000D01*
X96786000Y-76926000D02*
X96036000Y-76926000D01*
X98286000Y-72276000D02*
X98286000Y-72626000D01*
X98286000Y-72626000D02*
X99036000Y-72626000D01*
X98786000Y-72276000D02*
X98286000Y-72276000D01*
X99036000Y-71276000D02*
X98786000Y-72276000D01*
X99036000Y-72626000D02*
X99036000Y-76926000D01*
X99036000Y-76926000D02*
X98286000Y-76926000D01*
X99536000Y-71276000D02*
X102536000Y-71276000D01*
X99536000Y-72626000D02*
X100286000Y-72626000D01*
X99536000Y-76926000D02*
X99536000Y-72626000D01*
X99786000Y-72276000D02*
X99536000Y-71276000D01*
X100286000Y-72276000D02*
X99786000Y-72276000D01*
X100286000Y-72626000D02*
X100286000Y-72276000D01*
X100286000Y-76926000D02*
X99536000Y-76926000D01*
X101786000Y-72276000D02*
X101786000Y-72626000D01*
X101786000Y-72626000D02*
X102536000Y-72626000D01*
X102286000Y-72276000D02*
X101786000Y-72276000D01*
X102536000Y-71276000D02*
X102286000Y-72276000D01*
X102536000Y-72626000D02*
X102536000Y-76926000D01*
X102536000Y-76926000D02*
X101786000Y-76926000D01*
X103596000Y-70316000D02*
X91476000Y-70316000D01*
X103596000Y-77786000D02*
X103596000Y-70316000D01*
X94785647Y-76925845D02*
G75*
G03*
X93286000Y-76926000I-749647J-1700155D01*
G01*
X98285647Y-76925845D02*
G75*
G03*
X96786000Y-76926000I-749647J-1700155D01*
G01*
X101785647Y-76925845D02*
G75*
G03*
X100286000Y-76926000I-749647J-1700155D01*
G01*
%TO.C,C5*%
X67302748Y-53113000D02*
X67825252Y-53113000D01*
X67302748Y-54583000D02*
X67825252Y-54583000D01*
%TO.C,Q1*%
X74168000Y-60488000D02*
X74818000Y-60488000D01*
X74168000Y-60488000D02*
X73518000Y-60488000D01*
X74168000Y-57368000D02*
X74818000Y-57368000D01*
X74168000Y-57368000D02*
X73518000Y-57368000D01*
X75570500Y-60768000D02*
X75090500Y-60768000D01*
X75330500Y-60438000D01*
X75570500Y-60768000D01*
G36*
X75570500Y-60768000D02*
G01*
X75090500Y-60768000D01*
X75330500Y-60438000D01*
X75570500Y-60768000D01*
G37*
%TO.C,R6*%
X60225000Y-66013064D02*
X60225000Y-65558936D01*
X61695000Y-66013064D02*
X61695000Y-65558936D01*
%TO.C,K4*%
X75838500Y-49219500D02*
X75838500Y-47019500D01*
X77938500Y-49219500D02*
X75838500Y-49219500D01*
X76038500Y-49019500D02*
X76038500Y-41219500D01*
X88738500Y-49019500D02*
X76038500Y-49019500D01*
X81021500Y-46857500D02*
X81656500Y-46857500D01*
X81656500Y-46857500D02*
X81656500Y-46197500D01*
X81148500Y-46197500D02*
X82164500Y-46197500D01*
X82164500Y-46197500D02*
X82164500Y-44292500D01*
X81148500Y-44673500D02*
X82164500Y-45308500D01*
X81148500Y-44292500D02*
X81148500Y-46197500D01*
X81148500Y-44292500D02*
X82164500Y-44292500D01*
X81021500Y-43657500D02*
X81656500Y-43657500D01*
X81656500Y-43657500D02*
X81656500Y-44292500D01*
X76038500Y-41219500D02*
X88738500Y-41219500D01*
X88738500Y-41219500D02*
X88738500Y-49019500D01*
%TO.C,L3*%
X41902748Y-56186000D02*
X42425252Y-56186000D01*
X41902748Y-57606000D02*
X42425252Y-57606000D01*
%TO.C,C13*%
X80779252Y-79475000D02*
X80256748Y-79475000D01*
X80779252Y-78005000D02*
X80256748Y-78005000D01*
%TO.C,R11*%
X41936936Y-68353000D02*
X42391064Y-68353000D01*
X41936936Y-69823000D02*
X42391064Y-69823000D01*
%TO.C,C18*%
X101106000Y-59023000D02*
X104126000Y-59023000D01*
X104126000Y-59023000D02*
X104126000Y-54638000D01*
X101106000Y-54638000D02*
X101106000Y-59023000D01*
%TO.C,J3*%
X40175500Y-68977500D02*
X40175500Y-70977500D01*
X38925500Y-68977500D02*
X40175500Y-68977500D01*
X39785500Y-69367500D02*
X32315500Y-69367500D01*
X32315500Y-69367500D02*
X32315500Y-77987500D01*
X38825500Y-70427500D02*
X38825500Y-73427500D01*
X37475500Y-70427500D02*
X37475500Y-71177500D01*
X33175500Y-70427500D02*
X37475500Y-70427500D01*
X37825500Y-70677500D02*
X38825500Y-70427500D01*
X37825500Y-71177500D02*
X37825500Y-70677500D01*
X37475500Y-71177500D02*
X37825500Y-71177500D01*
X33175500Y-71177500D02*
X33175500Y-70427500D01*
X37825500Y-72677500D02*
X37475500Y-72677500D01*
X37475500Y-72677500D02*
X37475500Y-73427500D01*
X37825500Y-73177500D02*
X37825500Y-72677500D01*
X38825500Y-73427500D02*
X37825500Y-73177500D01*
X37475500Y-73427500D02*
X33175500Y-73427500D01*
X33175500Y-73427500D02*
X33175500Y-72677500D01*
X38825500Y-73927500D02*
X38825500Y-76927500D01*
X37475500Y-73927500D02*
X37475500Y-74677500D01*
X33175500Y-73927500D02*
X37475500Y-73927500D01*
X37825500Y-74177500D02*
X38825500Y-73927500D01*
X37825500Y-74677500D02*
X37825500Y-74177500D01*
X37475500Y-74677500D02*
X37825500Y-74677500D01*
X33175500Y-74677500D02*
X33175500Y-73927500D01*
X37825500Y-76177500D02*
X37475500Y-76177500D01*
X37475500Y-76177500D02*
X37475500Y-76927500D01*
X37825500Y-76677500D02*
X37825500Y-76177500D01*
X38825500Y-76927500D02*
X37825500Y-76677500D01*
X37475500Y-76927500D02*
X33175500Y-76927500D01*
X33175500Y-76927500D02*
X33175500Y-76177500D01*
X39785500Y-77987500D02*
X39785500Y-69367500D01*
X32315500Y-77987500D02*
X39785500Y-77987500D01*
X33175655Y-72677147D02*
G75*
G03*
X33175500Y-71177500I-1700155J749647D01*
G01*
X33175655Y-76177147D02*
G75*
G03*
X33175500Y-74677500I-1700155J749647D01*
G01*
%TO.C,L2*%
X41902748Y-60250000D02*
X42425252Y-60250000D01*
X41902748Y-61670000D02*
X42425252Y-61670000D01*
%TO.C,R14*%
X50519064Y-54329000D02*
X50064936Y-54329000D01*
X50519064Y-52859000D02*
X50064936Y-52859000D01*
%TO.C,C8*%
X54617252Y-79475000D02*
X54094748Y-79475000D01*
X54617252Y-78005000D02*
X54094748Y-78005000D01*
%TO.C,K5*%
X90570500Y-49219500D02*
X90570500Y-47019500D01*
X92670500Y-49219500D02*
X90570500Y-49219500D01*
X90770500Y-49019500D02*
X90770500Y-41219500D01*
X103470500Y-49019500D02*
X90770500Y-49019500D01*
X95753500Y-46857500D02*
X96388500Y-46857500D01*
X96388500Y-46857500D02*
X96388500Y-46197500D01*
X95880500Y-46197500D02*
X96896500Y-46197500D01*
X96896500Y-46197500D02*
X96896500Y-44292500D01*
X95880500Y-44673500D02*
X96896500Y-45308500D01*
X95880500Y-44292500D02*
X95880500Y-46197500D01*
X95880500Y-44292500D02*
X96896500Y-44292500D01*
X95753500Y-43657500D02*
X96388500Y-43657500D01*
X96388500Y-43657500D02*
X96388500Y-44292500D01*
X90770500Y-41219500D02*
X103470500Y-41219500D01*
X103470500Y-41219500D02*
X103470500Y-49019500D01*
%TO.C,U4*%
X55934000Y-70158000D02*
X55934000Y-69858000D01*
X55934000Y-62938000D02*
X55934000Y-63238000D01*
X55634000Y-70158000D02*
X55934000Y-70158000D01*
X55634000Y-62938000D02*
X55934000Y-62938000D01*
X49014000Y-70158000D02*
X48714000Y-70158000D01*
X49014000Y-62938000D02*
X48714000Y-62938000D01*
X48714000Y-70158000D02*
X48714000Y-69858000D01*
X48714000Y-62938000D02*
X48714000Y-63238000D01*
X56876500Y-70328000D02*
X56196500Y-70328000D01*
X56536500Y-69858000D01*
X56876500Y-70328000D01*
G36*
X56876500Y-70328000D02*
G01*
X56196500Y-70328000D01*
X56536500Y-69858000D01*
X56876500Y-70328000D01*
G37*
%TO.C,R4*%
X76481000Y-59171064D02*
X76481000Y-58716936D01*
X77951000Y-59171064D02*
X77951000Y-58716936D01*
%TO.C,C2*%
X41902748Y-58193000D02*
X42425252Y-58193000D01*
X41902748Y-59663000D02*
X42425252Y-59663000D01*
%TO.C,Q4*%
X67564000Y-52360000D02*
X68214000Y-52360000D01*
X67564000Y-52360000D02*
X66914000Y-52360000D01*
X67564000Y-49240000D02*
X68214000Y-49240000D01*
X67564000Y-49240000D02*
X66914000Y-49240000D01*
X68966500Y-52640000D02*
X68486500Y-52640000D01*
X68726500Y-52310000D01*
X68966500Y-52640000D01*
G36*
X68966500Y-52640000D02*
G01*
X68486500Y-52640000D01*
X68726500Y-52310000D01*
X68966500Y-52640000D01*
G37*
%TO.C,D2*%
X54014000Y-60938000D02*
X55714000Y-60938000D01*
X54014000Y-60938000D02*
X54014000Y-57678000D01*
X55714000Y-60938000D02*
X55714000Y-57678000D01*
%TO.C,R1*%
X50064936Y-78005000D02*
X50519064Y-78005000D01*
X50064936Y-79475000D02*
X50519064Y-79475000D01*
%TO.C,J10*%
X90550000Y-32336000D02*
X92550000Y-32336000D01*
X90550000Y-33586000D02*
X90550000Y-32336000D01*
X90940000Y-32726000D02*
X90940000Y-40196000D01*
X90940000Y-40196000D02*
X103060000Y-40196000D01*
X92000000Y-33686000D02*
X95000000Y-33686000D01*
X92000000Y-35036000D02*
X92750000Y-35036000D01*
X92000000Y-39336000D02*
X92000000Y-35036000D01*
X92250000Y-34686000D02*
X92000000Y-33686000D01*
X92750000Y-34686000D02*
X92250000Y-34686000D01*
X92750000Y-35036000D02*
X92750000Y-34686000D01*
X92750000Y-39336000D02*
X92000000Y-39336000D01*
X94250000Y-34686000D02*
X94250000Y-35036000D01*
X94250000Y-35036000D02*
X95000000Y-35036000D01*
X94750000Y-34686000D02*
X94250000Y-34686000D01*
X95000000Y-33686000D02*
X94750000Y-34686000D01*
X95000000Y-35036000D02*
X95000000Y-39336000D01*
X95000000Y-39336000D02*
X94250000Y-39336000D01*
X95500000Y-33686000D02*
X98500000Y-33686000D01*
X95500000Y-35036000D02*
X96250000Y-35036000D01*
X95500000Y-39336000D02*
X95500000Y-35036000D01*
X95750000Y-34686000D02*
X95500000Y-33686000D01*
X96250000Y-34686000D02*
X95750000Y-34686000D01*
X96250000Y-35036000D02*
X96250000Y-34686000D01*
X96250000Y-39336000D02*
X95500000Y-39336000D01*
X97750000Y-34686000D02*
X97750000Y-35036000D01*
X97750000Y-35036000D02*
X98500000Y-35036000D01*
X98250000Y-34686000D02*
X97750000Y-34686000D01*
X98500000Y-33686000D02*
X98250000Y-34686000D01*
X98500000Y-35036000D02*
X98500000Y-39336000D01*
X98500000Y-39336000D02*
X97750000Y-39336000D01*
X99000000Y-33686000D02*
X102000000Y-33686000D01*
X99000000Y-35036000D02*
X99750000Y-35036000D01*
X99000000Y-39336000D02*
X99000000Y-35036000D01*
X99250000Y-34686000D02*
X99000000Y-33686000D01*
X99750000Y-34686000D02*
X99250000Y-34686000D01*
X99750000Y-35036000D02*
X99750000Y-34686000D01*
X99750000Y-39336000D02*
X99000000Y-39336000D01*
X101250000Y-34686000D02*
X101250000Y-35036000D01*
X101250000Y-35036000D02*
X102000000Y-35036000D01*
X101750000Y-34686000D02*
X101250000Y-34686000D01*
X102000000Y-33686000D02*
X101750000Y-34686000D01*
X102000000Y-35036000D02*
X102000000Y-39336000D01*
X102000000Y-39336000D02*
X101250000Y-39336000D01*
X103060000Y-32726000D02*
X90940000Y-32726000D01*
X103060000Y-40196000D02*
X103060000Y-32726000D01*
X94249647Y-39335845D02*
G75*
G03*
X92750000Y-39336000I-749647J-1700155D01*
G01*
X97749647Y-39335845D02*
G75*
G03*
X96250000Y-39336000I-749647J-1700155D01*
G01*
X101249647Y-39335845D02*
G75*
G03*
X99750000Y-39336000I-749647J-1700155D01*
G01*
%TO.C,C9*%
X60205252Y-70839000D02*
X59682748Y-70839000D01*
X60205252Y-69369000D02*
X59682748Y-69369000D01*
%TO.C,C7*%
X69877000Y-55125252D02*
X69877000Y-54602748D01*
X71347000Y-55125252D02*
X71347000Y-54602748D01*
%TO.C,D1*%
X83716000Y-66430000D02*
X83716000Y-70730000D01*
X83716000Y-66430000D02*
X89526000Y-66430000D01*
X83716000Y-70730000D02*
X89526000Y-70730000D01*
%TO.C,J5*%
X47558000Y-78038000D02*
X46228000Y-78038000D01*
X47558000Y-76708000D02*
X47558000Y-78038000D01*
X47558000Y-75438000D02*
X47558000Y-70298000D01*
X47558000Y-75438000D02*
X44958000Y-75438000D01*
X47558000Y-70298000D02*
X42358000Y-70298000D01*
X44958000Y-78038000D02*
X42358000Y-78038000D01*
X44958000Y-75438000D02*
X44958000Y-78038000D01*
X42358000Y-78038000D02*
X42358000Y-70298000D01*
%TO.C,J9*%
X75829375Y-32336000D02*
X77829375Y-32336000D01*
X75829375Y-33586000D02*
X75829375Y-32336000D01*
X76219375Y-32726000D02*
X76219375Y-40196000D01*
X76219375Y-40196000D02*
X88339375Y-40196000D01*
X77279375Y-33686000D02*
X80279375Y-33686000D01*
X77279375Y-35036000D02*
X78029375Y-35036000D01*
X77279375Y-39336000D02*
X77279375Y-35036000D01*
X77529375Y-34686000D02*
X77279375Y-33686000D01*
X78029375Y-34686000D02*
X77529375Y-34686000D01*
X78029375Y-35036000D02*
X78029375Y-34686000D01*
X78029375Y-39336000D02*
X77279375Y-39336000D01*
X79529375Y-34686000D02*
X79529375Y-35036000D01*
X79529375Y-35036000D02*
X80279375Y-35036000D01*
X80029375Y-34686000D02*
X79529375Y-34686000D01*
X80279375Y-33686000D02*
X80029375Y-34686000D01*
X80279375Y-35036000D02*
X80279375Y-39336000D01*
X80279375Y-39336000D02*
X79529375Y-39336000D01*
X80779375Y-33686000D02*
X83779375Y-33686000D01*
X80779375Y-35036000D02*
X81529375Y-35036000D01*
X80779375Y-39336000D02*
X80779375Y-35036000D01*
X81029375Y-34686000D02*
X80779375Y-33686000D01*
X81529375Y-34686000D02*
X81029375Y-34686000D01*
X81529375Y-35036000D02*
X81529375Y-34686000D01*
X81529375Y-39336000D02*
X80779375Y-39336000D01*
X83029375Y-34686000D02*
X83029375Y-35036000D01*
X83029375Y-35036000D02*
X83779375Y-35036000D01*
X83529375Y-34686000D02*
X83029375Y-34686000D01*
X83779375Y-33686000D02*
X83529375Y-34686000D01*
X83779375Y-35036000D02*
X83779375Y-39336000D01*
X83779375Y-39336000D02*
X83029375Y-39336000D01*
X84279375Y-33686000D02*
X87279375Y-33686000D01*
X84279375Y-35036000D02*
X85029375Y-35036000D01*
X84279375Y-39336000D02*
X84279375Y-35036000D01*
X84529375Y-34686000D02*
X84279375Y-33686000D01*
X85029375Y-34686000D02*
X84529375Y-34686000D01*
X85029375Y-35036000D02*
X85029375Y-34686000D01*
X85029375Y-39336000D02*
X84279375Y-39336000D01*
X86529375Y-34686000D02*
X86529375Y-35036000D01*
X86529375Y-35036000D02*
X87279375Y-35036000D01*
X87029375Y-34686000D02*
X86529375Y-34686000D01*
X87279375Y-33686000D02*
X87029375Y-34686000D01*
X87279375Y-35036000D02*
X87279375Y-39336000D01*
X87279375Y-39336000D02*
X86529375Y-39336000D01*
X88339375Y-32726000D02*
X76219375Y-32726000D01*
X88339375Y-40196000D02*
X88339375Y-32726000D01*
X79529022Y-39335845D02*
G75*
G03*
X78029375Y-39336000I-749647J-1700155D01*
G01*
X83029022Y-39335845D02*
G75*
G03*
X81529375Y-39336000I-749647J-1700155D01*
G01*
X86529022Y-39335845D02*
G75*
G03*
X85029375Y-39336000I-749647J-1700155D01*
G01*
%TO.C,Q3*%
X57404000Y-52360000D02*
X58054000Y-52360000D01*
X57404000Y-52360000D02*
X56754000Y-52360000D01*
X57404000Y-49240000D02*
X58054000Y-49240000D01*
X57404000Y-49240000D02*
X56754000Y-49240000D01*
X58806500Y-52640000D02*
X58326500Y-52640000D01*
X58566500Y-52310000D01*
X58806500Y-52640000D01*
G36*
X58806500Y-52640000D02*
G01*
X58326500Y-52640000D01*
X58566500Y-52310000D01*
X58806500Y-52640000D01*
G37*
%TO.C,D7*%
X89588000Y-50816000D02*
X89588000Y-52816000D01*
X89588000Y-50816000D02*
X93598000Y-50816000D01*
X89588000Y-52816000D02*
X93598000Y-52816000D01*
%TO.C,C14*%
X88675000Y-70871651D02*
X88675000Y-71671651D01*
X89075000Y-71271651D02*
X88275000Y-71271651D01*
X90440000Y-75281349D02*
X82280000Y-75281349D01*
X90440000Y-75321349D02*
X82280000Y-75321349D01*
X90440000Y-75361349D02*
X82280000Y-75361349D01*
X90439000Y-75401349D02*
X82281000Y-75401349D01*
X90437000Y-75441349D02*
X82283000Y-75441349D01*
X90436000Y-75481349D02*
X82284000Y-75481349D01*
X90434000Y-75521349D02*
X82286000Y-75521349D01*
X90431000Y-75561349D02*
X82289000Y-75561349D01*
X90428000Y-75601349D02*
X82292000Y-75601349D01*
X90425000Y-75641349D02*
X82295000Y-75641349D01*
X90421000Y-75681349D02*
X82299000Y-75681349D01*
X90417000Y-75721349D02*
X82303000Y-75721349D01*
X90412000Y-75761349D02*
X82308000Y-75761349D01*
X90408000Y-75801349D02*
X82312000Y-75801349D01*
X90402000Y-75841349D02*
X82318000Y-75841349D01*
X90397000Y-75881349D02*
X82323000Y-75881349D01*
X90390000Y-75921349D02*
X82330000Y-75921349D01*
X90384000Y-75961349D02*
X82336000Y-75961349D01*
X90377000Y-76002349D02*
X82343000Y-76002349D01*
X90370000Y-76042349D02*
X82350000Y-76042349D01*
X90362000Y-76082349D02*
X82358000Y-76082349D01*
X90354000Y-76122349D02*
X82366000Y-76122349D01*
X90345000Y-76162349D02*
X82375000Y-76162349D01*
X90336000Y-76202349D02*
X82384000Y-76202349D01*
X90327000Y-76242349D02*
X82393000Y-76242349D01*
X90317000Y-76282349D02*
X82403000Y-76282349D01*
X90307000Y-76322349D02*
X82413000Y-76322349D01*
X90296000Y-76362349D02*
X82424000Y-76362349D01*
X90285000Y-76402349D02*
X82435000Y-76402349D01*
X90274000Y-76442349D02*
X82446000Y-76442349D01*
X90262000Y-76482349D02*
X82458000Y-76482349D01*
X90249000Y-76522349D02*
X82471000Y-76522349D01*
X90237000Y-76562349D02*
X82483000Y-76562349D01*
X90223000Y-76602349D02*
X82497000Y-76602349D01*
X90210000Y-76642349D02*
X82510000Y-76642349D01*
X90195000Y-76682349D02*
X82525000Y-76682349D01*
X90181000Y-76722349D02*
X82539000Y-76722349D01*
X90165000Y-76762349D02*
X87400000Y-76762349D01*
X85320000Y-76762349D02*
X82555000Y-76762349D01*
X90150000Y-76802349D02*
X87400000Y-76802349D01*
X85320000Y-76802349D02*
X82570000Y-76802349D01*
X90134000Y-76842349D02*
X87400000Y-76842349D01*
X85320000Y-76842349D02*
X82586000Y-76842349D01*
X90117000Y-76882349D02*
X87400000Y-76882349D01*
X85320000Y-76882349D02*
X82603000Y-76882349D01*
X90100000Y-76922349D02*
X87400000Y-76922349D01*
X85320000Y-76922349D02*
X82620000Y-76922349D01*
X90082000Y-76962349D02*
X87400000Y-76962349D01*
X85320000Y-76962349D02*
X82638000Y-76962349D01*
X90064000Y-77002349D02*
X87400000Y-77002349D01*
X85320000Y-77002349D02*
X82656000Y-77002349D01*
X90046000Y-77042349D02*
X87400000Y-77042349D01*
X85320000Y-77042349D02*
X82674000Y-77042349D01*
X90026000Y-77082349D02*
X87400000Y-77082349D01*
X85320000Y-77082349D02*
X82694000Y-77082349D01*
X90007000Y-77122349D02*
X87400000Y-77122349D01*
X85320000Y-77122349D02*
X82713000Y-77122349D01*
X89987000Y-77162349D02*
X87400000Y-77162349D01*
X85320000Y-77162349D02*
X82733000Y-77162349D01*
X89966000Y-77202349D02*
X87400000Y-77202349D01*
X85320000Y-77202349D02*
X82754000Y-77202349D01*
X89944000Y-77242349D02*
X87400000Y-77242349D01*
X85320000Y-77242349D02*
X82776000Y-77242349D01*
X89922000Y-77282349D02*
X87400000Y-77282349D01*
X85320000Y-77282349D02*
X82798000Y-77282349D01*
X89900000Y-77322349D02*
X87400000Y-77322349D01*
X85320000Y-77322349D02*
X82820000Y-77322349D01*
X89877000Y-77362349D02*
X87400000Y-77362349D01*
X85320000Y-77362349D02*
X82843000Y-77362349D01*
X89853000Y-77402349D02*
X87400000Y-77402349D01*
X85320000Y-77402349D02*
X82867000Y-77402349D01*
X89829000Y-77442349D02*
X87400000Y-77442349D01*
X85320000Y-77442349D02*
X82891000Y-77442349D01*
X89804000Y-77482349D02*
X87400000Y-77482349D01*
X85320000Y-77482349D02*
X82916000Y-77482349D01*
X89778000Y-77522349D02*
X87400000Y-77522349D01*
X85320000Y-77522349D02*
X82942000Y-77522349D01*
X89752000Y-77562349D02*
X87400000Y-77562349D01*
X85320000Y-77562349D02*
X82968000Y-77562349D01*
X89725000Y-77602349D02*
X87400000Y-77602349D01*
X85320000Y-77602349D02*
X82995000Y-77602349D01*
X89698000Y-77642349D02*
X87400000Y-77642349D01*
X85320000Y-77642349D02*
X83022000Y-77642349D01*
X89669000Y-77682349D02*
X87400000Y-77682349D01*
X85320000Y-77682349D02*
X83051000Y-77682349D01*
X89640000Y-77722349D02*
X87400000Y-77722349D01*
X85320000Y-77722349D02*
X83080000Y-77722349D01*
X89610000Y-77762349D02*
X87400000Y-77762349D01*
X85320000Y-77762349D02*
X83110000Y-77762349D01*
X89580000Y-77802349D02*
X87400000Y-77802349D01*
X85320000Y-77802349D02*
X83140000Y-77802349D01*
X89549000Y-77842349D02*
X87400000Y-77842349D01*
X85320000Y-77842349D02*
X83171000Y-77842349D01*
X89516000Y-77882349D02*
X87400000Y-77882349D01*
X85320000Y-77882349D02*
X83204000Y-77882349D01*
X89484000Y-77922349D02*
X87400000Y-77922349D01*
X85320000Y-77922349D02*
X83236000Y-77922349D01*
X89450000Y-77962349D02*
X87400000Y-77962349D01*
X85320000Y-77962349D02*
X83270000Y-77962349D01*
X89415000Y-78002349D02*
X87400000Y-78002349D01*
X85320000Y-78002349D02*
X83305000Y-78002349D01*
X89379000Y-78042349D02*
X87400000Y-78042349D01*
X85320000Y-78042349D02*
X83341000Y-78042349D01*
X89343000Y-78082349D02*
X87400000Y-78082349D01*
X85320000Y-78082349D02*
X83377000Y-78082349D01*
X89305000Y-78122349D02*
X87400000Y-78122349D01*
X85320000Y-78122349D02*
X83415000Y-78122349D01*
X89267000Y-78162349D02*
X87400000Y-78162349D01*
X85320000Y-78162349D02*
X83453000Y-78162349D01*
X89227000Y-78202349D02*
X87400000Y-78202349D01*
X85320000Y-78202349D02*
X83493000Y-78202349D01*
X89186000Y-78242349D02*
X87400000Y-78242349D01*
X85320000Y-78242349D02*
X83534000Y-78242349D01*
X89144000Y-78282349D02*
X87400000Y-78282349D01*
X85320000Y-78282349D02*
X83576000Y-78282349D01*
X89101000Y-78322349D02*
X87400000Y-78322349D01*
X85320000Y-78322349D02*
X83619000Y-78322349D01*
X89057000Y-78362349D02*
X87400000Y-78362349D01*
X85320000Y-78362349D02*
X83663000Y-78362349D01*
X89011000Y-78402349D02*
X87400000Y-78402349D01*
X85320000Y-78402349D02*
X83709000Y-78402349D01*
X88964000Y-78442349D02*
X87400000Y-78442349D01*
X85320000Y-78442349D02*
X83756000Y-78442349D01*
X88916000Y-78482349D02*
X87400000Y-78482349D01*
X85320000Y-78482349D02*
X83804000Y-78482349D01*
X88865000Y-78522349D02*
X87400000Y-78522349D01*
X85320000Y-78522349D02*
X83855000Y-78522349D01*
X88814000Y-78562349D02*
X87400000Y-78562349D01*
X85320000Y-78562349D02*
X83906000Y-78562349D01*
X88760000Y-78602349D02*
X87400000Y-78602349D01*
X85320000Y-78602349D02*
X83960000Y-78602349D01*
X88705000Y-78642349D02*
X87400000Y-78642349D01*
X85320000Y-78642349D02*
X84015000Y-78642349D01*
X88647000Y-78682349D02*
X87400000Y-78682349D01*
X85320000Y-78682349D02*
X84073000Y-78682349D01*
X88588000Y-78722349D02*
X87400000Y-78722349D01*
X85320000Y-78722349D02*
X84132000Y-78722349D01*
X88526000Y-78762349D02*
X87400000Y-78762349D01*
X85320000Y-78762349D02*
X84194000Y-78762349D01*
X88462000Y-78802349D02*
X87400000Y-78802349D01*
X85320000Y-78802349D02*
X84258000Y-78802349D01*
X88394000Y-78842349D02*
X84326000Y-78842349D01*
X88324000Y-78882349D02*
X84396000Y-78882349D01*
X88250000Y-78922349D02*
X84470000Y-78922349D01*
X88173000Y-78962349D02*
X84547000Y-78962349D01*
X88091000Y-79002349D02*
X84629000Y-79002349D01*
X88005000Y-79042349D02*
X84715000Y-79042349D01*
X87912000Y-79082349D02*
X84808000Y-79082349D01*
X87813000Y-79122349D02*
X84907000Y-79122349D01*
X87706000Y-79162349D02*
X85014000Y-79162349D01*
X87589000Y-79202349D02*
X85131000Y-79202349D01*
X87458000Y-79242349D02*
X85262000Y-79242349D01*
X87308000Y-79282349D02*
X85412000Y-79282349D01*
X87128000Y-79322349D02*
X85592000Y-79322349D01*
X86893000Y-79362349D02*
X85827000Y-79362349D01*
X90480000Y-75281349D02*
G75*
G03*
X82240000Y-75281349I-4120000J0D01*
G01*
X82240000Y-75281349D02*
G75*
G03*
X90480000Y-75281349I4120000J0D01*
G01*
%TO.C,J7*%
X46388125Y-32336000D02*
X48388125Y-32336000D01*
X46388125Y-33586000D02*
X46388125Y-32336000D01*
X46778125Y-32726000D02*
X46778125Y-40196000D01*
X46778125Y-40196000D02*
X58898125Y-40196000D01*
X47838125Y-33686000D02*
X50838125Y-33686000D01*
X47838125Y-35036000D02*
X48588125Y-35036000D01*
X47838125Y-39336000D02*
X47838125Y-35036000D01*
X48088125Y-34686000D02*
X47838125Y-33686000D01*
X48588125Y-34686000D02*
X48088125Y-34686000D01*
X48588125Y-35036000D02*
X48588125Y-34686000D01*
X48588125Y-39336000D02*
X47838125Y-39336000D01*
X50088125Y-34686000D02*
X50088125Y-35036000D01*
X50088125Y-35036000D02*
X50838125Y-35036000D01*
X50588125Y-34686000D02*
X50088125Y-34686000D01*
X50838125Y-33686000D02*
X50588125Y-34686000D01*
X50838125Y-35036000D02*
X50838125Y-39336000D01*
X50838125Y-39336000D02*
X50088125Y-39336000D01*
X51338125Y-33686000D02*
X54338125Y-33686000D01*
X51338125Y-35036000D02*
X52088125Y-35036000D01*
X51338125Y-39336000D02*
X51338125Y-35036000D01*
X51588125Y-34686000D02*
X51338125Y-33686000D01*
X52088125Y-34686000D02*
X51588125Y-34686000D01*
X52088125Y-35036000D02*
X52088125Y-34686000D01*
X52088125Y-39336000D02*
X51338125Y-39336000D01*
X53588125Y-34686000D02*
X53588125Y-35036000D01*
X53588125Y-35036000D02*
X54338125Y-35036000D01*
X54088125Y-34686000D02*
X53588125Y-34686000D01*
X54338125Y-33686000D02*
X54088125Y-34686000D01*
X54338125Y-35036000D02*
X54338125Y-39336000D01*
X54338125Y-39336000D02*
X53588125Y-39336000D01*
X54838125Y-33686000D02*
X57838125Y-33686000D01*
X54838125Y-35036000D02*
X55588125Y-35036000D01*
X54838125Y-39336000D02*
X54838125Y-35036000D01*
X55088125Y-34686000D02*
X54838125Y-33686000D01*
X55588125Y-34686000D02*
X55088125Y-34686000D01*
X55588125Y-35036000D02*
X55588125Y-34686000D01*
X55588125Y-39336000D02*
X54838125Y-39336000D01*
X57088125Y-34686000D02*
X57088125Y-35036000D01*
X57088125Y-35036000D02*
X57838125Y-35036000D01*
X57588125Y-34686000D02*
X57088125Y-34686000D01*
X57838125Y-33686000D02*
X57588125Y-34686000D01*
X57838125Y-35036000D02*
X57838125Y-39336000D01*
X57838125Y-39336000D02*
X57088125Y-39336000D01*
X58898125Y-32726000D02*
X46778125Y-32726000D01*
X58898125Y-40196000D02*
X58898125Y-32726000D01*
X50087772Y-39335845D02*
G75*
G03*
X48588125Y-39336000I-749647J-1700155D01*
G01*
X53587772Y-39335845D02*
G75*
G03*
X52088125Y-39336000I-749647J-1700155D01*
G01*
X57087772Y-39335845D02*
G75*
G03*
X55588125Y-39336000I-749647J-1700155D01*
G01*
%TO.C,C15*%
X54617252Y-54710000D02*
X54094748Y-54710000D01*
X54617252Y-53240000D02*
X54094748Y-53240000D01*
%TO.C,L1*%
X41911748Y-52122000D02*
X42434252Y-52122000D01*
X41911748Y-53542000D02*
X42434252Y-53542000D01*
%TO.C,R7*%
X80745064Y-67791000D02*
X80290936Y-67791000D01*
X80745064Y-66321000D02*
X80290936Y-66321000D01*
%TD*%
D15*
%TO.C,J2*%
X64506500Y-71366000D03*
X75936500Y-71366000D03*
%TD*%
M02*
